<?xml version="1.0" encoding="UTF-8" standalone="no"?>
<svg
   xmlns:dc="http://purl.org/dc/elements/1.1/"
   xmlns:cc="http://creativecommons.org/ns#"
   xmlns:rdf="http://www.w3.org/1999/02/22-rdf-syntax-ns#"
   xmlns:svg="http://www.w3.org/2000/svg"
   xmlns="http://www.w3.org/2000/svg"
   viewBox="0 0 978.88 540.47998"
   height="540.47998"
   width="978.88"
   xml:space="preserve"
   id="svg10"
   version="1.1"><metadata
     id="metadata16"><rdf:RDF><cc:Work
         rdf:about=""><dc:format>image/svg+xml</dc:format><dc:type
           rdf:resource="http://purl.org/dc/dcmitype/StillImage" /><dc:title></dc:title></cc:Work></rdf:RDF></metadata><defs
     id="defs14"><clipPath
       id="clipPath26"
       clipPathUnits="userSpaceOnUse"><path
         style="clip-rule:evenodd"
         id="path24"
         d="M 0,6.1035e-5 H 734.16 V 405.36006 H 0 Z" /></clipPath><clipPath
       id="clipPath50"
       clipPathUnits="userSpaceOnUse"><path
         style="clip-rule:evenodd"
         id="path48"
         d="M 1.094e-5,-3.0518e-5 H 734.16001 V 405.35997 H 1.094e-5 Z" /></clipPath><clipPath
       id="clipPath74"
       clipPathUnits="userSpaceOnUse"><path
         style="clip-rule:evenodd"
         id="path72"
         d="M 1.094e-5,-3.0518e-5 H 734.16001 V 405.35997 H 1.094e-5 Z" /></clipPath><clipPath
       id="clipPath86"
       clipPathUnits="userSpaceOnUse"><path
         style="clip-rule:evenodd"
         id="path84"
         d="M 1.094e-5,-3.0518e-5 H 734.16001 V 405.35997 H 1.094e-5 Z" /></clipPath><clipPath
       id="clipPath98"
       clipPathUnits="userSpaceOnUse"><path
         style="clip-rule:evenodd"
         id="path96"
         d="M -1.2207e-4,0 H 734.15988 V 405.36 H -1.2207e-4 Z" /></clipPath><clipPath
       id="clipPath108"
       clipPathUnits="userSpaceOnUse"><path
         style="clip-rule:evenodd"
         id="path106"
         d="M 1.094e-5,-3.0518e-5 H 734.16001 V 405.35997 H 1.094e-5 Z" /></clipPath><clipPath
       id="clipPath120"
       clipPathUnits="userSpaceOnUse"><path
         style="clip-rule:evenodd"
         id="path118"
         d="M 1.094e-5,-3.0518e-5 H 734.16001 V 405.35997 H 1.094e-5 Z" /></clipPath></defs><g
     transform="matrix(1.3333333,0,0,-1.3333333,0,540.48)"
     id="g18"><g
       id="g20"><g
         clip-path="url(#clipPath26)"
         id="g22"><path
           id="path28"
           style="fill:#ffffff;fill-opacity:1;fill-rule:evenodd;stroke:none"
           d="M 0,3.0518e-5 H 734.16 V 405.36003 H 0 Z" /></g></g><path
       id="path30"
       style="fill:#4472c4;fill-opacity:1;fill-rule:evenodd;stroke:none"
       d="M 140.28,219.48 H 310.44 V 310.2 H 140.28 Z" /><path
       id="path32"
       style="fill:none;stroke:#2f5597;stroke-width:2.16000009;stroke-linecap:butt;stroke-linejoin:round;stroke-miterlimit:10;stroke-dasharray:none;stroke-opacity:1"
       d="M 140.28,219.48 H 310.44 V 310.2 H 140.28 Z" /><path
       id="path34"
       style="fill:#ffffff;fill-opacity:1;fill-rule:evenodd;stroke:none"
       d="m 218.21,289.27 c -0.87,0 -1.61,-0.16 -2.23,-0.46 -0.62,-0.31 -1.13,-0.74 -1.53,-1.29 -0.41,-0.56 -0.7,-1.22 -0.9,-1.98 -0.19,-0.76 -0.29,-1.59 -0.29,-2.5 0,-0.86 0.08,-1.68 0.24,-2.44 0.16,-0.76 0.42,-1.43 0.8,-1.99 0.37,-0.57 0.87,-1.02 1.49,-1.36 0.63,-0.33 1.41,-0.5 2.35,-0.5 0.85,0 1.59,0.15 2.21,0.46 0.63,0.3 1.14,0.73 1.55,1.28 0.4,0.55 0.69,1.21 0.88,1.97 0.19,0.76 0.29,1.6 0.29,2.51 0,0.86 -0.08,1.67 -0.24,2.43 -0.16,0.76 -0.43,1.43 -0.79,2 -0.37,0.58 -0.86,1.03 -1.49,1.37 -0.63,0.33 -1.41,0.5 -2.34,0.5 z m -36.2,2.18 c 0.28,0 0.52,-0.01 0.7,-0.03 0.19,-0.02 0.34,-0.05 0.45,-0.11 0.11,-0.05 0.19,-0.11 0.24,-0.17 0.05,-0.07 0.07,-0.14 0.07,-0.24 v -9.21 c 0,-0.93 0.07,-1.67 0.2,-2.22 0.14,-0.56 0.34,-1.03 0.62,-1.43 0.27,-0.39 0.62,-0.69 1.04,-0.91 0.43,-0.22 0.92,-0.33 1.48,-0.33 0.73,0 1.45,0.26 2.17,0.78 0.72,0.51 1.49,1.27 2.29,2.26 v 11.06 c 0,0.1 0.03,0.17 0.07,0.24 0.04,0.06 0.12,0.12 0.23,0.17 0.12,0.06 0.27,0.09 0.45,0.11 0.18,0.02 0.42,0.03 0.71,0.03 0.29,0 0.52,-0.01 0.71,-0.03 0.18,-0.02 0.33,-0.05 0.44,-0.11 0.1,-0.05 0.18,-0.11 0.23,-0.17 0.06,-0.07 0.08,-0.14 0.08,-0.24 v -15.82 c 0,-0.09 -0.02,-0.17 -0.06,-0.24 -0.04,-0.06 -0.11,-0.12 -0.22,-0.16 -0.1,-0.05 -0.24,-0.09 -0.41,-0.11 -0.17,-0.02 -0.38,-0.03 -0.63,-0.03 -0.26,0 -0.48,0.01 -0.65,0.03 -0.17,0.02 -0.31,0.06 -0.41,0.11 -0.1,0.04 -0.17,0.1 -0.2,0.16 -0.04,0.07 -0.05,0.15 -0.05,0.24 v 2.09 c -0.91,-0.99 -1.8,-1.72 -2.68,-2.18 -0.87,-0.45 -1.77,-0.68 -2.67,-0.68 -1.05,0 -1.94,0.17 -2.66,0.53 -0.72,0.35 -1.3,0.82 -1.75,1.43 -0.44,0.6 -0.76,1.3 -0.96,2.11 -0.19,0.8 -0.29,1.78 -0.29,2.92 v 9.6 c 0,0.1 0.02,0.17 0.06,0.24 0.04,0.06 0.12,0.12 0.24,0.17 0.12,0.06 0.27,0.09 0.46,0.11 0.19,0.02 0.42,0.03 0.7,0.03 z m 36.31,0.24 c 1.3,0 2.44,-0.19 3.4,-0.58 0.97,-0.38 1.77,-0.95 2.42,-1.69 0.64,-0.73 1.13,-1.63 1.45,-2.68 0.32,-1.06 0.48,-2.25 0.48,-3.57 0,-1.29 -0.17,-2.48 -0.51,-3.56 -0.34,-1.09 -0.84,-2.02 -1.52,-2.81 -0.67,-0.78 -1.51,-1.39 -2.53,-1.83 -1.01,-0.44 -2.19,-0.66 -3.52,-0.66 -1.3,0 -2.44,0.19 -3.4,0.58 -0.97,0.38 -1.78,0.95 -2.42,1.69 -0.65,0.73 -1.13,1.63 -1.44,2.68 -0.32,1.06 -0.48,2.25 -0.48,3.59 0,1.29 0.17,2.48 0.5,3.56 0.34,1.08 0.84,2.02 1.52,2.8 0.67,0.79 1.51,1.4 2.52,1.83 1.01,0.44 2.18,0.65 3.53,0.65 z m -51,2.67 -3.92,-11.33 h 7.91 l -3.97,11.33 z m 34.41,1.32 c 0.29,0 0.53,-0.01 0.72,-0.03 0.19,-0.03 0.33,-0.06 0.44,-0.12 0.1,-0.05 0.18,-0.11 0.23,-0.18 0.04,-0.07 0.07,-0.15 0.07,-0.23 v -3.76 h 4.06 c 0.09,0 0.17,-0.02 0.24,-0.06 0.07,-0.04 0.13,-0.11 0.19,-0.21 0.05,-0.1 0.09,-0.23 0.11,-0.38 0.03,-0.15 0.04,-0.34 0.04,-0.56 0,-0.43 -0.06,-0.73 -0.16,-0.92 -0.11,-0.19 -0.25,-0.28 -0.42,-0.28 h -4.06 v -8.82 c 0,-1.09 0.16,-1.92 0.48,-2.47 0.32,-0.56 0.9,-0.84 1.73,-0.84 0.27,0 0.51,0.03 0.72,0.08 0.21,0.05 0.4,0.11 0.56,0.17 0.17,0.06 0.31,0.11 0.43,0.16 0.11,0.06 0.22,0.08 0.31,0.08 0.06,0 0.12,-0.01 0.17,-0.04 0.05,-0.03 0.09,-0.09 0.12,-0.17 0.03,-0.08 0.06,-0.19 0.08,-0.33 0.03,-0.14 0.04,-0.32 0.04,-0.53 0,-0.34 -0.03,-0.61 -0.07,-0.81 -0.05,-0.2 -0.12,-0.34 -0.21,-0.44 -0.1,-0.09 -0.24,-0.18 -0.43,-0.26 -0.18,-0.08 -0.4,-0.15 -0.64,-0.2 -0.24,-0.06 -0.49,-0.1 -0.76,-0.13 -0.27,-0.04 -0.54,-0.06 -0.81,-0.06 -0.82,0 -1.52,0.11 -2.11,0.33 -0.59,0.21 -1.07,0.54 -1.44,0.98 -0.38,0.44 -0.65,1 -0.82,1.67 -0.17,0.68 -0.25,1.47 -0.25,2.38 v 9.25 h -2.22 c -0.17,0 -0.32,0.09 -0.42,0.28 -0.11,0.19 -0.16,0.49 -0.16,0.92 0,0.22 0.02,0.41 0.04,0.56 0.03,0.15 0.07,0.28 0.12,0.38 0.05,0.1 0.11,0.17 0.18,0.21 0.08,0.04 0.16,0.06 0.26,0.06 h 2.2 v 3.76 c 0,0.08 0.02,0.16 0.06,0.23 0.04,0.07 0.11,0.13 0.23,0.18 0.11,0.06 0.26,0.09 0.44,0.12 0.19,0.02 0.43,0.03 0.71,0.03 z m 87.11,1.76 c 0.27,0 0.51,-0.01 0.71,-0.03 0.19,-0.03 0.35,-0.07 0.46,-0.12 0.11,-0.05 0.19,-0.11 0.24,-0.18 0.05,-0.07 0.08,-0.15 0.08,-0.23 v -20.99 c 0,-0.23 -0.04,-0.43 -0.12,-0.6 -0.08,-0.16 -0.18,-0.3 -0.31,-0.4 -0.13,-0.11 -0.27,-0.18 -0.43,-0.23 -0.16,-0.05 -0.31,-0.07 -0.47,-0.07 h -1 c -0.32,0 -0.59,0.03 -0.83,0.1 -0.23,0.06 -0.46,0.18 -0.67,0.35 -0.21,0.17 -0.43,0.4 -0.64,0.69 -0.21,0.29 -0.43,0.67 -0.67,1.13 l -6.94,12.93 c -0.36,0.67 -0.73,1.37 -1.1,2.1 -0.37,0.74 -0.71,1.45 -1.03,2.14 h -0.03 c 0.02,-0.84 0.04,-1.7 0.05,-2.58 0.01,-0.88 0.02,-1.76 0.02,-2.62 V 275.1 c 0,-0.08 -0.03,-0.16 -0.08,-0.24 -0.05,-0.07 -0.13,-0.13 -0.25,-0.17 -0.11,-0.05 -0.27,-0.08 -0.46,-0.11 -0.19,-0.03 -0.44,-0.04 -0.73,-0.04 -0.3,0 -0.54,0.01 -0.74,0.04 -0.19,0.03 -0.34,0.06 -0.45,0.11 -0.11,0.04 -0.19,0.1 -0.24,0.17 -0.05,0.08 -0.08,0.16 -0.08,0.24 v 20.99 c 0,0.47 0.14,0.8 0.4,1 0.27,0.2 0.56,0.3 0.87,0.3 h 1.49 c 0.35,0 0.65,-0.03 0.88,-0.09 0.24,-0.06 0.45,-0.16 0.64,-0.29 0.18,-0.13 0.37,-0.32 0.54,-0.56 0.18,-0.24 0.36,-0.54 0.55,-0.91 l 5.34,-9.98 c 0.33,-0.61 0.64,-1.21 0.95,-1.79 0.3,-0.58 0.6,-1.15 0.88,-1.71 0.29,-0.56 0.57,-1.12 0.84,-1.66 0.28,-0.55 0.56,-1.09 0.83,-1.65 h 0.01 c -0.02,0.93 -0.03,1.89 -0.04,2.9 0,1 -0.01,1.96 -0.01,2.89 v 12.34 c 0,0.08 0.03,0.16 0.08,0.23 0.05,0.07 0.13,0.13 0.25,0.18 0.11,0.05 0.27,0.09 0.46,0.12 0.19,0.02 0.44,0.03 0.75,0.03 z m -23.28,0 c 0.27,0 0.51,-0.01 0.71,-0.03 0.19,-0.03 0.35,-0.07 0.46,-0.12 0.11,-0.05 0.19,-0.11 0.24,-0.18 0.05,-0.07 0.08,-0.15 0.08,-0.23 v -20.99 c 0,-0.23 -0.04,-0.43 -0.12,-0.6 -0.08,-0.16 -0.18,-0.3 -0.31,-0.4 -0.13,-0.11 -0.27,-0.18 -0.43,-0.23 -0.16,-0.05 -0.31,-0.07 -0.47,-0.07 h -1 c -0.32,0 -0.59,0.03 -0.83,0.1 -0.23,0.06 -0.46,0.18 -0.67,0.35 -0.21,0.17 -0.43,0.4 -0.64,0.69 -0.21,0.29 -0.43,0.67 -0.67,1.13 l -6.94,12.93 c -0.36,0.67 -0.73,1.37 -1.1,2.1 -0.37,0.74 -0.71,1.45 -1.03,2.14 h -0.03 c 0.02,-0.84 0.04,-1.7 0.05,-2.58 0.01,-0.88 0.02,-1.76 0.02,-2.62 V 275.1 c 0,-0.08 -0.03,-0.16 -0.08,-0.24 -0.05,-0.07 -0.13,-0.13 -0.25,-0.17 -0.11,-0.05 -0.27,-0.08 -0.46,-0.11 -0.19,-0.03 -0.44,-0.04 -0.73,-0.04 -0.3,0 -0.54,0.01 -0.74,0.04 -0.19,0.03 -0.34,0.06 -0.45,0.11 -0.11,0.04 -0.19,0.1 -0.24,0.17 -0.05,0.08 -0.08,0.16 -0.08,0.24 v 20.99 c 0,0.47 0.14,0.8 0.4,1 0.27,0.2 0.56,0.3 0.87,0.3 h 1.49 c 0.35,0 0.65,-0.03 0.88,-0.09 0.24,-0.06 0.45,-0.16 0.64,-0.29 0.18,-0.13 0.37,-0.32 0.54,-0.56 0.18,-0.24 0.36,-0.54 0.55,-0.91 l 5.34,-9.98 c 0.33,-0.61 0.64,-1.21 0.95,-1.79 0.3,-0.58 0.6,-1.15 0.88,-1.71 0.29,-0.56 0.57,-1.12 0.84,-1.66 0.28,-0.55 0.56,-1.09 0.83,-1.65 h 0.01 c -0.02,0.93 -0.03,1.89 -0.04,2.9 0,1 -0.01,1.96 -0.01,2.89 v 12.34 c 0,0.08 0.03,0.16 0.08,0.23 0.05,0.07 0.13,0.13 0.25,0.18 0.11,0.05 0.27,0.09 0.46,0.12 0.19,0.02 0.44,0.03 0.75,0.03 z m -98.14,0.05 c 0.38,0 0.69,-0.01 0.94,-0.02 0.24,-0.02 0.44,-0.05 0.59,-0.1 0.16,-0.05 0.27,-0.11 0.36,-0.2 0.08,-0.09 0.14,-0.2 0.19,-0.33 l 7.63,-21.13 c 0.09,-0.25 0.14,-0.46 0.15,-0.62 0,-0.16 -0.04,-0.28 -0.14,-0.36 -0.09,-0.08 -0.24,-0.14 -0.46,-0.16 -0.22,-0.02 -0.51,-0.03 -0.87,-0.03 -0.36,0 -0.65,0 -0.87,0.02 -0.22,0.02 -0.38,0.05 -0.49,0.09 -0.11,0.04 -0.2,0.1 -0.25,0.17 -0.05,0.07 -0.1,0.16 -0.15,0.26 l -1.95,5.54 h -9.46 l -1.86,-5.47 c -0.04,-0.1 -0.08,-0.19 -0.14,-0.27 -0.06,-0.08 -0.14,-0.14 -0.26,-0.19 -0.11,-0.06 -0.27,-0.1 -0.47,-0.12 -0.21,-0.02 -0.47,-0.03 -0.8,-0.03 -0.34,0 -0.62,0.01 -0.84,0.04 -0.21,0.03 -0.36,0.09 -0.45,0.17 -0.09,0.08 -0.13,0.2 -0.13,0.36 0.01,0.16 0.06,0.36 0.15,0.62 l 7.63,21.13 c 0.05,0.13 0.11,0.23 0.19,0.32 0.07,0.08 0.19,0.14 0.33,0.19 0.15,0.05 0.34,0.08 0.56,0.1 0.23,0.01 0.52,0.02 0.87,0.02 z m 71.92,0.18 c 0.65,0 1.29,-0.06 1.91,-0.19 0.62,-0.12 1.2,-0.27 1.73,-0.46 0.52,-0.19 0.99,-0.41 1.4,-0.65 0.41,-0.25 0.7,-0.45 0.86,-0.61 0.15,-0.16 0.26,-0.28 0.3,-0.36 0.05,-0.08 0.09,-0.18 0.12,-0.29 0.03,-0.11 0.05,-0.24 0.07,-0.39 0.01,-0.16 0.02,-0.34 0.02,-0.55 0,-0.23 -0.01,-0.43 -0.03,-0.6 -0.03,-0.16 -0.06,-0.3 -0.11,-0.41 -0.04,-0.11 -0.1,-0.19 -0.17,-0.25 -0.06,-0.05 -0.14,-0.07 -0.23,-0.07 -0.17,0 -0.4,0.11 -0.69,0.34 -0.3,0.23 -0.68,0.48 -1.14,0.75 -0.47,0.28 -1.03,0.53 -1.7,0.76 -0.67,0.23 -1.46,0.34 -2.39,0.34 -1.02,0 -1.94,-0.2 -2.77,-0.6 -0.83,-0.41 -1.54,-1 -2.13,-1.79 -0.59,-0.78 -1.04,-1.74 -1.37,-2.87 -0.32,-1.13 -0.48,-2.43 -0.48,-3.88 0,-1.44 0.15,-2.71 0.46,-3.82 0.32,-1.11 0.76,-2.03 1.35,-2.78 0.58,-0.74 1.3,-1.31 2.14,-1.69 0.85,-0.38 1.81,-0.57 2.88,-0.57 0.91,0 1.7,0.11 2.38,0.34 0.68,0.22 1.26,0.47 1.73,0.74 0.48,0.28 0.87,0.53 1.18,0.75 0.3,0.22 0.55,0.33 0.72,0.33 0.08,0 0.16,-0.01 0.21,-0.05 0.06,-0.03 0.11,-0.1 0.15,-0.2 0.03,-0.1 0.06,-0.24 0.08,-0.41 0.01,-0.18 0.02,-0.4 0.02,-0.67 0,-0.19 0,-0.35 -0.02,-0.49 -0.01,-0.14 -0.03,-0.27 -0.06,-0.37 -0.03,-0.11 -0.06,-0.2 -0.11,-0.28 -0.05,-0.09 -0.13,-0.19 -0.25,-0.3 -0.11,-0.12 -0.36,-0.3 -0.74,-0.54 -0.37,-0.24 -0.84,-0.47 -1.39,-0.7 -0.56,-0.23 -1.2,-0.42 -1.92,-0.58 -0.72,-0.16 -1.51,-0.24 -2.36,-0.24 -1.48,0 -2.81,0.25 -4,0.74 -1.19,0.49 -2.21,1.22 -3.04,2.18 -0.84,0.96 -1.49,2.15 -1.94,3.56 -0.45,1.41 -0.67,3.04 -0.67,4.88 0,1.88 0.24,3.56 0.73,5.04 0.48,1.48 1.16,2.73 2.04,3.75 0.88,1.03 1.93,1.81 3.16,2.35 1.22,0.54 2.58,0.81 4.07,0.81 z" /><path
       id="path36"
       style="fill:none;stroke:#ffffff;stroke-width:0.72000003;stroke-linecap:butt;stroke-linejoin:round;stroke-miterlimit:10;stroke-dasharray:none;stroke-opacity:1"
       d="m 218.21,289.27 c -0.87,0 -1.61,-0.16 -2.23,-0.46 -0.62,-0.31 -1.13,-0.74 -1.53,-1.29 -0.41,-0.56 -0.7,-1.22 -0.9,-1.98 -0.19,-0.76 -0.29,-1.59 -0.29,-2.5 0,-0.86 0.08,-1.68 0.24,-2.44 0.16,-0.76 0.42,-1.43 0.8,-1.99 0.37,-0.57 0.87,-1.02 1.49,-1.36 0.63,-0.33 1.41,-0.5 2.35,-0.5 0.85,0 1.59,0.15 2.21,0.46 0.63,0.3 1.14,0.73 1.55,1.28 0.4,0.55 0.69,1.21 0.88,1.97 0.19,0.76 0.29,1.6 0.29,2.51 0,0.86 -0.08,1.67 -0.24,2.43 -0.16,0.76 -0.43,1.43 -0.79,2 -0.37,0.58 -0.86,1.03 -1.49,1.37 -0.63,0.33 -1.41,0.5 -2.34,0.5 z m -36.2,2.18 c 0.28,0 0.52,-0.01 0.7,-0.03 0.19,-0.02 0.34,-0.05 0.45,-0.11 0.11,-0.05 0.19,-0.11 0.24,-0.17 0.05,-0.07 0.07,-0.14 0.07,-0.24 v -9.21 c 0,-0.93 0.07,-1.67 0.2,-2.22 0.14,-0.56 0.34,-1.03 0.62,-1.43 0.27,-0.39 0.62,-0.69 1.04,-0.91 0.43,-0.22 0.92,-0.33 1.48,-0.33 0.73,0 1.45,0.26 2.17,0.78 0.72,0.51 1.49,1.27 2.29,2.26 v 11.06 c 0,0.1 0.03,0.17 0.07,0.24 0.04,0.06 0.12,0.12 0.23,0.17 0.12,0.06 0.27,0.09 0.45,0.11 0.18,0.02 0.42,0.03 0.71,0.03 0.29,0 0.52,-0.01 0.71,-0.03 0.18,-0.02 0.33,-0.05 0.44,-0.11 0.1,-0.05 0.18,-0.11 0.23,-0.17 0.06,-0.07 0.08,-0.14 0.08,-0.24 v -15.82 c 0,-0.09 -0.02,-0.17 -0.06,-0.24 -0.04,-0.06 -0.11,-0.12 -0.22,-0.16 -0.1,-0.05 -0.24,-0.09 -0.41,-0.11 -0.17,-0.02 -0.38,-0.03 -0.63,-0.03 -0.26,0 -0.48,0.01 -0.65,0.03 -0.17,0.02 -0.31,0.06 -0.41,0.11 -0.1,0.04 -0.17,0.1 -0.2,0.16 -0.04,0.07 -0.05,0.15 -0.05,0.24 v 2.09 c -0.91,-0.99 -1.8,-1.72 -2.68,-2.18 -0.87,-0.45 -1.77,-0.68 -2.67,-0.68 -1.05,0 -1.94,0.17 -2.66,0.53 -0.72,0.35 -1.3,0.82 -1.75,1.43 -0.44,0.6 -0.76,1.3 -0.96,2.11 -0.19,0.8 -0.29,1.78 -0.29,2.92 v 9.6 c 0,0.1 0.02,0.17 0.06,0.24 0.04,0.06 0.12,0.12 0.24,0.17 0.12,0.06 0.27,0.09 0.46,0.11 0.19,0.02 0.42,0.03 0.7,0.03 z m 36.31,0.24 c 1.3,0 2.44,-0.19 3.4,-0.58 0.97,-0.38 1.77,-0.95 2.42,-1.69 0.64,-0.73 1.13,-1.63 1.45,-2.68 0.32,-1.06 0.48,-2.25 0.48,-3.57 0,-1.29 -0.17,-2.48 -0.51,-3.56 -0.34,-1.09 -0.84,-2.02 -1.52,-2.81 -0.67,-0.78 -1.51,-1.39 -2.53,-1.83 -1.01,-0.44 -2.19,-0.66 -3.52,-0.66 -1.3,0 -2.44,0.19 -3.4,0.58 -0.97,0.38 -1.78,0.95 -2.42,1.69 -0.65,0.73 -1.13,1.63 -1.44,2.68 -0.32,1.06 -0.48,2.25 -0.48,3.59 0,1.29 0.17,2.48 0.5,3.56 0.34,1.08 0.84,2.02 1.52,2.8 0.67,0.79 1.51,1.4 2.52,1.83 1.01,0.44 2.18,0.65 3.53,0.65 z m -51,2.67 -3.92,-11.33 h 7.91 l -3.97,11.33 z m 34.41,1.32 c 0.29,0 0.53,-0.01 0.72,-0.03 0.19,-0.03 0.33,-0.06 0.44,-0.12 0.1,-0.05 0.18,-0.11 0.23,-0.18 0.04,-0.07 0.07,-0.15 0.07,-0.23 v -3.76 h 4.06 c 0.09,0 0.17,-0.02 0.24,-0.06 0.07,-0.04 0.13,-0.11 0.19,-0.21 0.05,-0.1 0.09,-0.23 0.11,-0.38 0.03,-0.15 0.04,-0.34 0.04,-0.56 0,-0.43 -0.06,-0.73 -0.16,-0.92 -0.11,-0.19 -0.25,-0.28 -0.42,-0.28 h -4.06 v -8.82 c 0,-1.09 0.16,-1.92 0.48,-2.47 0.32,-0.56 0.9,-0.84 1.73,-0.84 0.27,0 0.51,0.03 0.72,0.08 0.21,0.05 0.4,0.11 0.56,0.17 0.17,0.06 0.31,0.11 0.43,0.16 0.11,0.06 0.22,0.08 0.31,0.08 0.06,0 0.12,-0.01 0.17,-0.04 0.05,-0.03 0.09,-0.09 0.12,-0.17 0.03,-0.08 0.06,-0.19 0.08,-0.33 0.03,-0.14 0.04,-0.32 0.04,-0.53 0,-0.34 -0.03,-0.61 -0.07,-0.81 -0.05,-0.2 -0.12,-0.34 -0.21,-0.44 -0.1,-0.09 -0.24,-0.18 -0.43,-0.26 -0.18,-0.08 -0.4,-0.15 -0.64,-0.2 -0.24,-0.06 -0.49,-0.1 -0.76,-0.13 -0.27,-0.04 -0.54,-0.06 -0.81,-0.06 -0.82,0 -1.52,0.11 -2.11,0.33 -0.59,0.21 -1.07,0.54 -1.44,0.98 -0.38,0.44 -0.65,1 -0.82,1.67 -0.17,0.68 -0.25,1.47 -0.25,2.38 v 9.25 h -2.22 c -0.17,0 -0.32,0.09 -0.42,0.28 -0.11,0.19 -0.16,0.49 -0.16,0.92 0,0.22 0.02,0.41 0.04,0.56 0.03,0.15 0.07,0.28 0.12,0.38 0.05,0.1 0.11,0.17 0.18,0.21 0.08,0.04 0.16,0.06 0.26,0.06 h 2.2 v 3.76 c 0,0.08 0.02,0.16 0.06,0.23 0.04,0.07 0.11,0.13 0.23,0.18 0.11,0.06 0.26,0.09 0.44,0.12 0.19,0.02 0.43,0.03 0.71,0.03 z m 87.11,1.76 c 0.27,0 0.51,-0.01 0.71,-0.03 0.19,-0.03 0.35,-0.07 0.46,-0.12 0.11,-0.05 0.19,-0.11 0.24,-0.18 0.05,-0.07 0.08,-0.15 0.08,-0.23 v -20.99 c 0,-0.23 -0.04,-0.43 -0.12,-0.6 -0.08,-0.16 -0.18,-0.3 -0.31,-0.4 -0.13,-0.11 -0.27,-0.18 -0.43,-0.23 -0.16,-0.05 -0.31,-0.07 -0.47,-0.07 h -1 c -0.32,0 -0.59,0.03 -0.83,0.1 -0.23,0.06 -0.46,0.18 -0.67,0.35 -0.21,0.17 -0.43,0.4 -0.64,0.69 -0.21,0.29 -0.43,0.67 -0.67,1.13 l -6.94,12.93 c -0.36,0.67 -0.73,1.37 -1.1,2.1 -0.37,0.74 -0.71,1.45 -1.03,2.14 h -0.03 c 0.02,-0.84 0.04,-1.7 0.05,-2.58 0.01,-0.88 0.02,-1.76 0.02,-2.62 V 275.1 c 0,-0.08 -0.03,-0.16 -0.08,-0.24 -0.05,-0.07 -0.13,-0.13 -0.25,-0.17 -0.11,-0.05 -0.27,-0.08 -0.46,-0.11 -0.19,-0.03 -0.44,-0.04 -0.73,-0.04 -0.3,0 -0.54,0.01 -0.74,0.04 -0.19,0.03 -0.34,0.06 -0.45,0.11 -0.11,0.04 -0.19,0.1 -0.24,0.17 -0.05,0.08 -0.08,0.16 -0.08,0.24 v 20.99 c 0,0.47 0.14,0.8 0.4,1 0.27,0.2 0.56,0.3 0.87,0.3 h 1.49 c 0.35,0 0.65,-0.03 0.88,-0.09 0.24,-0.06 0.45,-0.16 0.64,-0.29 0.18,-0.13 0.37,-0.32 0.54,-0.56 0.18,-0.24 0.36,-0.54 0.55,-0.91 l 5.34,-9.98 c 0.33,-0.61 0.64,-1.21 0.95,-1.79 0.3,-0.58 0.6,-1.15 0.88,-1.71 0.29,-0.56 0.57,-1.12 0.84,-1.66 0.28,-0.55 0.56,-1.09 0.83,-1.65 h 0.01 c -0.02,0.93 -0.03,1.89 -0.04,2.9 0,1 -0.01,1.96 -0.01,2.89 v 12.34 c 0,0.08 0.03,0.16 0.08,0.23 0.05,0.07 0.13,0.13 0.25,0.18 0.11,0.05 0.27,0.09 0.46,0.12 0.19,0.02 0.44,0.03 0.75,0.03 z m -23.28,0 c 0.27,0 0.51,-0.01 0.71,-0.03 0.19,-0.03 0.35,-0.07 0.46,-0.12 0.11,-0.05 0.19,-0.11 0.24,-0.18 0.05,-0.07 0.08,-0.15 0.08,-0.23 v -20.99 c 0,-0.23 -0.04,-0.43 -0.12,-0.6 -0.08,-0.16 -0.18,-0.3 -0.31,-0.4 -0.13,-0.11 -0.27,-0.18 -0.43,-0.23 -0.16,-0.05 -0.31,-0.07 -0.47,-0.07 h -1 c -0.32,0 -0.59,0.03 -0.83,0.1 -0.23,0.06 -0.46,0.18 -0.67,0.35 -0.21,0.17 -0.43,0.4 -0.64,0.69 -0.21,0.29 -0.43,0.67 -0.67,1.13 l -6.94,12.93 c -0.36,0.67 -0.73,1.37 -1.1,2.1 -0.37,0.74 -0.71,1.45 -1.03,2.14 h -0.03 c 0.02,-0.84 0.04,-1.7 0.05,-2.58 0.01,-0.88 0.02,-1.76 0.02,-2.62 V 275.1 c 0,-0.08 -0.03,-0.16 -0.08,-0.24 -0.05,-0.07 -0.13,-0.13 -0.25,-0.17 -0.11,-0.05 -0.27,-0.08 -0.46,-0.11 -0.19,-0.03 -0.44,-0.04 -0.73,-0.04 -0.3,0 -0.54,0.01 -0.74,0.04 -0.19,0.03 -0.34,0.06 -0.45,0.11 -0.11,0.04 -0.19,0.1 -0.24,0.17 -0.05,0.08 -0.08,0.16 -0.08,0.24 v 20.99 c 0,0.47 0.14,0.8 0.4,1 0.27,0.2 0.56,0.3 0.87,0.3 h 1.49 c 0.35,0 0.65,-0.03 0.88,-0.09 0.24,-0.06 0.45,-0.16 0.64,-0.29 0.18,-0.13 0.37,-0.32 0.54,-0.56 0.18,-0.24 0.36,-0.54 0.55,-0.91 l 5.34,-9.98 c 0.33,-0.61 0.64,-1.21 0.95,-1.79 0.3,-0.58 0.6,-1.15 0.88,-1.71 0.29,-0.56 0.57,-1.12 0.84,-1.66 0.28,-0.55 0.56,-1.09 0.83,-1.65 h 0.01 c -0.02,0.93 -0.03,1.89 -0.04,2.9 0,1 -0.01,1.96 -0.01,2.89 v 12.34 c 0,0.08 0.03,0.16 0.08,0.23 0.05,0.07 0.13,0.13 0.25,0.18 0.11,0.05 0.27,0.09 0.46,0.12 0.19,0.02 0.44,0.03 0.75,0.03 z m -98.14,0.05 c 0.38,0 0.69,-0.01 0.94,-0.02 0.24,-0.02 0.44,-0.05 0.59,-0.1 0.16,-0.05 0.27,-0.11 0.36,-0.2 0.08,-0.09 0.14,-0.2 0.19,-0.33 l 7.63,-21.13 c 0.09,-0.25 0.14,-0.46 0.15,-0.62 0,-0.16 -0.04,-0.28 -0.14,-0.36 -0.09,-0.08 -0.24,-0.14 -0.46,-0.16 -0.22,-0.02 -0.51,-0.03 -0.87,-0.03 -0.36,0 -0.65,0 -0.87,0.02 -0.22,0.02 -0.38,0.05 -0.49,0.09 -0.11,0.04 -0.2,0.1 -0.25,0.17 -0.05,0.07 -0.1,0.16 -0.15,0.26 l -1.95,5.54 h -9.46 l -1.86,-5.47 c -0.04,-0.1 -0.08,-0.19 -0.14,-0.27 -0.06,-0.08 -0.14,-0.14 -0.26,-0.19 -0.11,-0.06 -0.27,-0.1 -0.47,-0.12 -0.21,-0.02 -0.47,-0.03 -0.8,-0.03 -0.34,0 -0.62,0.01 -0.84,0.04 -0.21,0.03 -0.36,0.09 -0.45,0.17 -0.09,0.08 -0.13,0.2 -0.13,0.36 0.01,0.16 0.06,0.36 0.15,0.62 l 7.63,21.13 c 0.05,0.13 0.11,0.23 0.19,0.32 0.07,0.08 0.19,0.14 0.33,0.19 0.15,0.05 0.34,0.08 0.56,0.1 0.23,0.01 0.52,0.02 0.87,0.02 z m 71.92,0.18 c 0.65,0 1.29,-0.06 1.91,-0.19 0.62,-0.12 1.2,-0.27 1.73,-0.46 0.52,-0.19 0.99,-0.41 1.4,-0.65 0.41,-0.25 0.7,-0.45 0.86,-0.61 0.15,-0.16 0.26,-0.28 0.3,-0.36 0.05,-0.08 0.09,-0.18 0.12,-0.29 0.03,-0.11 0.05,-0.24 0.07,-0.39 0.01,-0.16 0.02,-0.34 0.02,-0.55 0,-0.23 -0.01,-0.43 -0.03,-0.6 -0.03,-0.16 -0.06,-0.3 -0.11,-0.41 -0.04,-0.11 -0.1,-0.19 -0.17,-0.25 -0.06,-0.05 -0.14,-0.07 -0.23,-0.07 -0.17,0 -0.4,0.11 -0.69,0.34 -0.3,0.23 -0.68,0.48 -1.14,0.75 -0.47,0.28 -1.03,0.53 -1.7,0.76 -0.67,0.23 -1.46,0.34 -2.39,0.34 -1.02,0 -1.94,-0.2 -2.77,-0.6 -0.83,-0.41 -1.54,-1 -2.13,-1.79 -0.59,-0.78 -1.04,-1.74 -1.37,-2.87 -0.32,-1.13 -0.48,-2.43 -0.48,-3.88 0,-1.44 0.15,-2.71 0.46,-3.82 0.32,-1.11 0.76,-2.03 1.35,-2.78 0.58,-0.74 1.3,-1.31 2.14,-1.69 0.85,-0.38 1.81,-0.57 2.88,-0.57 0.91,0 1.7,0.11 2.38,0.34 0.68,0.22 1.26,0.47 1.73,0.74 0.48,0.28 0.87,0.53 1.18,0.75 0.3,0.22 0.55,0.33 0.72,0.33 0.08,0 0.16,-0.01 0.21,-0.05 0.06,-0.03 0.11,-0.1 0.15,-0.2 0.03,-0.1 0.06,-0.24 0.08,-0.41 0.01,-0.18 0.02,-0.4 0.02,-0.67 0,-0.19 0,-0.35 -0.02,-0.49 -0.01,-0.14 -0.03,-0.27 -0.06,-0.37 -0.03,-0.11 -0.06,-0.2 -0.11,-0.28 -0.05,-0.09 -0.13,-0.19 -0.25,-0.3 -0.11,-0.12 -0.36,-0.3 -0.74,-0.54 -0.37,-0.24 -0.84,-0.47 -1.39,-0.7 -0.56,-0.23 -1.2,-0.42 -1.92,-0.58 -0.72,-0.16 -1.51,-0.24 -2.36,-0.24 -1.48,0 -2.81,0.25 -4,0.74 -1.19,0.49 -2.21,1.22 -3.04,2.18 -0.84,0.96 -1.49,2.15 -1.94,3.56 -0.45,1.41 -0.67,3.04 -0.67,4.88 0,1.88 0.24,3.56 0.73,5.04 0.48,1.48 1.16,2.73 2.04,3.75 0.88,1.03 1.93,1.81 3.16,2.35 1.22,0.54 2.58,0.81 4.07,0.81 z" /><path
       id="path38"
       style="fill:#ffffff;fill-opacity:1;fill-rule:evenodd;stroke:none"
       d="m 235.42,246 c -0.73,0 -1.36,-0.18 -1.88,-0.53 -0.51,-0.35 -0.93,-0.82 -1.25,-1.39 -0.33,-0.57 -0.56,-1.22 -0.71,-1.95 -0.14,-0.73 -0.22,-1.47 -0.22,-2.22 0,-0.79 0.07,-1.57 0.19,-2.33 0.12,-0.77 0.34,-1.44 0.64,-2.03 0.3,-0.6 0.71,-1.07 1.21,-1.43 0.51,-0.36 1.14,-0.53 1.9,-0.53 0.39,0 0.76,0.05 1.12,0.15 0.36,0.11 0.72,0.29 1.1,0.53 0.37,0.25 0.76,0.57 1.17,0.96 0.41,0.39 0.85,0.88 1.3,1.45 v 6.33 c -0.78,0.97 -1.54,1.71 -2.27,2.22 -0.73,0.51 -1.5,0.77 -2.3,0.77 z m -18.17,0.07 c -0.87,0 -1.61,-0.16 -2.23,-0.46 -0.62,-0.31 -1.13,-0.74 -1.53,-1.29 -0.41,-0.56 -0.7,-1.22 -0.9,-1.98 -0.19,-0.76 -0.29,-1.59 -0.29,-2.5 0,-0.86 0.08,-1.68 0.24,-2.44 0.16,-0.76 0.42,-1.43 0.8,-1.99 0.37,-0.57 0.87,-1.02 1.49,-1.36 0.63,-0.33 1.41,-0.5 2.35,-0.5 0.85,0 1.59,0.15 2.21,0.46 0.63,0.3 1.14,0.73 1.55,1.28 0.4,0.55 0.69,1.21 0.88,1.97 0.19,0.76 0.29,1.6 0.29,2.51 0,0.86 -0.08,1.67 -0.24,2.43 -0.16,0.76 -0.43,1.43 -0.79,2 -0.37,0.58 -0.86,1.03 -1.49,1.37 -0.63,0.33 -1.41,0.5 -2.34,0.5 z m 37.46,0.15 c -0.72,0 -1.35,-0.13 -1.89,-0.4 -0.54,-0.27 -1,-0.63 -1.36,-1.07 -0.37,-0.45 -0.65,-0.97 -0.85,-1.56 -0.2,-0.59 -0.32,-1.21 -0.34,-1.85 h 8.63 c 0.04,1.52 -0.3,2.72 -1.01,3.58 -0.72,0.87 -1.78,1.3 -3.18,1.3 z m 0.15,2.27 c 1.24,0 2.3,-0.2 3.17,-0.6 0.88,-0.39 1.59,-0.93 2.16,-1.6 0.56,-0.68 0.97,-1.47 1.23,-2.38 0.27,-0.9 0.4,-1.87 0.4,-2.91 v -0.52 c 0,-0.46 -0.11,-0.79 -0.34,-0.98 -0.23,-0.19 -0.5,-0.29 -0.79,-0.29 h -10.42 c 0,-0.88 0.09,-1.67 0.27,-2.37 0.17,-0.7 0.47,-1.31 0.88,-1.81 0.41,-0.51 0.95,-0.89 1.61,-1.16 0.66,-0.27 1.46,-0.41 2.42,-0.41 0.75,0 1.42,0.06 2.01,0.19 0.59,0.12 1.1,0.26 1.53,0.41 0.43,0.15 0.78,0.29 1.06,0.41 0.28,0.13 0.48,0.19 0.63,0.19 0.08,0 0.15,-0.02 0.22,-0.06 0.06,-0.04 0.11,-0.11 0.15,-0.19 0.03,-0.08 0.06,-0.19 0.08,-0.34 0.01,-0.15 0.02,-0.33 0.02,-0.54 0,-0.15 0,-0.28 -0.02,-0.39 -0.01,-0.11 -0.02,-0.21 -0.04,-0.3 -0.02,-0.09 -0.05,-0.17 -0.09,-0.24 -0.04,-0.07 -0.09,-0.14 -0.16,-0.2 -0.06,-0.06 -0.25,-0.17 -0.57,-0.32 -0.31,-0.14 -0.72,-0.29 -1.23,-0.43 -0.5,-0.14 -1.08,-0.26 -1.75,-0.38 -0.66,-0.11 -1.36,-0.16 -2.11,-0.16 -1.31,0 -2.44,0.18 -3.42,0.54 -0.98,0.37 -1.81,0.9 -2.47,1.62 -0.67,0.71 -1.17,1.61 -1.51,2.69 -0.34,1.08 -0.51,2.33 -0.51,3.76 0,1.36 0.17,2.58 0.52,3.67 0.35,1.08 0.86,2 1.52,2.76 0.67,0.75 1.47,1.33 2.4,1.74 0.94,0.4 1.99,0.6 3.15,0.6 z m -37.5,0 c 1.3,0 2.44,-0.19 3.4,-0.58 0.97,-0.38 1.77,-0.95 2.42,-1.69 0.64,-0.73 1.13,-1.63 1.45,-2.68 0.32,-1.06 0.48,-2.25 0.48,-3.57 0,-1.29 -0.17,-2.48 -0.51,-3.56 -0.34,-1.09 -0.84,-2.02 -1.52,-2.81 -0.67,-0.78 -1.51,-1.39 -2.53,-1.83 -1.01,-0.44 -2.19,-0.66 -3.52,-0.66 -1.3,0 -2.44,0.19 -3.4,0.58 -0.97,0.38 -1.78,0.95 -2.42,1.69 -0.65,0.73 -1.13,1.63 -1.44,2.68 -0.32,1.06 -0.48,2.25 -0.48,3.59 0,1.29 0.17,2.48 0.5,3.56 0.34,1.08 0.84,2.02 1.52,2.8 0.67,0.79 1.51,1.4 2.52,1.83 1.01,0.44 2.18,0.65 3.53,0.65 z m -28.01,0 c 0.66,0 1.25,-0.07 1.77,-0.23 0.52,-0.15 0.98,-0.36 1.38,-0.64 0.4,-0.27 0.74,-0.6 1.02,-0.98 0.28,-0.38 0.51,-0.81 0.7,-1.28 0.53,0.58 1.03,1.06 1.5,1.46 0.48,0.4 0.94,0.72 1.38,0.97 0.43,0.25 0.86,0.42 1.28,0.54 0.41,0.11 0.83,0.16 1.26,0.16 1.01,0 1.87,-0.18 2.56,-0.53 0.69,-0.36 1.25,-0.84 1.68,-1.44 0.43,-0.59 0.73,-1.29 0.91,-2.1 0.19,-0.8 0.28,-1.65 0.28,-2.54 v -10 c 0,-0.09 -0.03,-0.17 -0.07,-0.24 -0.05,-0.06 -0.13,-0.12 -0.23,-0.16 -0.11,-0.05 -0.25,-0.09 -0.44,-0.11 -0.19,-0.02 -0.42,-0.03 -0.7,-0.03 -0.3,0 -0.54,0.01 -0.73,0.03 -0.18,0.02 -0.33,0.06 -0.44,0.11 -0.11,0.04 -0.19,0.1 -0.24,0.16 -0.05,0.07 -0.07,0.15 -0.07,0.24 v 9.62 c 0,0.66 -0.06,1.27 -0.18,1.82 -0.11,0.56 -0.3,1.03 -0.56,1.43 -0.26,0.4 -0.59,0.7 -0.98,0.91 -0.4,0.21 -0.87,0.32 -1.41,0.32 -0.67,0 -1.34,-0.26 -2.01,-0.77 -0.68,-0.52 -1.42,-1.28 -2.23,-2.27 v -11.06 c 0,-0.09 -0.02,-0.17 -0.07,-0.24 -0.04,-0.06 -0.12,-0.12 -0.23,-0.16 -0.12,-0.05 -0.26,-0.09 -0.45,-0.11 -0.19,-0.02 -0.42,-0.03 -0.71,-0.03 -0.26,0 -0.5,0.01 -0.69,0.03 -0.19,0.02 -0.35,0.06 -0.46,0.11 -0.11,0.04 -0.18,0.1 -0.23,0.16 -0.04,0.07 -0.06,0.15 -0.06,0.24 v 9.62 c 0,0.66 -0.06,1.27 -0.19,1.82 -0.13,0.56 -0.32,1.03 -0.58,1.43 -0.26,0.4 -0.58,0.7 -0.98,0.91 -0.39,0.21 -0.85,0.32 -1.39,0.32 -0.67,0 -1.34,-0.26 -2.02,-0.77 -0.68,-0.52 -1.42,-1.28 -2.22,-2.27 v -11.06 c 0,-0.09 -0.02,-0.17 -0.07,-0.24 -0.05,-0.06 -0.12,-0.12 -0.23,-0.16 -0.1,-0.05 -0.25,-0.09 -0.44,-0.11 -0.19,-0.02 -0.43,-0.03 -0.72,-0.03 -0.28,0 -0.51,0.01 -0.7,0.03 -0.19,0.02 -0.34,0.06 -0.45,0.11 -0.11,0.04 -0.19,0.1 -0.23,0.16 -0.04,0.07 -0.06,0.15 -0.06,0.24 v 15.82 c 0,0.1 0.02,0.17 0.05,0.24 0.04,0.06 0.11,0.12 0.21,0.17 0.11,0.06 0.24,0.09 0.41,0.11 0.16,0.02 0.38,0.03 0.65,0.03 0.26,0 0.47,-0.01 0.64,-0.03 0.17,-0.02 0.3,-0.05 0.4,-0.11 0.09,-0.05 0.16,-0.11 0.2,-0.17 0.04,-0.07 0.06,-0.14 0.06,-0.24 v -2.09 c 0.89,1 1.75,1.73 2.59,2.19 0.84,0.46 1.69,0.69 2.54,0.69 z m 52.09,7.37 c 0.29,0 0.53,-0.02 0.72,-0.05 0.18,-0.03 0.33,-0.06 0.44,-0.1 0.1,-0.04 0.18,-0.1 0.23,-0.18 0.06,-0.07 0.08,-0.15 0.08,-0.23 v -23.42 c 0,-0.09 -0.02,-0.17 -0.06,-0.24 -0.04,-0.08 -0.11,-0.13 -0.21,-0.17 -0.1,-0.04 -0.23,-0.08 -0.4,-0.1 -0.16,-0.02 -0.36,-0.03 -0.59,-0.03 -0.25,0 -0.45,0.01 -0.62,0.03 -0.16,0.02 -0.3,0.06 -0.4,0.1 -0.11,0.04 -0.18,0.09 -0.23,0.17 -0.05,0.07 -0.07,0.15 -0.07,0.24 v 2.09 c -0.83,-0.9 -1.7,-1.6 -2.59,-2.11 -0.9,-0.5 -1.88,-0.75 -2.95,-0.75 -1.16,0 -2.15,0.22 -2.97,0.67 -0.82,0.46 -1.48,1.06 -1.99,1.83 -0.51,0.77 -0.89,1.67 -1.12,2.71 -0.23,1.04 -0.35,2.13 -0.35,3.28 0,1.36 0.14,2.58 0.44,3.68 0.29,1.1 0.72,2.03 1.3,2.8 0.57,0.78 1.28,1.37 2.13,1.79 0.85,0.41 1.84,0.62 2.95,0.62 0.92,0 1.77,-0.2 2.54,-0.6 0.77,-0.41 1.52,-1 2.27,-1.79 v 9.2 c 0,0.08 0.03,0.16 0.07,0.23 0.04,0.08 0.12,0.14 0.23,0.18 0.12,0.04 0.27,0.07 0.45,0.1 0.18,0.03 0.42,0.05 0.7,0.05 z m 26.32,0.07 c 0.29,0 0.53,-0.01 0.72,-0.04 0.19,-0.02 0.34,-0.06 0.44,-0.1 0.11,-0.05 0.18,-0.11 0.23,-0.18 0.05,-0.07 0.07,-0.15 0.07,-0.24 v -23.49 c 0,-0.09 -0.02,-0.17 -0.07,-0.24 -0.05,-0.06 -0.12,-0.12 -0.23,-0.16 -0.1,-0.05 -0.25,-0.09 -0.44,-0.11 -0.19,-0.02 -0.43,-0.03 -0.72,-0.03 -0.28,0 -0.51,0.01 -0.7,0.03 -0.19,0.02 -0.34,0.06 -0.45,0.11 -0.11,0.04 -0.19,0.1 -0.23,0.16 -0.04,0.07 -0.06,0.15 -0.06,0.24 v 23.49 c 0,0.09 0.02,0.17 0.06,0.24 0.04,0.07 0.12,0.13 0.23,0.18 0.11,0.04 0.26,0.08 0.45,0.1 0.19,0.03 0.42,0.04 0.7,0.04 z" /><path
       id="path40"
       style="fill:none;stroke:#ffffff;stroke-width:0.72000003;stroke-linecap:butt;stroke-linejoin:round;stroke-miterlimit:10;stroke-dasharray:none;stroke-opacity:1"
       d="m 235.42,246 c -0.73,0 -1.36,-0.18 -1.88,-0.53 -0.51,-0.35 -0.93,-0.82 -1.25,-1.39 -0.33,-0.57 -0.56,-1.22 -0.71,-1.95 -0.14,-0.73 -0.22,-1.47 -0.22,-2.22 0,-0.79 0.07,-1.57 0.19,-2.33 0.12,-0.77 0.34,-1.44 0.64,-2.03 0.3,-0.6 0.71,-1.07 1.21,-1.43 0.51,-0.36 1.14,-0.53 1.9,-0.53 0.39,0 0.76,0.05 1.12,0.15 0.36,0.11 0.72,0.29 1.1,0.53 0.37,0.25 0.76,0.57 1.17,0.96 0.41,0.39 0.85,0.88 1.3,1.45 v 6.33 c -0.78,0.97 -1.54,1.71 -2.27,2.22 -0.73,0.51 -1.5,0.77 -2.3,0.77 z m -18.17,0.07 c -0.87,0 -1.61,-0.16 -2.23,-0.46 -0.62,-0.31 -1.13,-0.74 -1.53,-1.29 -0.41,-0.56 -0.7,-1.22 -0.9,-1.98 -0.19,-0.76 -0.29,-1.59 -0.29,-2.5 0,-0.86 0.08,-1.68 0.24,-2.44 0.16,-0.76 0.42,-1.43 0.8,-1.99 0.37,-0.57 0.87,-1.02 1.49,-1.36 0.63,-0.33 1.41,-0.5 2.35,-0.5 0.85,0 1.59,0.15 2.21,0.46 0.63,0.3 1.14,0.73 1.55,1.28 0.4,0.55 0.69,1.21 0.88,1.97 0.19,0.76 0.29,1.6 0.29,2.51 0,0.86 -0.08,1.67 -0.24,2.43 -0.16,0.76 -0.43,1.43 -0.79,2 -0.37,0.58 -0.86,1.03 -1.49,1.37 -0.63,0.33 -1.41,0.5 -2.34,0.5 z m 37.46,0.15 c -0.72,0 -1.35,-0.13 -1.89,-0.4 -0.54,-0.27 -1,-0.63 -1.36,-1.07 -0.37,-0.45 -0.65,-0.97 -0.85,-1.56 -0.2,-0.59 -0.32,-1.21 -0.34,-1.85 h 8.63 c 0.04,1.52 -0.3,2.72 -1.01,3.58 -0.72,0.87 -1.78,1.3 -3.18,1.3 z m 0.15,2.27 c 1.24,0 2.3,-0.2 3.17,-0.6 0.88,-0.39 1.59,-0.93 2.16,-1.6 0.56,-0.68 0.97,-1.47 1.23,-2.38 0.27,-0.9 0.4,-1.87 0.4,-2.91 v -0.52 c 0,-0.46 -0.11,-0.79 -0.34,-0.98 -0.23,-0.19 -0.5,-0.29 -0.79,-0.29 h -10.42 c 0,-0.88 0.09,-1.67 0.27,-2.37 0.17,-0.7 0.47,-1.31 0.88,-1.81 0.41,-0.51 0.95,-0.89 1.61,-1.16 0.66,-0.27 1.46,-0.41 2.42,-0.41 0.75,0 1.42,0.06 2.01,0.19 0.59,0.12 1.1,0.26 1.53,0.41 0.43,0.15 0.78,0.29 1.06,0.41 0.28,0.13 0.48,0.19 0.63,0.19 0.08,0 0.15,-0.02 0.22,-0.06 0.06,-0.04 0.11,-0.11 0.15,-0.19 0.03,-0.08 0.06,-0.19 0.08,-0.34 0.01,-0.15 0.02,-0.33 0.02,-0.54 0,-0.15 0,-0.28 -0.02,-0.39 -0.01,-0.11 -0.02,-0.21 -0.04,-0.3 -0.02,-0.09 -0.05,-0.17 -0.09,-0.24 -0.04,-0.07 -0.09,-0.14 -0.16,-0.2 -0.06,-0.06 -0.25,-0.17 -0.57,-0.32 -0.31,-0.14 -0.72,-0.29 -1.23,-0.43 -0.5,-0.14 -1.08,-0.26 -1.75,-0.38 -0.66,-0.11 -1.36,-0.16 -2.11,-0.16 -1.31,0 -2.44,0.18 -3.42,0.54 -0.98,0.37 -1.81,0.9 -2.47,1.62 -0.67,0.71 -1.17,1.61 -1.51,2.69 -0.34,1.08 -0.51,2.33 -0.51,3.76 0,1.36 0.17,2.58 0.52,3.67 0.35,1.08 0.86,2 1.52,2.76 0.67,0.75 1.47,1.33 2.4,1.74 0.94,0.4 1.99,0.6 3.15,0.6 z m -37.5,0 c 1.3,0 2.44,-0.19 3.4,-0.58 0.97,-0.38 1.77,-0.95 2.42,-1.69 0.64,-0.73 1.13,-1.63 1.45,-2.68 0.32,-1.06 0.48,-2.25 0.48,-3.57 0,-1.29 -0.17,-2.48 -0.51,-3.56 -0.34,-1.09 -0.84,-2.02 -1.52,-2.81 -0.67,-0.78 -1.51,-1.39 -2.53,-1.83 -1.01,-0.44 -2.19,-0.66 -3.52,-0.66 -1.3,0 -2.44,0.19 -3.4,0.58 -0.97,0.38 -1.78,0.95 -2.42,1.69 -0.65,0.73 -1.13,1.63 -1.44,2.68 -0.32,1.06 -0.48,2.25 -0.48,3.59 0,1.29 0.17,2.48 0.5,3.56 0.34,1.08 0.84,2.02 1.52,2.8 0.67,0.79 1.51,1.4 2.52,1.83 1.01,0.44 2.18,0.65 3.53,0.65 z m -28.01,0 c 0.66,0 1.25,-0.07 1.77,-0.23 0.52,-0.15 0.98,-0.36 1.38,-0.64 0.4,-0.27 0.74,-0.6 1.02,-0.98 0.28,-0.38 0.51,-0.81 0.7,-1.28 0.53,0.58 1.03,1.06 1.5,1.46 0.48,0.4 0.94,0.72 1.38,0.97 0.43,0.25 0.86,0.42 1.28,0.54 0.41,0.11 0.83,0.16 1.26,0.16 1.01,0 1.87,-0.18 2.56,-0.53 0.69,-0.36 1.25,-0.84 1.68,-1.44 0.43,-0.59 0.73,-1.29 0.91,-2.1 0.19,-0.8 0.28,-1.65 0.28,-2.54 v -10 c 0,-0.09 -0.03,-0.17 -0.07,-0.24 -0.05,-0.06 -0.13,-0.12 -0.23,-0.16 -0.11,-0.05 -0.25,-0.09 -0.44,-0.11 -0.19,-0.02 -0.42,-0.03 -0.7,-0.03 -0.3,0 -0.54,0.01 -0.73,0.03 -0.18,0.02 -0.33,0.06 -0.44,0.11 -0.11,0.04 -0.19,0.1 -0.24,0.16 -0.05,0.07 -0.07,0.15 -0.07,0.24 v 9.62 c 0,0.66 -0.06,1.27 -0.18,1.82 -0.11,0.56 -0.3,1.03 -0.56,1.43 -0.26,0.4 -0.59,0.7 -0.98,0.91 -0.4,0.21 -0.87,0.32 -1.41,0.32 -0.67,0 -1.34,-0.26 -2.01,-0.77 -0.68,-0.52 -1.42,-1.28 -2.23,-2.27 v -11.06 c 0,-0.09 -0.02,-0.17 -0.07,-0.24 -0.04,-0.06 -0.12,-0.12 -0.23,-0.16 -0.12,-0.05 -0.26,-0.09 -0.45,-0.11 -0.19,-0.02 -0.42,-0.03 -0.71,-0.03 -0.26,0 -0.5,0.01 -0.69,0.03 -0.19,0.02 -0.35,0.06 -0.46,0.11 -0.11,0.04 -0.18,0.1 -0.23,0.16 -0.04,0.07 -0.06,0.15 -0.06,0.24 v 9.62 c 0,0.66 -0.06,1.27 -0.19,1.82 -0.13,0.56 -0.32,1.03 -0.58,1.43 -0.26,0.4 -0.58,0.7 -0.98,0.91 -0.39,0.21 -0.85,0.32 -1.39,0.32 -0.67,0 -1.34,-0.26 -2.02,-0.77 -0.68,-0.52 -1.42,-1.28 -2.22,-2.27 v -11.06 c 0,-0.09 -0.02,-0.17 -0.07,-0.24 -0.05,-0.06 -0.12,-0.12 -0.23,-0.16 -0.1,-0.05 -0.25,-0.09 -0.44,-0.11 -0.19,-0.02 -0.43,-0.03 -0.72,-0.03 -0.28,0 -0.51,0.01 -0.7,0.03 -0.19,0.02 -0.34,0.06 -0.45,0.11 -0.11,0.04 -0.19,0.1 -0.23,0.16 -0.04,0.07 -0.06,0.15 -0.06,0.24 v 15.82 c 0,0.1 0.02,0.17 0.05,0.24 0.04,0.06 0.11,0.12 0.21,0.17 0.11,0.06 0.24,0.09 0.41,0.11 0.16,0.02 0.38,0.03 0.65,0.03 0.26,0 0.47,-0.01 0.64,-0.03 0.17,-0.02 0.3,-0.05 0.4,-0.11 0.09,-0.05 0.16,-0.11 0.2,-0.17 0.04,-0.07 0.06,-0.14 0.06,-0.24 v -2.09 c 0.89,1 1.75,1.73 2.59,2.19 0.84,0.46 1.69,0.69 2.54,0.69 z m 52.09,7.37 c 0.29,0 0.53,-0.02 0.72,-0.05 0.18,-0.03 0.33,-0.06 0.44,-0.1 0.1,-0.04 0.18,-0.1 0.23,-0.18 0.06,-0.07 0.08,-0.15 0.08,-0.23 v -23.42 c 0,-0.09 -0.02,-0.17 -0.06,-0.24 -0.04,-0.08 -0.11,-0.13 -0.21,-0.17 -0.1,-0.04 -0.23,-0.08 -0.4,-0.1 -0.16,-0.02 -0.36,-0.03 -0.59,-0.03 -0.25,0 -0.45,0.01 -0.62,0.03 -0.16,0.02 -0.3,0.06 -0.4,0.1 -0.11,0.04 -0.18,0.09 -0.23,0.17 -0.05,0.07 -0.07,0.15 -0.07,0.24 v 2.09 c -0.83,-0.9 -1.7,-1.6 -2.59,-2.11 -0.9,-0.5 -1.88,-0.75 -2.95,-0.75 -1.16,0 -2.15,0.22 -2.97,0.67 -0.82,0.46 -1.48,1.06 -1.99,1.83 -0.51,0.77 -0.89,1.67 -1.12,2.71 -0.23,1.04 -0.35,2.13 -0.35,3.28 0,1.36 0.14,2.58 0.44,3.68 0.29,1.1 0.72,2.03 1.3,2.8 0.57,0.78 1.28,1.37 2.13,1.79 0.85,0.41 1.84,0.62 2.95,0.62 0.92,0 1.77,-0.2 2.54,-0.6 0.77,-0.41 1.52,-1 2.27,-1.79 v 9.2 c 0,0.08 0.03,0.16 0.07,0.23 0.04,0.08 0.12,0.14 0.23,0.18 0.12,0.04 0.27,0.07 0.45,0.1 0.18,0.03 0.42,0.05 0.7,0.05 z m 26.32,0.07 c 0.29,0 0.53,-0.01 0.72,-0.04 0.19,-0.02 0.34,-0.06 0.44,-0.1 0.11,-0.05 0.18,-0.11 0.23,-0.18 0.05,-0.07 0.07,-0.15 0.07,-0.24 v -23.49 c 0,-0.09 -0.02,-0.17 -0.07,-0.24 -0.05,-0.06 -0.12,-0.12 -0.23,-0.16 -0.1,-0.05 -0.25,-0.09 -0.44,-0.11 -0.19,-0.02 -0.43,-0.03 -0.72,-0.03 -0.28,0 -0.51,0.01 -0.7,0.03 -0.19,0.02 -0.34,0.06 -0.45,0.11 -0.11,0.04 -0.19,0.1 -0.23,0.16 -0.04,0.07 -0.06,0.15 -0.06,0.24 v 23.49 c 0,0.09 0.02,0.17 0.06,0.24 0.04,0.07 0.12,0.13 0.23,0.18 0.11,0.04 0.26,0.08 0.45,0.1 0.19,0.03 0.42,0.04 0.7,0.04 z" /><path
       id="path42"
       style="fill:#000000;fill-opacity:1;fill-rule:nonzero;stroke:none"
       d="M 27,266.88 H 130.14 V 262.8 H 27 Z m 101.1,4.08 12.24,-6.12 -12.24,-6.12 z" /><g
       id="g44"><g
         clip-path="url(#clipPath50)"
         id="g46"><text
           id="text54"
           style="font-variant:normal;font-weight:normal;font-size:36.02399826px;font-family:Calibri;-inkscape-font-specification:Calibri;writing-mode:lr-tb;fill:#000000;fill-opacity:1;fill-rule:nonzero;stroke:none"
           transform="matrix(1,0,0,-1,32.856,277.63)"><tspan
             id="tspan52"
             y="0"
             x="0 9.0780478 37.861225 55.224792 72.047997">Image</tspan></text>
</g></g><path
       id="path56"
       style="fill:#c00000;fill-opacity:1;fill-rule:nonzero;stroke:none"
       d="m 310.44,266.88 h 413.5 v -4.08 h -413.5 z m 411.46,4.08 12.24,-6.12 -12.24,-6.12 z" /><path
       id="path58"
       style="fill:#c00000;fill-opacity:1;fill-rule:nonzero;stroke:none"
       d="M 310.44,266.88 H 357.8 V 140.1 l -2.04,2.04 h 35.12 v -4.08 h -37.16 v 126.78 l 2.04,-2.04 h -45.32 z m 78.4,-120.66 12.24,-6.12 -12.24,-6.12 z" /><path
       id="path60"
       style="fill:#ed7d31;fill-opacity:1;fill-rule:evenodd;stroke:none"
       d="m 401.16,111.24 h 113.52 v 57.84 H 401.16 Z" /><path
       id="path62"
       style="fill:none;stroke:#c55a11;stroke-width:2.16000009;stroke-linecap:butt;stroke-linejoin:round;stroke-miterlimit:10;stroke-dasharray:none;stroke-opacity:1"
       d="m 401.16,111.24 h 113.52 v 57.84 H 401.16 Z" /><path
       id="path64"
       style="fill:#ffffff;fill-opacity:1;fill-rule:evenodd;stroke:none"
       d="m 470.21,143.09 c -0.72,0 -1.35,-0.14 -1.89,-0.41 -0.54,-0.27 -1,-0.62 -1.36,-1.07 -0.37,-0.45 -0.65,-0.96 -0.85,-1.56 -0.2,-0.59 -0.31,-1.21 -0.34,-1.85 h 8.63 c 0.04,1.52 -0.3,2.72 -1.01,3.59 -0.72,0.86 -1.78,1.3 -3.18,1.3 z m 18.55,2.26 c 0.16,0 0.33,0 0.52,-0.02 0.2,-0.02 0.4,-0.05 0.61,-0.1 0.21,-0.05 0.4,-0.1 0.57,-0.16 0.17,-0.06 0.29,-0.11 0.36,-0.17 0.07,-0.06 0.12,-0.12 0.14,-0.17 0.02,-0.05 0.05,-0.12 0.06,-0.2 0.02,-0.08 0.03,-0.2 0.04,-0.36 0,-0.16 0.01,-0.37 0.01,-0.64 0,-0.26 -0.01,-0.48 -0.02,-0.65 -0.01,-0.18 -0.04,-0.32 -0.07,-0.42 -0.04,-0.1 -0.08,-0.17 -0.13,-0.23 -0.06,-0.05 -0.13,-0.07 -0.22,-0.07 -0.1,0 -0.21,0.02 -0.35,0.07 -0.13,0.06 -0.28,0.11 -0.45,0.16 -0.17,0.06 -0.36,0.1 -0.57,0.15 -0.21,0.05 -0.44,0.07 -0.69,0.07 -0.29,0 -0.58,-0.06 -0.86,-0.17 -0.28,-0.12 -0.58,-0.31 -0.89,-0.58 -0.31,-0.27 -0.63,-0.63 -0.97,-1.08 -0.34,-0.44 -0.72,-0.99 -1.13,-1.63 v -10.41 c 0,-0.09 -0.02,-0.17 -0.07,-0.23 -0.05,-0.07 -0.12,-0.12 -0.23,-0.17 -0.1,-0.05 -0.25,-0.08 -0.44,-0.11 -0.18,-0.02 -0.43,-0.03 -0.72,-0.03 -0.28,0 -0.51,0.01 -0.7,0.03 -0.19,0.03 -0.34,0.06 -0.45,0.11 -0.11,0.05 -0.19,0.1 -0.23,0.17 -0.04,0.06 -0.06,0.14 -0.06,0.23 v 15.82 c 0,0.1 0.02,0.18 0.05,0.24 0.04,0.06 0.11,0.12 0.21,0.18 0.11,0.05 0.24,0.08 0.41,0.1 0.16,0.02 0.38,0.03 0.65,0.03 0.26,0 0.47,-0.01 0.64,-0.03 0.17,-0.02 0.3,-0.05 0.4,-0.1 0.09,-0.06 0.16,-0.12 0.2,-0.18 0.04,-0.06 0.06,-0.14 0.06,-0.24 v -2.3 c 0.43,0.63 0.84,1.15 1.22,1.55 0.38,0.4 0.74,0.71 1.08,0.94 0.34,0.23 0.68,0.38 1.01,0.47 0.34,0.09 0.67,0.13 1.01,0.13 z m -18.4,0 c 1.24,0 2.3,-0.19 3.17,-0.59 0.88,-0.4 1.59,-0.94 2.16,-1.61 0.56,-0.68 0.97,-1.47 1.23,-2.37 0.27,-0.91 0.4,-1.88 0.4,-2.91 v -0.53 c 0,-0.46 -0.11,-0.78 -0.34,-0.98 -0.23,-0.19 -0.5,-0.29 -0.79,-0.29 h -10.42 c 0,-0.88 0.09,-1.67 0.27,-2.37 0.17,-0.7 0.47,-1.31 0.88,-1.81 0.41,-0.5 0.95,-0.89 1.61,-1.16 0.66,-0.27 1.46,-0.41 2.42,-0.41 0.75,0 1.42,0.07 2.01,0.19 0.59,0.12 1.1,0.26 1.53,0.41 0.43,0.15 0.78,0.29 1.06,0.42 0.28,0.12 0.48,0.18 0.63,0.18 0.08,0 0.15,-0.02 0.22,-0.06 0.06,-0.04 0.11,-0.1 0.15,-0.19 0.03,-0.08 0.06,-0.19 0.08,-0.34 0.01,-0.15 0.02,-0.32 0.02,-0.53 0,-0.16 0,-0.29 -0.02,-0.4 -0.01,-0.11 -0.02,-0.21 -0.04,-0.3 -0.02,-0.09 -0.05,-0.17 -0.09,-0.24 -0.04,-0.07 -0.09,-0.13 -0.16,-0.2 -0.06,-0.06 -0.25,-0.17 -0.57,-0.31 -0.31,-0.15 -0.72,-0.29 -1.23,-0.44 -0.5,-0.14 -1.08,-0.26 -1.75,-0.37 -0.66,-0.11 -1.36,-0.17 -2.11,-0.17 -1.3,0 -2.44,0.18 -3.42,0.54 -0.98,0.37 -1.8,0.91 -2.47,1.62 -0.67,0.72 -1.17,1.61 -1.51,2.69 -0.34,1.08 -0.51,2.33 -0.51,3.76 0,1.36 0.17,2.58 0.52,3.67 0.35,1.08 0.86,2 1.52,2.76 0.67,0.75 1.47,1.33 2.4,1.74 0.94,0.4 1.99,0.6 3.15,0.6 z m -15.81,0 c 0.42,0 0.84,-0.03 1.26,-0.1 0.42,-0.07 0.81,-0.16 1.15,-0.26 0.34,-0.11 0.63,-0.22 0.87,-0.35 0.24,-0.12 0.42,-0.23 0.54,-0.32 0.12,-0.1 0.21,-0.18 0.25,-0.25 0.04,-0.07 0.07,-0.15 0.08,-0.24 0.02,-0.08 0.04,-0.19 0.06,-0.32 0.01,-0.13 0.02,-0.29 0.02,-0.48 0,-0.2 -0.01,-0.37 -0.02,-0.51 -0.02,-0.15 -0.05,-0.27 -0.09,-0.36 -0.04,-0.1 -0.09,-0.17 -0.15,-0.21 -0.06,-0.04 -0.12,-0.06 -0.19,-0.06 -0.11,0 -0.26,0.07 -0.46,0.19 -0.2,0.13 -0.46,0.27 -0.77,0.42 -0.32,0.14 -0.69,0.28 -1.12,0.41 -0.43,0.13 -0.92,0.19 -1.47,0.19 -0.49,0 -0.92,-0.05 -1.3,-0.16 -0.37,-0.11 -0.68,-0.27 -0.92,-0.48 -0.24,-0.2 -0.42,-0.45 -0.55,-0.73 -0.12,-0.28 -0.18,-0.58 -0.18,-0.91 0,-0.46 0.12,-0.84 0.35,-1.15 0.23,-0.31 0.54,-0.59 0.91,-0.82 0.38,-0.23 0.81,-0.44 1.29,-0.63 0.48,-0.19 0.97,-0.38 1.47,-0.58 0.49,-0.2 0.99,-0.42 1.47,-0.67 0.49,-0.25 0.92,-0.55 1.29,-0.9 0.38,-0.35 0.68,-0.77 0.91,-1.26 0.23,-0.49 0.34,-1.08 0.34,-1.76 0,-0.81 -0.15,-1.53 -0.45,-2.16 -0.29,-0.64 -0.72,-1.17 -1.27,-1.6 -0.55,-0.44 -1.21,-0.76 -1.97,-0.99 -0.76,-0.22 -1.6,-0.33 -2.51,-0.33 -0.57,0 -1.1,0.04 -1.61,0.13 -0.51,0.09 -0.97,0.2 -1.37,0.34 -0.41,0.13 -0.75,0.27 -1.03,0.42 -0.28,0.14 -0.49,0.28 -0.62,0.39 -0.12,0.12 -0.22,0.28 -0.28,0.49 -0.06,0.22 -0.09,0.5 -0.09,0.87 0,0.22 0.02,0.41 0.04,0.56 0.02,0.15 0.05,0.27 0.09,0.37 0.03,0.09 0.08,0.16 0.15,0.2 0.06,0.04 0.14,0.06 0.22,0.06 0.13,0 0.32,-0.08 0.57,-0.24 0.25,-0.15 0.56,-0.33 0.93,-0.51 0.37,-0.19 0.81,-0.36 1.31,-0.52 0.5,-0.16 1.08,-0.24 1.74,-0.24 0.49,0 0.94,0.05 1.34,0.16 0.39,0.1 0.74,0.26 1.03,0.46 0.3,0.21 0.52,0.47 0.68,0.79 0.16,0.31 0.24,0.69 0.24,1.12 0,0.45 -0.12,0.82 -0.35,1.13 -0.22,0.3 -0.53,0.57 -0.9,0.8 -0.38,0.24 -0.8,0.45 -1.27,0.63 -0.47,0.18 -0.95,0.37 -1.45,0.57 -0.5,0.2 -0.98,0.42 -1.46,0.68 -0.47,0.25 -0.9,0.56 -1.27,0.92 -0.38,0.36 -0.68,0.8 -0.91,1.3 -0.22,0.5 -0.34,1.11 -0.34,1.81 0,0.62 0.12,1.22 0.36,1.79 0.24,0.56 0.6,1.06 1.08,1.49 0.48,0.43 1.08,0.77 1.8,1.03 0.73,0.26 1.57,0.38 2.53,0.38 z m -26.12,5.81 c 0.28,0 0.52,-0.02 0.72,-0.05 0.2,-0.03 0.36,-0.06 0.47,-0.1 0.11,-0.05 0.19,-0.1 0.23,-0.17 0.05,-0.07 0.08,-0.15 0.08,-0.25 v -13.74 c 0,-1.06 0.12,-1.98 0.38,-2.76 0.26,-0.79 0.63,-1.44 1.12,-1.96 0.48,-0.52 1.07,-0.92 1.76,-1.18 0.68,-0.26 1.45,-0.4 2.31,-0.4 0.88,0 1.66,0.13 2.34,0.39 0.69,0.26 1.27,0.64 1.74,1.16 0.48,0.52 0.84,1.15 1.09,1.92 0.26,0.76 0.38,1.65 0.38,2.67 v 13.9 c 0,0.1 0.03,0.18 0.07,0.25 0.05,0.07 0.13,0.12 0.25,0.17 0.12,0.04 0.27,0.07 0.46,0.1 0.2,0.03 0.44,0.05 0.73,0.05 0.29,0 0.52,-0.02 0.72,-0.05 0.19,-0.03 0.34,-0.06 0.45,-0.1 0.11,-0.05 0.2,-0.1 0.25,-0.17 0.05,-0.07 0.08,-0.15 0.08,-0.25 v -13.88 c 0,-1.39 -0.2,-2.62 -0.61,-3.7 -0.4,-1.09 -0.98,-2.01 -1.73,-2.76 -0.75,-0.75 -1.66,-1.31 -2.74,-1.7 -1.08,-0.39 -2.3,-0.58 -3.68,-0.58 -1.25,0 -2.39,0.18 -3.42,0.54 -1.03,0.37 -1.92,0.9 -2.66,1.61 -0.74,0.71 -1.3,1.6 -1.7,2.67 -0.4,1.06 -0.6,2.29 -0.6,3.69 v 14.11 c 0,0.1 0.02,0.18 0.07,0.25 0.05,0.07 0.13,0.12 0.25,0.17 0.11,0.04 0.27,0.07 0.45,0.1 0.19,0.03 0.44,0.05 0.74,0.05 z" /><path
       id="path66"
       style="fill:none;stroke:#ffffff;stroke-width:0.72000003;stroke-linecap:butt;stroke-linejoin:round;stroke-miterlimit:10;stroke-dasharray:none;stroke-opacity:1"
       d="m 470.21,143.09 c -0.72,0 -1.35,-0.14 -1.89,-0.41 -0.54,-0.27 -1,-0.62 -1.36,-1.07 -0.37,-0.45 -0.65,-0.96 -0.85,-1.56 -0.2,-0.59 -0.31,-1.21 -0.34,-1.85 h 8.63 c 0.04,1.52 -0.3,2.72 -1.01,3.59 -0.72,0.86 -1.78,1.3 -3.18,1.3 z m 18.55,2.26 c 0.16,0 0.33,0 0.52,-0.02 0.2,-0.02 0.4,-0.05 0.61,-0.1 0.21,-0.05 0.4,-0.1 0.57,-0.16 0.17,-0.06 0.29,-0.11 0.36,-0.17 0.07,-0.06 0.12,-0.12 0.14,-0.17 0.02,-0.05 0.05,-0.12 0.06,-0.2 0.02,-0.08 0.03,-0.2 0.04,-0.36 0,-0.16 0.01,-0.37 0.01,-0.64 0,-0.26 -0.01,-0.48 -0.02,-0.65 -0.01,-0.18 -0.04,-0.32 -0.07,-0.42 -0.04,-0.1 -0.08,-0.17 -0.13,-0.23 -0.06,-0.05 -0.13,-0.07 -0.22,-0.07 -0.1,0 -0.21,0.02 -0.35,0.07 -0.13,0.06 -0.28,0.11 -0.45,0.16 -0.17,0.06 -0.36,0.1 -0.57,0.15 -0.21,0.05 -0.44,0.07 -0.69,0.07 -0.29,0 -0.58,-0.06 -0.86,-0.17 -0.28,-0.12 -0.58,-0.31 -0.89,-0.58 -0.31,-0.27 -0.63,-0.63 -0.97,-1.08 -0.34,-0.44 -0.72,-0.99 -1.13,-1.63 v -10.41 c 0,-0.09 -0.02,-0.17 -0.07,-0.23 -0.05,-0.07 -0.12,-0.12 -0.23,-0.17 -0.1,-0.05 -0.25,-0.08 -0.44,-0.11 -0.18,-0.02 -0.43,-0.03 -0.72,-0.03 -0.28,0 -0.51,0.01 -0.7,0.03 -0.19,0.03 -0.34,0.06 -0.45,0.11 -0.11,0.05 -0.19,0.1 -0.23,0.17 -0.04,0.06 -0.06,0.14 -0.06,0.23 v 15.82 c 0,0.1 0.02,0.18 0.05,0.24 0.04,0.06 0.11,0.12 0.21,0.18 0.11,0.05 0.24,0.08 0.41,0.1 0.16,0.02 0.38,0.03 0.65,0.03 0.26,0 0.47,-0.01 0.64,-0.03 0.17,-0.02 0.3,-0.05 0.4,-0.1 0.09,-0.06 0.16,-0.12 0.2,-0.18 0.04,-0.06 0.06,-0.14 0.06,-0.24 v -2.3 c 0.43,0.63 0.84,1.15 1.22,1.55 0.38,0.4 0.74,0.71 1.08,0.94 0.34,0.23 0.68,0.38 1.01,0.47 0.34,0.09 0.67,0.13 1.01,0.13 z m -18.4,0 c 1.24,0 2.3,-0.19 3.17,-0.59 0.88,-0.4 1.59,-0.94 2.16,-1.61 0.56,-0.68 0.97,-1.47 1.23,-2.37 0.27,-0.91 0.4,-1.88 0.4,-2.91 v -0.53 c 0,-0.46 -0.11,-0.78 -0.34,-0.98 -0.23,-0.19 -0.5,-0.29 -0.79,-0.29 h -10.42 c 0,-0.88 0.09,-1.67 0.27,-2.37 0.17,-0.7 0.47,-1.31 0.88,-1.81 0.41,-0.5 0.95,-0.89 1.61,-1.16 0.66,-0.27 1.46,-0.41 2.42,-0.41 0.75,0 1.42,0.07 2.01,0.19 0.59,0.12 1.1,0.26 1.53,0.41 0.43,0.15 0.78,0.29 1.06,0.42 0.28,0.12 0.48,0.18 0.63,0.18 0.08,0 0.15,-0.02 0.22,-0.06 0.06,-0.04 0.11,-0.1 0.15,-0.19 0.03,-0.08 0.06,-0.19 0.08,-0.34 0.01,-0.15 0.02,-0.32 0.02,-0.53 0,-0.16 0,-0.29 -0.02,-0.4 -0.01,-0.11 -0.02,-0.21 -0.04,-0.3 -0.02,-0.09 -0.05,-0.17 -0.09,-0.24 -0.04,-0.07 -0.09,-0.13 -0.16,-0.2 -0.06,-0.06 -0.25,-0.17 -0.57,-0.31 -0.31,-0.15 -0.72,-0.29 -1.23,-0.44 -0.5,-0.14 -1.08,-0.26 -1.75,-0.37 -0.66,-0.11 -1.36,-0.17 -2.11,-0.17 -1.3,0 -2.44,0.18 -3.42,0.54 -0.98,0.37 -1.8,0.91 -2.47,1.62 -0.67,0.72 -1.17,1.61 -1.51,2.69 -0.34,1.08 -0.51,2.33 -0.51,3.76 0,1.36 0.17,2.58 0.52,3.67 0.35,1.08 0.86,2 1.52,2.76 0.67,0.75 1.47,1.33 2.4,1.74 0.94,0.4 1.99,0.6 3.15,0.6 z m -15.81,0 c 0.42,0 0.84,-0.03 1.26,-0.1 0.42,-0.07 0.81,-0.16 1.15,-0.26 0.34,-0.11 0.63,-0.22 0.87,-0.35 0.24,-0.12 0.42,-0.23 0.54,-0.32 0.12,-0.1 0.21,-0.18 0.25,-0.25 0.04,-0.07 0.07,-0.15 0.08,-0.24 0.02,-0.08 0.04,-0.19 0.06,-0.32 0.01,-0.13 0.02,-0.29 0.02,-0.48 0,-0.2 -0.01,-0.37 -0.02,-0.51 -0.02,-0.15 -0.05,-0.27 -0.09,-0.36 -0.04,-0.1 -0.09,-0.17 -0.15,-0.21 -0.06,-0.04 -0.12,-0.06 -0.19,-0.06 -0.11,0 -0.26,0.07 -0.46,0.19 -0.2,0.13 -0.46,0.27 -0.77,0.42 -0.32,0.14 -0.69,0.28 -1.12,0.41 -0.43,0.13 -0.92,0.19 -1.47,0.19 -0.49,0 -0.92,-0.05 -1.3,-0.16 -0.37,-0.11 -0.68,-0.27 -0.92,-0.48 -0.24,-0.2 -0.42,-0.45 -0.55,-0.73 -0.12,-0.28 -0.18,-0.58 -0.18,-0.91 0,-0.46 0.12,-0.84 0.35,-1.15 0.23,-0.31 0.54,-0.59 0.91,-0.82 0.38,-0.23 0.81,-0.44 1.29,-0.63 0.48,-0.19 0.97,-0.38 1.47,-0.58 0.49,-0.2 0.99,-0.42 1.47,-0.67 0.49,-0.25 0.92,-0.55 1.29,-0.9 0.38,-0.35 0.68,-0.77 0.91,-1.26 0.23,-0.49 0.34,-1.08 0.34,-1.76 0,-0.81 -0.15,-1.53 -0.45,-2.16 -0.29,-0.64 -0.72,-1.17 -1.27,-1.6 -0.55,-0.44 -1.21,-0.76 -1.97,-0.99 -0.76,-0.22 -1.6,-0.33 -2.51,-0.33 -0.57,0 -1.1,0.04 -1.61,0.13 -0.51,0.09 -0.97,0.2 -1.37,0.34 -0.41,0.13 -0.75,0.27 -1.03,0.42 -0.28,0.14 -0.49,0.28 -0.62,0.39 -0.12,0.12 -0.22,0.28 -0.28,0.49 -0.06,0.22 -0.09,0.5 -0.09,0.87 0,0.22 0.02,0.41 0.04,0.56 0.02,0.15 0.05,0.27 0.09,0.37 0.03,0.09 0.08,0.16 0.15,0.2 0.06,0.04 0.14,0.06 0.22,0.06 0.13,0 0.32,-0.08 0.57,-0.24 0.25,-0.15 0.56,-0.33 0.93,-0.51 0.37,-0.19 0.81,-0.36 1.31,-0.52 0.5,-0.16 1.08,-0.24 1.74,-0.24 0.49,0 0.94,0.05 1.34,0.16 0.39,0.1 0.74,0.26 1.03,0.46 0.3,0.21 0.52,0.47 0.68,0.79 0.16,0.31 0.24,0.69 0.24,1.12 0,0.45 -0.12,0.82 -0.35,1.13 -0.22,0.3 -0.53,0.57 -0.9,0.8 -0.38,0.24 -0.8,0.45 -1.27,0.63 -0.47,0.18 -0.95,0.37 -1.45,0.57 -0.5,0.2 -0.98,0.42 -1.46,0.68 -0.47,0.25 -0.9,0.56 -1.27,0.92 -0.38,0.36 -0.68,0.8 -0.91,1.3 -0.22,0.5 -0.34,1.11 -0.34,1.81 0,0.62 0.12,1.22 0.36,1.79 0.24,0.56 0.6,1.06 1.08,1.49 0.48,0.43 1.08,0.77 1.8,1.03 0.73,0.26 1.57,0.38 2.53,0.38 z m -26.12,5.81 c 0.28,0 0.52,-0.02 0.72,-0.05 0.2,-0.03 0.36,-0.06 0.47,-0.1 0.11,-0.05 0.19,-0.1 0.23,-0.17 0.05,-0.07 0.08,-0.15 0.08,-0.25 v -13.74 c 0,-1.06 0.12,-1.98 0.38,-2.76 0.26,-0.79 0.63,-1.44 1.12,-1.96 0.48,-0.52 1.07,-0.92 1.76,-1.18 0.68,-0.26 1.45,-0.4 2.31,-0.4 0.88,0 1.66,0.13 2.34,0.39 0.69,0.26 1.27,0.64 1.74,1.16 0.48,0.52 0.84,1.15 1.09,1.92 0.26,0.76 0.38,1.65 0.38,2.67 v 13.9 c 0,0.1 0.03,0.18 0.07,0.25 0.05,0.07 0.13,0.12 0.25,0.17 0.12,0.04 0.27,0.07 0.46,0.1 0.2,0.03 0.44,0.05 0.73,0.05 0.29,0 0.52,-0.02 0.72,-0.05 0.19,-0.03 0.34,-0.06 0.45,-0.1 0.11,-0.05 0.2,-0.1 0.25,-0.17 0.05,-0.07 0.08,-0.15 0.08,-0.25 v -13.88 c 0,-1.39 -0.2,-2.62 -0.61,-3.7 -0.4,-1.09 -0.98,-2.01 -1.73,-2.76 -0.75,-0.75 -1.66,-1.31 -2.74,-1.7 -1.08,-0.39 -2.3,-0.58 -3.68,-0.58 -1.25,0 -2.39,0.18 -3.42,0.54 -1.03,0.37 -1.92,0.9 -2.66,1.61 -0.74,0.71 -1.3,1.6 -1.7,2.67 -0.4,1.06 -0.6,2.29 -0.6,3.69 v 14.11 c 0,0.1 0.02,0.18 0.07,0.25 0.05,0.07 0.13,0.12 0.25,0.17 0.11,0.04 0.27,0.07 0.45,0.1 0.19,0.03 0.44,0.05 0.74,0.05 z" /><g
       id="g68"><g
         clip-path="url(#clipPath74)"
         id="g70"><text
           id="text78"
           style="font-variant:normal;font-weight:normal;font-size:36.02399826px;font-family:Calibri;-inkscape-font-specification:Calibri;writing-mode:lr-tb;fill:#c00000;fill-opacity:1;fill-rule:nonzero;stroke:none"
           transform="matrix(1,0,0,-1,401.9,277.63)"><tspan
             id="tspan76"
             y="0"
             x="0 9.0780478 27.990648 36.276169 48.344208 56.413586 73.669083 81.954597 90.204094 109.1167 121.14871 139.08867 158.00127 166.28679 181.38084 193.44888 201.55428">Initial predictio</tspan></text>
</g></g><g
       id="g80"><g
         clip-path="url(#clipPath86)"
         id="g82"><text
           id="text90"
           style="font-variant:normal;font-weight:normal;font-size:36.02399826px;font-family:Calibri;-inkscape-font-specification:Calibri;writing-mode:lr-tb;fill:#c00000;fill-opacity:1;fill-rule:nonzero;stroke:none"
           transform="matrix(1,0,0,-1,622.54,277.63)"><tspan
             id="tspan88"
             y="0"
             x="0">n</tspan></text>
</g></g><g
       id="g92"><g
         clip-path="url(#clipPath98)"
         id="g94"><path
           id="path100"
           style="fill:#00b050;fill-opacity:1;fill-rule:nonzero;stroke:none"
           d="m 514.68,138.24 h 209.41 v 4.08 H 514.68 Z m 207.37,-4.08 12.24,6.12 -12.24,6.12 z" /></g></g><g
       id="g102"><g
         clip-path="url(#clipPath108)"
         id="g104"><text
           id="text112"
           style="font-variant:normal;font-weight:normal;font-size:36.02399826px;font-family:Calibri;-inkscape-font-specification:Calibri;writing-mode:lr-tb;fill:#00b050;fill-opacity:1;fill-rule:nonzero;stroke:none"
           transform="matrix(1,0,0,-1,570.12,107.88)"><tspan
             id="tspan110"
             y="0"
             x="0 9.0780478 27.990648 36.276169 48.344208 56.413586 73.669083 81.954597">Initial </tspan></text>
</g></g><g
       id="g114"><g
         clip-path="url(#clipPath120)"
         id="g116"><text
           id="text124"
           style="font-variant:normal;font-weight:normal;font-size:36.02399826px;font-family:Calibri;-inkscape-font-specification:Calibri;writing-mode:lr-tb;fill:#00b050;fill-opacity:1;fill-rule:nonzero;stroke:none"
           transform="matrix(1,0,0,-1,554.04,64.656)"><tspan
             id="tspan122"
             y="0"
             x="0 14.085384 29.323536 41.751816 49.929264 68.841866 87.754463 96.039986">scribble</tspan></text>
</g></g></g></svg>