<?xml version="1.0" encoding="UTF-8" standalone="no"?>
<svg
   xmlns:dc="http://purl.org/dc/elements/1.1/"
   xmlns:cc="http://creativecommons.org/ns#"
   xmlns:rdf="http://www.w3.org/1999/02/22-rdf-syntax-ns#"
   xmlns:svg="http://www.w3.org/2000/svg"
   xmlns="http://www.w3.org/2000/svg"
   viewBox="0 0 978.88 540.47998"
   height="540.47998"
   width="978.88"
   xml:space="preserve"
   id="svg126"
   version="1.1"><metadata
     id="metadata132"><rdf:RDF><cc:Work
         rdf:about=""><dc:format>image/svg+xml</dc:format><dc:type
           rdf:resource="http://purl.org/dc/dcmitype/StillImage" /><dc:title></dc:title></cc:Work></rdf:RDF></metadata><defs
     id="defs130"><clipPath
       id="clipPath142"
       clipPathUnits="userSpaceOnUse"><path
         style="clip-rule:evenodd"
         id="path140"
         d="M 0,6.1035e-5 H 734.16 V 405.36006 H 0 Z" /></clipPath><clipPath
       id="clipPath174"
       clipPathUnits="userSpaceOnUse"><path
         style="clip-rule:evenodd"
         id="path172"
         d="M 1.094e-5,-3.0518e-5 H 734.16001 V 405.35997 H 1.094e-5 Z" /></clipPath><clipPath
       id="clipPath186"
       clipPathUnits="userSpaceOnUse"><path
         style="clip-rule:evenodd"
         id="path184"
         d="M 1.094e-5,-3.0518e-5 H 734.16001 V 405.35997 H 1.094e-5 Z" /></clipPath><clipPath
       id="clipPath200"
       clipPathUnits="userSpaceOnUse"><path
         style="clip-rule:evenodd"
         id="path198"
         d="M 1.094e-5,-3.0518e-5 H 734.16001 V 405.35997 H 1.094e-5 Z" /></clipPath></defs><g
     transform="matrix(1.3333333,0,0,-1.3333333,0,540.48)"
     id="g134"><g
       id="g136"><g
         clip-path="url(#clipPath142)"
         id="g138"><path
           id="path144"
           style="fill:#ffffff;fill-opacity:1;fill-rule:evenodd;stroke:none"
           d="M 0,3.0518e-5 H 734.16 V 405.36003 H 0 Z" /></g></g><path
       id="path146"
       style="fill:#4472c4;fill-opacity:1;fill-rule:evenodd;stroke:none"
       d="M 253.8,118.92 H 423.96 V 288.36 H 253.8 Z" /><path
       id="path148"
       style="fill:none;stroke:#2f5597;stroke-width:2.16000009;stroke-linecap:butt;stroke-linejoin:round;stroke-miterlimit:10;stroke-dasharray:none;stroke-opacity:1"
       d="M 253.8,118.92 H 423.96 V 288.36 H 253.8 Z" /><path
       id="path150"
       style="fill:#ffffff;fill-opacity:1;fill-rule:evenodd;stroke:none"
       d="m 319.24,228.09 c -0.72,0 -1.35,-0.14 -1.89,-0.41 -0.54,-0.27 -1,-0.62 -1.36,-1.07 -0.37,-0.45 -0.65,-0.96 -0.85,-1.56 -0.2,-0.59 -0.31,-1.21 -0.34,-1.85 h 8.63 c 0.04,1.52 -0.3,2.72 -1.01,3.59 -0.72,0.86 -1.77,1.3 -3.18,1.3 z m 18.56,2.26 c 0.15,0 0.32,0 0.51,-0.02 0.2,-0.02 0.4,-0.05 0.61,-0.1 0.21,-0.05 0.4,-0.1 0.57,-0.16 0.17,-0.06 0.29,-0.11 0.36,-0.17 0.07,-0.06 0.12,-0.12 0.14,-0.17 0.03,-0.05 0.05,-0.12 0.06,-0.2 0.02,-0.08 0.03,-0.2 0.04,-0.36 0.01,-0.16 0.01,-0.37 0.01,-0.64 0,-0.26 -0.01,-0.48 -0.02,-0.65 -0.01,-0.18 -0.03,-0.32 -0.07,-0.42 -0.03,-0.1 -0.08,-0.17 -0.13,-0.23 -0.05,-0.05 -0.13,-0.08 -0.22,-0.08 -0.09,0 -0.21,0.03 -0.34,0.08 -0.14,0.06 -0.29,0.11 -0.46,0.16 -0.17,0.06 -0.36,0.1 -0.57,0.15 -0.21,0.05 -0.44,0.07 -0.69,0.07 -0.29,0 -0.58,-0.06 -0.86,-0.17 -0.28,-0.12 -0.58,-0.31 -0.89,-0.58 -0.31,-0.27 -0.63,-0.63 -0.97,-1.08 -0.34,-0.44 -0.72,-0.99 -1.13,-1.63 v -10.41 c 0,-0.09 -0.02,-0.17 -0.07,-0.23 -0.04,-0.07 -0.12,-0.12 -0.23,-0.17 -0.1,-0.05 -0.25,-0.08 -0.44,-0.11 -0.18,-0.02 -0.42,-0.03 -0.72,-0.03 -0.28,0 -0.51,0.01 -0.7,0.03 -0.19,0.03 -0.34,0.06 -0.45,0.11 -0.11,0.05 -0.19,0.1 -0.23,0.17 -0.04,0.06 -0.06,0.14 -0.06,0.23 v 15.82 c 0,0.1 0.02,0.18 0.06,0.24 0.03,0.06 0.1,0.12 0.21,0.18 0.1,0.05 0.24,0.08 0.4,0.1 0.16,0.02 0.38,0.03 0.65,0.03 0.26,0 0.47,-0.01 0.64,-0.03 0.17,-0.02 0.3,-0.05 0.4,-0.1 0.09,-0.06 0.16,-0.12 0.2,-0.18 0.04,-0.06 0.06,-0.14 0.06,-0.24 v -2.3 c 0.44,0.63 0.84,1.15 1.22,1.55 0.38,0.4 0.74,0.71 1.08,0.94 0.34,0.23 0.68,0.38 1.01,0.47 0.34,0.09 0.68,0.13 1.02,0.13 z m -18.41,0 c 1.24,0 2.3,-0.2 3.17,-0.59 0.88,-0.4 1.6,-0.94 2.16,-1.61 0.56,-0.68 0.97,-1.47 1.24,-2.37 0.26,-0.91 0.39,-1.88 0.39,-2.91 v -0.53 c 0,-0.46 -0.11,-0.78 -0.34,-0.98 -0.23,-0.19 -0.49,-0.29 -0.79,-0.29 H 314.8 c 0,-0.88 0.09,-1.67 0.27,-2.37 0.18,-0.7 0.47,-1.31 0.88,-1.81 0.41,-0.5 0.95,-0.89 1.61,-1.16 0.66,-0.27 1.47,-0.41 2.42,-0.41 0.75,0 1.42,0.07 2.01,0.19 0.59,0.12 1.1,0.26 1.53,0.41 0.43,0.15 0.78,0.29 1.06,0.42 0.28,0.12 0.49,0.18 0.63,0.18 0.08,0 0.15,-0.02 0.22,-0.06 0.06,-0.04 0.11,-0.1 0.15,-0.19 0.03,-0.08 0.06,-0.19 0.08,-0.34 0.02,-0.15 0.02,-0.32 0.02,-0.53 0,-0.16 0,-0.29 -0.01,-0.4 -0.01,-0.11 -0.03,-0.21 -0.05,-0.3 -0.01,-0.09 -0.04,-0.17 -0.09,-0.24 -0.04,-0.07 -0.09,-0.13 -0.15,-0.2 -0.07,-0.06 -0.26,-0.17 -0.57,-0.31 -0.32,-0.15 -0.73,-0.3 -1.23,-0.44 -0.51,-0.14 -1.09,-0.26 -1.75,-0.37 -0.67,-0.11 -1.37,-0.17 -2.12,-0.17 -1.3,0 -2.44,0.18 -3.42,0.54 -0.98,0.37 -1.8,0.91 -2.47,1.62 -0.67,0.72 -1.17,1.61 -1.51,2.69 -0.34,1.08 -0.51,2.33 -0.51,3.76 0,1.36 0.17,2.58 0.53,3.67 0.35,1.08 0.85,2 1.52,2.76 0.66,0.75 1.46,1.33 2.39,1.74 0.94,0.4 1.99,0.6 3.15,0.6 z m -28.81,0 c 1.05,0 1.94,-0.17 2.66,-0.53 0.72,-0.36 1.3,-0.84 1.75,-1.43 0.44,-0.6 0.76,-1.3 0.96,-2.11 0.19,-0.8 0.29,-1.76 0.29,-2.89 v -9.65 c 0,-0.09 -0.03,-0.17 -0.07,-0.23 -0.05,-0.07 -0.13,-0.12 -0.23,-0.17 -0.11,-0.05 -0.26,-0.08 -0.44,-0.11 -0.19,-0.02 -0.42,-0.03 -0.71,-0.03 -0.29,0 -0.53,0.01 -0.72,0.03 -0.18,0.03 -0.33,0.06 -0.44,0.11 -0.1,0.05 -0.18,0.1 -0.22,0.17 -0.05,0.06 -0.08,0.14 -0.08,0.23 v 9.27 c 0,0.9 -0.07,1.63 -0.21,2.18 -0.14,0.55 -0.34,1.02 -0.61,1.42 -0.27,0.4 -0.62,0.7 -1.05,0.91 -0.42,0.22 -0.92,0.32 -1.48,0.32 -0.73,0 -1.46,-0.26 -2.18,-0.77 -0.73,-0.52 -1.49,-1.27 -2.29,-2.27 v -11.06 c 0,-0.09 -0.02,-0.17 -0.07,-0.23 -0.04,-0.07 -0.12,-0.12 -0.23,-0.17 -0.1,-0.05 -0.25,-0.08 -0.44,-0.11 -0.18,-0.02 -0.42,-0.03 -0.72,-0.03 -0.28,0 -0.51,0.01 -0.7,0.03 -0.19,0.03 -0.34,0.06 -0.45,0.11 -0.11,0.05 -0.19,0.1 -0.23,0.17 -0.04,0.06 -0.06,0.14 -0.06,0.23 v 15.82 c 0,0.1 0.02,0.18 0.06,0.24 0.03,0.06 0.1,0.12 0.21,0.18 0.1,0.05 0.24,0.08 0.4,0.1 0.16,0.02 0.38,0.03 0.65,0.03 0.26,0 0.47,-0.01 0.64,-0.03 0.17,-0.02 0.3,-0.05 0.4,-0.1 0.09,-0.06 0.16,-0.12 0.2,-0.18 0.04,-0.06 0.06,-0.14 0.06,-0.24 v -2.09 c 0.89,1 1.78,1.73 2.66,2.19 0.89,0.46 1.78,0.69 2.69,0.69 z m 12.88,3.99 c 0.29,0 0.53,-0.01 0.72,-0.03 0.19,-0.02 0.33,-0.06 0.44,-0.11 0.1,-0.06 0.18,-0.12 0.23,-0.19 0.04,-0.07 0.07,-0.15 0.07,-0.23 v -3.76 h 4.06 c 0.09,0 0.17,-0.02 0.24,-0.06 0.08,-0.04 0.14,-0.11 0.19,-0.21 0.05,-0.1 0.09,-0.23 0.11,-0.38 0.03,-0.15 0.04,-0.34 0.04,-0.56 0,-0.42 -0.05,-0.73 -0.16,-0.92 -0.1,-0.18 -0.25,-0.28 -0.42,-0.28 h -4.06 v -8.82 c 0,-1.09 0.16,-1.92 0.48,-2.47 0.32,-0.56 0.9,-0.84 1.73,-0.84 0.27,0 0.51,0.03 0.72,0.08 0.21,0.05 0.4,0.11 0.57,0.17 0.16,0.06 0.3,0.11 0.42,0.17 0.12,0.05 0.22,0.08 0.31,0.08 0.06,0 0.12,-0.02 0.17,-0.05 0.05,-0.03 0.1,-0.08 0.12,-0.17 0.03,-0.08 0.06,-0.19 0.08,-0.33 0.03,-0.14 0.04,-0.32 0.04,-0.53 0,-0.34 -0.02,-0.61 -0.07,-0.81 -0.05,-0.19 -0.12,-0.34 -0.21,-0.44 -0.1,-0.09 -0.24,-0.18 -0.42,-0.26 -0.19,-0.08 -0.41,-0.15 -0.65,-0.2 -0.24,-0.05 -0.49,-0.1 -0.76,-0.13 -0.27,-0.04 -0.54,-0.06 -0.81,-0.06 -0.82,0 -1.52,0.11 -2.11,0.33 -0.58,0.22 -1.06,0.54 -1.44,0.98 -0.37,0.44 -0.65,1 -0.82,1.67 -0.17,0.68 -0.25,1.47 -0.25,2.39 v 9.24 h -2.22 c -0.17,0 -0.31,0.1 -0.42,0.28 -0.1,0.19 -0.16,0.5 -0.16,0.92 0,0.22 0.02,0.41 0.05,0.56 0.03,0.15 0.06,0.28 0.11,0.38 0.05,0.1 0.11,0.17 0.19,0.21 0.07,0.04 0.16,0.06 0.25,0.06 h 2.2 v 3.76 c 0,0.08 0.02,0.16 0.06,0.23 0.04,0.07 0.12,0.13 0.23,0.19 0.11,0.05 0.26,0.09 0.45,0.11 0.18,0.02 0.42,0.03 0.7,0.03 z m 98.39,1.76 c 0.28,0 0.51,-0.01 0.71,-0.03 0.2,-0.03 0.35,-0.06 0.46,-0.12 0.11,-0.05 0.19,-0.11 0.24,-0.18 0.05,-0.07 0.08,-0.15 0.08,-0.23 v -20.99 c 0,-0.23 -0.04,-0.43 -0.12,-0.6 -0.08,-0.16 -0.18,-0.3 -0.31,-0.4 -0.13,-0.11 -0.27,-0.18 -0.43,-0.23 -0.15,-0.05 -0.31,-0.07 -0.47,-0.07 h -1 c -0.31,0 -0.59,0.03 -0.83,0.1 -0.23,0.06 -0.46,0.18 -0.67,0.35 -0.21,0.17 -0.42,0.4 -0.64,0.69 -0.21,0.3 -0.43,0.67 -0.67,1.13 l -6.94,12.94 c -0.36,0.66 -0.73,1.36 -1.1,2.1 -0.36,0.73 -0.71,1.44 -1.03,2.13 h -0.03 c 0.02,-0.84 0.04,-1.7 0.05,-2.58 0.01,-0.88 0.02,-1.75 0.02,-2.62 v -13.73 c 0,-0.08 -0.02,-0.16 -0.07,-0.24 -0.05,-0.07 -0.14,-0.13 -0.25,-0.17 -0.12,-0.04 -0.28,-0.08 -0.47,-0.11 -0.19,-0.03 -0.43,-0.04 -0.73,-0.04 -0.3,0 -0.54,0.01 -0.73,0.04 -0.2,0.03 -0.35,0.07 -0.46,0.11 -0.11,0.04 -0.19,0.1 -0.24,0.17 -0.05,0.08 -0.07,0.16 -0.07,0.24 v 20.99 c 0,0.47 0.13,0.8 0.4,1 0.26,0.2 0.55,0.3 0.87,0.3 h 1.48 c 0.35,0 0.65,-0.03 0.88,-0.09 0.24,-0.06 0.45,-0.15 0.64,-0.29 0.19,-0.13 0.37,-0.32 0.54,-0.56 0.18,-0.24 0.36,-0.54 0.56,-0.91 l 5.33,-9.98 c 0.33,-0.61 0.65,-1.2 0.95,-1.78 0.31,-0.58 0.6,-1.16 0.88,-1.72 0.29,-0.56 0.57,-1.11 0.85,-1.66 0.27,-0.54 0.55,-1.09 0.82,-1.64 h 0.02 c -0.03,0.92 -0.04,1.89 -0.05,2.89 0,1 -0.01,1.96 -0.01,2.89 v 12.34 c 0,0.08 0.03,0.16 0.08,0.23 0.05,0.07 0.13,0.13 0.25,0.18 0.12,0.06 0.27,0.09 0.46,0.12 0.19,0.02 0.44,0.03 0.75,0.03 z m -23.28,0 c 0.28,0 0.51,-0.01 0.71,-0.03 0.2,-0.03 0.35,-0.06 0.46,-0.12 0.11,-0.05 0.19,-0.11 0.24,-0.18 0.05,-0.07 0.08,-0.15 0.08,-0.23 v -20.99 c 0,-0.23 -0.04,-0.43 -0.12,-0.6 -0.08,-0.16 -0.18,-0.3 -0.31,-0.4 -0.13,-0.11 -0.27,-0.18 -0.43,-0.23 -0.15,-0.05 -0.31,-0.07 -0.47,-0.07 h -1 c -0.31,0 -0.59,0.03 -0.83,0.1 -0.23,0.06 -0.46,0.18 -0.67,0.35 -0.21,0.17 -0.42,0.4 -0.64,0.69 -0.21,0.3 -0.43,0.67 -0.67,1.13 l -6.94,12.94 c -0.36,0.66 -0.73,1.36 -1.1,2.1 -0.36,0.73 -0.71,1.44 -1.03,2.13 h -0.03 c 0.02,-0.84 0.04,-1.7 0.05,-2.58 0.01,-0.88 0.02,-1.75 0.02,-2.62 v -13.73 c 0,-0.08 -0.02,-0.16 -0.07,-0.24 -0.05,-0.07 -0.14,-0.13 -0.25,-0.17 -0.12,-0.04 -0.28,-0.08 -0.47,-0.11 -0.19,-0.03 -0.43,-0.04 -0.73,-0.04 -0.3,0 -0.54,0.01 -0.73,0.04 -0.2,0.03 -0.35,0.07 -0.46,0.11 -0.11,0.04 -0.19,0.1 -0.24,0.17 -0.05,0.08 -0.07,0.16 -0.07,0.24 v 20.99 c 0,0.47 0.13,0.8 0.4,1 0.26,0.2 0.55,0.3 0.87,0.3 h 1.48 c 0.35,0 0.65,-0.03 0.88,-0.09 0.24,-0.06 0.45,-0.15 0.64,-0.29 0.19,-0.13 0.37,-0.32 0.54,-0.56 0.18,-0.24 0.36,-0.54 0.56,-0.91 l 5.33,-9.98 c 0.33,-0.61 0.65,-1.2 0.95,-1.78 0.31,-0.58 0.6,-1.16 0.88,-1.72 0.29,-0.56 0.57,-1.11 0.85,-1.66 0.27,-0.54 0.55,-1.09 0.82,-1.64 h 0.02 c -0.03,0.92 -0.04,1.89 -0.05,2.89 0,1 -0.01,1.96 -0.01,2.89 v 12.34 c 0,0.08 0.03,0.16 0.08,0.23 0.05,0.07 0.13,0.13 0.25,0.18 0.12,0.06 0.27,0.09 0.46,0.12 0.19,0.02 0.44,0.03 0.75,0.03 z m -103.23,0.05 c 0.29,0 0.53,-0.01 0.73,-0.04 0.19,-0.03 0.35,-0.06 0.46,-0.1 0.12,-0.05 0.2,-0.1 0.25,-0.17 0.05,-0.07 0.07,-0.15 0.07,-0.25 v -21.83 c 0,-0.09 -0.02,-0.18 -0.07,-0.25 -0.05,-0.07 -0.13,-0.12 -0.25,-0.16 -0.11,-0.04 -0.27,-0.08 -0.46,-0.11 -0.2,-0.03 -0.44,-0.04 -0.73,-0.04 -0.28,0 -0.52,0.01 -0.72,0.04 -0.2,0.03 -0.36,0.07 -0.48,0.11 -0.11,0.04 -0.2,0.09 -0.24,0.16 -0.05,0.07 -0.07,0.16 -0.07,0.25 v 21.83 c 0,0.1 0.02,0.18 0.08,0.25 0.05,0.07 0.14,0.12 0.26,0.17 0.12,0.04 0.28,0.07 0.47,0.1 0.2,0.03 0.43,0.04 0.7,0.04 z m 77.01,0.18 c 0.66,0 1.29,-0.06 1.92,-0.18 0.62,-0.13 1.19,-0.28 1.72,-0.47 0.53,-0.19 0.99,-0.4 1.4,-0.65 0.41,-0.25 0.7,-0.45 0.86,-0.61 0.16,-0.15 0.26,-0.27 0.3,-0.36 0.05,-0.08 0.09,-0.18 0.12,-0.29 0.03,-0.11 0.05,-0.24 0.07,-0.39 0.02,-0.15 0.03,-0.34 0.03,-0.55 0,-0.23 -0.02,-0.43 -0.04,-0.59 -0.02,-0.17 -0.06,-0.31 -0.11,-0.42 -0.04,-0.11 -0.1,-0.19 -0.16,-0.24 -0.07,-0.06 -0.15,-0.08 -0.24,-0.08 -0.17,0 -0.4,0.11 -0.69,0.34 -0.3,0.23 -0.68,0.48 -1.14,0.76 -0.47,0.27 -1.03,0.52 -1.7,0.75 -0.66,0.23 -1.46,0.34 -2.39,0.34 -1.02,0 -1.94,-0.2 -2.77,-0.6 -0.83,-0.41 -1.54,-1 -2.13,-1.79 -0.59,-0.78 -1.04,-1.74 -1.37,-2.87 -0.32,-1.13 -0.48,-2.42 -0.48,-3.88 0,-1.44 0.15,-2.71 0.47,-3.82 0.31,-1.11 0.76,-2.03 1.34,-2.78 0.58,-0.74 1.3,-1.3 2.15,-1.68 0.84,-0.39 1.8,-0.58 2.88,-0.58 0.9,0 1.7,0.12 2.37,0.34 0.68,0.22 1.26,0.47 1.73,0.75 0.48,0.27 0.87,0.52 1.18,0.74 0.31,0.22 0.55,0.34 0.72,0.34 0.09,0 0.16,-0.02 0.22,-0.06 0.06,-0.03 0.1,-0.1 0.14,-0.2 0.03,-0.1 0.06,-0.24 0.08,-0.41 0.01,-0.18 0.02,-0.4 0.02,-0.67 0,-0.19 0,-0.35 -0.01,-0.49 -0.02,-0.14 -0.04,-0.27 -0.07,-0.37 -0.02,-0.11 -0.06,-0.2 -0.11,-0.28 -0.05,-0.08 -0.13,-0.18 -0.25,-0.3 -0.11,-0.12 -0.36,-0.3 -0.73,-0.54 -0.38,-0.24 -0.84,-0.47 -1.4,-0.7 -0.56,-0.23 -1.2,-0.42 -1.92,-0.58 -0.72,-0.16 -1.51,-0.24 -2.36,-0.24 -1.48,0 -2.81,0.25 -4,0.74 -1.19,0.49 -2.2,1.22 -3.04,2.18 -0.84,0.96 -1.48,2.15 -1.94,3.56 -0.45,1.41 -0.67,3.04 -0.67,4.88 0,1.88 0.24,3.57 0.73,5.04 0.48,1.48 1.17,2.73 2.05,3.76 0.87,1.02 1.93,1.8 3.15,2.34 1.23,0.54 2.58,0.81 4.07,0.81 z" /><path
       id="path152"
       style="fill:none;stroke:#ffffff;stroke-width:0.72000003;stroke-linecap:butt;stroke-linejoin:round;stroke-miterlimit:10;stroke-dasharray:none;stroke-opacity:1"
       d="m 319.24,228.09 c -0.72,0 -1.35,-0.14 -1.89,-0.41 -0.54,-0.27 -1,-0.62 -1.36,-1.07 -0.37,-0.45 -0.65,-0.96 -0.85,-1.56 -0.2,-0.59 -0.31,-1.21 -0.34,-1.85 h 8.63 c 0.04,1.52 -0.3,2.72 -1.01,3.59 -0.72,0.86 -1.77,1.3 -3.18,1.3 z m 18.56,2.26 c 0.15,0 0.32,0 0.51,-0.02 0.2,-0.02 0.4,-0.05 0.61,-0.1 0.21,-0.05 0.4,-0.1 0.57,-0.16 0.17,-0.06 0.29,-0.11 0.36,-0.17 0.07,-0.06 0.12,-0.12 0.14,-0.17 0.03,-0.05 0.05,-0.12 0.06,-0.2 0.02,-0.08 0.03,-0.2 0.04,-0.36 0.01,-0.16 0.01,-0.37 0.01,-0.64 0,-0.26 -0.01,-0.48 -0.02,-0.65 -0.01,-0.18 -0.03,-0.32 -0.07,-0.42 -0.03,-0.1 -0.08,-0.17 -0.13,-0.23 -0.05,-0.05 -0.13,-0.08 -0.22,-0.08 -0.09,0 -0.21,0.03 -0.34,0.08 -0.14,0.06 -0.29,0.11 -0.46,0.16 -0.17,0.06 -0.36,0.1 -0.57,0.15 -0.21,0.05 -0.44,0.07 -0.69,0.07 -0.29,0 -0.58,-0.06 -0.86,-0.17 -0.28,-0.12 -0.58,-0.31 -0.89,-0.58 -0.31,-0.27 -0.63,-0.63 -0.97,-1.08 -0.34,-0.44 -0.72,-0.99 -1.13,-1.63 v -10.41 c 0,-0.09 -0.02,-0.17 -0.07,-0.23 -0.04,-0.07 -0.12,-0.12 -0.23,-0.17 -0.1,-0.05 -0.25,-0.08 -0.44,-0.11 -0.18,-0.02 -0.42,-0.03 -0.72,-0.03 -0.28,0 -0.51,0.01 -0.7,0.03 -0.19,0.03 -0.34,0.06 -0.45,0.11 -0.11,0.05 -0.19,0.1 -0.23,0.17 -0.04,0.06 -0.06,0.14 -0.06,0.23 v 15.82 c 0,0.1 0.02,0.18 0.06,0.24 0.03,0.06 0.1,0.12 0.21,0.18 0.1,0.05 0.24,0.08 0.4,0.1 0.16,0.02 0.38,0.03 0.65,0.03 0.26,0 0.47,-0.01 0.64,-0.03 0.17,-0.02 0.3,-0.05 0.4,-0.1 0.09,-0.06 0.16,-0.12 0.2,-0.18 0.04,-0.06 0.06,-0.14 0.06,-0.24 v -2.3 c 0.44,0.63 0.84,1.15 1.22,1.55 0.38,0.4 0.74,0.71 1.08,0.94 0.34,0.23 0.68,0.38 1.01,0.47 0.34,0.09 0.68,0.13 1.02,0.13 z m -18.41,0 c 1.24,0 2.3,-0.2 3.17,-0.59 0.88,-0.4 1.6,-0.94 2.16,-1.61 0.56,-0.68 0.97,-1.47 1.24,-2.37 0.26,-0.91 0.39,-1.88 0.39,-2.91 v -0.53 c 0,-0.46 -0.11,-0.78 -0.34,-0.98 -0.23,-0.19 -0.49,-0.29 -0.79,-0.29 H 314.8 c 0,-0.88 0.09,-1.67 0.27,-2.37 0.18,-0.7 0.47,-1.31 0.88,-1.81 0.41,-0.5 0.95,-0.89 1.61,-1.16 0.66,-0.27 1.47,-0.41 2.42,-0.41 0.75,0 1.42,0.07 2.01,0.19 0.59,0.12 1.1,0.26 1.53,0.41 0.43,0.15 0.78,0.29 1.06,0.42 0.28,0.12 0.49,0.18 0.63,0.18 0.08,0 0.15,-0.02 0.22,-0.06 0.06,-0.04 0.11,-0.1 0.15,-0.19 0.03,-0.08 0.06,-0.19 0.08,-0.34 0.02,-0.15 0.02,-0.32 0.02,-0.53 0,-0.16 0,-0.29 -0.01,-0.4 -0.01,-0.11 -0.03,-0.21 -0.05,-0.3 -0.01,-0.09 -0.04,-0.17 -0.09,-0.24 -0.04,-0.07 -0.09,-0.13 -0.15,-0.2 -0.07,-0.06 -0.26,-0.17 -0.57,-0.31 -0.32,-0.15 -0.73,-0.3 -1.23,-0.44 -0.51,-0.14 -1.09,-0.26 -1.75,-0.37 -0.67,-0.11 -1.37,-0.17 -2.12,-0.17 -1.3,0 -2.44,0.18 -3.42,0.54 -0.98,0.37 -1.8,0.91 -2.47,1.62 -0.67,0.72 -1.17,1.61 -1.51,2.69 -0.34,1.08 -0.51,2.33 -0.51,3.76 0,1.36 0.17,2.58 0.53,3.67 0.35,1.08 0.85,2 1.52,2.76 0.66,0.75 1.46,1.33 2.39,1.74 0.94,0.4 1.99,0.6 3.15,0.6 z m -28.81,0 c 1.05,0 1.94,-0.17 2.66,-0.53 0.72,-0.36 1.3,-0.84 1.75,-1.43 0.44,-0.6 0.76,-1.3 0.96,-2.11 0.19,-0.8 0.29,-1.76 0.29,-2.89 v -9.65 c 0,-0.09 -0.03,-0.17 -0.07,-0.23 -0.05,-0.07 -0.13,-0.12 -0.23,-0.17 -0.11,-0.05 -0.26,-0.08 -0.44,-0.11 -0.19,-0.02 -0.42,-0.03 -0.71,-0.03 -0.29,0 -0.53,0.01 -0.72,0.03 -0.18,0.03 -0.33,0.06 -0.44,0.11 -0.1,0.05 -0.18,0.1 -0.22,0.17 -0.05,0.06 -0.08,0.14 -0.08,0.23 v 9.27 c 0,0.9 -0.07,1.63 -0.21,2.18 -0.14,0.55 -0.34,1.02 -0.61,1.42 -0.27,0.4 -0.62,0.7 -1.05,0.91 -0.42,0.22 -0.92,0.32 -1.48,0.32 -0.73,0 -1.46,-0.26 -2.18,-0.77 -0.73,-0.52 -1.49,-1.27 -2.29,-2.27 v -11.06 c 0,-0.09 -0.02,-0.17 -0.07,-0.23 -0.04,-0.07 -0.12,-0.12 -0.23,-0.17 -0.1,-0.05 -0.25,-0.08 -0.44,-0.11 -0.18,-0.02 -0.42,-0.03 -0.72,-0.03 -0.28,0 -0.51,0.01 -0.7,0.03 -0.19,0.03 -0.34,0.06 -0.45,0.11 -0.11,0.05 -0.19,0.1 -0.23,0.17 -0.04,0.06 -0.06,0.14 -0.06,0.23 v 15.82 c 0,0.1 0.02,0.18 0.06,0.24 0.03,0.06 0.1,0.12 0.21,0.18 0.1,0.05 0.24,0.08 0.4,0.1 0.16,0.02 0.38,0.03 0.65,0.03 0.26,0 0.47,-0.01 0.64,-0.03 0.17,-0.02 0.3,-0.05 0.4,-0.1 0.09,-0.06 0.16,-0.12 0.2,-0.18 0.04,-0.06 0.06,-0.14 0.06,-0.24 v -2.09 c 0.89,1 1.78,1.73 2.66,2.19 0.89,0.46 1.78,0.69 2.69,0.69 z m 12.88,3.99 c 0.29,0 0.53,-0.01 0.72,-0.03 0.19,-0.02 0.33,-0.06 0.44,-0.11 0.1,-0.06 0.18,-0.12 0.23,-0.19 0.04,-0.07 0.07,-0.15 0.07,-0.23 v -3.76 h 4.06 c 0.09,0 0.17,-0.02 0.24,-0.06 0.08,-0.04 0.14,-0.11 0.19,-0.21 0.05,-0.1 0.09,-0.23 0.11,-0.38 0.03,-0.15 0.04,-0.34 0.04,-0.56 0,-0.42 -0.05,-0.73 -0.16,-0.92 -0.1,-0.18 -0.25,-0.28 -0.42,-0.28 h -4.06 v -8.82 c 0,-1.09 0.16,-1.92 0.48,-2.47 0.32,-0.56 0.9,-0.84 1.73,-0.84 0.27,0 0.51,0.03 0.72,0.08 0.21,0.05 0.4,0.11 0.57,0.17 0.16,0.06 0.3,0.11 0.42,0.17 0.12,0.05 0.22,0.08 0.31,0.08 0.06,0 0.12,-0.02 0.17,-0.05 0.05,-0.03 0.1,-0.08 0.12,-0.17 0.03,-0.08 0.06,-0.19 0.08,-0.33 0.03,-0.14 0.04,-0.32 0.04,-0.53 0,-0.34 -0.02,-0.61 -0.07,-0.81 -0.05,-0.19 -0.12,-0.34 -0.21,-0.44 -0.1,-0.09 -0.24,-0.18 -0.42,-0.26 -0.19,-0.08 -0.41,-0.15 -0.65,-0.2 -0.24,-0.05 -0.49,-0.1 -0.76,-0.13 -0.27,-0.04 -0.54,-0.06 -0.81,-0.06 -0.82,0 -1.52,0.11 -2.11,0.33 -0.58,0.22 -1.06,0.54 -1.44,0.98 -0.37,0.44 -0.65,1 -0.82,1.67 -0.17,0.68 -0.25,1.47 -0.25,2.39 v 9.24 h -2.22 c -0.17,0 -0.31,0.1 -0.42,0.28 -0.1,0.19 -0.16,0.5 -0.16,0.92 0,0.22 0.02,0.41 0.05,0.56 0.03,0.15 0.06,0.28 0.11,0.38 0.05,0.1 0.11,0.17 0.19,0.21 0.07,0.04 0.16,0.06 0.25,0.06 h 2.2 v 3.76 c 0,0.08 0.02,0.16 0.06,0.23 0.04,0.07 0.12,0.13 0.23,0.19 0.11,0.05 0.26,0.09 0.45,0.11 0.18,0.02 0.42,0.03 0.7,0.03 z m 98.39,1.76 c 0.28,0 0.51,-0.01 0.71,-0.03 0.2,-0.03 0.35,-0.06 0.46,-0.12 0.11,-0.05 0.19,-0.11 0.24,-0.18 0.05,-0.07 0.08,-0.15 0.08,-0.23 v -20.99 c 0,-0.23 -0.04,-0.43 -0.12,-0.6 -0.08,-0.16 -0.18,-0.3 -0.31,-0.4 -0.13,-0.11 -0.27,-0.18 -0.43,-0.23 -0.15,-0.05 -0.31,-0.07 -0.47,-0.07 h -1 c -0.31,0 -0.59,0.03 -0.83,0.1 -0.23,0.06 -0.46,0.18 -0.67,0.35 -0.21,0.17 -0.42,0.4 -0.64,0.69 -0.21,0.3 -0.43,0.67 -0.67,1.13 l -6.94,12.94 c -0.36,0.66 -0.73,1.36 -1.1,2.1 -0.36,0.73 -0.71,1.44 -1.03,2.13 h -0.03 c 0.02,-0.84 0.04,-1.7 0.05,-2.58 0.01,-0.88 0.02,-1.75 0.02,-2.62 v -13.73 c 0,-0.08 -0.02,-0.16 -0.07,-0.24 -0.05,-0.07 -0.14,-0.13 -0.25,-0.17 -0.12,-0.04 -0.28,-0.08 -0.47,-0.11 -0.19,-0.03 -0.43,-0.04 -0.73,-0.04 -0.3,0 -0.54,0.01 -0.73,0.04 -0.2,0.03 -0.35,0.07 -0.46,0.11 -0.11,0.04 -0.19,0.1 -0.24,0.17 -0.05,0.08 -0.07,0.16 -0.07,0.24 v 20.99 c 0,0.47 0.13,0.8 0.4,1 0.26,0.2 0.55,0.3 0.87,0.3 h 1.48 c 0.35,0 0.65,-0.03 0.88,-0.09 0.24,-0.06 0.45,-0.15 0.64,-0.29 0.19,-0.13 0.37,-0.32 0.54,-0.56 0.18,-0.24 0.36,-0.54 0.56,-0.91 l 5.33,-9.98 c 0.33,-0.61 0.65,-1.2 0.95,-1.78 0.31,-0.58 0.6,-1.16 0.88,-1.72 0.29,-0.56 0.57,-1.11 0.85,-1.66 0.27,-0.54 0.55,-1.09 0.82,-1.64 h 0.02 c -0.03,0.92 -0.04,1.89 -0.05,2.89 0,1 -0.01,1.96 -0.01,2.89 v 12.34 c 0,0.08 0.03,0.16 0.08,0.23 0.05,0.07 0.13,0.13 0.25,0.18 0.12,0.06 0.27,0.09 0.46,0.12 0.19,0.02 0.44,0.03 0.75,0.03 z m -23.28,0 c 0.28,0 0.51,-0.01 0.71,-0.03 0.2,-0.03 0.35,-0.06 0.46,-0.12 0.11,-0.05 0.19,-0.11 0.24,-0.18 0.05,-0.07 0.08,-0.15 0.08,-0.23 v -20.99 c 0,-0.23 -0.04,-0.43 -0.12,-0.6 -0.08,-0.16 -0.18,-0.3 -0.31,-0.4 -0.13,-0.11 -0.27,-0.18 -0.43,-0.23 -0.15,-0.05 -0.31,-0.07 -0.47,-0.07 h -1 c -0.31,0 -0.59,0.03 -0.83,0.1 -0.23,0.06 -0.46,0.18 -0.67,0.35 -0.21,0.17 -0.42,0.4 -0.64,0.69 -0.21,0.3 -0.43,0.67 -0.67,1.13 l -6.94,12.94 c -0.36,0.66 -0.73,1.36 -1.1,2.1 -0.36,0.73 -0.71,1.44 -1.03,2.13 h -0.03 c 0.02,-0.84 0.04,-1.7 0.05,-2.58 0.01,-0.88 0.02,-1.75 0.02,-2.62 v -13.73 c 0,-0.08 -0.02,-0.16 -0.07,-0.24 -0.05,-0.07 -0.14,-0.13 -0.25,-0.17 -0.12,-0.04 -0.28,-0.08 -0.47,-0.11 -0.19,-0.03 -0.43,-0.04 -0.73,-0.04 -0.3,0 -0.54,0.01 -0.73,0.04 -0.2,0.03 -0.35,0.07 -0.46,0.11 -0.11,0.04 -0.19,0.1 -0.24,0.17 -0.05,0.08 -0.07,0.16 -0.07,0.24 v 20.99 c 0,0.47 0.13,0.8 0.4,1 0.26,0.2 0.55,0.3 0.87,0.3 h 1.48 c 0.35,0 0.65,-0.03 0.88,-0.09 0.24,-0.06 0.45,-0.15 0.64,-0.29 0.19,-0.13 0.37,-0.32 0.54,-0.56 0.18,-0.24 0.36,-0.54 0.56,-0.91 l 5.33,-9.98 c 0.33,-0.61 0.65,-1.2 0.95,-1.78 0.31,-0.58 0.6,-1.16 0.88,-1.72 0.29,-0.56 0.57,-1.11 0.85,-1.66 0.27,-0.54 0.55,-1.09 0.82,-1.64 h 0.02 c -0.03,0.92 -0.04,1.89 -0.05,2.89 0,1 -0.01,1.96 -0.01,2.89 v 12.34 c 0,0.08 0.03,0.16 0.08,0.23 0.05,0.07 0.13,0.13 0.25,0.18 0.12,0.06 0.27,0.09 0.46,0.12 0.19,0.02 0.44,0.03 0.75,0.03 z m -103.23,0.05 c 0.29,0 0.53,-0.01 0.73,-0.04 0.19,-0.03 0.35,-0.06 0.46,-0.1 0.12,-0.05 0.2,-0.1 0.25,-0.17 0.05,-0.07 0.07,-0.15 0.07,-0.25 v -21.83 c 0,-0.09 -0.02,-0.18 -0.07,-0.25 -0.05,-0.07 -0.13,-0.12 -0.25,-0.16 -0.11,-0.04 -0.27,-0.08 -0.46,-0.11 -0.2,-0.03 -0.44,-0.04 -0.73,-0.04 -0.28,0 -0.52,0.01 -0.72,0.04 -0.2,0.03 -0.36,0.07 -0.48,0.11 -0.11,0.04 -0.2,0.09 -0.24,0.16 -0.05,0.07 -0.07,0.16 -0.07,0.25 v 21.83 c 0,0.1 0.02,0.18 0.08,0.25 0.05,0.07 0.14,0.12 0.26,0.17 0.12,0.04 0.28,0.07 0.47,0.1 0.2,0.03 0.43,0.04 0.7,0.04 z m 77.01,0.18 c 0.66,0 1.29,-0.06 1.92,-0.18 0.62,-0.13 1.19,-0.28 1.72,-0.47 0.53,-0.19 0.99,-0.4 1.4,-0.65 0.41,-0.25 0.7,-0.45 0.86,-0.61 0.16,-0.15 0.26,-0.27 0.3,-0.36 0.05,-0.08 0.09,-0.18 0.12,-0.29 0.03,-0.11 0.05,-0.24 0.07,-0.39 0.02,-0.15 0.03,-0.34 0.03,-0.55 0,-0.23 -0.02,-0.43 -0.04,-0.59 -0.02,-0.17 -0.06,-0.31 -0.11,-0.42 -0.04,-0.11 -0.1,-0.19 -0.16,-0.24 -0.07,-0.06 -0.15,-0.08 -0.24,-0.08 -0.17,0 -0.4,0.11 -0.69,0.34 -0.3,0.23 -0.68,0.48 -1.14,0.76 -0.47,0.27 -1.03,0.52 -1.7,0.75 -0.66,0.23 -1.46,0.34 -2.39,0.34 -1.02,0 -1.94,-0.2 -2.77,-0.6 -0.83,-0.41 -1.54,-1 -2.13,-1.79 -0.59,-0.78 -1.04,-1.74 -1.37,-2.87 -0.32,-1.13 -0.48,-2.42 -0.48,-3.88 0,-1.44 0.15,-2.71 0.47,-3.82 0.31,-1.11 0.76,-2.03 1.34,-2.78 0.58,-0.74 1.3,-1.3 2.15,-1.68 0.84,-0.39 1.8,-0.58 2.88,-0.58 0.9,0 1.7,0.12 2.37,0.34 0.68,0.22 1.26,0.47 1.73,0.75 0.48,0.27 0.87,0.52 1.18,0.74 0.31,0.22 0.55,0.34 0.72,0.34 0.09,0 0.16,-0.02 0.22,-0.06 0.06,-0.03 0.1,-0.1 0.14,-0.2 0.03,-0.1 0.06,-0.24 0.08,-0.41 0.01,-0.18 0.02,-0.4 0.02,-0.67 0,-0.19 0,-0.35 -0.01,-0.49 -0.02,-0.14 -0.04,-0.27 -0.07,-0.37 -0.02,-0.11 -0.06,-0.2 -0.11,-0.28 -0.05,-0.08 -0.13,-0.18 -0.25,-0.3 -0.11,-0.12 -0.36,-0.3 -0.73,-0.54 -0.38,-0.24 -0.84,-0.47 -1.4,-0.7 -0.56,-0.23 -1.2,-0.42 -1.92,-0.58 -0.72,-0.16 -1.51,-0.24 -2.36,-0.24 -1.48,0 -2.81,0.25 -4,0.74 -1.19,0.49 -2.2,1.22 -3.04,2.18 -0.84,0.96 -1.48,2.15 -1.94,3.56 -0.45,1.41 -0.67,3.04 -0.67,4.88 0,1.88 0.24,3.57 0.73,5.04 0.48,1.48 1.17,2.73 2.05,3.76 0.87,1.02 1.93,1.8 3.15,2.34 1.23,0.54 2.58,0.81 4.07,0.81 z" /><path
       id="path154"
       style="fill:#ffffff;fill-opacity:1;fill-rule:evenodd;stroke:none"
       d="m 348.68,184.66 c -0.74,0 -1.37,-0.18 -1.88,-0.53 -0.52,-0.35 -0.94,-0.81 -1.26,-1.39 -0.32,-0.57 -0.56,-1.22 -0.7,-1.95 -0.15,-0.73 -0.22,-1.46 -0.22,-2.21 0,-0.8 0.06,-1.58 0.18,-2.34 0.12,-0.76 0.34,-1.44 0.64,-2.03 0.31,-0.59 0.71,-1.07 1.22,-1.43 0.5,-0.35 1.13,-0.53 1.89,-0.53 0.39,0 0.76,0.05 1.12,0.16 0.36,0.1 0.72,0.28 1.1,0.52 0.37,0.25 0.77,0.57 1.18,0.96 0.41,0.39 0.84,0.88 1.3,1.45 v 6.33 c -0.79,0.97 -1.55,1.71 -2.28,2.22 -0.73,0.51 -1.5,0.77 -2.29,0.77 z m -18.18,0.07 c -0.86,0 -1.61,-0.15 -2.23,-0.46 -0.62,-0.3 -1.13,-0.73 -1.53,-1.29 -0.4,-0.56 -0.7,-1.22 -0.9,-1.98 -0.19,-0.76 -0.29,-1.59 -0.29,-2.49 0,-0.87 0.08,-1.69 0.24,-2.45 0.16,-0.76 0.43,-1.42 0.8,-1.99 0.37,-0.57 0.87,-1.02 1.5,-1.36 0.62,-0.33 1.4,-0.5 2.34,-0.5 0.85,0 1.59,0.16 2.22,0.46 0.62,0.3 1.14,0.73 1.54,1.28 0.4,0.55 0.7,1.21 0.89,1.97 0.18,0.76 0.28,1.6 0.28,2.52 0,0.85 -0.08,1.66 -0.24,2.42 -0.16,0.76 -0.42,1.43 -0.79,2.01 -0.37,0.57 -0.86,1.02 -1.49,1.36 -0.63,0.33 -1.41,0.5 -2.34,0.5 z m 37.46,0.16 c -0.72,0 -1.35,-0.14 -1.89,-0.41 -0.54,-0.27 -1,-0.62 -1.36,-1.07 -0.37,-0.45 -0.65,-0.96 -0.85,-1.56 -0.2,-0.59 -0.31,-1.21 -0.34,-1.85 h 8.63 c 0.04,1.52 -0.3,2.72 -1.01,3.59 -0.72,0.86 -1.77,1.3 -3.18,1.3 z m 0.15,2.26 c 1.24,0 2.3,-0.2 3.17,-0.59 0.88,-0.4 1.6,-0.94 2.16,-1.61 0.56,-0.68 0.97,-1.47 1.24,-2.37 0.26,-0.91 0.39,-1.88 0.39,-2.91 v -0.53 c 0,-0.46 -0.11,-0.78 -0.34,-0.98 -0.23,-0.19 -0.49,-0.29 -0.79,-0.29 h -10.42 c 0,-0.88 0.09,-1.67 0.27,-2.37 0.18,-0.7 0.47,-1.31 0.88,-1.81 0.41,-0.5 0.95,-0.89 1.61,-1.16 0.66,-0.27 1.47,-0.41 2.42,-0.41 0.75,0 1.42,0.07 2.01,0.19 0.59,0.12 1.1,0.26 1.53,0.41 0.43,0.15 0.78,0.29 1.06,0.42 0.28,0.12 0.49,0.18 0.63,0.18 0.08,0 0.15,-0.02 0.22,-0.06 0.06,-0.04 0.11,-0.1 0.15,-0.19 0.03,-0.08 0.06,-0.19 0.08,-0.34 0.02,-0.15 0.02,-0.32 0.02,-0.53 0,-0.16 0,-0.29 -0.01,-0.4 -0.01,-0.11 -0.03,-0.21 -0.05,-0.3 -0.01,-0.09 -0.04,-0.17 -0.09,-0.24 -0.04,-0.07 -0.09,-0.13 -0.15,-0.2 -0.07,-0.06 -0.26,-0.17 -0.57,-0.31 -0.32,-0.15 -0.73,-0.3 -1.23,-0.44 -0.51,-0.14 -1.09,-0.26 -1.75,-0.37 -0.67,-0.11 -1.37,-0.17 -2.12,-0.17 -1.3,0 -2.44,0.18 -3.42,0.54 -0.98,0.37 -1.8,0.91 -2.47,1.62 -0.67,0.72 -1.17,1.61 -1.51,2.69 -0.34,1.08 -0.51,2.33 -0.51,3.76 0,1.36 0.17,2.58 0.53,3.67 0.35,1.08 0.85,2 1.52,2.76 0.66,0.75 1.46,1.33 2.39,1.74 0.94,0.4 1.99,0.6 3.15,0.6 z m -37.5,0 c 1.3,0 2.44,-0.19 3.4,-0.58 0.97,-0.38 1.78,-0.95 2.42,-1.68 0.65,-0.74 1.13,-1.64 1.45,-2.69 0.32,-1.06 0.49,-2.25 0.49,-3.57 0,-1.29 -0.17,-2.48 -0.51,-3.56 -0.34,-1.08 -0.85,-2.02 -1.53,-2.8 -0.67,-0.79 -1.51,-1.4 -2.53,-1.84 -1.01,-0.44 -2.18,-0.66 -3.52,-0.66 -1.3,0 -2.44,0.19 -3.4,0.58 -0.97,0.39 -1.77,0.95 -2.42,1.69 -0.64,0.74 -1.12,1.63 -1.44,2.69 -0.32,1.05 -0.48,2.25 -0.48,3.58 0,1.29 0.17,2.48 0.51,3.56 0.33,1.09 0.83,2.02 1.51,2.81 0.67,0.78 1.51,1.39 2.52,1.82 1.01,0.44 2.19,0.65 3.53,0.65 z m -28.01,0 c 0.66,0 1.25,-0.07 1.77,-0.22 0.52,-0.16 0.98,-0.37 1.38,-0.65 0.4,-0.27 0.74,-0.6 1.02,-0.98 0.28,-0.38 0.52,-0.81 0.7,-1.27 0.53,0.57 1.03,1.06 1.51,1.45 0.47,0.4 0.93,0.72 1.37,0.97 0.44,0.25 0.86,0.43 1.28,0.54 0.42,0.11 0.84,0.16 1.26,0.16 1.02,0 1.87,-0.17 2.56,-0.53 0.7,-0.36 1.25,-0.84 1.68,-1.43 0.43,-0.6 0.74,-1.3 0.92,-2.11 0.18,-0.8 0.27,-1.64 0.27,-2.54 v -10 c 0,-0.09 -0.02,-0.17 -0.07,-0.23 -0.05,-0.07 -0.12,-0.12 -0.23,-0.17 -0.11,-0.05 -0.25,-0.08 -0.44,-0.11 -0.19,-0.02 -0.42,-0.03 -0.7,-0.03 -0.3,0 -0.54,0.01 -0.72,0.03 -0.19,0.03 -0.34,0.06 -0.45,0.11 -0.11,0.05 -0.19,0.1 -0.24,0.17 -0.05,0.06 -0.07,0.14 -0.07,0.23 v 9.62 c 0,0.67 -0.06,1.28 -0.17,1.83 -0.12,0.55 -0.31,1.02 -0.57,1.42 -0.25,0.4 -0.58,0.7 -0.98,0.91 -0.4,0.22 -0.87,0.32 -1.41,0.32 -0.67,0 -1.34,-0.26 -2.01,-0.77 -0.67,-0.52 -1.42,-1.27 -2.22,-2.27 v -11.06 c 0,-0.09 -0.03,-0.17 -0.07,-0.23 -0.05,-0.07 -0.13,-0.12 -0.24,-0.17 -0.11,-0.05 -0.26,-0.08 -0.45,-0.11 -0.19,-0.02 -0.42,-0.03 -0.7,-0.03 -0.27,0 -0.5,0.01 -0.7,0.03 -0.19,0.03 -0.34,0.06 -0.45,0.11 -0.12,0.05 -0.19,0.1 -0.23,0.17 -0.04,0.06 -0.06,0.14 -0.06,0.23 v 9.62 c 0,0.67 -0.07,1.28 -0.2,1.83 -0.13,0.55 -0.32,1.02 -0.58,1.42 -0.26,0.4 -0.58,0.7 -0.97,0.91 -0.4,0.22 -0.86,0.32 -1.4,0.32 -0.67,0 -1.34,-0.26 -2.02,-0.77 -0.68,-0.52 -1.42,-1.27 -2.22,-2.27 v -11.06 c 0,-0.09 -0.02,-0.17 -0.07,-0.23 -0.04,-0.07 -0.12,-0.12 -0.23,-0.17 -0.1,-0.05 -0.25,-0.08 -0.44,-0.11 -0.18,-0.02 -0.42,-0.03 -0.72,-0.03 -0.28,0 -0.51,0.01 -0.7,0.03 -0.19,0.03 -0.34,0.06 -0.45,0.11 -0.11,0.05 -0.19,0.1 -0.23,0.17 -0.04,0.06 -0.06,0.14 -0.06,0.23 v 15.82 c 0,0.1 0.02,0.18 0.06,0.24 0.03,0.06 0.1,0.12 0.21,0.18 0.1,0.05 0.24,0.08 0.4,0.1 0.16,0.02 0.38,0.03 0.65,0.03 0.26,0 0.47,-0.01 0.64,-0.03 0.17,-0.02 0.3,-0.05 0.4,-0.1 0.09,-0.06 0.16,-0.12 0.2,-0.18 0.04,-0.06 0.06,-0.14 0.06,-0.24 v -2.09 c 0.89,1 1.76,1.73 2.59,2.19 0.84,0.46 1.69,0.69 2.54,0.69 z m 52.09,7.37 c 0.29,0 0.53,-0.02 0.72,-0.04 0.19,-0.03 0.33,-0.07 0.44,-0.11 0.1,-0.04 0.18,-0.1 0.24,-0.18 0.05,-0.07 0.08,-0.15 0.08,-0.23 v -23.42 c 0,-0.09 -0.03,-0.17 -0.07,-0.24 -0.04,-0.07 -0.11,-0.13 -0.21,-0.17 -0.1,-0.04 -0.23,-0.07 -0.39,-0.1 -0.17,-0.02 -0.37,-0.03 -0.6,-0.03 -0.25,0 -0.45,0.01 -0.62,0.03 -0.16,0.03 -0.29,0.06 -0.4,0.1 -0.11,0.04 -0.18,0.1 -0.23,0.17 -0.05,0.07 -0.07,0.15 -0.07,0.24 v 2.09 c -0.83,-0.9 -1.7,-1.6 -2.59,-2.1 -0.9,-0.51 -1.88,-0.76 -2.95,-0.76 -1.16,0 -2.15,0.23 -2.97,0.68 -0.82,0.45 -1.48,1.06 -1.99,1.82 -0.51,0.77 -0.88,1.67 -1.12,2.71 -0.23,1.04 -0.35,2.13 -0.35,3.28 0,1.36 0.15,2.59 0.44,3.68 0.29,1.1 0.73,2.03 1.3,2.81 0.57,0.77 1.29,1.36 2.14,1.78 0.85,0.42 1.83,0.62 2.94,0.62 0.93,0 1.77,-0.2 2.54,-0.6 0.77,-0.41 1.53,-1 2.28,-1.79 v 9.2 c 0,0.08 0.02,0.16 0.06,0.23 0.04,0.08 0.12,0.14 0.24,0.18 0.11,0.04 0.26,0.08 0.44,0.11 0.19,0.02 0.42,0.04 0.7,0.04 z m 26.32,0.07 c 0.3,0 0.54,-0.01 0.72,-0.04 0.19,-0.02 0.34,-0.05 0.44,-0.1 0.11,-0.05 0.19,-0.11 0.23,-0.18 0.05,-0.07 0.07,-0.15 0.07,-0.24 v -23.49 c 0,-0.09 -0.02,-0.17 -0.07,-0.23 -0.04,-0.07 -0.12,-0.12 -0.23,-0.17 -0.1,-0.05 -0.25,-0.08 -0.44,-0.11 -0.18,-0.02 -0.42,-0.03 -0.72,-0.03 -0.28,0 -0.51,0.01 -0.7,0.03 -0.19,0.03 -0.34,0.06 -0.45,0.11 -0.11,0.05 -0.19,0.1 -0.23,0.17 -0.04,0.06 -0.06,0.14 -0.06,0.23 v 23.49 c 0,0.09 0.02,0.17 0.06,0.24 0.04,0.07 0.12,0.13 0.23,0.18 0.11,0.05 0.26,0.08 0.45,0.1 0.19,0.03 0.42,0.04 0.7,0.04 z" /><path
       id="path156"
       style="fill:none;stroke:#ffffff;stroke-width:0.72000003;stroke-linecap:butt;stroke-linejoin:round;stroke-miterlimit:10;stroke-dasharray:none;stroke-opacity:1"
       d="m 348.68,184.66 c -0.74,0 -1.37,-0.18 -1.88,-0.53 -0.52,-0.35 -0.94,-0.81 -1.26,-1.39 -0.32,-0.57 -0.56,-1.22 -0.7,-1.95 -0.15,-0.73 -0.22,-1.46 -0.22,-2.21 0,-0.8 0.06,-1.58 0.18,-2.34 0.12,-0.76 0.34,-1.44 0.64,-2.03 0.31,-0.59 0.71,-1.07 1.22,-1.43 0.5,-0.35 1.13,-0.53 1.89,-0.53 0.39,0 0.76,0.05 1.12,0.16 0.36,0.1 0.72,0.28 1.1,0.52 0.37,0.25 0.77,0.57 1.18,0.96 0.41,0.39 0.84,0.88 1.3,1.45 v 6.33 c -0.79,0.97 -1.55,1.71 -2.28,2.22 -0.73,0.51 -1.5,0.77 -2.29,0.77 z m -18.18,0.07 c -0.86,0 -1.61,-0.15 -2.23,-0.46 -0.62,-0.3 -1.13,-0.73 -1.53,-1.29 -0.4,-0.56 -0.7,-1.22 -0.9,-1.98 -0.19,-0.76 -0.29,-1.59 -0.29,-2.49 0,-0.87 0.08,-1.69 0.24,-2.45 0.16,-0.76 0.43,-1.42 0.8,-1.99 0.37,-0.57 0.87,-1.02 1.5,-1.36 0.62,-0.33 1.4,-0.5 2.34,-0.5 0.85,0 1.59,0.16 2.22,0.46 0.62,0.3 1.14,0.73 1.54,1.28 0.4,0.55 0.7,1.21 0.89,1.97 0.18,0.76 0.28,1.6 0.28,2.52 0,0.85 -0.08,1.66 -0.24,2.42 -0.16,0.76 -0.42,1.43 -0.79,2.01 -0.37,0.57 -0.86,1.02 -1.49,1.36 -0.63,0.33 -1.41,0.5 -2.34,0.5 z m 37.46,0.16 c -0.72,0 -1.35,-0.14 -1.89,-0.41 -0.54,-0.27 -1,-0.62 -1.36,-1.07 -0.37,-0.45 -0.65,-0.96 -0.85,-1.56 -0.2,-0.59 -0.31,-1.21 -0.34,-1.85 h 8.63 c 0.04,1.52 -0.3,2.72 -1.01,3.59 -0.72,0.86 -1.77,1.3 -3.18,1.3 z m 0.15,2.26 c 1.24,0 2.3,-0.2 3.17,-0.59 0.88,-0.4 1.6,-0.94 2.16,-1.61 0.56,-0.68 0.97,-1.47 1.24,-2.37 0.26,-0.91 0.39,-1.88 0.39,-2.91 v -0.53 c 0,-0.46 -0.11,-0.78 -0.34,-0.98 -0.23,-0.19 -0.49,-0.29 -0.79,-0.29 h -10.42 c 0,-0.88 0.09,-1.67 0.27,-2.37 0.18,-0.7 0.47,-1.31 0.88,-1.81 0.41,-0.5 0.95,-0.89 1.61,-1.16 0.66,-0.27 1.47,-0.41 2.42,-0.41 0.75,0 1.42,0.07 2.01,0.19 0.59,0.12 1.1,0.26 1.53,0.41 0.43,0.15 0.78,0.29 1.06,0.42 0.28,0.12 0.49,0.18 0.63,0.18 0.08,0 0.15,-0.02 0.22,-0.06 0.06,-0.04 0.11,-0.1 0.15,-0.19 0.03,-0.08 0.06,-0.19 0.08,-0.34 0.02,-0.15 0.02,-0.32 0.02,-0.53 0,-0.16 0,-0.29 -0.01,-0.4 -0.01,-0.11 -0.03,-0.21 -0.05,-0.3 -0.01,-0.09 -0.04,-0.17 -0.09,-0.24 -0.04,-0.07 -0.09,-0.13 -0.15,-0.2 -0.07,-0.06 -0.26,-0.17 -0.57,-0.31 -0.32,-0.15 -0.73,-0.3 -1.23,-0.44 -0.51,-0.14 -1.09,-0.26 -1.75,-0.37 -0.67,-0.11 -1.37,-0.17 -2.12,-0.17 -1.3,0 -2.44,0.18 -3.42,0.54 -0.98,0.37 -1.8,0.91 -2.47,1.62 -0.67,0.72 -1.17,1.61 -1.51,2.69 -0.34,1.08 -0.51,2.33 -0.51,3.76 0,1.36 0.17,2.58 0.53,3.67 0.35,1.08 0.85,2 1.52,2.76 0.66,0.75 1.46,1.33 2.39,1.74 0.94,0.4 1.99,0.6 3.15,0.6 z m -37.5,0 c 1.3,0 2.44,-0.19 3.4,-0.58 0.97,-0.38 1.78,-0.95 2.42,-1.68 0.65,-0.74 1.13,-1.64 1.45,-2.69 0.32,-1.06 0.49,-2.25 0.49,-3.57 0,-1.29 -0.17,-2.48 -0.51,-3.56 -0.34,-1.08 -0.85,-2.02 -1.53,-2.8 -0.67,-0.79 -1.51,-1.4 -2.53,-1.84 -1.01,-0.44 -2.18,-0.66 -3.52,-0.66 -1.3,0 -2.44,0.19 -3.4,0.58 -0.97,0.39 -1.77,0.95 -2.42,1.69 -0.64,0.74 -1.12,1.63 -1.44,2.69 -0.32,1.05 -0.48,2.25 -0.48,3.58 0,1.29 0.17,2.48 0.51,3.56 0.33,1.09 0.83,2.02 1.51,2.81 0.67,0.78 1.51,1.39 2.52,1.82 1.01,0.44 2.19,0.65 3.53,0.65 z m -28.01,0 c 0.66,0 1.25,-0.07 1.77,-0.22 0.52,-0.16 0.98,-0.37 1.38,-0.65 0.4,-0.27 0.74,-0.6 1.02,-0.98 0.28,-0.38 0.52,-0.81 0.7,-1.27 0.53,0.57 1.03,1.06 1.51,1.45 0.47,0.4 0.93,0.72 1.37,0.97 0.44,0.25 0.86,0.43 1.28,0.54 0.42,0.11 0.84,0.16 1.26,0.16 1.02,0 1.87,-0.17 2.56,-0.53 0.7,-0.36 1.25,-0.84 1.68,-1.43 0.43,-0.6 0.74,-1.3 0.92,-2.11 0.18,-0.8 0.27,-1.64 0.27,-2.54 v -10 c 0,-0.09 -0.02,-0.17 -0.07,-0.23 -0.05,-0.07 -0.12,-0.12 -0.23,-0.17 -0.11,-0.05 -0.25,-0.08 -0.44,-0.11 -0.19,-0.02 -0.42,-0.03 -0.7,-0.03 -0.3,0 -0.54,0.01 -0.72,0.03 -0.19,0.03 -0.34,0.06 -0.45,0.11 -0.11,0.05 -0.19,0.1 -0.24,0.17 -0.05,0.06 -0.07,0.14 -0.07,0.23 v 9.62 c 0,0.67 -0.06,1.28 -0.17,1.83 -0.12,0.55 -0.31,1.02 -0.57,1.42 -0.25,0.4 -0.58,0.7 -0.98,0.91 -0.4,0.22 -0.87,0.32 -1.41,0.32 -0.67,0 -1.34,-0.26 -2.01,-0.77 -0.67,-0.52 -1.42,-1.27 -2.22,-2.27 v -11.06 c 0,-0.09 -0.03,-0.17 -0.07,-0.23 -0.05,-0.07 -0.13,-0.12 -0.24,-0.17 -0.11,-0.05 -0.26,-0.08 -0.45,-0.11 -0.19,-0.02 -0.42,-0.03 -0.7,-0.03 -0.27,0 -0.5,0.01 -0.7,0.03 -0.19,0.03 -0.34,0.06 -0.45,0.11 -0.12,0.05 -0.19,0.1 -0.23,0.17 -0.04,0.06 -0.06,0.14 -0.06,0.23 v 9.62 c 0,0.67 -0.07,1.28 -0.2,1.83 -0.13,0.55 -0.32,1.02 -0.58,1.42 -0.26,0.4 -0.58,0.7 -0.97,0.91 -0.4,0.22 -0.86,0.32 -1.4,0.32 -0.67,0 -1.34,-0.26 -2.02,-0.77 -0.68,-0.52 -1.42,-1.27 -2.22,-2.27 v -11.06 c 0,-0.09 -0.02,-0.17 -0.07,-0.23 -0.04,-0.07 -0.12,-0.12 -0.23,-0.17 -0.1,-0.05 -0.25,-0.08 -0.44,-0.11 -0.18,-0.02 -0.42,-0.03 -0.72,-0.03 -0.28,0 -0.51,0.01 -0.7,0.03 -0.19,0.03 -0.34,0.06 -0.45,0.11 -0.11,0.05 -0.19,0.1 -0.23,0.17 -0.04,0.06 -0.06,0.14 -0.06,0.23 v 15.82 c 0,0.1 0.02,0.18 0.06,0.24 0.03,0.06 0.1,0.12 0.21,0.18 0.1,0.05 0.24,0.08 0.4,0.1 0.16,0.02 0.38,0.03 0.65,0.03 0.26,0 0.47,-0.01 0.64,-0.03 0.17,-0.02 0.3,-0.05 0.4,-0.1 0.09,-0.06 0.16,-0.12 0.2,-0.18 0.04,-0.06 0.06,-0.14 0.06,-0.24 v -2.09 c 0.89,1 1.76,1.73 2.59,2.19 0.84,0.46 1.69,0.69 2.54,0.69 z m 52.09,7.37 c 0.29,0 0.53,-0.02 0.72,-0.04 0.19,-0.03 0.33,-0.07 0.44,-0.11 0.1,-0.04 0.18,-0.1 0.24,-0.18 0.05,-0.07 0.08,-0.15 0.08,-0.23 v -23.42 c 0,-0.09 -0.03,-0.17 -0.07,-0.24 -0.04,-0.07 -0.11,-0.13 -0.21,-0.17 -0.1,-0.04 -0.23,-0.07 -0.39,-0.1 -0.17,-0.02 -0.37,-0.03 -0.6,-0.03 -0.25,0 -0.45,0.01 -0.62,0.03 -0.16,0.03 -0.29,0.06 -0.4,0.1 -0.11,0.04 -0.18,0.1 -0.23,0.17 -0.05,0.07 -0.07,0.15 -0.07,0.24 v 2.09 c -0.83,-0.9 -1.7,-1.6 -2.59,-2.1 -0.9,-0.51 -1.88,-0.76 -2.95,-0.76 -1.16,0 -2.15,0.23 -2.97,0.68 -0.82,0.45 -1.48,1.06 -1.99,1.82 -0.51,0.77 -0.88,1.67 -1.12,2.71 -0.23,1.04 -0.35,2.13 -0.35,3.28 0,1.36 0.15,2.59 0.44,3.68 0.29,1.1 0.73,2.03 1.3,2.81 0.57,0.77 1.29,1.36 2.14,1.78 0.85,0.42 1.83,0.62 2.94,0.62 0.93,0 1.77,-0.2 2.54,-0.6 0.77,-0.41 1.53,-1 2.28,-1.79 v 9.2 c 0,0.08 0.02,0.16 0.06,0.23 0.04,0.08 0.12,0.14 0.24,0.18 0.11,0.04 0.26,0.08 0.44,0.11 0.19,0.02 0.42,0.04 0.7,0.04 z m 26.32,0.07 c 0.3,0 0.54,-0.01 0.72,-0.04 0.19,-0.02 0.34,-0.05 0.44,-0.1 0.11,-0.05 0.19,-0.11 0.23,-0.18 0.05,-0.07 0.07,-0.15 0.07,-0.24 v -23.49 c 0,-0.09 -0.02,-0.17 -0.07,-0.23 -0.04,-0.07 -0.12,-0.12 -0.23,-0.17 -0.1,-0.05 -0.25,-0.08 -0.44,-0.11 -0.18,-0.02 -0.42,-0.03 -0.72,-0.03 -0.28,0 -0.51,0.01 -0.7,0.03 -0.19,0.03 -0.34,0.06 -0.45,0.11 -0.11,0.05 -0.19,0.1 -0.23,0.17 -0.04,0.06 -0.06,0.14 -0.06,0.23 v 23.49 c 0,0.09 0.02,0.17 0.06,0.24 0.04,0.07 0.12,0.13 0.23,0.18 0.11,0.05 0.26,0.08 0.45,0.1 0.19,0.03 0.42,0.04 0.7,0.04 z" /><path
       id="path158"
       style="fill:#c00000;fill-opacity:1;fill-rule:nonzero;stroke:none"
       d="m 423.96,201.62 256.29,0.44 -0.01,4.08 -256.28,-0.44 z m 254.26,-3.64 12.23,6.14 -12.25,6.1 z" /><path
       id="path160"
       style="fill:#ed7d31;fill-opacity:1;fill-rule:evenodd;stroke:none"
       d="M 282.12,32.28 H 395.64 V 89.4 H 282.12 Z" /><path
       id="path162"
       style="fill:none;stroke:#c55a11;stroke-width:2.16000009;stroke-linecap:butt;stroke-linejoin:round;stroke-miterlimit:10;stroke-dasharray:none;stroke-opacity:1"
       d="M 282.12,32.28 H 395.64 V 89.4 H 282.12 Z" /><path
       id="path164"
       style="fill:#ffffff;fill-opacity:1;fill-rule:evenodd;stroke:none"
       d="m 351.16,63.708 c -0.72,0 -1.35,-0.135 -1.9,-0.405 -0.54,-0.269 -0.99,-0.627 -1.36,-1.072 -0.36,-0.445 -0.65,-0.964 -0.85,-1.555 -0.2,-0.592 -0.31,-1.21 -0.33,-1.855 h 8.63 c 0.03,1.523 -0.31,2.719 -1.02,3.586 -0.71,0.867 -1.77,1.301 -3.17,1.301 z m 18.55,2.267 c 0.15,0 0.32,-0.008 0.52,-0.026 0.19,-0.018 0.39,-0.05 0.6,-0.097 0.21,-0.047 0.4,-0.099 0.57,-0.158 0.17,-0.059 0.29,-0.117 0.36,-0.176 0.08,-0.058 0.12,-0.114 0.15,-0.167 0.02,-0.052 0.04,-0.12 0.06,-0.202 0.01,-0.082 0.03,-0.202 0.03,-0.36 0.01,-0.158 0.01,-0.372 0.01,-0.642 0,-0.258 0,-0.474 -0.02,-0.65 -0.01,-0.176 -0.03,-0.314 -0.07,-0.413 -0.03,-0.1 -0.08,-0.176 -0.13,-0.229 -0.05,-0.053 -0.12,-0.079 -0.22,-0.079 -0.09,0 -0.21,0.026 -0.34,0.079 -0.14,0.053 -0.29,0.106 -0.46,0.158 -0.17,0.053 -0.36,0.103 -0.57,0.15 -0.21,0.047 -0.44,0.07 -0.69,0.07 -0.29,0 -0.58,-0.058 -0.86,-0.176 -0.28,-0.117 -0.57,-0.31 -0.88,-0.58 -0.31,-0.269 -0.64,-0.627 -0.98,-1.072 -0.34,-0.445 -0.71,-0.99 -1.12,-1.635 V 49.364 c 0,-0.094 -0.03,-0.173 -0.08,-0.237 -0.04,-0.065 -0.12,-0.12 -0.22,-0.167 -0.11,-0.047 -0.26,-0.082 -0.44,-0.106 -0.19,-0.023 -0.43,-0.035 -0.72,-0.035 -0.29,0 -0.52,0.012 -0.71,0.035 -0.18,0.024 -0.33,0.059 -0.45,0.106 -0.11,0.047 -0.18,0.102 -0.22,0.167 -0.04,0.064 -0.07,0.143 -0.07,0.237 v 15.82 c 0,0.094 0.02,0.173 0.06,0.238 0.03,0.064 0.1,0.123 0.21,0.175 0.1,0.053 0.24,0.088 0.4,0.106 0.17,0.017 0.38,0.026 0.65,0.026 0.26,0 0.47,-0.009 0.64,-0.026 0.17,-0.018 0.31,-0.053 0.4,-0.106 0.09,-0.052 0.16,-0.111 0.2,-0.175 0.04,-0.065 0.06,-0.144 0.06,-0.238 v -2.302 c 0.44,0.632 0.84,1.148 1.23,1.546 0.38,0.399 0.74,0.712 1.08,0.941 0.34,0.228 0.67,0.387 1.01,0.474 0.33,0.088 0.67,0.132 1.01,0.132 z m -18.41,0 c 1.25,0 2.3,-0.199 3.18,-0.597 0.87,-0.399 1.59,-0.935 2.15,-1.609 0.56,-0.674 0.98,-1.465 1.24,-2.373 0.26,-0.908 0.39,-1.878 0.39,-2.909 V 57.96 c 0,-0.457 -0.11,-0.783 -0.34,-0.976 -0.23,-0.193 -0.49,-0.29 -0.79,-0.29 h -10.41 c 0,-0.879 0.08,-1.67 0.26,-2.373 0.18,-0.703 0.47,-1.307 0.88,-1.811 0.42,-0.503 0.95,-0.89 1.61,-1.16 0.66,-0.269 1.47,-0.404 2.42,-0.404 0.76,0 1.43,0.062 2.02,0.185 0.58,0.123 1.09,0.26 1.52,0.413 0.43,0.152 0.79,0.29 1.06,0.413 0.28,0.123 0.49,0.184 0.63,0.184 0.08,0 0.16,-0.02 0.22,-0.061 0.07,-0.041 0.12,-0.103 0.15,-0.185 0.04,-0.082 0.06,-0.196 0.08,-0.343 0.02,-0.146 0.03,-0.325 0.03,-0.536 0,-0.152 -0.01,-0.284 -0.02,-0.395 -0.01,-0.112 -0.03,-0.211 -0.04,-0.299 -0.02,-0.088 -0.05,-0.167 -0.09,-0.237 -0.04,-0.071 -0.1,-0.138 -0.16,-0.202 -0.07,-0.065 -0.26,-0.17 -0.57,-0.317 -0.32,-0.146 -0.73,-0.29 -1.23,-0.431 -0.51,-0.14 -1.09,-0.266 -1.75,-0.377 -0.66,-0.112 -1.37,-0.167 -2.12,-0.167 -1.3,0 -2.44,0.181 -3.42,0.544 -0.98,0.364 -1.8,0.903 -2.47,1.618 -0.67,0.714 -1.17,1.611 -1.51,2.689 -0.34,1.078 -0.51,2.332 -0.51,3.762 0,1.359 0.18,2.581 0.53,3.665 0.35,1.084 0.86,2.004 1.52,2.76 0.66,0.755 1.46,1.336 2.4,1.74 0.93,0.404 1.98,0.606 3.14,0.606 z m -15.81,0 c 0.42,0 0.85,-0.035 1.27,-0.105 0.42,-0.07 0.8,-0.158 1.14,-0.264 0.34,-0.105 0.63,-0.22 0.87,-0.343 0.24,-0.123 0.42,-0.231 0.54,-0.325 0.13,-0.094 0.21,-0.176 0.25,-0.246 0.04,-0.07 0.07,-0.149 0.09,-0.237 0.02,-0.088 0.03,-0.196 0.05,-0.325 0.02,-0.129 0.03,-0.288 0.03,-0.475 0,-0.199 -0.01,-0.372 -0.03,-0.519 -0.02,-0.146 -0.05,-0.266 -0.09,-0.36 -0.04,-0.094 -0.09,-0.161 -0.15,-0.202 -0.05,-0.041 -0.12,-0.062 -0.19,-0.062 -0.1,0 -0.26,0.065 -0.46,0.194 -0.2,0.129 -0.45,0.266 -0.77,0.413 -0.32,0.146 -0.69,0.284 -1.12,0.413 -0.42,0.129 -0.91,0.193 -1.46,0.193 -0.5,0 -0.93,-0.055 -1.3,-0.167 -0.38,-0.111 -0.69,-0.269 -0.93,-0.474 -0.24,-0.205 -0.42,-0.449 -0.54,-0.73 -0.13,-0.281 -0.19,-0.586 -0.19,-0.914 0,-0.457 0.12,-0.841 0.35,-1.151 0.24,-0.311 0.54,-0.583 0.92,-0.818 0.37,-0.234 0.8,-0.445 1.28,-0.632 0.48,-0.188 0.97,-0.381 1.47,-0.58 0.5,-0.2 0.99,-0.422 1.48,-0.668 0.48,-0.247 0.91,-0.545 1.29,-0.897 0.37,-0.352 0.68,-0.773 0.9,-1.266 0.23,-0.492 0.35,-1.078 0.35,-1.757 0,-0.809 -0.15,-1.53 -0.45,-2.162 -0.3,-0.633 -0.73,-1.167 -1.28,-1.6 -0.55,-0.434 -1.2,-0.762 -1.96,-0.984 -0.77,-0.223 -1.6,-0.334 -2.52,-0.334 -0.56,0 -1.1,0.043 -1.61,0.131 -0.51,0.088 -0.96,0.2 -1.37,0.334 -0.4,0.135 -0.75,0.276 -1.03,0.422 -0.28,0.147 -0.48,0.279 -0.61,0.396 -0.13,0.117 -0.22,0.281 -0.28,0.492 -0.06,0.211 -0.09,0.498 -0.09,0.861 0,0.223 0.01,0.41 0.03,0.563 0.03,0.152 0.06,0.275 0.09,0.369 0.04,0.094 0.09,0.161 0.15,0.202 0.07,0.041 0.14,0.062 0.22,0.062 0.13,0 0.32,-0.08 0.57,-0.238 0.25,-0.158 0.57,-0.331 0.93,-0.518 0.37,-0.188 0.81,-0.361 1.31,-0.519 0.51,-0.158 1.09,-0.237 1.74,-0.237 0.5,0 0.94,0.053 1.34,0.158 0.4,0.106 0.74,0.261 1.04,0.466 0.29,0.205 0.52,0.466 0.67,0.782 0.16,0.317 0.24,0.692 0.24,1.125 0,0.445 -0.11,0.82 -0.34,1.125 -0.23,0.305 -0.53,0.574 -0.91,0.809 -0.37,0.234 -0.79,0.442 -1.26,0.624 -0.47,0.181 -0.95,0.372 -1.45,0.571 -0.5,0.199 -0.99,0.425 -1.46,0.677 -0.48,0.252 -0.9,0.559 -1.28,0.923 -0.37,0.363 -0.67,0.796 -0.9,1.3 -0.23,0.504 -0.34,1.108 -0.34,1.811 0,0.621 0.12,1.216 0.36,1.784 0.24,0.568 0.6,1.067 1.08,1.494 0.48,0.428 1.08,0.771 1.8,1.029 0.72,0.257 1.56,0.386 2.52,0.386 z m -26.11,5.801 c 0.28,0 0.52,-0.015 0.72,-0.044 0.2,-0.029 0.35,-0.064 0.46,-0.105 0.11,-0.041 0.19,-0.097 0.24,-0.167 0.05,-0.071 0.07,-0.153 0.07,-0.246 V 57.467 c 0,-1.054 0.13,-1.974 0.39,-2.759 0.25,-0.785 0.63,-1.439 1.11,-1.96 0.49,-0.522 1.07,-0.914 1.76,-1.178 0.69,-0.264 1.46,-0.395 2.31,-0.395 0.88,0 1.66,0.128 2.35,0.386 0.68,0.258 1.26,0.645 1.74,1.16 0.47,0.516 0.84,1.155 1.09,1.916 0.25,0.762 0.38,1.653 0.38,2.672 v 13.905 c 0,0.093 0.02,0.175 0.07,0.246 0.04,0.07 0.13,0.126 0.24,0.167 0.12,0.041 0.28,0.076 0.47,0.105 0.19,0.029 0.44,0.044 0.73,0.044 0.28,0 0.52,-0.015 0.71,-0.044 0.19,-0.029 0.35,-0.064 0.46,-0.105 0.11,-0.041 0.19,-0.097 0.24,-0.167 0.06,-0.071 0.08,-0.153 0.08,-0.246 V 57.327 c 0,-1.383 -0.2,-2.616 -0.6,-3.7 -0.41,-1.084 -0.99,-2.001 -1.74,-2.751 -0.75,-0.75 -1.66,-1.319 -2.74,-1.705 -1.08,-0.387 -2.3,-0.58 -3.67,-0.58 -1.26,0 -2.4,0.181 -3.43,0.544 -1.03,0.364 -1.92,0.9 -2.65,1.609 -0.74,0.709 -1.31,1.597 -1.71,2.663 -0.4,1.066 -0.6,2.297 -0.6,3.691 v 14.116 c 0,0.093 0.03,0.175 0.07,0.246 0.05,0.07 0.13,0.126 0.25,0.167 0.12,0.041 0.27,0.076 0.46,0.105 0.18,0.029 0.43,0.044 0.74,0.044 z" /><path
       id="path166"
       style="fill:none;stroke:#ffffff;stroke-width:0.72000003;stroke-linecap:butt;stroke-linejoin:round;stroke-miterlimit:10;stroke-dasharray:none;stroke-opacity:1"
       d="m 351.16,63.708 c -0.72,0 -1.35,-0.135 -1.9,-0.405 -0.54,-0.269 -0.99,-0.627 -1.36,-1.072 -0.36,-0.445 -0.65,-0.964 -0.85,-1.555 -0.2,-0.592 -0.31,-1.21 -0.33,-1.855 h 8.63 c 0.03,1.523 -0.31,2.719 -1.02,3.586 -0.71,0.867 -1.77,1.301 -3.17,1.301 z m 18.55,2.267 c 0.15,0 0.32,-0.008 0.52,-0.026 0.19,-0.018 0.39,-0.05 0.6,-0.097 0.21,-0.047 0.4,-0.099 0.57,-0.158 0.17,-0.059 0.29,-0.117 0.36,-0.176 0.08,-0.058 0.12,-0.114 0.15,-0.167 0.02,-0.052 0.04,-0.12 0.06,-0.202 0.01,-0.082 0.03,-0.202 0.03,-0.36 0.01,-0.158 0.01,-0.372 0.01,-0.642 0,-0.258 0,-0.474 -0.02,-0.65 -0.01,-0.176 -0.03,-0.314 -0.07,-0.413 -0.03,-0.1 -0.08,-0.176 -0.13,-0.229 -0.05,-0.053 -0.12,-0.079 -0.22,-0.079 -0.09,0 -0.21,0.026 -0.34,0.079 -0.14,0.053 -0.29,0.106 -0.46,0.158 -0.17,0.053 -0.36,0.103 -0.57,0.15 -0.21,0.047 -0.44,0.07 -0.69,0.07 -0.29,0 -0.58,-0.058 -0.86,-0.176 -0.28,-0.117 -0.57,-0.31 -0.88,-0.58 -0.31,-0.269 -0.64,-0.627 -0.98,-1.072 -0.34,-0.445 -0.71,-0.99 -1.12,-1.635 V 49.364 c 0,-0.094 -0.03,-0.173 -0.08,-0.237 -0.04,-0.065 -0.12,-0.12 -0.22,-0.167 -0.11,-0.047 -0.26,-0.082 -0.44,-0.106 -0.19,-0.023 -0.43,-0.035 -0.72,-0.035 -0.29,0 -0.52,0.012 -0.71,0.035 -0.18,0.024 -0.33,0.059 -0.45,0.106 -0.11,0.047 -0.18,0.102 -0.22,0.167 -0.04,0.064 -0.07,0.143 -0.07,0.237 v 15.82 c 0,0.094 0.02,0.173 0.06,0.238 0.03,0.064 0.1,0.123 0.21,0.175 0.1,0.053 0.24,0.088 0.4,0.106 0.17,0.017 0.38,0.026 0.65,0.026 0.26,0 0.47,-0.009 0.64,-0.026 0.17,-0.018 0.31,-0.053 0.4,-0.106 0.09,-0.052 0.16,-0.111 0.2,-0.175 0.04,-0.065 0.06,-0.144 0.06,-0.238 v -2.302 c 0.44,0.632 0.84,1.148 1.23,1.546 0.38,0.399 0.74,0.712 1.08,0.941 0.34,0.228 0.67,0.387 1.01,0.474 0.33,0.088 0.67,0.132 1.01,0.132 z m -18.41,0 c 1.25,0 2.3,-0.199 3.18,-0.597 0.87,-0.399 1.59,-0.935 2.15,-1.609 0.56,-0.674 0.98,-1.465 1.24,-2.373 0.26,-0.908 0.39,-1.878 0.39,-2.909 V 57.96 c 0,-0.457 -0.11,-0.783 -0.34,-0.976 -0.23,-0.193 -0.49,-0.29 -0.79,-0.29 h -10.41 c 0,-0.879 0.08,-1.67 0.26,-2.373 0.18,-0.703 0.47,-1.307 0.88,-1.811 0.42,-0.503 0.95,-0.89 1.61,-1.16 0.66,-0.269 1.47,-0.404 2.42,-0.404 0.76,0 1.43,0.062 2.02,0.185 0.58,0.123 1.09,0.26 1.52,0.413 0.43,0.152 0.79,0.29 1.06,0.413 0.28,0.123 0.49,0.184 0.63,0.184 0.08,0 0.16,-0.02 0.22,-0.061 0.07,-0.041 0.12,-0.103 0.15,-0.185 0.04,-0.082 0.06,-0.196 0.08,-0.343 0.02,-0.146 0.03,-0.325 0.03,-0.536 0,-0.152 -0.01,-0.284 -0.02,-0.395 -0.01,-0.112 -0.03,-0.211 -0.04,-0.299 -0.02,-0.088 -0.05,-0.167 -0.09,-0.237 -0.04,-0.071 -0.1,-0.138 -0.16,-0.202 -0.07,-0.065 -0.26,-0.17 -0.57,-0.317 -0.32,-0.146 -0.73,-0.29 -1.23,-0.431 -0.51,-0.14 -1.09,-0.266 -1.75,-0.377 -0.66,-0.112 -1.37,-0.167 -2.12,-0.167 -1.3,0 -2.44,0.181 -3.42,0.544 -0.98,0.364 -1.8,0.903 -2.47,1.618 -0.67,0.714 -1.17,1.611 -1.51,2.689 -0.34,1.078 -0.51,2.332 -0.51,3.762 0,1.359 0.18,2.581 0.53,3.665 0.35,1.084 0.86,2.004 1.52,2.76 0.66,0.755 1.46,1.336 2.4,1.74 0.93,0.404 1.98,0.606 3.14,0.606 z m -15.81,0 c 0.42,0 0.85,-0.035 1.27,-0.105 0.42,-0.07 0.8,-0.158 1.14,-0.264 0.34,-0.105 0.63,-0.22 0.87,-0.343 0.24,-0.123 0.42,-0.231 0.54,-0.325 0.13,-0.094 0.21,-0.176 0.25,-0.246 0.04,-0.07 0.07,-0.149 0.09,-0.237 0.02,-0.088 0.03,-0.196 0.05,-0.325 0.02,-0.129 0.03,-0.288 0.03,-0.475 0,-0.199 -0.01,-0.372 -0.03,-0.519 -0.02,-0.146 -0.05,-0.266 -0.09,-0.36 -0.04,-0.094 -0.09,-0.161 -0.15,-0.202 -0.05,-0.041 -0.12,-0.062 -0.19,-0.062 -0.1,0 -0.26,0.065 -0.46,0.194 -0.2,0.129 -0.45,0.266 -0.77,0.413 -0.32,0.146 -0.69,0.284 -1.12,0.413 -0.42,0.129 -0.91,0.193 -1.46,0.193 -0.5,0 -0.93,-0.055 -1.3,-0.167 -0.38,-0.111 -0.69,-0.269 -0.93,-0.474 -0.24,-0.205 -0.42,-0.449 -0.54,-0.73 -0.13,-0.281 -0.19,-0.586 -0.19,-0.914 0,-0.457 0.12,-0.841 0.35,-1.151 0.24,-0.311 0.54,-0.583 0.92,-0.818 0.37,-0.234 0.8,-0.445 1.28,-0.632 0.48,-0.188 0.97,-0.381 1.47,-0.58 0.5,-0.2 0.99,-0.422 1.48,-0.668 0.48,-0.247 0.91,-0.545 1.29,-0.897 0.37,-0.352 0.68,-0.773 0.9,-1.266 0.23,-0.492 0.35,-1.078 0.35,-1.757 0,-0.809 -0.15,-1.53 -0.45,-2.162 -0.3,-0.633 -0.73,-1.167 -1.28,-1.6 -0.55,-0.434 -1.2,-0.762 -1.96,-0.984 -0.77,-0.223 -1.6,-0.334 -2.52,-0.334 -0.56,0 -1.1,0.043 -1.61,0.131 -0.51,0.088 -0.96,0.2 -1.37,0.334 -0.4,0.135 -0.75,0.276 -1.03,0.422 -0.28,0.147 -0.48,0.279 -0.61,0.396 -0.13,0.117 -0.22,0.281 -0.28,0.492 -0.06,0.211 -0.09,0.498 -0.09,0.861 0,0.223 0.01,0.41 0.03,0.563 0.03,0.152 0.06,0.275 0.09,0.369 0.04,0.094 0.09,0.161 0.15,0.202 0.07,0.041 0.14,0.062 0.22,0.062 0.13,0 0.32,-0.08 0.57,-0.238 0.25,-0.158 0.57,-0.331 0.93,-0.518 0.37,-0.188 0.81,-0.361 1.31,-0.519 0.51,-0.158 1.09,-0.237 1.74,-0.237 0.5,0 0.94,0.053 1.34,0.158 0.4,0.106 0.74,0.261 1.04,0.466 0.29,0.205 0.52,0.466 0.67,0.782 0.16,0.317 0.24,0.692 0.24,1.125 0,0.445 -0.11,0.82 -0.34,1.125 -0.23,0.305 -0.53,0.574 -0.91,0.809 -0.37,0.234 -0.79,0.442 -1.26,0.624 -0.47,0.181 -0.95,0.372 -1.45,0.571 -0.5,0.199 -0.99,0.425 -1.46,0.677 -0.48,0.252 -0.9,0.559 -1.28,0.923 -0.37,0.363 -0.67,0.796 -0.9,1.3 -0.23,0.504 -0.34,1.108 -0.34,1.811 0,0.621 0.12,1.216 0.36,1.784 0.24,0.568 0.6,1.067 1.08,1.494 0.48,0.428 1.08,0.771 1.8,1.029 0.72,0.257 1.56,0.386 2.52,0.386 z m -26.11,5.801 c 0.28,0 0.52,-0.015 0.72,-0.044 0.2,-0.029 0.35,-0.064 0.46,-0.105 0.11,-0.041 0.19,-0.097 0.24,-0.167 0.05,-0.071 0.07,-0.153 0.07,-0.246 V 57.467 c 0,-1.054 0.13,-1.974 0.39,-2.759 0.25,-0.785 0.63,-1.439 1.11,-1.96 0.49,-0.522 1.07,-0.914 1.76,-1.178 0.69,-0.264 1.46,-0.395 2.31,-0.395 0.88,0 1.66,0.128 2.35,0.386 0.68,0.258 1.26,0.645 1.74,1.16 0.47,0.516 0.84,1.155 1.09,1.916 0.25,0.762 0.38,1.653 0.38,2.672 v 13.905 c 0,0.093 0.02,0.175 0.07,0.246 0.04,0.07 0.13,0.126 0.24,0.167 0.12,0.041 0.28,0.076 0.47,0.105 0.19,0.029 0.44,0.044 0.73,0.044 0.28,0 0.52,-0.015 0.71,-0.044 0.19,-0.029 0.35,-0.064 0.46,-0.105 0.11,-0.041 0.19,-0.097 0.24,-0.167 0.06,-0.071 0.08,-0.153 0.08,-0.246 V 57.327 c 0,-1.383 -0.2,-2.616 -0.6,-3.7 -0.41,-1.084 -0.99,-2.001 -1.74,-2.751 -0.75,-0.75 -1.66,-1.319 -2.74,-1.705 -1.08,-0.387 -2.3,-0.58 -3.67,-0.58 -1.26,0 -2.4,0.181 -3.43,0.544 -1.03,0.364 -1.92,0.9 -2.65,1.609 -0.74,0.709 -1.31,1.597 -1.71,2.663 -0.4,1.066 -0.6,2.297 -0.6,3.691 v 14.116 c 0,0.093 0.03,0.175 0.07,0.246 0.05,0.07 0.13,0.126 0.25,0.167 0.12,0.041 0.27,0.076 0.46,0.105 0.18,0.029 0.43,0.044 0.74,0.044 z" /><g
       id="g168"><g
         clip-path="url(#clipPath174)"
         id="g170"><text
           id="text178"
           style="font-variant:normal;font-weight:normal;font-size:36.02399826px;font-family:Calibri;-inkscape-font-specification:Calibri;writing-mode:lr-tb;fill:#c00000;fill-opacity:1;fill-rule:nonzero;stroke:none"
           transform="matrix(1,0,0,-1,443.26,212.86)"><tspan
             id="tspan176"
             y="0"
             x="0 18.516336 30.548351 48.488304 67.50898 75.686424 90.924576 102.84852 111.02597 130.01062">Prediction</tspan></text>
</g></g><g
       id="g180"><g
         clip-path="url(#clipPath186)"
         id="g182"><text
           id="text190"
           style="font-variant:normal;font-weight:normal;font-size:36.02399826px;font-family:Calibri;-inkscape-font-specification:Calibri;writing-mode:lr-tb;fill:#00b050;fill-opacity:1;fill-rule:nonzero;stroke:none"
           transform="matrix(1,0,0,-1,144.55,70.68)"><tspan
             id="tspan188"
             y="0"
             x="0 16.535015 31.773169 44.165424 52.342873 71.25547 90.168076 98.45359">Scribble</tspan></text>
</g></g><path
       id="path192"
       style="fill:#000000;fill-opacity:1;fill-rule:nonzero;stroke:none"
       d="m 137.65,200.82 106.04,0.71 -0.03,4.08 -106.03,-0.71 z m 104.02,-3.38 12.2,6.2 -12.28,6.04 z" /><g
       id="g194"><g
         clip-path="url(#clipPath200)"
         id="g196"><text
           id="text204"
           style="font-variant:normal;font-weight:normal;font-size:36.02399826px;font-family:Calibri;-inkscape-font-specification:Calibri;writing-mode:lr-tb;fill:#000000;fill-opacity:1;fill-rule:nonzero;stroke:none"
           transform="matrix(1,0,0,-1,150.46,216.38)"><tspan
             id="tspan202"
             y="0"
             x="0 9.0780478 37.861225 55.116718 72.084023">Image</tspan></text>
</g></g><path
       id="path206"
       style="fill:#00b050;fill-opacity:1;fill-rule:nonzero;stroke:none"
       d="M 282.18,58.794 H 82.26 V 144.96 H 243.6 v -4.08 H 84.3 l 2.04,2.04 V 60.834 l -2.04,2.04 h 197.88 z m -40.62,90.246 12.24,-6.12 -12.24,-6.12 z" /><path
       id="path208"
       style="fill:#c00000;fill-opacity:1;fill-rule:nonzero;stroke:none"
       d="M 622.44,374.4 H 82.26 V 261.47 H 243.6 c 1.13,0 2.04,0.91 2.04,2.04 0,1.13 -0.91,2.04 -2.04,2.04 H 84.3 l 2.04,-2.04 v 108.85 l -2.04,-2.04 h 538.14 c 1.13,0 2.04,0.91 2.04,2.04 0,1.13 -0.91,2.04 -2.04,2.04 z m -380.88,-117.01 12.24,6.12 -12.24,6.12 z" /><path
       id="path210"
       style="fill:none;stroke:#c00000;stroke-width:4.07999992;stroke-linecap:round;stroke-linejoin:miter;stroke-miterlimit:8;stroke-dasharray:none;stroke-opacity:1"
       d="M 622.44,60.719 V 372.36" /><path
       id="path212"
       style="fill:#c00000;fill-opacity:1;fill-rule:nonzero;stroke:none"
       d="M 622.5,62.88 H 405.84 c -1.13,0 -2.04,-0.913 -2.04,-2.04 0,-1.127 0.91,-2.04 2.04,-2.04 H 622.5 c 1.13,0 2.04,0.913 2.04,2.04 0,1.127 -0.91,2.04 -2.04,2.04 z m -214.62,4.08 -12.24,-6.12 12.24,-6.12 z" /></g></svg>