<?xml version="1.0" encoding="UTF-8" standalone="no"?>
<svg
   xmlns:dc="http://purl.org/dc/elements/1.1/"
   xmlns:cc="http://creativecommons.org/ns#"
   xmlns:rdf="http://www.w3.org/1999/02/22-rdf-syntax-ns#"
   xmlns:svg="http://www.w3.org/2000/svg"
   xmlns="http://www.w3.org/2000/svg"
   viewBox="0 0 833.01636 467.905"
   height="467.905"
   width="833.01636"
   xml:space="preserve"
   id="svg766"
   version="1.1"><metadata
     id="metadata772"><rdf:RDF><cc:Work
         rdf:about=""><dc:format>image/svg+xml</dc:format><dc:type
           rdf:resource="http://purl.org/dc/dcmitype/StillImage" /><dc:title></dc:title></cc:Work></rdf:RDF></metadata><defs
     id="defs770"><clipPath
       id="clipPath862"
       clipPathUnits="userSpaceOnUse"><path
         id="path860"
         d="m 50.1375,37.54375 h 253.63636 v 291.06 H 50.1375 Z" /></clipPath><clipPath
       id="clipPath872"
       clipPathUnits="userSpaceOnUse"><path
         id="path870"
         d="m 50.1375,37.54375 h 253.63636 v 291.06 H 50.1375 Z" /></clipPath><clipPath
       id="clipPath882"
       clipPathUnits="userSpaceOnUse"><path
         id="path880"
         d="m 50.1375,37.54375 h 253.63636 v 291.06 H 50.1375 Z" /></clipPath><clipPath
       id="clipPath892"
       clipPathUnits="userSpaceOnUse"><path
         id="path890"
         d="m 50.1375,37.54375 h 253.63636 v 291.06 H 50.1375 Z" /></clipPath><clipPath
       id="clipPath902"
       clipPathUnits="userSpaceOnUse"><path
         id="path900"
         d="m 50.1375,37.54375 h 253.63636 v 291.06 H 50.1375 Z" /></clipPath><clipPath
       id="clipPath912"
       clipPathUnits="userSpaceOnUse"><path
         id="path910"
         d="m 50.1375,37.54375 h 253.63636 v 291.06 H 50.1375 Z" /></clipPath><clipPath
       id="clipPath922"
       clipPathUnits="userSpaceOnUse"><path
         id="path920"
         d="m 50.1375,37.54375 h 253.63636 v 291.06 H 50.1375 Z" /></clipPath><clipPath
       id="clipPath1026"
       clipPathUnits="userSpaceOnUse"><path
         id="path1024"
         d="M 354.50114,37.54375 H 608.1375 v 291.06 H 354.50114 Z" /></clipPath><clipPath
       id="clipPath1036"
       clipPathUnits="userSpaceOnUse"><path
         id="path1034"
         d="M 354.50114,37.54375 H 608.1375 v 291.06 H 354.50114 Z" /></clipPath><clipPath
       id="clipPath1046"
       clipPathUnits="userSpaceOnUse"><path
         id="path1044"
         d="M 354.50114,37.54375 H 608.1375 v 291.06 H 354.50114 Z" /></clipPath><clipPath
       id="clipPath1056"
       clipPathUnits="userSpaceOnUse"><path
         id="path1054"
         d="M 354.50114,37.54375 H 608.1375 v 291.06 H 354.50114 Z" /></clipPath><clipPath
       id="clipPath1066"
       clipPathUnits="userSpaceOnUse"><path
         id="path1064"
         d="M 354.50114,37.54375 H 608.1375 v 291.06 H 354.50114 Z" /></clipPath><clipPath
       id="clipPath1076"
       clipPathUnits="userSpaceOnUse"><path
         id="path1074"
         d="M 354.50114,37.54375 H 608.1375 v 291.06 H 354.50114 Z" /></clipPath><clipPath
       id="clipPath1086"
       clipPathUnits="userSpaceOnUse"><path
         id="path1084"
         d="M 354.50114,37.54375 H 608.1375 v 291.06 H 354.50114 Z" /></clipPath></defs><g
     transform="matrix(1.3333333,0,0,-1.3333333,0,467.905)"
     id="g774"><path
       id="path776"
       style="fill:#000000;fill-opacity:1;fill-rule:nonzero;stroke:#000000;stroke-width:0.80000001;stroke-linecap:butt;stroke-linejoin:round;stroke-miterlimit:10;stroke-dasharray:none;stroke-opacity:1"
       d="m 61.666426,37.54375 v -3.5" /><text
       id="text780"
       style="font-variant:normal;font-weight:normal;font-size:10px;font-family:DejaVuSans;-inkscape-font-specification:DejaVuSans;writing-mode:lr-tb;fill:#000000;fill-opacity:1;fill-rule:nonzero;stroke:none"
       transform="matrix(1,0,0,-1,58.486738,22.95)"><tspan
         id="tspan778"
         y="0"
         x="0">0</tspan></text>
<path
       id="path782"
       style="fill:#000000;fill-opacity:1;fill-rule:nonzero;stroke:#000000;stroke-width:0.80000001;stroke-linecap:butt;stroke-linejoin:round;stroke-miterlimit:10;stroke-dasharray:none;stroke-opacity:1"
       d="m 101.46867,37.54375 v -3.5" /><text
       id="text786"
       style="font-variant:normal;font-weight:normal;font-size:10px;font-family:DejaVuSans;-inkscape-font-specification:DejaVuSans;writing-mode:lr-tb;fill:#000000;fill-opacity:1;fill-rule:nonzero;stroke:none"
       transform="matrix(1,0,0,-1,91.929606,22.95)"><tspan
         id="tspan784"
         y="0"
         x="0 6.3600001 12.72">200</tspan></text>
<path
       id="path788"
       style="fill:#000000;fill-opacity:1;fill-rule:nonzero;stroke:#000000;stroke-width:0.80000001;stroke-linecap:butt;stroke-linejoin:round;stroke-miterlimit:10;stroke-dasharray:none;stroke-opacity:1"
       d="m 141.27091,37.54375 v -3.5" /><text
       id="text792"
       style="font-variant:normal;font-weight:normal;font-size:10px;font-family:DejaVuSans;-inkscape-font-specification:DejaVuSans;writing-mode:lr-tb;fill:#000000;fill-opacity:1;fill-rule:nonzero;stroke:none"
       transform="matrix(1,0,0,-1,131.73185,22.95)"><tspan
         id="tspan790"
         y="0"
         x="0 6.3600001 12.72">400</tspan></text>
<path
       id="path794"
       style="fill:#000000;fill-opacity:1;fill-rule:nonzero;stroke:#000000;stroke-width:0.80000001;stroke-linecap:butt;stroke-linejoin:round;stroke-miterlimit:10;stroke-dasharray:none;stroke-opacity:1"
       d="m 181.07315,37.54375 v -3.5" /><text
       id="text798"
       style="font-variant:normal;font-weight:normal;font-size:10px;font-family:DejaVuSans;-inkscape-font-specification:DejaVuSans;writing-mode:lr-tb;fill:#000000;fill-opacity:1;fill-rule:nonzero;stroke:none"
       transform="matrix(1,0,0,-1,171.53409,22.95)"><tspan
         id="tspan796"
         y="0"
         x="0 6.3600001 12.72">600</tspan></text>
<path
       id="path800"
       style="fill:#000000;fill-opacity:1;fill-rule:nonzero;stroke:#000000;stroke-width:0.80000001;stroke-linecap:butt;stroke-linejoin:round;stroke-miterlimit:10;stroke-dasharray:none;stroke-opacity:1"
       d="m 220.8754,37.54375 v -3.5" /><text
       id="text804"
       style="font-variant:normal;font-weight:normal;font-size:10px;font-family:DejaVuSans;-inkscape-font-specification:DejaVuSans;writing-mode:lr-tb;fill:#000000;fill-opacity:1;fill-rule:nonzero;stroke:none"
       transform="matrix(1,0,0,-1,211.33634,22.95)"><tspan
         id="tspan802"
         y="0"
         x="0 6.3600001 12.72">800</tspan></text>
<path
       id="path806"
       style="fill:#000000;fill-opacity:1;fill-rule:nonzero;stroke:#000000;stroke-width:0.80000001;stroke-linecap:butt;stroke-linejoin:round;stroke-miterlimit:10;stroke-dasharray:none;stroke-opacity:1"
       d="m 260.67764,37.54375 v -3.5" /><text
       id="text810"
       style="font-variant:normal;font-weight:normal;font-size:10px;font-family:DejaVuSans;-inkscape-font-specification:DejaVuSans;writing-mode:lr-tb;fill:#000000;fill-opacity:1;fill-rule:nonzero;stroke:none"
       transform="matrix(1,0,0,-1,247.95889,22.95)"><tspan
         id="tspan808"
         y="0"
         x="0 6.3600001 12.72 19.08">1000</tspan></text>
<path
       id="path812"
       style="fill:#000000;fill-opacity:1;fill-rule:nonzero;stroke:#000000;stroke-width:0.80000001;stroke-linecap:butt;stroke-linejoin:round;stroke-miterlimit:10;stroke-dasharray:none;stroke-opacity:1"
       d="m 300.47989,37.54375 v -3.5" /><text
       id="text816"
       style="font-variant:normal;font-weight:normal;font-size:10px;font-family:DejaVuSans;-inkscape-font-specification:DejaVuSans;writing-mode:lr-tb;fill:#000000;fill-opacity:1;fill-rule:nonzero;stroke:none"
       transform="matrix(1,0,0,-1,287.76113,22.95)"><tspan
         id="tspan814"
         y="0"
         x="0 6.3600001 12.72 19.08">1200</tspan></text>
<text
       id="text820"
       style="font-variant:normal;font-weight:normal;font-size:10px;font-family:DejaVuSans;-inkscape-font-specification:DejaVuSans;writing-mode:lr-tb;fill:#000000;fill-opacity:1;fill-rule:nonzero;stroke:none"
       transform="matrix(1,0,0,-1,136.90099,9.278125)"><tspan
         id="tspan818"
         y="0"
         x="0 7.3200002 12.53 18.68 22.790001 25.969999 28.75 35.09 39.009998 45.16 49.27 55.400002 60.900002 64.82 67.599998 73.720001">User interaction</tspan></text>
<path
       id="path822"
       style="fill:#000000;fill-opacity:1;fill-rule:nonzero;stroke:#000000;stroke-width:0.80000001;stroke-linecap:butt;stroke-linejoin:round;stroke-miterlimit:10;stroke-dasharray:none;stroke-opacity:1"
       d="m 50.1375,37.103503 h -3.5" /><text
       id="text826"
       style="font-variant:normal;font-weight:normal;font-size:10px;font-family:DejaVuSans;-inkscape-font-specification:DejaVuSans;writing-mode:lr-tb;fill:#000000;fill-opacity:1;fill-rule:nonzero;stroke:none"
       transform="matrix(1,0,0,-1,20.871875,33.306628)"><tspan
         id="tspan824"
         y="0"
         x="0 6.3600001 9.54 15.9">0.75</tspan></text>
<path
       id="path828"
       style="fill:#000000;fill-opacity:1;fill-rule:nonzero;stroke:#000000;stroke-width:0.80000001;stroke-linecap:butt;stroke-linejoin:round;stroke-miterlimit:10;stroke-dasharray:none;stroke-opacity:1"
       d="m 50.1375,96.986096 h -3.5" /><text
       id="text832"
       style="font-variant:normal;font-weight:normal;font-size:10px;font-family:DejaVuSans;-inkscape-font-specification:DejaVuSans;writing-mode:lr-tb;fill:#000000;fill-opacity:1;fill-rule:nonzero;stroke:none"
       transform="matrix(1,0,0,-1,20.871875,93.189221)"><tspan
         id="tspan830"
         y="0"
         x="0 6.3600001 9.54 15.9">0.80</tspan></text>
<path
       id="path834"
       style="fill:#000000;fill-opacity:1;fill-rule:nonzero;stroke:#000000;stroke-width:0.80000001;stroke-linecap:butt;stroke-linejoin:round;stroke-miterlimit:10;stroke-dasharray:none;stroke-opacity:1"
       d="m 50.1375,156.86869 h -3.5" /><text
       id="text838"
       style="font-variant:normal;font-weight:normal;font-size:10px;font-family:DejaVuSans;-inkscape-font-specification:DejaVuSans;writing-mode:lr-tb;fill:#000000;fill-opacity:1;fill-rule:nonzero;stroke:none"
       transform="matrix(1,0,0,-1,20.871875,153.07181)"><tspan
         id="tspan836"
         y="0"
         x="0 6.3600001 9.54 15.9">0.85</tspan></text>
<path
       id="path840"
       style="fill:#000000;fill-opacity:1;fill-rule:nonzero;stroke:#000000;stroke-width:0.80000001;stroke-linecap:butt;stroke-linejoin:round;stroke-miterlimit:10;stroke-dasharray:none;stroke-opacity:1"
       d="m 50.1375,216.75128 h -3.5" /><text
       id="text844"
       style="font-variant:normal;font-weight:normal;font-size:10px;font-family:DejaVuSans;-inkscape-font-specification:DejaVuSans;writing-mode:lr-tb;fill:#000000;fill-opacity:1;fill-rule:nonzero;stroke:none"
       transform="matrix(1,0,0,-1,20.871875,212.95441)"><tspan
         id="tspan842"
         y="0"
         x="0 6.3600001 9.54 15.9">0.90</tspan></text>
<path
       id="path846"
       style="fill:#000000;fill-opacity:1;fill-rule:nonzero;stroke:#000000;stroke-width:0.80000001;stroke-linecap:butt;stroke-linejoin:round;stroke-miterlimit:10;stroke-dasharray:none;stroke-opacity:1"
       d="m 50.1375,276.63387 h -3.5" /><text
       id="text850"
       style="font-variant:normal;font-weight:normal;font-size:10px;font-family:DejaVuSans;-inkscape-font-specification:DejaVuSans;writing-mode:lr-tb;fill:#000000;fill-opacity:1;fill-rule:nonzero;stroke:none"
       transform="matrix(1,0,0,-1,20.871875,272.837)"><tspan
         id="tspan848"
         y="0"
         x="0 6.3600001 9.54 15.9">0.95</tspan></text>
<text
       id="text854"
       style="font-variant:normal;font-weight:normal;font-size:10px;font-family:DejaVuSans;-inkscape-font-specification:DejaVuSans;writing-mode:lr-tb;fill:#000000;fill-opacity:1;fill-rule:nonzero;stroke:none"
       transform="matrix(0,1,1,0,14.79375,156.855)"><tspan
         id="tspan852"
         y="0"
         x="0 7.6999998 10.48 15.98 22.129999 25.309999 30.52 36.02 42.139999 46.25">Dice score</tspan></text>
<g
       id="g856"><g
         clip-path="url(#clipPath862)"
         id="g858"><path
           id="path864"
           style="fill:none;stroke:#1f77b4;stroke-width:1.5;stroke-linecap:square;stroke-linejoin:round;stroke-miterlimit:10;stroke-dasharray:none;stroke-opacity:1"
           d="m 61.666426,70.742989 0.597033,32.373701 0.597034,12.31668 0.597034,-1.19874 0.597033,2.20953 0.597034,0.82546 0.597034,3.74962 0.597033,0.95231 0.597034,3.87764 0.597033,-0.83606 0.597034,0.55647 0.597034,2.32397 0.597033,-2.23308 0.597034,0.092 0.597034,0.70138 0.597033,0.40233 0.597034,3.51668 0.597034,2.07552 0.597033,-2.10925 0.597034,-0.0396 0.597034,8.79331" /></g></g><g
       id="g866"><g
         clip-path="url(#clipPath872)"
         id="g868"><path
           id="path874"
           style="fill:none;stroke:#ff7f0e;stroke-width:1.5;stroke-linecap:square;stroke-linejoin:round;stroke-miterlimit:10;stroke-dasharray:none;stroke-opacity:1"
           d="m 61.666426,70.742989 0.597033,14.857892 0.597034,10.382372 0.597034,4.714927 0.597033,2.64275 0.597034,2.33618 0.597034,-0.61034 0.597033,0.81499 0.597034,3.52845 0.597033,-0.78983 0.597034,0.73743 0.597034,-0.90952 0.597033,1.51217 0.597034,-2.51469 0.597034,0.42741 0.597033,0.49391 0.597034,0.23076 0.597034,1.5889 0.597033,3.61828 0.597034,-4.1991 0.597034,0.23426" /></g></g><g
       id="g876"><g
         clip-path="url(#clipPath882)"
         id="g878"><path
           id="path884"
           style="fill:none;stroke:#2ca02c;stroke-width:1.5;stroke-linecap:square;stroke-linejoin:round;stroke-miterlimit:10;stroke-dasharray:none;stroke-opacity:1"
           d="m 61.666426,70.742989 0.597033,30.686911 0.597034,3.75764 0.597034,2.69067 0.597033,0.27343 0.597034,2.05298 0.597034,1.45295 0.597033,-0.0111 0.597034,8.00561 0.597033,0.26409 0.597034,4.14467 0.597034,1.94651 0.597033,4.78308 0.597034,1.04586 0.597034,-2.1989 0.597033,4.48719 0.597034,0.88279 0.597034,-1.24721 0.597033,1.14846 0.597034,-2.21587 0.597034,4.51062" /></g></g><g
       id="g886"><g
         clip-path="url(#clipPath892)"
         id="g888"><path
           id="path894"
           style="fill:none;stroke:#d62728;stroke-width:1.5;stroke-linecap:square;stroke-linejoin:round;stroke-miterlimit:10;stroke-dasharray:none;stroke-opacity:1"
           d="m 61.666426,70.742989 2.985168,35.076021 2.985168,14.3475 2.985168,16.51451 2.985169,9.22943 2.985168,16.43713 2.985168,4.36212 2.985168,8.85374 2.985169,5.25692 2.985168,7.5867 2.985168,7.32867 2.985168,1.79974 2.985169,3.6005 2.985165,9.10625 2.98517,2.67438 2.98517,2.54548 2.98517,-0.89053 2.98517,-0.71856 2.98516,8.98575 2.98517,-0.22386 2.98517,3.21807" /></g></g><g
       id="g896"><g
         clip-path="url(#clipPath902)"
         id="g898"><path
           id="path904"
           style="fill:none;stroke:#9467bd;stroke-width:1.5;stroke-linecap:square;stroke-linejoin:round;stroke-miterlimit:10;stroke-dasharray:none;stroke-opacity:1"
           d="m 61.666426,70.742989 5.970336,49.373311 5.970337,31.93775 5.970336,17.12292 5.970337,8.00792 5.970336,12.44651 5.970337,11.59808 5.970335,8.10546 5.97034,16.34051 5.97033,6.00908 5.97034,8.07036 5.97034,2.6417 5.97033,4.11345 5.97034,5.03168 5.97034,-3.16132 5.97033,4.80805 5.97034,4.78881 5.97034,4.35986 5.97033,1.12591 5.97034,5.9081 5.97033,1.71706" /></g></g><g
       id="g906"><g
         clip-path="url(#clipPath912)"
         id="g908"><path
           id="path914"
           style="fill:none;stroke:#8c564b;stroke-width:1.5;stroke-linecap:square;stroke-linejoin:round;stroke-miterlimit:10;stroke-dasharray:none;stroke-opacity:1"
           d="m 61.666426,70.742989 8.955504,41.336001 8.955505,29.89677 8.955505,23.55392 8.955505,26.8933 8.955505,16.70579 8.9555,15.84767 8.95551,7.91379 8.9555,9.81292 8.95551,3.17864 8.9555,2.19279 8.95551,2.88427 8.9555,2.61041 8.95551,6.88294 8.9555,-0.17773 8.95551,1.22681 8.9555,5.28379 8.95551,-2.3405 8.9555,2.50207 8.95551,2.39977 8.9555,-4.31398" /></g></g><g
       id="g916"><g
         clip-path="url(#clipPath922)"
         id="g918"><path
           id="path924"
           style="fill:none;stroke:#e377c2;stroke-width:1.5;stroke-linecap:butt;stroke-linejoin:round;stroke-miterlimit:10;stroke-dasharray:5.55, 2.4;stroke-dashoffset:0;stroke-opacity:1"
           d="m 61.666426,50.77375 11.528925,113.3625 11.528926,49.11541 11.528925,28.56936 11.528928,18.18369 11.52892,10.66843 11.52893,10.10089 11.52892,7.4854 11.52893,5.47848 11.52893,4.19745 11.52892,4.51283 11.52893,2.1223 11.52892,2.76327 11.52893,1.54616 11.52892,1.55927 11.52893,1.10199 11.52893,1.12479 11.52892,0.76731 11.52893,0.74466 11.52892,0.54776 11.52893,0.64805" /></g></g><g
       id="g926"><path
         id="path928"
         style="fill:none;stroke:#000000;stroke-width:0.80000001;stroke-linecap:square;stroke-linejoin:miter;stroke-miterlimit:10;stroke-dasharray:none;stroke-opacity:1"
         d="m 50.1375,37.54375 v 291.06" /><path
         id="path930"
         style="fill:none;stroke:#000000;stroke-width:0.80000001;stroke-linecap:square;stroke-linejoin:miter;stroke-miterlimit:10;stroke-dasharray:none;stroke-opacity:1"
         d="m 303.77386,37.54375 v 291.06" /><path
         id="path932"
         style="fill:none;stroke:#000000;stroke-width:0.80000001;stroke-linecap:square;stroke-linejoin:miter;stroke-miterlimit:10;stroke-dasharray:none;stroke-opacity:1"
         d="M 50.1375,37.54375 H 303.77386" /><path
         id="path934"
         style="fill:none;stroke:#000000;stroke-width:0.80000001;stroke-linecap:square;stroke-linejoin:miter;stroke-miterlimit:10;stroke-dasharray:none;stroke-opacity:1"
         d="M 50.1375,328.60375 H 303.77386" /><text
         id="text938"
         style="font-variant:normal;font-weight:normal;font-size:12px;font-family:DejaVuSans;-inkscape-font-specification:DejaVuSans;writing-mode:lr-tb;fill:#000000;fill-opacity:1;fill-rule:nonzero;stroke:none"
         transform="matrix(1,0,0,-1,132.04943,334.60375)"><tspan
           id="tspan936"
           y="0"
           x="0 7.632 16.872 20.688 29.927999 33.264 39.863998 47.243999 51.060001 57.312 63.911999 71.255997 76.188004 83.568001">2D Dice scores</tspan></text>
<path
         id="path940"
         style="fill:#000000;fill-opacity:1;fill-rule:nonzero;stroke:#000000;stroke-width:0.80000001;stroke-linecap:butt;stroke-linejoin:round;stroke-miterlimit:10;stroke-dasharray:none;stroke-opacity:1"
         d="m 366.03006,37.54375 v -3.5" /><text
         id="text944"
         style="font-variant:normal;font-weight:normal;font-size:10px;font-family:DejaVuSans;-inkscape-font-specification:DejaVuSans;writing-mode:lr-tb;fill:#000000;fill-opacity:1;fill-rule:nonzero;stroke:none"
         transform="matrix(1,0,0,-1,362.85037,22.95)"><tspan
           id="tspan942"
           y="0"
           x="0">0</tspan></text>
<path
         id="path946"
         style="fill:#000000;fill-opacity:1;fill-rule:nonzero;stroke:#000000;stroke-width:0.80000001;stroke-linecap:butt;stroke-linejoin:round;stroke-miterlimit:10;stroke-dasharray:none;stroke-opacity:1"
         d="m 405.8323,37.54375 v -3.5" /><text
         id="text950"
         style="font-variant:normal;font-weight:normal;font-size:10px;font-family:DejaVuSans;-inkscape-font-specification:DejaVuSans;writing-mode:lr-tb;fill:#000000;fill-opacity:1;fill-rule:nonzero;stroke:none"
         transform="matrix(1,0,0,-1,396.29324,22.95)"><tspan
           id="tspan948"
           y="0"
           x="0 6.3600001 12.72">200</tspan></text>
<path
         id="path952"
         style="fill:#000000;fill-opacity:1;fill-rule:nonzero;stroke:#000000;stroke-width:0.80000001;stroke-linecap:butt;stroke-linejoin:round;stroke-miterlimit:10;stroke-dasharray:none;stroke-opacity:1"
         d="m 445.63455,37.54375 v -3.5" /><text
         id="text956"
         style="font-variant:normal;font-weight:normal;font-size:10px;font-family:DejaVuSans;-inkscape-font-specification:DejaVuSans;writing-mode:lr-tb;fill:#000000;fill-opacity:1;fill-rule:nonzero;stroke:none"
         transform="matrix(1,0,0,-1,436.09549,22.95)"><tspan
           id="tspan954"
           y="0"
           x="0 6.3600001 12.72">400</tspan></text>
<path
         id="path958"
         style="fill:#000000;fill-opacity:1;fill-rule:nonzero;stroke:#000000;stroke-width:0.80000001;stroke-linecap:butt;stroke-linejoin:round;stroke-miterlimit:10;stroke-dasharray:none;stroke-opacity:1"
         d="m 485.43679,37.54375 v -3.5" /><text
         id="text962"
         style="font-variant:normal;font-weight:normal;font-size:10px;font-family:DejaVuSans;-inkscape-font-specification:DejaVuSans;writing-mode:lr-tb;fill:#000000;fill-opacity:1;fill-rule:nonzero;stroke:none"
         transform="matrix(1,0,0,-1,475.89773,22.95)"><tspan
           id="tspan960"
           y="0"
           x="0 6.3600001 12.72">600</tspan></text>
<path
         id="path964"
         style="fill:#000000;fill-opacity:1;fill-rule:nonzero;stroke:#000000;stroke-width:0.80000001;stroke-linecap:butt;stroke-linejoin:round;stroke-miterlimit:10;stroke-dasharray:none;stroke-opacity:1"
         d="m 525.23904,37.54375 v -3.5" /><text
         id="text968"
         style="font-variant:normal;font-weight:normal;font-size:10px;font-family:DejaVuSans;-inkscape-font-specification:DejaVuSans;writing-mode:lr-tb;fill:#000000;fill-opacity:1;fill-rule:nonzero;stroke:none"
         transform="matrix(1,0,0,-1,515.69997,22.95)"><tspan
           id="tspan966"
           y="0"
           x="0 6.3600001 12.72">800</tspan></text>
<path
         id="path970"
         style="fill:#000000;fill-opacity:1;fill-rule:nonzero;stroke:#000000;stroke-width:0.80000001;stroke-linecap:butt;stroke-linejoin:round;stroke-miterlimit:10;stroke-dasharray:none;stroke-opacity:1"
         d="m 565.04128,37.54375 v -3.5" /><text
         id="text974"
         style="font-variant:normal;font-weight:normal;font-size:10px;font-family:DejaVuSans;-inkscape-font-specification:DejaVuSans;writing-mode:lr-tb;fill:#000000;fill-opacity:1;fill-rule:nonzero;stroke:none"
         transform="matrix(1,0,0,-1,552.32253,22.95)"><tspan
           id="tspan972"
           y="0"
           x="0 6.3600001 12.72 19.08">1000</tspan></text>
<path
         id="path976"
         style="fill:#000000;fill-opacity:1;fill-rule:nonzero;stroke:#000000;stroke-width:0.80000001;stroke-linecap:butt;stroke-linejoin:round;stroke-miterlimit:10;stroke-dasharray:none;stroke-opacity:1"
         d="m 604.84352,37.54375 v -3.5" /><text
         id="text980"
         style="font-variant:normal;font-weight:normal;font-size:10px;font-family:DejaVuSans;-inkscape-font-specification:DejaVuSans;writing-mode:lr-tb;fill:#000000;fill-opacity:1;fill-rule:nonzero;stroke:none"
         transform="matrix(1,0,0,-1,592.12477,22.95)"><tspan
           id="tspan978"
           y="0"
           x="0 6.3600001 12.72 19.08">1200</tspan></text>
<text
         id="text984"
         style="font-variant:normal;font-weight:normal;font-size:10px;font-family:DejaVuSans;-inkscape-font-specification:DejaVuSans;writing-mode:lr-tb;fill:#000000;fill-opacity:1;fill-rule:nonzero;stroke:none"
         transform="matrix(1,0,0,-1,441.26463,9.278125)"><tspan
           id="tspan982"
           y="0"
           x="0 7.3200002 12.53 18.68 22.790001 25.969999 28.75 35.09 39.009998 45.16 49.27 55.400002 60.900002 64.82 67.599998 73.720001">User interaction</tspan></text>
<path
         id="path986"
         style="fill:#000000;fill-opacity:1;fill-rule:nonzero;stroke:#000000;stroke-width:0.80000001;stroke-linecap:butt;stroke-linejoin:round;stroke-miterlimit:10;stroke-dasharray:none;stroke-opacity:1"
         d="m 354.50114,58.036443 h -3.5" /><text
         id="text990"
         style="font-variant:normal;font-weight:normal;font-size:10px;font-family:DejaVuSans;-inkscape-font-specification:DejaVuSans;writing-mode:lr-tb;fill:#000000;fill-opacity:1;fill-rule:nonzero;stroke:none"
         transform="matrix(1,0,0,-1,325.23551,54.239568)"><tspan
           id="tspan988"
           y="0"
           x="0 6.3600001 9.54 15.9">0.75</tspan></text>
<path
         id="path992"
         style="fill:#000000;fill-opacity:1;fill-rule:nonzero;stroke:#000000;stroke-width:0.80000001;stroke-linecap:butt;stroke-linejoin:round;stroke-miterlimit:10;stroke-dasharray:none;stroke-opacity:1"
         d="m 354.50114,116.71607 h -3.5" /><text
         id="text996"
         style="font-variant:normal;font-weight:normal;font-size:10px;font-family:DejaVuSans;-inkscape-font-specification:DejaVuSans;writing-mode:lr-tb;fill:#000000;fill-opacity:1;fill-rule:nonzero;stroke:none"
         transform="matrix(1,0,0,-1,325.23551,112.9192)"><tspan
           id="tspan994"
           y="0"
           x="0 6.3600001 9.54 15.9">0.80</tspan></text>
<path
         id="path998"
         style="fill:#000000;fill-opacity:1;fill-rule:nonzero;stroke:#000000;stroke-width:0.80000001;stroke-linecap:butt;stroke-linejoin:round;stroke-miterlimit:10;stroke-dasharray:none;stroke-opacity:1"
         d="m 354.50114,175.3957 h -3.5" /><text
         id="text1002"
         style="font-variant:normal;font-weight:normal;font-size:10px;font-family:DejaVuSans;-inkscape-font-specification:DejaVuSans;writing-mode:lr-tb;fill:#000000;fill-opacity:1;fill-rule:nonzero;stroke:none"
         transform="matrix(1,0,0,-1,325.23551,171.59883)"><tspan
           id="tspan1000"
           y="0"
           x="0 6.3600001 9.54 15.9">0.85</tspan></text>
<path
         id="path1004"
         style="fill:#000000;fill-opacity:1;fill-rule:nonzero;stroke:#000000;stroke-width:0.80000001;stroke-linecap:butt;stroke-linejoin:round;stroke-miterlimit:10;stroke-dasharray:none;stroke-opacity:1"
         d="m 354.50114,234.07533 h -3.5" /><text
         id="text1008"
         style="font-variant:normal;font-weight:normal;font-size:10px;font-family:DejaVuSans;-inkscape-font-specification:DejaVuSans;writing-mode:lr-tb;fill:#000000;fill-opacity:1;fill-rule:nonzero;stroke:none"
         transform="matrix(1,0,0,-1,325.23551,230.27845)"><tspan
           id="tspan1006"
           y="0"
           x="0 6.3600001 9.54 15.9">0.90</tspan></text>
<path
         id="path1010"
         style="fill:#000000;fill-opacity:1;fill-rule:nonzero;stroke:#000000;stroke-width:0.80000001;stroke-linecap:butt;stroke-linejoin:round;stroke-miterlimit:10;stroke-dasharray:none;stroke-opacity:1"
         d="m 354.50114,292.75496 h -3.5" /><text
         id="text1014"
         style="font-variant:normal;font-weight:normal;font-size:10px;font-family:DejaVuSans;-inkscape-font-specification:DejaVuSans;writing-mode:lr-tb;fill:#000000;fill-opacity:1;fill-rule:nonzero;stroke:none"
         transform="matrix(1,0,0,-1,325.23551,288.95808)"><tspan
           id="tspan1012"
           y="0"
           x="0 6.3600001 9.54 15.9">0.95</tspan></text>
<text
         id="text1018"
         style="font-variant:normal;font-weight:normal;font-size:10px;font-family:DejaVuSans;-inkscape-font-specification:DejaVuSans;writing-mode:lr-tb;fill:#000000;fill-opacity:1;fill-rule:nonzero;stroke:none"
         transform="matrix(0,1,1,0,319.15739,156.855)"><tspan
           id="tspan1016"
           y="0"
           x="0 7.6999998 10.48 15.98 22.129999 25.309999 30.52 36.02 42.139999 46.25">Dice score</tspan></text>
</g><g
       id="g1020"><g
         clip-path="url(#clipPath1026)"
         id="g1022"><path
           id="path1028"
           style="fill:none;stroke:#1f77b4;stroke-width:1.5;stroke-linecap:square;stroke-linejoin:round;stroke-miterlimit:10;stroke-dasharray:none;stroke-opacity:1"
           d="m 366.03006,106.67905 0.59704,17.01842 0.59703,4.55495 0.59703,2.19056 0.59704,1.25792 0.59703,0.79684 0.59703,0.45196 0.59704,0.53834 0.59703,0.64174 0.59703,0.54272 0.59704,0.55628 0.59703,0.77368 0.59704,1.0732 0.59703,0.75404 0.59703,0.72661 0.59704,0.36733 0.59703,0.2992 0.59703,1.01432 0.59704,1.22084 0.59703,2.13107 0.59703,1.77455" /></g></g><g
       id="g1030"><g
         clip-path="url(#clipPath1036)"
         id="g1032"><path
           id="path1038"
           style="fill:none;stroke:#ff7f0e;stroke-width:1.5;stroke-linecap:square;stroke-linejoin:round;stroke-miterlimit:10;stroke-dasharray:none;stroke-opacity:1"
           d="m 366.03006,106.67905 0.59704,20.63809 0.59703,4.04167 0.59703,2.56103 0.59704,1.72885 0.59703,0.83334 0.59703,0.81289 0.59704,0.39174 0.59703,-0.0259 0.59703,0.16846 0.59704,0.17541 0.59703,0.5135 0.59704,0.0702 0.59703,0.61831 0.59703,0.52401 0.59704,0.58127 0.59703,0.46179 0.59703,0.002 0.59704,0.54039 0.59703,-1.4e-4 0.59703,-0.0818" /></g></g><g
       id="g1040"><g
         clip-path="url(#clipPath1046)"
         id="g1042"><path
           id="path1048"
           style="fill:none;stroke:#2ca02c;stroke-width:1.5;stroke-linecap:square;stroke-linejoin:round;stroke-miterlimit:10;stroke-dasharray:none;stroke-opacity:1"
           d="m 366.03006,106.67905 0.59704,27.31521 0.59703,5.42915 0.59703,0.95974 0.59704,1.34963 0.59703,1.19765 0.59703,0.43775 0.59704,1.13359 0.59703,2.59517 0.59703,2.85219 0.59704,1.92328 0.59703,3.38325 0.59704,2.25146 0.59703,1.80641 0.59703,1.47049 0.59704,1.16075 0.59703,1.26887 0.59703,1.22471 0.59704,1.62818 0.59703,1.25475 0.59703,1.58103" /></g></g><g
       id="g1050"><g
         clip-path="url(#clipPath1056)"
         id="g1052"><path
           id="path1058"
           style="fill:none;stroke:#d62728;stroke-width:1.5;stroke-linecap:square;stroke-linejoin:round;stroke-miterlimit:10;stroke-dasharray:none;stroke-opacity:1"
           d="m 366.03006,106.67905 2.98517,17.35628 2.98517,15.16944 2.98517,7.78194 2.98516,10.65878 2.98517,9.74401 2.98517,8.85415 2.98517,8.69066 2.98517,9.77333 2.98517,8.48714 2.98516,7.2963 2.98517,5.01778 2.98517,5.98968 2.98517,3.86598 2.98517,4.01761 2.98517,3.39865 2.98516,3.97028 2.98517,4.04439 2.98517,4.00319 2.98517,3.45516 2.98517,2.47724" /></g></g><g
       id="g1060"><g
         clip-path="url(#clipPath1066)"
         id="g1062"><path
           id="path1068"
           style="fill:none;stroke:#9467bd;stroke-width:1.5;stroke-linecap:square;stroke-linejoin:round;stroke-miterlimit:10;stroke-dasharray:none;stroke-opacity:1"
           d="m 366.03006,106.67905 5.97034,35.06307 5.97033,23.92157 5.97034,18.18693 5.97034,16.1198 5.97033,14.25342 5.97034,12.639 5.97034,11.21224 5.97033,8.94859 5.97034,6.79727 5.97034,5.69015 5.97033,5.13418 5.97034,4.50994 5.97034,2.98178 5.97033,2.30659 5.97034,3.23627 5.97034,2.60415 5.97033,2.19005 5.97034,1.98607 5.97033,1.38059 5.97034,1.25234" /></g></g><g
       id="g1070"><g
         clip-path="url(#clipPath1076)"
         id="g1072"><path
           id="path1078"
           style="fill:none;stroke:#8c564b;stroke-width:1.5;stroke-linecap:square;stroke-linejoin:round;stroke-miterlimit:10;stroke-dasharray:none;stroke-opacity:1"
           d="m 366.03006,106.67905 8.95551,41.06475 8.9555,26.48424 8.95551,22.06868 8.9555,19.71474 8.95551,15.42246 8.9555,11.87046 8.9555,8.80858 8.95551,8.30651 8.9555,6.98165 8.95551,5.28492 8.9555,4.12072 8.95551,3.42538 8.9555,2.7509 8.95551,2.26222 8.9555,1.88825 8.95551,1.12113 8.9555,1.28302 8.95551,0.61099 8.9555,1.41158 8.95551,0.79343" /></g></g><g
       id="g1080"><g
         clip-path="url(#clipPath1086)"
         id="g1082"><path
           id="path1088"
           style="fill:none;stroke:#e377c2;stroke-width:1.5;stroke-linecap:butt;stroke-linejoin:round;stroke-miterlimit:10;stroke-dasharray:5.55, 2.4;stroke-dashoffset:0;stroke-opacity:1"
           d="m 366.03006,50.77375 11.52893,89.47313 11.52892,43.289 11.52893,28.32228 11.52892,20.28202 11.52893,18.00948 11.52893,13.95474 11.52892,9.9877 11.52893,6.90204 11.52892,5.93113 11.52893,6.40686 11.52892,3.64604 11.52893,3.83388 11.52892,2.99507 11.52893,2.54457 11.52893,2.36467 11.52892,2.10313 11.52893,0.87874 11.52892,1.78771 11.52893,1.33214 11.52892,0.55567" /></g></g><g
       id="g1090"><path
         id="path1092"
         style="fill:none;stroke:#000000;stroke-width:0.80000001;stroke-linecap:square;stroke-linejoin:miter;stroke-miterlimit:10;stroke-dasharray:none;stroke-opacity:1"
         d="m 354.50114,37.54375 v 291.06" /><path
         id="path1094"
         style="fill:none;stroke:#000000;stroke-width:0.80000001;stroke-linecap:square;stroke-linejoin:miter;stroke-miterlimit:10;stroke-dasharray:none;stroke-opacity:1"
         d="m 608.1375,37.54375 v 291.06" /><path
         id="path1096"
         style="fill:none;stroke:#000000;stroke-width:0.80000001;stroke-linecap:square;stroke-linejoin:miter;stroke-miterlimit:10;stroke-dasharray:none;stroke-opacity:1"
         d="M 354.50114,37.54375 H 608.1375" /><path
         id="path1098"
         style="fill:none;stroke:#000000;stroke-width:0.80000001;stroke-linecap:square;stroke-linejoin:miter;stroke-miterlimit:10;stroke-dasharray:none;stroke-opacity:1"
         d="M 354.50114,328.60375 H 608.1375" /><text
         id="text1102"
         style="font-variant:normal;font-weight:normal;font-size:12px;font-family:DejaVuSans;-inkscape-font-specification:DejaVuSans;writing-mode:lr-tb;fill:#000000;fill-opacity:1;fill-rule:nonzero;stroke:none"
         transform="matrix(1,0,0,-1,436.41307,334.60375)"><tspan
           id="tspan1100"
           y="0"
           x="0 7.632 16.872 20.688 29.927999 33.264 39.863998 47.243999 51.060001 57.312 63.911999 71.255997 76.188004 83.568001">3D Dice scores</tspan></text>
<path
         id="path1104"
         style="fill:#ffffff;fill-opacity:0.8;fill-rule:nonzero;stroke:#cccccc;stroke-width:1;stroke-linecap:butt;stroke-linejoin:miter;stroke-miterlimit:10;stroke-dasharray:none;stroke-opacity:0.8"
         d="m 456.7625,42.54375 h 144.375 c 1.33333,0 2,0.666667 2,2 v 101.70312 c 0,1.33334 -0.66667,2 -2,2 h -144.375 c -1.33333,0 -2,-0.66666 -2,-2 V 44.54375 c 0,-1.333333 0.66667,-2 2,-2 z" /><path
         id="path1106"
         style="fill:none;stroke:#1f77b4;stroke-width:1.5;stroke-linecap:square;stroke-linejoin:round;stroke-miterlimit:10;stroke-dasharray:none;stroke-opacity:1"
         d="m 458.7625,140.15312 h 20" /><text
         id="text1110"
         style="font-variant:normal;font-weight:normal;font-size:10px;font-family:DejaVuSans;-inkscape-font-specification:DejaVuSans;writing-mode:lr-tb;fill:#000000;fill-opacity:1;fill-rule:nonzero;stroke:none"
         transform="matrix(1,0,0,-1,486.7625,136.65312)"><tspan
           id="tspan1108"
           y="0"
           x="0 6.8400002 12.97 19.309999 22.09 24.870001 27.65">Vanilla</tspan></text>
<path
         id="path1112"
         style="fill:none;stroke:#ff7f0e;stroke-width:1.5;stroke-linecap:square;stroke-linejoin:round;stroke-miterlimit:10;stroke-dasharray:none;stroke-opacity:1"
         d="m 458.7625,125.48125 h 20" /><text
         id="text1116"
         style="font-variant:normal;font-weight:normal;font-size:10px;font-family:DejaVuSans;-inkscape-font-specification:DejaVuSans;writing-mode:lr-tb;fill:#000000;fill-opacity:1;fill-rule:nonzero;stroke:none"
         transform="matrix(1,0,0,-1,486.7625,121.98125)"><tspan
           id="tspan1114"
           y="0"
           x="0 6.3600001 12.28 15.46 20.67 26.17 30.280001 33.060001 39.41 45.759998 48.540001 54.689999 57.869999 63.080002 65.860001 71.110001">3x scribble size</tspan></text>
<path
         id="path1118"
         style="fill:none;stroke:#2ca02c;stroke-width:1.5;stroke-linecap:square;stroke-linejoin:round;stroke-miterlimit:10;stroke-dasharray:none;stroke-opacity:1"
         d="m 458.7625,110.80937 h 20" /><text
         id="text1122"
         style="font-variant:normal;font-weight:normal;font-size:10px;font-family:DejaVuSans;-inkscape-font-specification:DejaVuSans;writing-mode:lr-tb;fill:#000000;fill-opacity:1;fill-rule:nonzero;stroke:none"
         transform="matrix(1,0,0,-1,486.7625,107.30937)"><tspan
           id="tspan1120"
           y="0"
           x="0 6.0300002 8.8100004 14.94 20.440001 23.219999 29.559999 35.91 39.09 41.869999 48.209999 51.389999 56.959999 63.939999">Placing in LCC</tspan></text>
<path
         id="path1124"
         style="fill:none;stroke:#d62728;stroke-width:1.5;stroke-linecap:square;stroke-linejoin:round;stroke-miterlimit:10;stroke-dasharray:none;stroke-opacity:1"
         d="m 458.7625,96.1375 h 20" /><text
         id="text1128"
         style="font-variant:normal;font-weight:normal;font-size:10px;font-family:DejaVuSans;-inkscape-font-specification:DejaVuSans;writing-mode:lr-tb;fill:#000000;fill-opacity:1;fill-rule:nonzero;stroke:none"
         transform="matrix(1,0,0,-1,486.7625,92.6375)"><tspan
           id="tspan1126"
           y="0"
           x="0 6.3600001 9.54 14.75 20.25 24.360001 27.139999 33.490002 39.84 42.619999 48.77 53.98 57.16 60.529999 63.709999 66.489998 70.410004 76.559998 80.669998 86.800003 90.720001 93.5 99.620003">5 scribbles / iteration</tspan></text>
<path
         id="path1130"
         style="fill:none;stroke:#9467bd;stroke-width:1.5;stroke-linecap:square;stroke-linejoin:round;stroke-miterlimit:10;stroke-dasharray:none;stroke-opacity:1"
         d="m 458.7625,81.465625 h 20" /><text
         id="text1134"
         style="font-variant:normal;font-weight:normal;font-size:10px;font-family:DejaVuSans;-inkscape-font-specification:DejaVuSans;writing-mode:lr-tb;fill:#000000;fill-opacity:1;fill-rule:nonzero;stroke:none"
         transform="matrix(1,0,0,-1,486.7625,77.965625)"><tspan
           id="tspan1132"
           y="0"
           x="0 6.3600001 12.72 15.9 21.110001 26.610001 30.719999 33.5 39.849998 46.200001 48.98 55.130001 60.34 63.52 66.889999 70.07 72.849998 76.769997 82.919998 87.029999 93.160004 97.080002 99.860001 105.98">10 scribbles / iteration</tspan></text>
<path
         id="path1136"
         style="fill:none;stroke:#8c564b;stroke-width:1.5;stroke-linecap:square;stroke-linejoin:round;stroke-miterlimit:10;stroke-dasharray:none;stroke-opacity:1"
         d="m 458.7625,66.79375 h 20" /><text
         id="text1140"
         style="font-variant:normal;font-weight:normal;font-size:10px;font-family:DejaVuSans;-inkscape-font-specification:DejaVuSans;writing-mode:lr-tb;fill:#000000;fill-opacity:1;fill-rule:nonzero;stroke:none"
         transform="matrix(1,0,0,-1,486.7625,63.29375)"><tspan
           id="tspan1138"
           y="0"
           x="0 6.3600001 12.72 15.9 21.110001 26.610001 30.719999 33.5 39.849998 46.200001 48.98 55.130001 60.34 63.52 66.889999 70.07 72.849998 76.769997 82.919998 87.029999 93.160004 97.080002 99.860001 105.98">15 scribbles / iteration</tspan></text>
<path
         id="path1142"
         style="fill:none;stroke:#e377c2;stroke-width:1.5;stroke-linecap:butt;stroke-linejoin:round;stroke-miterlimit:10;stroke-dasharray:5.55, 2.4;stroke-dashoffset:0;stroke-opacity:1"
         d="m 458.7625,52.121875 h 20" /><text
         id="text1146"
         style="font-variant:normal;font-weight:normal;font-size:10px;font-family:DejaVuSans;-inkscape-font-specification:DejaVuSans;writing-mode:lr-tb;fill:#000000;fill-opacity:1;fill-rule:nonzero;stroke:none"
         transform="matrix(1,0,0,-1,486.7625,48.621875)"><tspan
           id="tspan1144"
           y="0"
           x="0 6.8600001 10.97 17.120001 23.469999 29.620001 32.400002 35.18 38.360001 44.509998 48.43 51.610001 57.740002 60.52">Bredell et al.</tspan></text>
</g></g></svg>