<?xml version="1.0" encoding="UTF-8" standalone="no"?>
<svg
   xmlns:dc="http://purl.org/dc/elements/1.1/"
   xmlns:cc="http://creativecommons.org/ns#"
   xmlns:rdf="http://www.w3.org/1999/02/22-rdf-syntax-ns#"
   xmlns:svg="http://www.w3.org/2000/svg"
   xmlns="http://www.w3.org/2000/svg"
   viewBox="0 0 825.1167 467.905"
   height="467.905"
   width="825.1167"
   xml:space="preserve"
   id="svg356"
   version="1.1"><metadata
     id="metadata362"><rdf:RDF><cc:Work
         rdf:about=""><dc:format>image/svg+xml</dc:format><dc:type
           rdf:resource="http://purl.org/dc/dcmitype/StillImage" /><dc:title></dc:title></cc:Work></rdf:RDF></metadata><defs
     id="defs360"><clipPath
       id="clipPath482"
       clipPathUnits="userSpaceOnUse"><path
         id="path480"
         d="m 50.1375,37.54375 h 253.63636 v 291.06 H 50.1375 Z" /></clipPath><clipPath
       id="clipPath492"
       clipPathUnits="userSpaceOnUse"><path
         id="path490"
         d="m 50.1375,37.54375 h 253.63636 v 291.06 H 50.1375 Z" /></clipPath><clipPath
       id="clipPath502"
       clipPathUnits="userSpaceOnUse"><path
         id="path500"
         d="m 50.1375,37.54375 h 253.63636 v 291.06 H 50.1375 Z" /></clipPath><clipPath
       id="clipPath512"
       clipPathUnits="userSpaceOnUse"><path
         id="path510"
         d="m 50.1375,37.54375 h 253.63636 v 291.06 H 50.1375 Z" /></clipPath><clipPath
       id="clipPath522"
       clipPathUnits="userSpaceOnUse"><path
         id="path520"
         d="m 50.1375,37.54375 h 253.63636 v 291.06 H 50.1375 Z" /></clipPath><clipPath
       id="clipPath532"
       clipPathUnits="userSpaceOnUse"><path
         id="path530"
         d="m 50.1375,37.54375 h 253.63636 v 291.06 H 50.1375 Z" /></clipPath><clipPath
       id="clipPath660"
       clipPathUnits="userSpaceOnUse"><path
         id="path658"
         d="M 354.50114,37.54375 H 608.1375 v 291.06 H 354.50114 Z" /></clipPath><clipPath
       id="clipPath670"
       clipPathUnits="userSpaceOnUse"><path
         id="path668"
         d="M 354.50114,37.54375 H 608.1375 v 291.06 H 354.50114 Z" /></clipPath><clipPath
       id="clipPath680"
       clipPathUnits="userSpaceOnUse"><path
         id="path678"
         d="M 354.50114,37.54375 H 608.1375 v 291.06 H 354.50114 Z" /></clipPath><clipPath
       id="clipPath690"
       clipPathUnits="userSpaceOnUse"><path
         id="path688"
         d="M 354.50114,37.54375 H 608.1375 v 291.06 H 354.50114 Z" /></clipPath><clipPath
       id="clipPath700"
       clipPathUnits="userSpaceOnUse"><path
         id="path698"
         d="M 354.50114,37.54375 H 608.1375 v 291.06 H 354.50114 Z" /></clipPath><clipPath
       id="clipPath710"
       clipPathUnits="userSpaceOnUse"><path
         id="path708"
         d="M 354.50114,37.54375 H 608.1375 v 291.06 H 354.50114 Z" /></clipPath></defs><g
     transform="matrix(1.3333333,0,0,-1.3333333,0,467.905)"
     id="g364"><path
       id="path366"
       style="fill:#000000;fill-opacity:1;fill-rule:nonzero;stroke:#000000;stroke-width:0.80000001;stroke-linecap:butt;stroke-linejoin:round;stroke-miterlimit:10;stroke-dasharray:none;stroke-opacity:1"
       d="m 61.666426,37.54375 v -3.5" /><text
       id="text370"
       style="font-variant:normal;font-weight:normal;font-size:10px;font-family:DejaVuSans;-inkscape-font-specification:DejaVuSans;writing-mode:lr-tb;fill:#000000;fill-opacity:1;fill-rule:nonzero;stroke:none"
       transform="matrix(1,0,0,-1,58.486738,22.95)"><tspan
         id="tspan368"
         y="0"
         x="0">0</tspan></text>
<path
       id="path372"
       style="fill:#000000;fill-opacity:1;fill-rule:nonzero;stroke:#000000;stroke-width:0.80000001;stroke-linecap:butt;stroke-linejoin:round;stroke-miterlimit:10;stroke-dasharray:none;stroke-opacity:1"
       d="m 100.09618,37.54375 v -3.5" /><text
       id="text376"
       style="font-variant:normal;font-weight:normal;font-size:10px;font-family:DejaVuSans;-inkscape-font-specification:DejaVuSans;writing-mode:lr-tb;fill:#000000;fill-opacity:1;fill-rule:nonzero;stroke:none"
       transform="matrix(1,0,0,-1,90.557115,22.95)"><tspan
         id="tspan374"
         y="0"
         x="0 6.3600001 12.72">100</tspan></text>
<path
       id="path378"
       style="fill:#000000;fill-opacity:1;fill-rule:nonzero;stroke:#000000;stroke-width:0.80000001;stroke-linecap:butt;stroke-linejoin:round;stroke-miterlimit:10;stroke-dasharray:none;stroke-opacity:1"
       d="m 138.52593,37.54375 v -3.5" /><text
       id="text382"
       style="font-variant:normal;font-weight:normal;font-size:10px;font-family:DejaVuSans;-inkscape-font-specification:DejaVuSans;writing-mode:lr-tb;fill:#000000;fill-opacity:1;fill-rule:nonzero;stroke:none"
       transform="matrix(1,0,0,-1,128.98687,22.95)"><tspan
         id="tspan380"
         y="0"
         x="0 6.3600001 12.72">200</tspan></text>
<path
       id="path384"
       style="fill:#000000;fill-opacity:1;fill-rule:nonzero;stroke:#000000;stroke-width:0.80000001;stroke-linecap:butt;stroke-linejoin:round;stroke-miterlimit:10;stroke-dasharray:none;stroke-opacity:1"
       d="m 176.95568,37.54375 v -3.5" /><text
       id="text388"
       style="font-variant:normal;font-weight:normal;font-size:10px;font-family:DejaVuSans;-inkscape-font-specification:DejaVuSans;writing-mode:lr-tb;fill:#000000;fill-opacity:1;fill-rule:nonzero;stroke:none"
       transform="matrix(1,0,0,-1,167.41662,22.95)"><tspan
         id="tspan386"
         y="0"
         x="0 6.3600001 12.72">300</tspan></text>
<path
       id="path390"
       style="fill:#000000;fill-opacity:1;fill-rule:nonzero;stroke:#000000;stroke-width:0.80000001;stroke-linecap:butt;stroke-linejoin:round;stroke-miterlimit:10;stroke-dasharray:none;stroke-opacity:1"
       d="m 215.38543,37.54375 v -3.5" /><text
       id="text394"
       style="font-variant:normal;font-weight:normal;font-size:10px;font-family:DejaVuSans;-inkscape-font-specification:DejaVuSans;writing-mode:lr-tb;fill:#000000;fill-opacity:1;fill-rule:nonzero;stroke:none"
       transform="matrix(1,0,0,-1,205.84637,22.95)"><tspan
         id="tspan392"
         y="0"
         x="0 6.3600001 12.72">400</tspan></text>
<path
       id="path396"
       style="fill:#000000;fill-opacity:1;fill-rule:nonzero;stroke:#000000;stroke-width:0.80000001;stroke-linecap:butt;stroke-linejoin:round;stroke-miterlimit:10;stroke-dasharray:none;stroke-opacity:1"
       d="m 253.81519,37.54375 v -3.5" /><text
       id="text400"
       style="font-variant:normal;font-weight:normal;font-size:10px;font-family:DejaVuSans;-inkscape-font-specification:DejaVuSans;writing-mode:lr-tb;fill:#000000;fill-opacity:1;fill-rule:nonzero;stroke:none"
       transform="matrix(1,0,0,-1,244.27612,22.95)"><tspan
         id="tspan398"
         y="0"
         x="0 6.3600001 12.72">500</tspan></text>
<path
       id="path402"
       style="fill:#000000;fill-opacity:1;fill-rule:nonzero;stroke:#000000;stroke-width:0.80000001;stroke-linecap:butt;stroke-linejoin:round;stroke-miterlimit:10;stroke-dasharray:none;stroke-opacity:1"
       d="m 292.24494,37.54375 v -3.5" /><text
       id="text406"
       style="font-variant:normal;font-weight:normal;font-size:10px;font-family:DejaVuSans;-inkscape-font-specification:DejaVuSans;writing-mode:lr-tb;fill:#000000;fill-opacity:1;fill-rule:nonzero;stroke:none"
       transform="matrix(1,0,0,-1,282.70588,22.95)"><tspan
         id="tspan404"
         y="0"
         x="0 6.3600001 12.72">600</tspan></text>
<text
       id="text410"
       style="font-variant:normal;font-weight:normal;font-size:10px;font-family:DejaVuSans;-inkscape-font-specification:DejaVuSans;writing-mode:lr-tb;fill:#000000;fill-opacity:1;fill-rule:nonzero;stroke:none"
       transform="matrix(1,0,0,-1,136.90099,9.278125)"><tspan
         id="tspan408"
         y="0"
         x="0 7.3200002 12.53 18.68 22.790001 25.969999 28.75 35.09 39.009998 45.16 49.27 55.400002 60.900002 64.82 67.599998 73.720001">User interaction</tspan></text>
<path
       id="path412"
       style="fill:#000000;fill-opacity:1;fill-rule:nonzero;stroke:#000000;stroke-width:0.80000001;stroke-linecap:butt;stroke-linejoin:round;stroke-miterlimit:10;stroke-dasharray:none;stroke-opacity:1"
       d="m 50.1375,37.54375 h -3.5" /><text
       id="text416"
       style="font-variant:normal;font-weight:normal;font-size:10px;font-family:DejaVuSans;-inkscape-font-specification:DejaVuSans;writing-mode:lr-tb;fill:#000000;fill-opacity:1;fill-rule:nonzero;stroke:none"
       transform="matrix(1,0,0,-1,20.871875,33.746875)"><tspan
         id="tspan414"
         y="0"
         x="0 6.3600001 9.54 15.9">0.80</tspan></text>
<path
       id="path418"
       style="fill:#000000;fill-opacity:1;fill-rule:nonzero;stroke:#000000;stroke-width:0.80000001;stroke-linecap:butt;stroke-linejoin:round;stroke-miterlimit:10;stroke-dasharray:none;stroke-opacity:1"
       d="m 50.1375,69.88375 h -3.5" /><text
       id="text422"
       style="font-variant:normal;font-weight:normal;font-size:10px;font-family:DejaVuSans;-inkscape-font-specification:DejaVuSans;writing-mode:lr-tb;fill:#000000;fill-opacity:1;fill-rule:nonzero;stroke:none"
       transform="matrix(1,0,0,-1,20.871875,66.086875)"><tspan
         id="tspan420"
         y="0"
         x="0 6.3600001 9.54 15.9">0.82</tspan></text>
<path
       id="path424"
       style="fill:#000000;fill-opacity:1;fill-rule:nonzero;stroke:#000000;stroke-width:0.80000001;stroke-linecap:butt;stroke-linejoin:round;stroke-miterlimit:10;stroke-dasharray:none;stroke-opacity:1"
       d="m 50.1375,102.22375 h -3.5" /><text
       id="text428"
       style="font-variant:normal;font-weight:normal;font-size:10px;font-family:DejaVuSans;-inkscape-font-specification:DejaVuSans;writing-mode:lr-tb;fill:#000000;fill-opacity:1;fill-rule:nonzero;stroke:none"
       transform="matrix(1,0,0,-1,20.871875,98.426875)"><tspan
         id="tspan426"
         y="0"
         x="0 6.3600001 9.54 15.9">0.84</tspan></text>
<path
       id="path430"
       style="fill:#000000;fill-opacity:1;fill-rule:nonzero;stroke:#000000;stroke-width:0.80000001;stroke-linecap:butt;stroke-linejoin:round;stroke-miterlimit:10;stroke-dasharray:none;stroke-opacity:1"
       d="m 50.1375,134.56375 h -3.5" /><text
       id="text434"
       style="font-variant:normal;font-weight:normal;font-size:10px;font-family:DejaVuSans;-inkscape-font-specification:DejaVuSans;writing-mode:lr-tb;fill:#000000;fill-opacity:1;fill-rule:nonzero;stroke:none"
       transform="matrix(1,0,0,-1,20.871875,130.76687)"><tspan
         id="tspan432"
         y="0"
         x="0 6.3600001 9.54 15.9">0.86</tspan></text>
<path
       id="path436"
       style="fill:#000000;fill-opacity:1;fill-rule:nonzero;stroke:#000000;stroke-width:0.80000001;stroke-linecap:butt;stroke-linejoin:round;stroke-miterlimit:10;stroke-dasharray:none;stroke-opacity:1"
       d="m 50.1375,166.90375 h -3.5" /><text
       id="text440"
       style="font-variant:normal;font-weight:normal;font-size:10px;font-family:DejaVuSans;-inkscape-font-specification:DejaVuSans;writing-mode:lr-tb;fill:#000000;fill-opacity:1;fill-rule:nonzero;stroke:none"
       transform="matrix(1,0,0,-1,20.871875,163.10687)"><tspan
         id="tspan438"
         y="0"
         x="0 6.3600001 9.54 15.9">0.88</tspan></text>
<path
       id="path442"
       style="fill:#000000;fill-opacity:1;fill-rule:nonzero;stroke:#000000;stroke-width:0.80000001;stroke-linecap:butt;stroke-linejoin:round;stroke-miterlimit:10;stroke-dasharray:none;stroke-opacity:1"
       d="m 50.1375,199.24375 h -3.5" /><text
       id="text446"
       style="font-variant:normal;font-weight:normal;font-size:10px;font-family:DejaVuSans;-inkscape-font-specification:DejaVuSans;writing-mode:lr-tb;fill:#000000;fill-opacity:1;fill-rule:nonzero;stroke:none"
       transform="matrix(1,0,0,-1,20.871875,195.44687)"><tspan
         id="tspan444"
         y="0"
         x="0 6.3600001 9.54 15.9">0.90</tspan></text>
<path
       id="path448"
       style="fill:#000000;fill-opacity:1;fill-rule:nonzero;stroke:#000000;stroke-width:0.80000001;stroke-linecap:butt;stroke-linejoin:round;stroke-miterlimit:10;stroke-dasharray:none;stroke-opacity:1"
       d="m 50.1375,231.58375 h -3.5" /><text
       id="text452"
       style="font-variant:normal;font-weight:normal;font-size:10px;font-family:DejaVuSans;-inkscape-font-specification:DejaVuSans;writing-mode:lr-tb;fill:#000000;fill-opacity:1;fill-rule:nonzero;stroke:none"
       transform="matrix(1,0,0,-1,20.871875,227.78687)"><tspan
         id="tspan450"
         y="0"
         x="0 6.3600001 9.54 15.9">0.92</tspan></text>
<path
       id="path454"
       style="fill:#000000;fill-opacity:1;fill-rule:nonzero;stroke:#000000;stroke-width:0.80000001;stroke-linecap:butt;stroke-linejoin:round;stroke-miterlimit:10;stroke-dasharray:none;stroke-opacity:1"
       d="m 50.1375,263.92375 h -3.5" /><text
       id="text458"
       style="font-variant:normal;font-weight:normal;font-size:10px;font-family:DejaVuSans;-inkscape-font-specification:DejaVuSans;writing-mode:lr-tb;fill:#000000;fill-opacity:1;fill-rule:nonzero;stroke:none"
       transform="matrix(1,0,0,-1,20.871875,260.12687)"><tspan
         id="tspan456"
         y="0"
         x="0 6.3600001 9.54 15.9">0.94</tspan></text>
<path
       id="path460"
       style="fill:#000000;fill-opacity:1;fill-rule:nonzero;stroke:#000000;stroke-width:0.80000001;stroke-linecap:butt;stroke-linejoin:round;stroke-miterlimit:10;stroke-dasharray:none;stroke-opacity:1"
       d="m 50.1375,296.26375 h -3.5" /><text
       id="text464"
       style="font-variant:normal;font-weight:normal;font-size:10px;font-family:DejaVuSans;-inkscape-font-specification:DejaVuSans;writing-mode:lr-tb;fill:#000000;fill-opacity:1;fill-rule:nonzero;stroke:none"
       transform="matrix(1,0,0,-1,20.871875,292.46687)"><tspan
         id="tspan462"
         y="0"
         x="0 6.3600001 9.54 15.9">0.96</tspan></text>
<path
       id="path466"
       style="fill:#000000;fill-opacity:1;fill-rule:nonzero;stroke:#000000;stroke-width:0.80000001;stroke-linecap:butt;stroke-linejoin:round;stroke-miterlimit:10;stroke-dasharray:none;stroke-opacity:1"
       d="m 50.1375,328.60375 h -3.5" /><text
       id="text470"
       style="font-variant:normal;font-weight:normal;font-size:10px;font-family:DejaVuSans;-inkscape-font-specification:DejaVuSans;writing-mode:lr-tb;fill:#000000;fill-opacity:1;fill-rule:nonzero;stroke:none"
       transform="matrix(1,0,0,-1,20.871875,324.80687)"><tspan
         id="tspan468"
         y="0"
         x="0 6.3600001 9.54 15.9">0.98</tspan></text>
<text
       id="text474"
       style="font-variant:normal;font-weight:normal;font-size:10px;font-family:DejaVuSans;-inkscape-font-specification:DejaVuSans;writing-mode:lr-tb;fill:#000000;fill-opacity:1;fill-rule:nonzero;stroke:none"
       transform="matrix(0,1,1,0,14.79375,156.855)"><tspan
         id="tspan472"
         y="0"
         x="0 7.6999998 10.48 15.98 22.129999 25.309999 30.52 36.02 42.139999 46.25">Dice score</tspan></text>
<g
       id="g476"><g
         clip-path="url(#clipPath482)"
         id="g478"><path
           id="path484"
           style="fill:none;stroke:#1f77b4;stroke-width:1.5;stroke-linecap:square;stroke-linejoin:round;stroke-miterlimit:10;stroke-dasharray:none;stroke-opacity:1"
           d="m 61.666426,68.590075 0.768595,51.055135 0.768595,-0.18289 0.768595,6.51183 0.768595,6.81853 0.768595,1.40123 0.768595,6.90173 0.768595,4.51139 0.768595,-2.47496 0.768595,3.09712 0.768595,13.38185 0.768595,-2.98065 0.768595,10.74294 0.768595,6.55643 0.768595,1.70684 0.768595,6.85904 0.768595,0.84303 0.768595,7.54167 0.768595,1.15955 0.768595,0.14624 0.768595,0.40568" /></g></g><g
       id="g486"><g
         clip-path="url(#clipPath492)"
         id="g488"><path
           id="path494"
           style="fill:none;stroke:#ff7f0e;stroke-width:1.5;stroke-linecap:square;stroke-linejoin:round;stroke-miterlimit:10;stroke-dasharray:none;stroke-opacity:1"
           d="m 61.666426,68.590075 0.768595,54.257595 0.768595,10.89448 0.768595,2.00445 0.768595,0.17711 0.768595,1.18321 0.768595,17.42288 0.768595,0.70869 0.768595,0.0172 0.768595,-8.21449 0.768595,-0.15325 0.768595,4.60608 0.768595,-0.012 0.768595,0.17147 0.768595,3.30103 0.768595,-2.5288 0.768595,6.95989 0.768595,-0.87207 0.768595,0.71575 0.768595,-4.7198 0.768595,-0.30413" /></g></g><g
       id="g496"><g
         clip-path="url(#clipPath502)"
         id="g498"><path
           id="path504"
           style="fill:none;stroke:#2ca02c;stroke-width:1.5;stroke-linecap:square;stroke-linejoin:round;stroke-miterlimit:10;stroke-dasharray:none;stroke-opacity:1"
           d="m 61.666426,68.590075 0.768595,79.270975 0.768595,17.07467 0.768595,9.39359 0.768595,8.64068 0.768595,8.6138 0.768595,2.94092 0.768595,8.38193 0.768595,2.04855 0.768595,1.82405 0.768595,6.44899 0.768595,3.8167 0.768595,2.65598 0.768595,7.24926 0.768595,6.64212 0.768595,1.11949 0.768595,5.8866 0.768595,0.89982 0.768595,0.93547 0.768595,-4.63544 0.768595,0.90211" /></g></g><g
       id="g506"><g
         clip-path="url(#clipPath512)"
         id="g508"><path
           id="path514"
           style="fill:none;stroke:#d62728;stroke-width:1.5;stroke-linecap:square;stroke-linejoin:round;stroke-miterlimit:10;stroke-dasharray:none;stroke-opacity:1"
           d="m 61.666426,68.590075 3.842975,73.976285 3.842975,26.47856 3.842975,16.09833 3.842975,13.37264 3.842976,27.46979 3.842975,2.09987 3.842975,13.8763 3.842975,9.59233 3.842975,12.0917 3.842978,10.41561 3.84297,1.89418 3.84298,7.38458 3.84297,7.36927 3.84298,9.21402 3.84297,0.37408 3.84298,3.54795 3.84297,1.51673 3.84298,-4.20864 3.84297,1.22354 3.84298,-4.49987" /></g></g><g
       id="g516"><g
         clip-path="url(#clipPath522)"
         id="g518"><path
           id="path524"
           style="fill:none;stroke:#9467bd;stroke-width:1.5;stroke-linecap:square;stroke-linejoin:round;stroke-miterlimit:10;stroke-dasharray:none;stroke-opacity:1"
           d="m 61.666426,68.590075 7.68595,67.024925 7.68595,32.05989 7.685951,15.92938 7.68595,24.2003 7.685953,12.35427 7.68595,11.02712 7.68595,13.94214 7.68595,18.90231 7.68595,14.77894 7.68595,4.6858 7.68595,9.72888 7.68595,4.1674 7.68595,3.14355 7.68595,7.70269 7.68595,7.63004 7.68595,1.40776 7.68595,0.6092 7.68595,-3.48011 7.68595,0.67981 7.68595,0.60545" /></g></g><g
       id="g526"><g
         clip-path="url(#clipPath532)"
         id="g528"><path
           id="path534"
           style="fill:none;stroke:#8c564b;stroke-width:1.5;stroke-linecap:square;stroke-linejoin:round;stroke-miterlimit:10;stroke-dasharray:none;stroke-opacity:1"
           d="m 61.666426,68.590075 11.528925,58.038815 11.528926,23.93606 11.528925,39.03427 11.528928,11.78607 11.52892,7.83002 11.52893,15.50886 11.52892,8.50224 11.52893,12.04333 11.52893,6.52505 11.52892,12.0065 11.52893,6.47107 11.52892,2.95096 11.52893,12.97584 11.52892,-2.18287 11.52893,8.18098 11.52893,-4.93369 11.52892,12.22705 11.52893,0.73202 11.52892,-4.31233 11.52893,-0.63126" /></g></g><g
       id="g536"><path
         id="path538"
         style="fill:none;stroke:#000000;stroke-width:0.80000001;stroke-linecap:square;stroke-linejoin:miter;stroke-miterlimit:10;stroke-dasharray:none;stroke-opacity:1"
         d="m 50.1375,37.54375 v 291.06" /><path
         id="path540"
         style="fill:none;stroke:#000000;stroke-width:0.80000001;stroke-linecap:square;stroke-linejoin:miter;stroke-miterlimit:10;stroke-dasharray:none;stroke-opacity:1"
         d="m 303.77386,37.54375 v 291.06" /><path
         id="path542"
         style="fill:none;stroke:#000000;stroke-width:0.80000001;stroke-linecap:square;stroke-linejoin:miter;stroke-miterlimit:10;stroke-dasharray:none;stroke-opacity:1"
         d="M 50.1375,37.54375 H 303.77386" /><path
         id="path544"
         style="fill:none;stroke:#000000;stroke-width:0.80000001;stroke-linecap:square;stroke-linejoin:miter;stroke-miterlimit:10;stroke-dasharray:none;stroke-opacity:1"
         d="M 50.1375,328.60375 H 303.77386" /><text
         id="text548"
         style="font-variant:normal;font-weight:normal;font-size:12px;font-family:DejaVuSans;-inkscape-font-specification:DejaVuSans;writing-mode:lr-tb;fill:#000000;fill-opacity:1;fill-rule:nonzero;stroke:none"
         transform="matrix(1,0,0,-1,132.04943,334.60375)"><tspan
           id="tspan546"
           y="0"
           x="0 7.632 16.872 20.688 29.927999 33.264 39.863998 47.243999 51.060001 57.312 63.911999 71.255997 76.188004 83.568001">2D Dice scores</tspan></text>
<path
         id="path550"
         style="fill:#000000;fill-opacity:1;fill-rule:nonzero;stroke:#000000;stroke-width:0.80000001;stroke-linecap:butt;stroke-linejoin:round;stroke-miterlimit:10;stroke-dasharray:none;stroke-opacity:1"
         d="m 366.03006,37.54375 v -3.5" /><text
         id="text554"
         style="font-variant:normal;font-weight:normal;font-size:10px;font-family:DejaVuSans;-inkscape-font-specification:DejaVuSans;writing-mode:lr-tb;fill:#000000;fill-opacity:1;fill-rule:nonzero;stroke:none"
         transform="matrix(1,0,0,-1,362.85037,22.95)"><tspan
           id="tspan552"
           y="0"
           x="0">0</tspan></text>
<path
         id="path556"
         style="fill:#000000;fill-opacity:1;fill-rule:nonzero;stroke:#000000;stroke-width:0.80000001;stroke-linecap:butt;stroke-linejoin:round;stroke-miterlimit:10;stroke-dasharray:none;stroke-opacity:1"
         d="m 404.45981,37.54375 v -3.5" /><text
         id="text560"
         style="font-variant:normal;font-weight:normal;font-size:10px;font-family:DejaVuSans;-inkscape-font-specification:DejaVuSans;writing-mode:lr-tb;fill:#000000;fill-opacity:1;fill-rule:nonzero;stroke:none"
         transform="matrix(1,0,0,-1,394.92075,22.95)"><tspan
           id="tspan558"
           y="0"
           x="0 6.3600001 12.72">100</tspan></text>
<path
         id="path562"
         style="fill:#000000;fill-opacity:1;fill-rule:nonzero;stroke:#000000;stroke-width:0.80000001;stroke-linecap:butt;stroke-linejoin:round;stroke-miterlimit:10;stroke-dasharray:none;stroke-opacity:1"
         d="m 442.88957,37.54375 v -3.5" /><text
         id="text566"
         style="font-variant:normal;font-weight:normal;font-size:10px;font-family:DejaVuSans;-inkscape-font-specification:DejaVuSans;writing-mode:lr-tb;fill:#000000;fill-opacity:1;fill-rule:nonzero;stroke:none"
         transform="matrix(1,0,0,-1,433.3505,22.95)"><tspan
           id="tspan564"
           y="0"
           x="0 6.3600001 12.72">200</tspan></text>
<path
         id="path568"
         style="fill:#000000;fill-opacity:1;fill-rule:nonzero;stroke:#000000;stroke-width:0.80000001;stroke-linecap:butt;stroke-linejoin:round;stroke-miterlimit:10;stroke-dasharray:none;stroke-opacity:1"
         d="m 481.31932,37.54375 v -3.5" /><text
         id="text572"
         style="font-variant:normal;font-weight:normal;font-size:10px;font-family:DejaVuSans;-inkscape-font-specification:DejaVuSans;writing-mode:lr-tb;fill:#000000;fill-opacity:1;fill-rule:nonzero;stroke:none"
         transform="matrix(1,0,0,-1,471.78026,22.95)"><tspan
           id="tspan570"
           y="0"
           x="0 6.3600001 12.72">300</tspan></text>
<path
         id="path574"
         style="fill:#000000;fill-opacity:1;fill-rule:nonzero;stroke:#000000;stroke-width:0.80000001;stroke-linecap:butt;stroke-linejoin:round;stroke-miterlimit:10;stroke-dasharray:none;stroke-opacity:1"
         d="m 519.74907,37.54375 v -3.5" /><text
         id="text578"
         style="font-variant:normal;font-weight:normal;font-size:10px;font-family:DejaVuSans;-inkscape-font-specification:DejaVuSans;writing-mode:lr-tb;fill:#000000;fill-opacity:1;fill-rule:nonzero;stroke:none"
         transform="matrix(1,0,0,-1,510.21001,22.95)"><tspan
           id="tspan576"
           y="0"
           x="0 6.3600001 12.72">400</tspan></text>
<path
         id="path580"
         style="fill:#000000;fill-opacity:1;fill-rule:nonzero;stroke:#000000;stroke-width:0.80000001;stroke-linecap:butt;stroke-linejoin:round;stroke-miterlimit:10;stroke-dasharray:none;stroke-opacity:1"
         d="m 558.17882,37.54375 v -3.5" /><text
         id="text584"
         style="font-variant:normal;font-weight:normal;font-size:10px;font-family:DejaVuSans;-inkscape-font-specification:DejaVuSans;writing-mode:lr-tb;fill:#000000;fill-opacity:1;fill-rule:nonzero;stroke:none"
         transform="matrix(1,0,0,-1,548.63976,22.95)"><tspan
           id="tspan582"
           y="0"
           x="0 6.3600001 12.72">500</tspan></text>
<path
         id="path586"
         style="fill:#000000;fill-opacity:1;fill-rule:nonzero;stroke:#000000;stroke-width:0.80000001;stroke-linecap:butt;stroke-linejoin:round;stroke-miterlimit:10;stroke-dasharray:none;stroke-opacity:1"
         d="m 596.60857,37.54375 v -3.5" /><text
         id="text590"
         style="font-variant:normal;font-weight:normal;font-size:10px;font-family:DejaVuSans;-inkscape-font-specification:DejaVuSans;writing-mode:lr-tb;fill:#000000;fill-opacity:1;fill-rule:nonzero;stroke:none"
         transform="matrix(1,0,0,-1,587.06951,22.95)"><tspan
           id="tspan588"
           y="0"
           x="0 6.3600001 12.72">600</tspan></text>
<text
         id="text594"
         style="font-variant:normal;font-weight:normal;font-size:10px;font-family:DejaVuSans;-inkscape-font-specification:DejaVuSans;writing-mode:lr-tb;fill:#000000;fill-opacity:1;fill-rule:nonzero;stroke:none"
         transform="matrix(1,0,0,-1,441.26463,9.278125)"><tspan
           id="tspan592"
           y="0"
           x="0 7.3200002 12.53 18.68 22.790001 25.969999 28.75 35.09 39.009998 45.16 49.27 55.400002 60.900002 64.82 67.599998 73.720001">User interaction</tspan></text>
<path
         id="path596"
         style="fill:#000000;fill-opacity:1;fill-rule:nonzero;stroke:#000000;stroke-width:0.80000001;stroke-linecap:butt;stroke-linejoin:round;stroke-miterlimit:10;stroke-dasharray:none;stroke-opacity:1"
         d="m 354.50114,37.54375 h -3.5" /><text
         id="text600"
         style="font-variant:normal;font-weight:normal;font-size:10px;font-family:DejaVuSans;-inkscape-font-specification:DejaVuSans;writing-mode:lr-tb;fill:#000000;fill-opacity:1;fill-rule:nonzero;stroke:none"
         transform="matrix(1,0,0,-1,325.23551,33.746875)"><tspan
           id="tspan598"
           y="0"
           x="0 6.3600001 9.54 15.9">0.90</tspan></text>
<path
         id="path602"
         style="fill:#000000;fill-opacity:1;fill-rule:nonzero;stroke:#000000;stroke-width:0.80000001;stroke-linecap:butt;stroke-linejoin:round;stroke-miterlimit:10;stroke-dasharray:none;stroke-opacity:1"
         d="m 354.50114,73.92625 h -3.5" /><text
         id="text606"
         style="font-variant:normal;font-weight:normal;font-size:10px;font-family:DejaVuSans;-inkscape-font-specification:DejaVuSans;writing-mode:lr-tb;fill:#000000;fill-opacity:1;fill-rule:nonzero;stroke:none"
         transform="matrix(1,0,0,-1,325.23551,70.129375)"><tspan
           id="tspan604"
           y="0"
           x="0 6.3600001 9.54 15.9">0.91</tspan></text>
<path
         id="path608"
         style="fill:#000000;fill-opacity:1;fill-rule:nonzero;stroke:#000000;stroke-width:0.80000001;stroke-linecap:butt;stroke-linejoin:round;stroke-miterlimit:10;stroke-dasharray:none;stroke-opacity:1"
         d="m 354.50114,110.30875 h -3.5" /><text
         id="text612"
         style="font-variant:normal;font-weight:normal;font-size:10px;font-family:DejaVuSans;-inkscape-font-specification:DejaVuSans;writing-mode:lr-tb;fill:#000000;fill-opacity:1;fill-rule:nonzero;stroke:none"
         transform="matrix(1,0,0,-1,325.23551,106.51188)"><tspan
           id="tspan610"
           y="0"
           x="0 6.3600001 9.54 15.9">0.92</tspan></text>
<path
         id="path614"
         style="fill:#000000;fill-opacity:1;fill-rule:nonzero;stroke:#000000;stroke-width:0.80000001;stroke-linecap:butt;stroke-linejoin:round;stroke-miterlimit:10;stroke-dasharray:none;stroke-opacity:1"
         d="m 354.50114,146.69125 h -3.5" /><text
         id="text618"
         style="font-variant:normal;font-weight:normal;font-size:10px;font-family:DejaVuSans;-inkscape-font-specification:DejaVuSans;writing-mode:lr-tb;fill:#000000;fill-opacity:1;fill-rule:nonzero;stroke:none"
         transform="matrix(1,0,0,-1,325.23551,142.89437)"><tspan
           id="tspan616"
           y="0"
           x="0 6.3600001 9.54 15.9">0.93</tspan></text>
<path
         id="path620"
         style="fill:#000000;fill-opacity:1;fill-rule:nonzero;stroke:#000000;stroke-width:0.80000001;stroke-linecap:butt;stroke-linejoin:round;stroke-miterlimit:10;stroke-dasharray:none;stroke-opacity:1"
         d="m 354.50114,183.07375 h -3.5" /><text
         id="text624"
         style="font-variant:normal;font-weight:normal;font-size:10px;font-family:DejaVuSans;-inkscape-font-specification:DejaVuSans;writing-mode:lr-tb;fill:#000000;fill-opacity:1;fill-rule:nonzero;stroke:none"
         transform="matrix(1,0,0,-1,325.23551,179.27687)"><tspan
           id="tspan622"
           y="0"
           x="0 6.3600001 9.54 15.9">0.94</tspan></text>
<path
         id="path626"
         style="fill:#000000;fill-opacity:1;fill-rule:nonzero;stroke:#000000;stroke-width:0.80000001;stroke-linecap:butt;stroke-linejoin:round;stroke-miterlimit:10;stroke-dasharray:none;stroke-opacity:1"
         d="m 354.50114,219.45625 h -3.5" /><text
         id="text630"
         style="font-variant:normal;font-weight:normal;font-size:10px;font-family:DejaVuSans;-inkscape-font-specification:DejaVuSans;writing-mode:lr-tb;fill:#000000;fill-opacity:1;fill-rule:nonzero;stroke:none"
         transform="matrix(1,0,0,-1,325.23551,215.65937)"><tspan
           id="tspan628"
           y="0"
           x="0 6.3600001 9.54 15.9">0.95</tspan></text>
<path
         id="path632"
         style="fill:#000000;fill-opacity:1;fill-rule:nonzero;stroke:#000000;stroke-width:0.80000001;stroke-linecap:butt;stroke-linejoin:round;stroke-miterlimit:10;stroke-dasharray:none;stroke-opacity:1"
         d="m 354.50114,255.83875 h -3.5" /><text
         id="text636"
         style="font-variant:normal;font-weight:normal;font-size:10px;font-family:DejaVuSans;-inkscape-font-specification:DejaVuSans;writing-mode:lr-tb;fill:#000000;fill-opacity:1;fill-rule:nonzero;stroke:none"
         transform="matrix(1,0,0,-1,325.23551,252.04187)"><tspan
           id="tspan634"
           y="0"
           x="0 6.3600001 9.54 15.9">0.96</tspan></text>
<path
         id="path638"
         style="fill:#000000;fill-opacity:1;fill-rule:nonzero;stroke:#000000;stroke-width:0.80000001;stroke-linecap:butt;stroke-linejoin:round;stroke-miterlimit:10;stroke-dasharray:none;stroke-opacity:1"
         d="m 354.50114,292.22125 h -3.5" /><text
         id="text642"
         style="font-variant:normal;font-weight:normal;font-size:10px;font-family:DejaVuSans;-inkscape-font-specification:DejaVuSans;writing-mode:lr-tb;fill:#000000;fill-opacity:1;fill-rule:nonzero;stroke:none"
         transform="matrix(1,0,0,-1,325.23551,288.42437)"><tspan
           id="tspan640"
           y="0"
           x="0 6.3600001 9.54 15.9">0.97</tspan></text>
<path
         id="path644"
         style="fill:#000000;fill-opacity:1;fill-rule:nonzero;stroke:#000000;stroke-width:0.80000001;stroke-linecap:butt;stroke-linejoin:round;stroke-miterlimit:10;stroke-dasharray:none;stroke-opacity:1"
         d="m 354.50114,328.60375 h -3.5" /><text
         id="text648"
         style="font-variant:normal;font-weight:normal;font-size:10px;font-family:DejaVuSans;-inkscape-font-specification:DejaVuSans;writing-mode:lr-tb;fill:#000000;fill-opacity:1;fill-rule:nonzero;stroke:none"
         transform="matrix(1,0,0,-1,325.23551,324.80687)"><tspan
           id="tspan646"
           y="0"
           x="0 6.3600001 9.54 15.9">0.98</tspan></text>
<text
         id="text652"
         style="font-variant:normal;font-weight:normal;font-size:10px;font-family:DejaVuSans;-inkscape-font-specification:DejaVuSans;writing-mode:lr-tb;fill:#000000;fill-opacity:1;fill-rule:nonzero;stroke:none"
         transform="matrix(0,1,1,0,319.15739,156.855)"><tspan
           id="tspan650"
           y="0"
           x="0 7.6999998 10.48 15.98 22.129999 25.309999 30.52 36.02 42.139999 46.25">Dice score</tspan></text>
</g><g
       id="g654"><g
         clip-path="url(#clipPath660)"
         id="g656"><path
           id="path662"
           style="fill:none;stroke:#1f77b4;stroke-width:1.5;stroke-linecap:square;stroke-linejoin:round;stroke-miterlimit:10;stroke-dasharray:none;stroke-opacity:1"
           d="m 366.03006,76.161853 0.7686,15.198497 0.76859,-3.23544 0.7686,-3.599324 0.76859,-0.635287 0.7686,-0.315424 0.76859,-0.365984 0.7686,4.126302 0.76859,2.767063 0.7686,4.212122 0.76859,3.837213 0.7686,5.857519 0.76859,3.5561 0.7686,5.02956 0.76859,6.45858 0.7686,5.64905 0.76859,3.54135 0.7686,3.10387 0.76859,2.81741 0.7686,1.85045 0.76859,1.8802" /></g></g><g
       id="g664"><g
         clip-path="url(#clipPath670)"
         id="g666"><path
           id="path672"
           style="fill:none;stroke:#ff7f0e;stroke-width:1.5;stroke-linecap:square;stroke-linejoin:round;stroke-miterlimit:10;stroke-dasharray:none;stroke-opacity:1"
           d="m 366.03006,76.161853 0.7686,35.619667 0.76859,5.1904 0.7686,3.2685 0.76859,3.41874 0.7686,3.82358 0.76859,3.26355 0.7686,0.60101 0.76859,1.09829 0.7686,0.71308 0.76859,1.58296 0.7686,0.61909 0.76859,2.77888 0.7686,1.75515 0.76859,0.1304 0.7686,-2.16191 0.76859,1.38759 0.7686,-2.50622 0.76859,0.60393 0.7686,1.12538 0.76859,-0.87448" /></g></g><g
       id="g674"><g
         clip-path="url(#clipPath680)"
         id="g676"><path
           id="path682"
           style="fill:none;stroke:#2ca02c;stroke-width:1.5;stroke-linecap:square;stroke-linejoin:round;stroke-miterlimit:10;stroke-dasharray:none;stroke-opacity:1"
           d="m 366.03006,76.161853 0.7686,46.897957 0.76859,14.06497 0.7686,6.39494 0.76859,4.63643 0.7686,5.49491 0.76859,5.52681 0.7686,5.45534 0.76859,4.78732 0.7686,5.44351 0.76859,3.33288 0.7686,3.92105 0.76859,4.09706 0.7686,2.66346 0.76859,3.46941 0.7686,1.54294 0.76859,1.65847 0.7686,3.35346 0.76859,1.28687 0.7686,1.28634 0.76859,2.67392" /></g></g><g
       id="g684"><g
         clip-path="url(#clipPath690)"
         id="g686"><path
           id="path692"
           style="fill:none;stroke:#d62728;stroke-width:1.5;stroke-linecap:square;stroke-linejoin:round;stroke-miterlimit:10;stroke-dasharray:none;stroke-opacity:1"
           d="m 366.03006,76.161853 3.84298,45.955737 3.84297,23.70153 3.84298,19.52399 3.84297,16.72398 3.84298,13.60894 3.84297,8.93905 3.84298,11.72291 3.84297,8.30265 3.84298,12.81691 3.84297,8.20839 3.84298,6.03165 3.84297,6.59759 3.84298,5.29061 3.84297,6.02553 3.84298,0.65344 3.84298,5.55371 3.84297,2.10865 3.84298,1.98592 3.84297,1.8034 3.84298,0.72817" /></g></g><g
       id="g694"><g
         clip-path="url(#clipPath700)"
         id="g696"><path
           id="path702"
           style="fill:none;stroke:#9467bd;stroke-width:1.5;stroke-linecap:square;stroke-linejoin:round;stroke-miterlimit:10;stroke-dasharray:none;stroke-opacity:1"
           d="m 366.03006,76.161853 7.68595,45.418417 7.68595,19.05485 7.68595,15.79096 7.68595,15.63627 7.68595,13.4317 7.68595,19.0265 7.68595,19.33541 7.68596,15.01242 7.68595,12.96539 7.68595,10.3733 7.68595,8.30859 7.68595,9.69029 7.68595,7.65288 7.68595,5.34177 7.68595,3.91369 7.68595,3.07443 7.68595,2.49338 7.68595,3.2473 7.68595,1.6545 7.68595,1.77201" /></g></g><g
       id="g704"><g
         clip-path="url(#clipPath710)"
         id="g706"><path
           id="path712"
           style="fill:none;stroke:#8c564b;stroke-width:1.5;stroke-linecap:square;stroke-linejoin:round;stroke-miterlimit:10;stroke-dasharray:none;stroke-opacity:1"
           d="m 366.03006,76.161853 11.52893,30.278427 11.52892,27.77266 11.52893,21.50416 11.52892,12.15611 11.52893,6.91861 11.52893,4.73469 11.52892,1.71045 11.52893,16.54432 11.52892,18.97235 11.52893,17.60467 11.52892,14.50049 11.52893,6.55861 11.52892,2.42218 11.52893,8.10361 11.52893,5.92407 11.52892,-1.01553 11.52893,4.3512 11.52892,-14.47365 11.52893,-10.48013 11.52892,-0.94356" /></g></g><g
       id="g714"><path
         id="path716"
         style="fill:none;stroke:#000000;stroke-width:0.80000001;stroke-linecap:square;stroke-linejoin:miter;stroke-miterlimit:10;stroke-dasharray:none;stroke-opacity:1"
         d="m 354.50114,37.54375 v 291.06" /><path
         id="path718"
         style="fill:none;stroke:#000000;stroke-width:0.80000001;stroke-linecap:square;stroke-linejoin:miter;stroke-miterlimit:10;stroke-dasharray:none;stroke-opacity:1"
         d="m 608.1375,37.54375 v 291.06" /><path
         id="path720"
         style="fill:none;stroke:#000000;stroke-width:0.80000001;stroke-linecap:square;stroke-linejoin:miter;stroke-miterlimit:10;stroke-dasharray:none;stroke-opacity:1"
         d="M 354.50114,37.54375 H 608.1375" /><path
         id="path722"
         style="fill:none;stroke:#000000;stroke-width:0.80000001;stroke-linecap:square;stroke-linejoin:miter;stroke-miterlimit:10;stroke-dasharray:none;stroke-opacity:1"
         d="M 354.50114,328.60375 H 608.1375" /><text
         id="text726"
         style="font-variant:normal;font-weight:normal;font-size:12px;font-family:DejaVuSans;-inkscape-font-specification:DejaVuSans;writing-mode:lr-tb;fill:#000000;fill-opacity:1;fill-rule:nonzero;stroke:none"
         transform="matrix(1,0,0,-1,436.41307,334.60375)"><tspan
           id="tspan724"
           y="0"
           x="0 7.632 16.872 20.688 29.927999 33.264 39.863998 47.243999 51.060001 57.312 63.911999 71.255997 76.188004 83.568001">3D Dice scores</tspan></text>
<path
         id="path728"
         style="fill:#ffffff;fill-opacity:0.8;fill-rule:nonzero;stroke:#cccccc;stroke-width:1;stroke-linecap:butt;stroke-linejoin:miter;stroke-miterlimit:10;stroke-dasharray:none;stroke-opacity:0.8"
         d="m 456.7625,42.54375 h 144.375 c 1.33333,0 2,0.666667 2,2 V 131.575 c 0,1.33333 -0.66667,2 -2,2 h -144.375 c -1.33333,0 -2,-0.66667 -2,-2 V 44.54375 c 0,-1.333333 0.66667,-2 2,-2 z" /><path
         id="path730"
         style="fill:none;stroke:#1f77b4;stroke-width:1.5;stroke-linecap:square;stroke-linejoin:round;stroke-miterlimit:10;stroke-dasharray:none;stroke-opacity:1"
         d="m 458.7625,125.48125 h 20" /><text
         id="text734"
         style="font-variant:normal;font-weight:normal;font-size:10px;font-family:DejaVuSans;-inkscape-font-specification:DejaVuSans;writing-mode:lr-tb;fill:#000000;fill-opacity:1;fill-rule:nonzero;stroke:none"
         transform="matrix(1,0,0,-1,486.7625,121.98125)"><tspan
           id="tspan732"
           y="0"
           x="0 6.8400002 12.97 19.309999 22.09 24.870001 27.65">Vanilla</tspan></text>
<path
         id="path736"
         style="fill:none;stroke:#ff7f0e;stroke-width:1.5;stroke-linecap:square;stroke-linejoin:round;stroke-miterlimit:10;stroke-dasharray:none;stroke-opacity:1"
         d="m 458.7625,110.80937 h 20" /><text
         id="text740"
         style="font-variant:normal;font-weight:normal;font-size:10px;font-family:DejaVuSans;-inkscape-font-specification:DejaVuSans;writing-mode:lr-tb;fill:#000000;fill-opacity:1;fill-rule:nonzero;stroke:none"
         transform="matrix(1,0,0,-1,486.7625,107.30937)"><tspan
           id="tspan738"
           y="0"
           x="0 6.3600001 12.28 15.46 20.67 26.17 30.280001 33.060001 39.41 45.759998 48.540001 54.689999 57.869999 63.080002 65.860001 71.110001">3x scribble size</tspan></text>
<path
         id="path742"
         style="fill:none;stroke:#2ca02c;stroke-width:1.5;stroke-linecap:square;stroke-linejoin:round;stroke-miterlimit:10;stroke-dasharray:none;stroke-opacity:1"
         d="m 458.7625,96.1375 h 20" /><text
         id="text746"
         style="font-variant:normal;font-weight:normal;font-size:10px;font-family:DejaVuSans;-inkscape-font-specification:DejaVuSans;writing-mode:lr-tb;fill:#000000;fill-opacity:1;fill-rule:nonzero;stroke:none"
         transform="matrix(1,0,0,-1,486.7625,92.6375)"><tspan
           id="tspan744"
           y="0"
           x="0 6.0300002 8.8100004 14.94 20.440001 23.219999 29.559999 35.91 39.09 41.869999 48.209999 51.389999 56.959999 63.939999">Placing in LCC</tspan></text>
<path
         id="path748"
         style="fill:none;stroke:#d62728;stroke-width:1.5;stroke-linecap:square;stroke-linejoin:round;stroke-miterlimit:10;stroke-dasharray:none;stroke-opacity:1"
         d="m 458.7625,81.465625 h 20" /><text
         id="text752"
         style="font-variant:normal;font-weight:normal;font-size:10px;font-family:DejaVuSans;-inkscape-font-specification:DejaVuSans;writing-mode:lr-tb;fill:#000000;fill-opacity:1;fill-rule:nonzero;stroke:none"
         transform="matrix(1,0,0,-1,486.7625,77.965625)"><tspan
           id="tspan750"
           y="0"
           x="0 6.3600001 9.54 14.75 20.25 24.360001 27.139999 33.490002 39.84 42.619999 48.77 53.98 57.16 60.529999 63.709999 66.489998 70.410004 76.559998 80.669998 86.800003 90.720001 93.5 99.620003">5 scribbles / iteration</tspan></text>
<path
         id="path754"
         style="fill:none;stroke:#9467bd;stroke-width:1.5;stroke-linecap:square;stroke-linejoin:round;stroke-miterlimit:10;stroke-dasharray:none;stroke-opacity:1"
         d="m 458.7625,66.79375 h 20" /><text
         id="text758"
         style="font-variant:normal;font-weight:normal;font-size:10px;font-family:DejaVuSans;-inkscape-font-specification:DejaVuSans;writing-mode:lr-tb;fill:#000000;fill-opacity:1;fill-rule:nonzero;stroke:none"
         transform="matrix(1,0,0,-1,486.7625,63.29375)"><tspan
           id="tspan756"
           y="0"
           x="0 6.3600001 12.72 15.9 21.110001 26.610001 30.719999 33.5 39.849998 46.200001 48.98 55.130001 60.34 63.52 66.889999 70.07 72.849998 76.769997 82.919998 87.029999 93.160004 97.080002 99.860001 105.98">10 scribbles / iteration</tspan></text>
<path
         id="path760"
         style="fill:none;stroke:#8c564b;stroke-width:1.5;stroke-linecap:square;stroke-linejoin:round;stroke-miterlimit:10;stroke-dasharray:none;stroke-opacity:1"
         d="m 458.7625,52.121875 h 20" /><text
         id="text764"
         style="font-variant:normal;font-weight:normal;font-size:10px;font-family:DejaVuSans;-inkscape-font-specification:DejaVuSans;writing-mode:lr-tb;fill:#000000;fill-opacity:1;fill-rule:nonzero;stroke:none"
         transform="matrix(1,0,0,-1,486.7625,48.621875)"><tspan
           id="tspan762"
           y="0"
           x="0 6.3600001 12.72 15.9 21.110001 26.610001 30.719999 33.5 39.849998 46.200001 48.98 55.130001 60.34 63.52 66.889999 70.07 72.849998 76.769997 82.919998 87.029999 93.160004 97.080002 99.860001 105.98">15 scribbles / iteration</tspan></text>
</g></g></svg>