<?xml version="1.0" encoding="UTF-8" standalone="no"?>
<svg
   xmlns:dc="http://purl.org/dc/elements/1.1/"
   xmlns:cc="http://creativecommons.org/ns#"
   xmlns:rdf="http://www.w3.org/1999/02/22-rdf-syntax-ns#"
   xmlns:svg="http://www.w3.org/2000/svg"
   xmlns="http://www.w3.org/2000/svg"
   viewBox="0 0 573.80792 434.64099"
   height="434.64099"
   width="573.80792"
   xml:space="preserve"
   id="svg1148"
   version="1.1"><metadata
     id="metadata1154"><rdf:RDF><cc:Work
         rdf:about=""><dc:format>image/svg+xml</dc:format><dc:type
           rdf:resource="http://purl.org/dc/dcmitype/StillImage" /><dc:title></dc:title></cc:Work></rdf:RDF></metadata><defs
     id="defs1152"><clipPath
       id="clipPath1268"
       clipPathUnits="userSpaceOnUse"><path
         id="path1266"
         d="M 56.496875,37.54375 H 413.61687 v 266.112 H 56.496875 Z" /></clipPath><clipPath
       id="clipPath1278"
       clipPathUnits="userSpaceOnUse"><path
         id="path1276"
         d="M 56.496875,37.54375 H 413.61687 v 266.112 H 56.496875 Z" /></clipPath><clipPath
       id="clipPath1288"
       clipPathUnits="userSpaceOnUse"><path
         id="path1286"
         d="M 56.496875,37.54375 H 413.61687 v 266.112 H 56.496875 Z" /></clipPath><clipPath
       id="clipPath1298"
       clipPathUnits="userSpaceOnUse"><path
         id="path1296"
         d="M 56.496875,37.54375 H 413.61687 v 266.112 H 56.496875 Z" /></clipPath><clipPath
       id="clipPath1308"
       clipPathUnits="userSpaceOnUse"><path
         id="path1306"
         d="M 56.496875,37.54375 H 413.61687 v 266.112 H 56.496875 Z" /></clipPath><clipPath
       id="clipPath1318"
       clipPathUnits="userSpaceOnUse"><path
         id="path1316"
         d="M 56.496875,37.54375 H 413.61687 v 266.112 H 56.496875 Z" /></clipPath><clipPath
       id="clipPath1328"
       clipPathUnits="userSpaceOnUse"><path
         id="path1326"
         d="M 56.496875,37.54375 H 413.61687 v 266.112 H 56.496875 Z" /></clipPath></defs><g
     transform="matrix(1.3333333,0,0,-1.3333333,0,434.641)"
     id="g1156"><path
       id="path1158"
       style="fill:#000000;fill-opacity:1;fill-rule:nonzero;stroke:#000000;stroke-width:0.80000001;stroke-linecap:butt;stroke-linejoin:round;stroke-miterlimit:10;stroke-dasharray:none;stroke-opacity:1"
       d="m 56.496875,37.54375 v -3.5" /><text
       id="text1162"
       style="font-variant:normal;font-weight:normal;font-size:10px;font-family:DejaVuSans;-inkscape-font-specification:DejaVuSans;writing-mode:lr-tb;fill:#000000;fill-opacity:1;fill-rule:nonzero;stroke:none"
       transform="matrix(1,0,0,-1,53.317187,22.95)"><tspan
         id="tspan1160"
         y="0"
         x="0">0</tspan></text>
<path
       id="path1164"
       style="fill:#000000;fill-opacity:1;fill-rule:nonzero;stroke:#000000;stroke-width:0.80000001;stroke-linecap:butt;stroke-linejoin:round;stroke-miterlimit:10;stroke-dasharray:none;stroke-opacity:1"
       d="m 116.01688,37.54375 v -3.5" /><text
       id="text1168"
       style="font-variant:normal;font-weight:normal;font-size:10px;font-family:DejaVuSans;-inkscape-font-specification:DejaVuSans;writing-mode:lr-tb;fill:#000000;fill-opacity:1;fill-rule:nonzero;stroke:none"
       transform="matrix(1,0,0,-1,106.47781,22.95)"><tspan
         id="tspan1166"
         y="0"
         x="0 6.3600001 12.72">100</tspan></text>
<path
       id="path1170"
       style="fill:#000000;fill-opacity:1;fill-rule:nonzero;stroke:#000000;stroke-width:0.80000001;stroke-linecap:butt;stroke-linejoin:round;stroke-miterlimit:10;stroke-dasharray:none;stroke-opacity:1"
       d="m 175.53687,37.54375 v -3.5" /><text
       id="text1174"
       style="font-variant:normal;font-weight:normal;font-size:10px;font-family:DejaVuSans;-inkscape-font-specification:DejaVuSans;writing-mode:lr-tb;fill:#000000;fill-opacity:1;fill-rule:nonzero;stroke:none"
       transform="matrix(1,0,0,-1,165.99781,22.95)"><tspan
         id="tspan1172"
         y="0"
         x="0 6.3600001 12.72">200</tspan></text>
<path
       id="path1176"
       style="fill:#000000;fill-opacity:1;fill-rule:nonzero;stroke:#000000;stroke-width:0.80000001;stroke-linecap:butt;stroke-linejoin:round;stroke-miterlimit:10;stroke-dasharray:none;stroke-opacity:1"
       d="m 235.05687,37.54375 v -3.5" /><text
       id="text1180"
       style="font-variant:normal;font-weight:normal;font-size:10px;font-family:DejaVuSans;-inkscape-font-specification:DejaVuSans;writing-mode:lr-tb;fill:#000000;fill-opacity:1;fill-rule:nonzero;stroke:none"
       transform="matrix(1,0,0,-1,225.51781,22.95)"><tspan
         id="tspan1178"
         y="0"
         x="0 6.3600001 12.72">300</tspan></text>
<path
       id="path1182"
       style="fill:#000000;fill-opacity:1;fill-rule:nonzero;stroke:#000000;stroke-width:0.80000001;stroke-linecap:butt;stroke-linejoin:round;stroke-miterlimit:10;stroke-dasharray:none;stroke-opacity:1"
       d="m 294.57687,37.54375 v -3.5" /><text
       id="text1186"
       style="font-variant:normal;font-weight:normal;font-size:10px;font-family:DejaVuSans;-inkscape-font-specification:DejaVuSans;writing-mode:lr-tb;fill:#000000;fill-opacity:1;fill-rule:nonzero;stroke:none"
       transform="matrix(1,0,0,-1,285.03781,22.95)"><tspan
         id="tspan1184"
         y="0"
         x="0 6.3600001 12.72">400</tspan></text>
<path
       id="path1188"
       style="fill:#000000;fill-opacity:1;fill-rule:nonzero;stroke:#000000;stroke-width:0.80000001;stroke-linecap:butt;stroke-linejoin:round;stroke-miterlimit:10;stroke-dasharray:none;stroke-opacity:1"
       d="m 354.09687,37.54375 v -3.5" /><text
       id="text1192"
       style="font-variant:normal;font-weight:normal;font-size:10px;font-family:DejaVuSans;-inkscape-font-specification:DejaVuSans;writing-mode:lr-tb;fill:#000000;fill-opacity:1;fill-rule:nonzero;stroke:none"
       transform="matrix(1,0,0,-1,344.55781,22.95)"><tspan
         id="tspan1190"
         y="0"
         x="0 6.3600001 12.72">500</tspan></text>
<path
       id="path1194"
       style="fill:#000000;fill-opacity:1;fill-rule:nonzero;stroke:#000000;stroke-width:0.80000001;stroke-linecap:butt;stroke-linejoin:round;stroke-miterlimit:10;stroke-dasharray:none;stroke-opacity:1"
       d="m 413.61687,37.54375 v -3.5" /><text
       id="text1198"
       style="font-variant:normal;font-weight:normal;font-size:10px;font-family:DejaVuSans;-inkscape-font-specification:DejaVuSans;writing-mode:lr-tb;fill:#000000;fill-opacity:1;fill-rule:nonzero;stroke:none"
       transform="matrix(1,0,0,-1,404.07781,22.95)"><tspan
         id="tspan1196"
         y="0"
         x="0 6.3600001 12.72">600</tspan></text>
<text
       id="text1202"
       style="font-variant:normal;font-weight:normal;font-size:10px;font-family:DejaVuSans;-inkscape-font-specification:DejaVuSans;writing-mode:lr-tb;fill:#000000;fill-opacity:1;fill-rule:nonzero;stroke:none"
       transform="matrix(1,0,0,-1,195.00219,9.278125)"><tspan
         id="tspan1200"
         y="0"
         x="0 7.3200002 12.53 18.68 22.790001 25.969999 28.75 35.09 39.009998 45.16 49.27 55.400002 60.900002 64.82 67.599998 73.720001">User interaction</tspan></text>
<path
       id="path1204"
       style="fill:#000000;fill-opacity:1;fill-rule:nonzero;stroke:#000000;stroke-width:0.80000001;stroke-linecap:butt;stroke-linejoin:round;stroke-miterlimit:10;stroke-dasharray:none;stroke-opacity:1"
       d="m 56.496875,49.63975 h -3.5" /><text
       id="text1208"
       style="font-variant:normal;font-weight:normal;font-size:10px;font-family:DejaVuSans;-inkscape-font-specification:DejaVuSans;writing-mode:lr-tb;fill:#000000;fill-opacity:1;fill-rule:nonzero;stroke:none"
       transform="matrix(1,0,0,-1,20.871875,45.842875)"><tspan
         id="tspan1206"
         y="0"
         x="0 6.3600001 9.54 15.9 22.26">0.750</tspan></text>
<path
       id="path1210"
       style="fill:#000000;fill-opacity:1;fill-rule:nonzero;stroke:#000000;stroke-width:0.80000001;stroke-linecap:butt;stroke-linejoin:round;stroke-miterlimit:10;stroke-dasharray:none;stroke-opacity:1"
       d="m 56.496875,79.87975 h -3.5" /><text
       id="text1214"
       style="font-variant:normal;font-weight:normal;font-size:10px;font-family:DejaVuSans;-inkscape-font-specification:DejaVuSans;writing-mode:lr-tb;fill:#000000;fill-opacity:1;fill-rule:nonzero;stroke:none"
       transform="matrix(1,0,0,-1,20.871875,76.082875)"><tspan
         id="tspan1212"
         y="0"
         x="0 6.3600001 9.54 15.9 22.26">0.775</tspan></text>
<path
       id="path1216"
       style="fill:#000000;fill-opacity:1;fill-rule:nonzero;stroke:#000000;stroke-width:0.80000001;stroke-linecap:butt;stroke-linejoin:round;stroke-miterlimit:10;stroke-dasharray:none;stroke-opacity:1"
       d="m 56.496875,110.11975 h -3.5" /><text
       id="text1220"
       style="font-variant:normal;font-weight:normal;font-size:10px;font-family:DejaVuSans;-inkscape-font-specification:DejaVuSans;writing-mode:lr-tb;fill:#000000;fill-opacity:1;fill-rule:nonzero;stroke:none"
       transform="matrix(1,0,0,-1,20.871875,106.32287)"><tspan
         id="tspan1218"
         y="0"
         x="0 6.3600001 9.54 15.9 22.26">0.800</tspan></text>
<path
       id="path1222"
       style="fill:#000000;fill-opacity:1;fill-rule:nonzero;stroke:#000000;stroke-width:0.80000001;stroke-linecap:butt;stroke-linejoin:round;stroke-miterlimit:10;stroke-dasharray:none;stroke-opacity:1"
       d="m 56.496875,140.35975 h -3.5" /><text
       id="text1226"
       style="font-variant:normal;font-weight:normal;font-size:10px;font-family:DejaVuSans;-inkscape-font-specification:DejaVuSans;writing-mode:lr-tb;fill:#000000;fill-opacity:1;fill-rule:nonzero;stroke:none"
       transform="matrix(1,0,0,-1,20.871875,136.56287)"><tspan
         id="tspan1224"
         y="0"
         x="0 6.3600001 9.54 15.9 22.26">0.825</tspan></text>
<path
       id="path1228"
       style="fill:#000000;fill-opacity:1;fill-rule:nonzero;stroke:#000000;stroke-width:0.80000001;stroke-linecap:butt;stroke-linejoin:round;stroke-miterlimit:10;stroke-dasharray:none;stroke-opacity:1"
       d="m 56.496875,170.59975 h -3.5" /><text
       id="text1232"
       style="font-variant:normal;font-weight:normal;font-size:10px;font-family:DejaVuSans;-inkscape-font-specification:DejaVuSans;writing-mode:lr-tb;fill:#000000;fill-opacity:1;fill-rule:nonzero;stroke:none"
       transform="matrix(1,0,0,-1,20.871875,166.80287)"><tspan
         id="tspan1230"
         y="0"
         x="0 6.3600001 9.54 15.9 22.26">0.850</tspan></text>
<path
       id="path1234"
       style="fill:#000000;fill-opacity:1;fill-rule:nonzero;stroke:#000000;stroke-width:0.80000001;stroke-linecap:butt;stroke-linejoin:round;stroke-miterlimit:10;stroke-dasharray:none;stroke-opacity:1"
       d="m 56.496875,200.83975 h -3.5" /><text
       id="text1238"
       style="font-variant:normal;font-weight:normal;font-size:10px;font-family:DejaVuSans;-inkscape-font-specification:DejaVuSans;writing-mode:lr-tb;fill:#000000;fill-opacity:1;fill-rule:nonzero;stroke:none"
       transform="matrix(1,0,0,-1,20.871875,197.04287)"><tspan
         id="tspan1236"
         y="0"
         x="0 6.3600001 9.54 15.9 22.26">0.875</tspan></text>
<path
       id="path1240"
       style="fill:#000000;fill-opacity:1;fill-rule:nonzero;stroke:#000000;stroke-width:0.80000001;stroke-linecap:butt;stroke-linejoin:round;stroke-miterlimit:10;stroke-dasharray:none;stroke-opacity:1"
       d="m 56.496875,231.07975 h -3.5" /><text
       id="text1244"
       style="font-variant:normal;font-weight:normal;font-size:10px;font-family:DejaVuSans;-inkscape-font-specification:DejaVuSans;writing-mode:lr-tb;fill:#000000;fill-opacity:1;fill-rule:nonzero;stroke:none"
       transform="matrix(1,0,0,-1,20.871875,227.28287)"><tspan
         id="tspan1242"
         y="0"
         x="0 6.3600001 9.54 15.9 22.26">0.900</tspan></text>
<path
       id="path1246"
       style="fill:#000000;fill-opacity:1;fill-rule:nonzero;stroke:#000000;stroke-width:0.80000001;stroke-linecap:butt;stroke-linejoin:round;stroke-miterlimit:10;stroke-dasharray:none;stroke-opacity:1"
       d="m 56.496875,261.31975 h -3.5" /><text
       id="text1250"
       style="font-variant:normal;font-weight:normal;font-size:10px;font-family:DejaVuSans;-inkscape-font-specification:DejaVuSans;writing-mode:lr-tb;fill:#000000;fill-opacity:1;fill-rule:nonzero;stroke:none"
       transform="matrix(1,0,0,-1,20.871875,257.52287)"><tspan
         id="tspan1248"
         y="0"
         x="0 6.3600001 9.54 15.9 22.26">0.925</tspan></text>
<path
       id="path1252"
       style="fill:#000000;fill-opacity:1;fill-rule:nonzero;stroke:#000000;stroke-width:0.80000001;stroke-linecap:butt;stroke-linejoin:round;stroke-miterlimit:10;stroke-dasharray:none;stroke-opacity:1"
       d="m 56.496875,291.55975 h -3.5" /><text
       id="text1256"
       style="font-variant:normal;font-weight:normal;font-size:10px;font-family:DejaVuSans;-inkscape-font-specification:DejaVuSans;writing-mode:lr-tb;fill:#000000;fill-opacity:1;fill-rule:nonzero;stroke:none"
       transform="matrix(1,0,0,-1,20.871875,287.76287)"><tspan
         id="tspan1254"
         y="0"
         x="0 6.3600001 9.54 15.9 22.26">0.950</tspan></text>
<text
       id="text1260"
       style="font-variant:normal;font-weight:normal;font-size:10px;font-family:DejaVuSans;-inkscape-font-specification:DejaVuSans;writing-mode:lr-tb;fill:#000000;fill-opacity:1;fill-rule:nonzero;stroke:none"
       transform="matrix(0,1,1,0,14.79375,144.381)"><tspan
         id="tspan1258"
         y="0"
         x="0 7.6999998 10.48 15.98 22.129999 25.309999 30.52 36.02 42.139999 46.25">Dice score</tspan></text>
<g
       id="g1262"><g
         clip-path="url(#clipPath1268)"
         id="g1264"><path
           id="path1270"
           style="fill:none;stroke:#1f77b4;stroke-width:1.5;stroke-linecap:square;stroke-linejoin:round;stroke-miterlimit:10;stroke-dasharray:none;stroke-opacity:0.5"
           d="m 56.496875,99.774775 1.7856,17.540575 1.7856,4.6947 1.7856,2.25777 1.7856,1.29651 1.7856,0.82129 1.7856,0.46583 1.7856,0.55486 1.7856,0.66142 1.7856,0.55938 1.7856,0.57335 1.7856,0.79741 1.7856,1.10613 1.7856,0.77718 1.7856,0.74889 1.7856,0.37861 1.7856,0.30838 1.7856,1.04544 1.7856,1.2583 1.7856,2.19645 1.7856,1.829" /></g></g><g
       id="g1272"><g
         clip-path="url(#clipPath1278)"
         id="g1274"><path
           id="path1280"
           style="fill:none;stroke:#ff7f0e;stroke-width:1.5;stroke-linecap:square;stroke-linejoin:round;stroke-miterlimit:10;stroke-dasharray:none;stroke-opacity:0.5"
           d="m 56.496875,99.774775 1.7856,21.271295 1.7856,4.16568 1.7856,2.6396 1.7856,1.7819 1.7856,0.8589 1.7856,0.83784 1.7856,0.40376 1.7856,-0.0267 1.7856,0.17363 1.7856,0.18079 1.7856,0.52926 1.7856,0.0723 1.7856,0.63728 1.7856,0.54009 1.7856,0.5991 1.7856,0.47596 1.7856,0.002 1.7856,0.55697 1.7856,-1.4e-4 1.7856,-0.0843" /></g></g><g
       id="g1282"><g
         clip-path="url(#clipPath1288)"
         id="g1284"><path
           id="path1290"
           style="fill:none;stroke:#2ca02c;stroke-width:1.5;stroke-linecap:square;stroke-linejoin:round;stroke-miterlimit:10;stroke-dasharray:none;stroke-opacity:0.5"
           d="m 56.496875,99.774775 1.7856,28.153285 1.7856,5.59572 1.7856,0.98919 1.7856,1.39103 1.7856,1.2344 1.7856,0.45118 1.7856,1.16837 1.7856,2.67479 1.7856,2.9397 1.7856,1.98229 1.7856,3.48706 1.7856,2.32053 1.7856,1.86183 1.7856,1.51561 1.7856,1.19637 1.7856,1.30779 1.7856,1.26229 1.7856,1.67813 1.7856,1.29325 1.7856,1.62954" /></g></g><g
       id="g1292"><g
         clip-path="url(#clipPath1298)"
         id="g1294"><path
           id="path1300"
           style="fill:none;stroke:#d62728;stroke-width:1.5;stroke-linecap:square;stroke-linejoin:round;stroke-miterlimit:10;stroke-dasharray:none;stroke-opacity:0.5"
           d="m 56.496875,99.774775 8.928,17.888795 8.928,15.63487 8.928,8.02069 8.928,10.9858 8.927995,10.04298 8.92801,9.12581 8.92799,8.9573 8.928,10.07318 8.928,8.74754 8.928,7.52016 8.928,5.17174 8.928,6.17345 8.928,3.98459 8.928,4.14087 8.928,3.50293 8.928,4.0921 8.928,4.16847 8.928,4.12602 8.928,3.56117 8.928,2.55324" /></g></g><g
       id="g1302"><g
         clip-path="url(#clipPath1308)"
         id="g1304"><path
           id="path1310"
           style="fill:none;stroke:#9467bd;stroke-width:3.5;stroke-linecap:square;stroke-linejoin:round;stroke-miterlimit:10;stroke-dasharray:none;stroke-opacity:1"
           d="m 56.496875,99.774775 17.856,36.138855 17.856,24.65552 17.856005,18.74492 17.85599,16.61438 17.856,14.69074 17.856,13.02678 17.856,11.55625 17.856,9.22314 17.856,7.00582 17.856,5.86474 17.856,5.29169 17.856,4.64832 17.85601,3.07326 17.85599,2.37737 17.856,3.33556 17.85601,2.68405 17.85599,2.25724 17.856,2.04701 17.856,1.42294 17.856,1.29077" /></g></g><g
       id="g1312"><g
         clip-path="url(#clipPath1318)"
         id="g1314"><path
           id="path1320"
           style="fill:none;stroke:#8c564b;stroke-width:1.5;stroke-linecap:square;stroke-linejoin:round;stroke-miterlimit:10;stroke-dasharray:none;stroke-opacity:0.5"
           d="m 56.496875,99.774775 26.784,42.324685 26.784005,27.29681 26.78399,22.74577 26.784,20.31961 26.784,15.89565 26.784,12.23466 26.784,9.07884 26.784,8.56137 26.78401,7.19585 26.78399,5.44707 26.784,4.24716 26.784,3.53047 26.784,2.8353 26.66707,2.32144" /></g></g><g
       id="g1322"><g
         clip-path="url(#clipPath1328)"
         id="g1324"><path
           id="path1330"
           style="fill:none;stroke:#e377c2;stroke-width:1.5;stroke-linecap:butt;stroke-linejoin:round;stroke-miterlimit:10;stroke-dasharray:5.55, 2.4;stroke-dashoffset:0;stroke-opacity:1"
           d="m 56.496875,42.154228 34.480552,92.218292 34.480553,44.61716 34.48055,29.19125 34.48055,20.9043 34.48055,18.56204 34.48055,14.38289 34.48056,10.29413 34.48055,7.11381 34.48055,6.1131 34.48055,6.60343 30.05355,3.27542" /></g></g><g
       id="g1332"><path
         id="path1334"
         style="fill:none;stroke:#000000;stroke-width:0.80000001;stroke-linecap:square;stroke-linejoin:miter;stroke-miterlimit:10;stroke-dasharray:none;stroke-opacity:1"
         d="m 56.496875,37.54375 v 266.112" /><path
         id="path1336"
         style="fill:none;stroke:#000000;stroke-width:0.80000001;stroke-linecap:square;stroke-linejoin:miter;stroke-miterlimit:10;stroke-dasharray:none;stroke-opacity:1"
         d="m 413.61687,37.54375 v 266.112" /><path
         id="path1338"
         style="fill:none;stroke:#000000;stroke-width:0.80000001;stroke-linecap:square;stroke-linejoin:miter;stroke-miterlimit:10;stroke-dasharray:none;stroke-opacity:1"
         d="M 56.496875,37.54375 H 413.61687" /><path
         id="path1340"
         style="fill:none;stroke:#000000;stroke-width:0.80000001;stroke-linecap:square;stroke-linejoin:miter;stroke-miterlimit:10;stroke-dasharray:none;stroke-opacity:1"
         d="M 56.496875,303.65575 H 413.61687" /><text
         id="text1344"
         style="font-variant:normal;font-weight:normal;font-size:12px;font-family:DejaVuSans;-inkscape-font-specification:DejaVuSans;writing-mode:lr-tb;fill:#000000;fill-opacity:1;fill-rule:nonzero;stroke:none"
         transform="matrix(1,0,0,-1,190.15062,309.65575)"><tspan
           id="tspan1342"
           y="0"
           x="0 7.632 16.872 20.688 29.927999 33.264 39.863998 47.243999 51.060001 57.312 63.911999 71.255997 76.188004 83.568001">3D Dice scores</tspan></text>
<path
         id="path1346"
         style="fill:#ffffff;fill-opacity:0.8;fill-rule:nonzero;stroke:#cccccc;stroke-width:1;stroke-linecap:butt;stroke-linejoin:miter;stroke-miterlimit:10;stroke-dasharray:none;stroke-opacity:0.8"
         d="m 262.24187,42.54375 h 144.375 c 1.33334,0 2,0.666667 2,2 v 101.70312 c 0,1.33334 -0.66666,2 -2,2 h -144.375 c -1.33333,0 -2,-0.66666 -2,-2 V 44.54375 c 0,-1.333333 0.66667,-2 2,-2 z" /><path
         id="path1348"
         style="fill:none;stroke:#1f77b4;stroke-width:1.5;stroke-linecap:square;stroke-linejoin:round;stroke-miterlimit:10;stroke-dasharray:none;stroke-opacity:0.5"
         d="m 264.24187,140.15312 h 20" /><text
         id="text1352"
         style="font-variant:normal;font-weight:normal;font-size:10px;font-family:DejaVuSans;-inkscape-font-specification:DejaVuSans;writing-mode:lr-tb;fill:#000000;fill-opacity:1;fill-rule:nonzero;stroke:none"
         transform="matrix(1,0,0,-1,292.24187,136.65312)"><tspan
           id="tspan1350"
           y="0"
           x="0 6.8400002 12.97 19.309999 22.09 24.870001 27.65">Vanilla</tspan></text>
<path
         id="path1354"
         style="fill:none;stroke:#ff7f0e;stroke-width:1.5;stroke-linecap:square;stroke-linejoin:round;stroke-miterlimit:10;stroke-dasharray:none;stroke-opacity:0.5"
         d="m 264.24187,125.48125 h 20" /><text
         id="text1358"
         style="font-variant:normal;font-weight:normal;font-size:10px;font-family:DejaVuSans;-inkscape-font-specification:DejaVuSans;writing-mode:lr-tb;fill:#000000;fill-opacity:1;fill-rule:nonzero;stroke:none"
         transform="matrix(1,0,0,-1,292.24187,121.98125)"><tspan
           id="tspan1356"
           y="0"
           x="0 6.3600001 12.28 15.46 20.67 26.17 30.280001 33.060001 39.41 45.759998 48.540001 54.689999 57.869999 63.080002 65.860001 71.110001">3x scribble size</tspan></text>
<path
         id="path1360"
         style="fill:none;stroke:#2ca02c;stroke-width:1.5;stroke-linecap:square;stroke-linejoin:round;stroke-miterlimit:10;stroke-dasharray:none;stroke-opacity:0.5"
         d="m 264.24187,110.80937 h 20" /><text
         id="text1364"
         style="font-variant:normal;font-weight:normal;font-size:10px;font-family:DejaVuSans;-inkscape-font-specification:DejaVuSans;writing-mode:lr-tb;fill:#000000;fill-opacity:1;fill-rule:nonzero;stroke:none"
         transform="matrix(1,0,0,-1,292.24187,107.30937)"><tspan
           id="tspan1362"
           y="0"
           x="0 6.0300002 8.8100004 14.94 20.440001 23.219999 29.559999 35.91 39.09 41.869999 48.209999 51.389999 56.959999 63.939999">Placing in LCC</tspan></text>
<path
         id="path1366"
         style="fill:none;stroke:#d62728;stroke-width:1.5;stroke-linecap:square;stroke-linejoin:round;stroke-miterlimit:10;stroke-dasharray:none;stroke-opacity:0.5"
         d="m 264.24187,96.1375 h 20" /><text
         id="text1370"
         style="font-variant:normal;font-weight:normal;font-size:10px;font-family:DejaVuSans;-inkscape-font-specification:DejaVuSans;writing-mode:lr-tb;fill:#000000;fill-opacity:1;fill-rule:nonzero;stroke:none"
         transform="matrix(1,0,0,-1,292.24187,92.6375)"><tspan
           id="tspan1368"
           y="0"
           x="0 6.3600001 9.54 14.75 20.25 24.360001 27.139999 33.490002 39.84 42.619999 48.77 53.98 57.16 60.529999 63.709999 66.489998 70.410004 76.559998 80.669998 86.800003 90.720001 93.5 99.620003">5 scribbles / iteration</tspan></text>
<path
         id="path1372"
         style="fill:none;stroke:#9467bd;stroke-width:3.5;stroke-linecap:square;stroke-linejoin:round;stroke-miterlimit:10;stroke-dasharray:none;stroke-opacity:1"
         d="m 264.24187,81.465625 h 20" /><text
         id="text1376"
         style="font-variant:normal;font-weight:normal;font-size:10px;font-family:DejaVuSans;-inkscape-font-specification:DejaVuSans;writing-mode:lr-tb;fill:#000000;fill-opacity:1;fill-rule:nonzero;stroke:none"
         transform="matrix(1,0,0,-1,292.24187,77.965625)"><tspan
           id="tspan1374"
           y="0"
           x="0 6.3600001 12.72 15.9 21.110001 26.610001 30.719999 33.5 39.849998 46.200001 48.98 55.130001 60.34 63.52 66.889999 70.07 72.849998 76.769997 82.919998 87.029999 93.160004 97.080002 99.860001 105.98">10 scribbles / iteration</tspan></text>
<path
         id="path1378"
         style="fill:none;stroke:#8c564b;stroke-width:1.5;stroke-linecap:square;stroke-linejoin:round;stroke-miterlimit:10;stroke-dasharray:none;stroke-opacity:0.5"
         d="m 264.24187,66.79375 h 20" /><text
         id="text1382"
         style="font-variant:normal;font-weight:normal;font-size:10px;font-family:DejaVuSans;-inkscape-font-specification:DejaVuSans;writing-mode:lr-tb;fill:#000000;fill-opacity:1;fill-rule:nonzero;stroke:none"
         transform="matrix(1,0,0,-1,292.24187,63.29375)"><tspan
           id="tspan1380"
           y="0"
           x="0 6.3600001 12.72 15.9 21.110001 26.610001 30.719999 33.5 39.849998 46.200001 48.98 55.130001 60.34 63.52 66.889999 70.07 72.849998 76.769997 82.919998 87.029999 93.160004 97.080002 99.860001 105.98">15 scribbles / iteration</tspan></text>
<path
         id="path1384"
         style="fill:none;stroke:#e377c2;stroke-width:1.5;stroke-linecap:butt;stroke-linejoin:round;stroke-miterlimit:10;stroke-dasharray:5.55, 2.4;stroke-dashoffset:0;stroke-opacity:1"
         d="m 264.24187,52.121875 h 20" /><text
         id="text1388"
         style="font-variant:normal;font-weight:normal;font-size:10px;font-family:DejaVuSans;-inkscape-font-specification:DejaVuSans;writing-mode:lr-tb;fill:#000000;fill-opacity:1;fill-rule:nonzero;stroke:none"
         transform="matrix(1,0,0,-1,292.24187,48.621875)"><tspan
           id="tspan1386"
           y="0"
           x="0 6.8600001 10.97 17.120001 23.469999 29.620001 32.400002 35.18 38.360001 44.509998 48.43 51.610001 57.740002 60.52">Bredell et al.</tspan></text>
</g></g></svg>