<?xml version="1.0" encoding="UTF-8" standalone="no"?>
<svg
   xmlns:dc="http://purl.org/dc/elements/1.1/"
   xmlns:cc="http://creativecommons.org/ns#"
   xmlns:rdf="http://www.w3.org/1999/02/22-rdf-syntax-ns#"
   xmlns:svg="http://www.w3.org/2000/svg"
   xmlns="http://www.w3.org/2000/svg"
   viewBox="0 0 552.60999 414.47433"
   height="414.47433"
   width="552.60999"
   xml:space="preserve"
   id="svg178"
   version="1.1"><metadata
     id="metadata184"><rdf:RDF><cc:Work
         rdf:about=""><dc:format>image/svg+xml</dc:format><dc:type
           rdf:resource="http://purl.org/dc/dcmitype/StillImage" /><dc:title></dc:title></cc:Work></rdf:RDF></metadata><defs
     id="defs182"><clipPath
       id="clipPath286"
       clipPathUnits="userSpaceOnUse"><path
         id="path284"
         d="m 50.1375,37.54375 h 357.12 v 266.112 h -357.12 z" /></clipPath><clipPath
       id="clipPath296"
       clipPathUnits="userSpaceOnUse"><path
         id="path294"
         d="m 50.1375,37.54375 h 357.12 v 266.112 h -357.12 z" /></clipPath><clipPath
       id="clipPath306"
       clipPathUnits="userSpaceOnUse"><path
         id="path304"
         d="m 50.1375,37.54375 h 357.12 v 266.112 h -357.12 z" /></clipPath><clipPath
       id="clipPath316"
       clipPathUnits="userSpaceOnUse"><path
         id="path314"
         d="m 50.1375,37.54375 h 357.12 v 266.112 h -357.12 z" /></clipPath></defs><g
     transform="matrix(1.3333333,0,0,-1.3333333,0,414.47433)"
     id="g186"><path
       id="path188"
       style="fill:#000000;fill-opacity:1;fill-rule:nonzero;stroke:#000000;stroke-width:0.80000001;stroke-linecap:butt;stroke-linejoin:round;stroke-miterlimit:10;stroke-dasharray:none;stroke-opacity:1"
       d="m 66.370227,37.54375 v -3.5" /><text
       id="text192"
       style="font-variant:normal;font-weight:normal;font-size:10px;font-family:DejaVuSans;-inkscape-font-specification:DejaVuSans;writing-mode:lr-tb;fill:#000000;fill-opacity:1;fill-rule:nonzero;stroke:none"
       transform="matrix(1,0,0,-1,58.417102,22.95)"><tspan
         id="tspan190"
         y="0"
         x="0 6.3600001 9.54">0.0</tspan></text>
<path
       id="path194"
       style="fill:#000000;fill-opacity:1;fill-rule:nonzero;stroke:#000000;stroke-width:0.80000001;stroke-linecap:butt;stroke-linejoin:round;stroke-miterlimit:10;stroke-dasharray:none;stroke-opacity:1"
       d="m 106.95204,37.54375 v -3.5" /><text
       id="text198"
       style="font-variant:normal;font-weight:normal;font-size:10px;font-family:DejaVuSans;-inkscape-font-specification:DejaVuSans;writing-mode:lr-tb;fill:#000000;fill-opacity:1;fill-rule:nonzero;stroke:none"
       transform="matrix(1,0,0,-1,98.99892,22.95)"><tspan
         id="tspan196"
         y="0"
         x="0 6.3600001 9.54">2.5</tspan></text>
<path
       id="path200"
       style="fill:#000000;fill-opacity:1;fill-rule:nonzero;stroke:#000000;stroke-width:0.80000001;stroke-linecap:butt;stroke-linejoin:round;stroke-miterlimit:10;stroke-dasharray:none;stroke-opacity:1"
       d="m 147.53386,37.54375 v -3.5" /><text
       id="text204"
       style="font-variant:normal;font-weight:normal;font-size:10px;font-family:DejaVuSans;-inkscape-font-specification:DejaVuSans;writing-mode:lr-tb;fill:#000000;fill-opacity:1;fill-rule:nonzero;stroke:none"
       transform="matrix(1,0,0,-1,139.58074,22.95)"><tspan
         id="tspan202"
         y="0"
         x="0 6.3600001 9.54">5.0</tspan></text>
<path
       id="path206"
       style="fill:#000000;fill-opacity:1;fill-rule:nonzero;stroke:#000000;stroke-width:0.80000001;stroke-linecap:butt;stroke-linejoin:round;stroke-miterlimit:10;stroke-dasharray:none;stroke-opacity:1"
       d="m 188.11568,37.54375 v -3.5" /><text
       id="text210"
       style="font-variant:normal;font-weight:normal;font-size:10px;font-family:DejaVuSans;-inkscape-font-specification:DejaVuSans;writing-mode:lr-tb;fill:#000000;fill-opacity:1;fill-rule:nonzero;stroke:none"
       transform="matrix(1,0,0,-1,180.16256,22.95)"><tspan
         id="tspan208"
         y="0"
         x="0 6.3600001 9.54">7.5</tspan></text>
<path
       id="path212"
       style="fill:#000000;fill-opacity:1;fill-rule:nonzero;stroke:#000000;stroke-width:0.80000001;stroke-linecap:butt;stroke-linejoin:round;stroke-miterlimit:10;stroke-dasharray:none;stroke-opacity:1"
       d="m 228.6975,37.54375 v -3.5" /><text
       id="text216"
       style="font-variant:normal;font-weight:normal;font-size:10px;font-family:DejaVuSans;-inkscape-font-specification:DejaVuSans;writing-mode:lr-tb;fill:#000000;fill-opacity:1;fill-rule:nonzero;stroke:none"
       transform="matrix(1,0,0,-1,217.56469,22.95)"><tspan
         id="tspan214"
         y="0"
         x="0 6.3600001 12.72 15.9">10.0</tspan></text>
<path
       id="path218"
       style="fill:#000000;fill-opacity:1;fill-rule:nonzero;stroke:#000000;stroke-width:0.80000001;stroke-linecap:butt;stroke-linejoin:round;stroke-miterlimit:10;stroke-dasharray:none;stroke-opacity:1"
       d="m 269.27932,37.54375 v -3.5" /><text
       id="text222"
       style="font-variant:normal;font-weight:normal;font-size:10px;font-family:DejaVuSans;-inkscape-font-specification:DejaVuSans;writing-mode:lr-tb;fill:#000000;fill-opacity:1;fill-rule:nonzero;stroke:none"
       transform="matrix(1,0,0,-1,258.14651,22.95)"><tspan
         id="tspan220"
         y="0"
         x="0 6.3600001 12.72 15.9">12.5</tspan></text>
<path
       id="path224"
       style="fill:#000000;fill-opacity:1;fill-rule:nonzero;stroke:#000000;stroke-width:0.80000001;stroke-linecap:butt;stroke-linejoin:round;stroke-miterlimit:10;stroke-dasharray:none;stroke-opacity:1"
       d="m 309.86114,37.54375 v -3.5" /><text
       id="text228"
       style="font-variant:normal;font-weight:normal;font-size:10px;font-family:DejaVuSans;-inkscape-font-specification:DejaVuSans;writing-mode:lr-tb;fill:#000000;fill-opacity:1;fill-rule:nonzero;stroke:none"
       transform="matrix(1,0,0,-1,298.72832,22.95)"><tspan
         id="tspan226"
         y="0"
         x="0 6.3600001 12.72 15.9">15.0</tspan></text>
<path
       id="path230"
       style="fill:#000000;fill-opacity:1;fill-rule:nonzero;stroke:#000000;stroke-width:0.80000001;stroke-linecap:butt;stroke-linejoin:round;stroke-miterlimit:10;stroke-dasharray:none;stroke-opacity:1"
       d="m 350.44295,37.54375 v -3.5" /><text
       id="text234"
       style="font-variant:normal;font-weight:normal;font-size:10px;font-family:DejaVuSans;-inkscape-font-specification:DejaVuSans;writing-mode:lr-tb;fill:#000000;fill-opacity:1;fill-rule:nonzero;stroke:none"
       transform="matrix(1,0,0,-1,339.31014,22.95)"><tspan
         id="tspan232"
         y="0"
         x="0 6.3600001 12.72 15.9">17.5</tspan></text>
<path
       id="path236"
       style="fill:#000000;fill-opacity:1;fill-rule:nonzero;stroke:#000000;stroke-width:0.80000001;stroke-linecap:butt;stroke-linejoin:round;stroke-miterlimit:10;stroke-dasharray:none;stroke-opacity:1"
       d="m 391.02477,37.54375 v -3.5" /><text
       id="text240"
       style="font-variant:normal;font-weight:normal;font-size:10px;font-family:DejaVuSans;-inkscape-font-specification:DejaVuSans;writing-mode:lr-tb;fill:#000000;fill-opacity:1;fill-rule:nonzero;stroke:none"
       transform="matrix(1,0,0,-1,379.89196,22.95)"><tspan
         id="tspan238"
         y="0"
         x="0 6.3600001 12.72 15.9">20.0</tspan></text>
<text
       id="text244"
       style="font-variant:normal;font-weight:normal;font-size:10px;font-family:DejaVuSans;-inkscape-font-specification:DejaVuSans;writing-mode:lr-tb;fill:#000000;fill-opacity:1;fill-rule:nonzero;stroke:none"
       transform="matrix(1,0,0,-1,207.47875,9.278125)"><tspan
         id="tspan242"
         y="0"
         x="0 2.95 6.8699999 13.02 17.129999 23.26 27.18 29.959999 36.080002">Iteration</tspan></text>
<path
       id="path246"
       style="fill:#000000;fill-opacity:1;fill-rule:nonzero;stroke:#000000;stroke-width:0.80000001;stroke-linecap:butt;stroke-linejoin:round;stroke-miterlimit:10;stroke-dasharray:none;stroke-opacity:1"
       d="m 50.1375,55.915998 h -3.5" /><text
       id="text250"
       style="font-variant:normal;font-weight:normal;font-size:10px;font-family:DejaVuSans;-inkscape-font-specification:DejaVuSans;writing-mode:lr-tb;fill:#000000;fill-opacity:1;fill-rule:nonzero;stroke:none"
       transform="matrix(1,0,0,-1,20.871875,52.119123)"><tspan
         id="tspan248"
         y="0"
         x="0 6.3600001 9.54 15.9">0.75</tspan></text>
<path
       id="path252"
       style="fill:#000000;fill-opacity:1;fill-rule:nonzero;stroke:#000000;stroke-width:0.80000001;stroke-linecap:butt;stroke-linejoin:round;stroke-miterlimit:10;stroke-dasharray:none;stroke-opacity:1"
       d="m 50.1375,106.62555 h -3.5" /><text
       id="text256"
       style="font-variant:normal;font-weight:normal;font-size:10px;font-family:DejaVuSans;-inkscape-font-specification:DejaVuSans;writing-mode:lr-tb;fill:#000000;fill-opacity:1;fill-rule:nonzero;stroke:none"
       transform="matrix(1,0,0,-1,20.871875,102.82867)"><tspan
         id="tspan254"
         y="0"
         x="0 6.3600001 9.54 15.9">0.80</tspan></text>
<path
       id="path258"
       style="fill:#000000;fill-opacity:1;fill-rule:nonzero;stroke:#000000;stroke-width:0.80000001;stroke-linecap:butt;stroke-linejoin:round;stroke-miterlimit:10;stroke-dasharray:none;stroke-opacity:1"
       d="m 50.1375,157.3351 h -3.5" /><text
       id="text262"
       style="font-variant:normal;font-weight:normal;font-size:10px;font-family:DejaVuSans;-inkscape-font-specification:DejaVuSans;writing-mode:lr-tb;fill:#000000;fill-opacity:1;fill-rule:nonzero;stroke:none"
       transform="matrix(1,0,0,-1,20.871875,153.53822)"><tspan
         id="tspan260"
         y="0"
         x="0 6.3600001 9.54 15.9">0.85</tspan></text>
<path
       id="path264"
       style="fill:#000000;fill-opacity:1;fill-rule:nonzero;stroke:#000000;stroke-width:0.80000001;stroke-linecap:butt;stroke-linejoin:round;stroke-miterlimit:10;stroke-dasharray:none;stroke-opacity:1"
       d="m 50.1375,208.04465 h -3.5" /><text
       id="text268"
       style="font-variant:normal;font-weight:normal;font-size:10px;font-family:DejaVuSans;-inkscape-font-specification:DejaVuSans;writing-mode:lr-tb;fill:#000000;fill-opacity:1;fill-rule:nonzero;stroke:none"
       transform="matrix(1,0,0,-1,20.871875,204.24777)"><tspan
         id="tspan266"
         y="0"
         x="0 6.3600001 9.54 15.9">0.90</tspan></text>
<path
       id="path270"
       style="fill:#000000;fill-opacity:1;fill-rule:nonzero;stroke:#000000;stroke-width:0.80000001;stroke-linecap:butt;stroke-linejoin:round;stroke-miterlimit:10;stroke-dasharray:none;stroke-opacity:1"
       d="m 50.1375,258.7542 h -3.5" /><text
       id="text274"
       style="font-variant:normal;font-weight:normal;font-size:10px;font-family:DejaVuSans;-inkscape-font-specification:DejaVuSans;writing-mode:lr-tb;fill:#000000;fill-opacity:1;fill-rule:nonzero;stroke:none"
       transform="matrix(1,0,0,-1,20.871875,254.95732)"><tspan
         id="tspan272"
         y="0"
         x="0 6.3600001 9.54 15.9">0.95</tspan></text>
<text
       id="text278"
       style="font-variant:normal;font-weight:normal;font-size:10px;font-family:DejaVuSans;-inkscape-font-specification:DejaVuSans;writing-mode:lr-tb;fill:#000000;fill-opacity:1;fill-rule:nonzero;stroke:none"
       transform="matrix(0,1,1,0,14.79375,144.381)"><tspan
         id="tspan276"
         y="0"
         x="0 7.6999998 10.48 15.98 22.129999 25.309999 30.52 36.02 42.139999 46.25">Dice score</tspan></text>
<g
       id="g280"><g
         clip-path="url(#clipPath286)"
         id="g282"><path
           id="path288"
           style="fill:none;stroke:#1f77b4;stroke-width:1.5;stroke-linecap:square;stroke-linejoin:round;stroke-miterlimit:10;stroke-dasharray:none;stroke-opacity:1"
           d="m 66.370227,84.40246 16.232728,43.93518 16.232727,15.87047 16.232728,19.10338 16.23273,5.91195 16.23272,13.79673 16.23273,4.68546 16.23273,15.09353 16.23272,1.61803 16.23273,2.16681 16.23273,6.4607 16.23273,-2.00276 16.23272,3.72096 16.23273,2.98493 16.23273,-1.25434 16.23273,2.26768 16.23272,2.51478 16.23273,-3.0955 16.23273,3.83082 16.23272,3.08207 16.23273,3.22102" /></g></g><g
       id="g290"><g
         clip-path="url(#clipPath296)"
         id="g292"><path
           id="path298"
           style="fill:none;stroke:#ff7f0e;stroke-width:1.5;stroke-linecap:square;stroke-linejoin:round;stroke-miterlimit:10;stroke-dasharray:none;stroke-opacity:1"
           d="m 66.370227,97.951787 16.232728,33.502183 16.232727,17.06615 16.232728,12.76815 16.23273,12.97512 16.23272,12.01098 16.23273,10.45796 16.23273,9.02985 16.23272,7.23366 16.23273,6.44313 16.23273,5.97373 16.23273,4.20777 16.23272,3.88348 16.23273,3.22275 16.23273,2.34958 16.23273,2.0865 16.23272,2.19788 16.23273,1.93274 16.23273,1.91775 16.23272,1.31714 16.23273,1.47509" /></g></g><g
       id="g300"><g
         clip-path="url(#clipPath306)"
         id="g302"><path
           id="path308"
           style="fill:none;stroke:#2ca02c;stroke-width:1.5;stroke-linecap:butt;stroke-linejoin:round;stroke-miterlimit:10;stroke-dasharray:5.55, 2.4;stroke-dashoffset:0;stroke-opacity:1"
           d="m 66.370227,67.492184 16.232728,95.997206 16.232727,41.59172 16.232728,24.193 16.23273,15.39824 16.23272,9.0342 16.23273,8.5536 16.23273,6.33875 16.23272,4.63927 16.23273,3.55447 16.23273,3.82153 16.23273,1.7972 16.23272,2.33999 16.23273,1.30931 16.23273,1.32042 16.23273,0.93318 16.23272,0.95249 16.23273,0.64977 16.23273,0.63059 16.23272,0.46385 16.23273,0.54878" /></g></g><g
       id="g310"><g
         clip-path="url(#clipPath316)"
         id="g312"><path
           id="path318"
           style="fill:none;stroke:#d62728;stroke-width:1.5;stroke-linecap:butt;stroke-linejoin:round;stroke-miterlimit:10;stroke-dasharray:5.55, 2.4;stroke-dashoffset:0;stroke-opacity:1"
           d="m 66.370227,49.63975 16.232728,77.32057 16.232727,37.40933 16.232728,24.47545 16.23273,17.52724 16.23272,15.56337 16.23273,12.05935 16.23273,8.63114 16.23272,5.96458 16.23273,5.12554 16.23273,5.53665 16.23273,3.15082 16.23272,3.31316 16.23273,2.58826 16.23273,2.19896 16.23273,2.0435 16.23272,1.81747 16.23273,0.75938 16.23273,1.5449 16.23272,1.15121 16.23273,0.48019" /></g></g><g
       id="g320"><path
         id="path322"
         style="fill:none;stroke:#000000;stroke-width:0.80000001;stroke-linecap:square;stroke-linejoin:miter;stroke-miterlimit:10;stroke-dasharray:none;stroke-opacity:1"
         d="m 50.1375,37.54375 v 266.112" /><path
         id="path324"
         style="fill:none;stroke:#000000;stroke-width:0.80000001;stroke-linecap:square;stroke-linejoin:miter;stroke-miterlimit:10;stroke-dasharray:none;stroke-opacity:1"
         d="m 407.2575,37.54375 v 266.112" /><path
         id="path326"
         style="fill:none;stroke:#000000;stroke-width:0.80000001;stroke-linecap:square;stroke-linejoin:miter;stroke-miterlimit:10;stroke-dasharray:none;stroke-opacity:1"
         d="m 50.1375,37.54375 h 357.12" /><path
         id="path328"
         style="fill:none;stroke:#000000;stroke-width:0.80000001;stroke-linecap:square;stroke-linejoin:miter;stroke-miterlimit:10;stroke-dasharray:none;stroke-opacity:1"
         d="m 50.1375,303.65575 h 357.12" /><path
         id="path330"
         style="fill:#ffffff;fill-opacity:0.8;fill-rule:nonzero;stroke:#cccccc;stroke-width:1;stroke-linecap:butt;stroke-linejoin:miter;stroke-miterlimit:10;stroke-dasharray:none;stroke-opacity:0.8"
         d="m 258.7575,42.54375 h 141.5 c 1.33333,0 2,0.666667 2,2 v 57.6875 c 0,1.33333 -0.66667,2 -2,2 h -141.5 c -1.33333,0 -2,-0.66667 -2,-2 v -57.6875 c 0,-1.333333 0.66667,-2 2,-2 z" /><path
         id="path332"
         style="fill:none;stroke:#1f77b4;stroke-width:1.5;stroke-linecap:square;stroke-linejoin:round;stroke-miterlimit:10;stroke-dasharray:none;stroke-opacity:1"
         d="m 260.7575,96.1375 h 20" /><text
         id="text336"
         style="font-variant:normal;font-weight:normal;font-size:10px;font-family:DejaVuSans;-inkscape-font-specification:DejaVuSans;writing-mode:lr-tb;fill:#000000;fill-opacity:1;fill-rule:nonzero;stroke:none"
         transform="matrix(1,0,0,-1,288.7575,92.6375)"><tspan
           id="tspan334"
           y="0"
           x="0 7.8699999 14.21 18.32 21.5 31.24 37.389999 41.310001 47.650002 53.77 60.119999 63.299999 66.480003 72.839996 80.540001 83.720001 91.419998 94.199997 99.699997">Our method, 2D Dice</tspan></text>
<path
         id="path338"
         style="fill:none;stroke:#ff7f0e;stroke-width:1.5;stroke-linecap:square;stroke-linejoin:round;stroke-miterlimit:10;stroke-dasharray:none;stroke-opacity:1"
         d="m 260.7575,81.465625 h 20" /><text
         id="text342"
         style="font-variant:normal;font-weight:normal;font-size:10px;font-family:DejaVuSans;-inkscape-font-specification:DejaVuSans;writing-mode:lr-tb;fill:#000000;fill-opacity:1;fill-rule:nonzero;stroke:none"
         transform="matrix(1,0,0,-1,288.7575,77.965625)"><tspan
           id="tspan340"
           y="0"
           x="0 7.8699999 14.21 18.32 21.5 31.24 37.389999 41.310001 47.650002 53.77 60.119999 63.299999 66.480003 72.839996 80.540001 83.720001 91.419998 94.199997 99.699997">Our method, 3D Dice</tspan></text>
<path
         id="path344"
         style="fill:none;stroke:#2ca02c;stroke-width:1.5;stroke-linecap:butt;stroke-linejoin:round;stroke-miterlimit:10;stroke-dasharray:5.55, 2.4;stroke-dashoffset:0;stroke-opacity:1"
         d="m 260.7575,66.79375 h 20" /><text
         id="text348"
         style="font-variant:normal;font-weight:normal;font-size:10px;font-family:DejaVuSans;-inkscape-font-specification:DejaVuSans;writing-mode:lr-tb;fill:#000000;fill-opacity:1;fill-rule:nonzero;stroke:none"
         transform="matrix(1,0,0,-1,288.7575,63.29375)"><tspan
           id="tspan346"
           y="0"
           x="0 6.8600001 10.97 17.120001 23.469999 29.620001 32.400002 35.18 38.360001 44.509998 48.43 51.610001 57.740002 60.52 63.700001 66.879997 70.059998 76.419998 84.120003 87.300003 95 97.779999 103.28">Bredell et al., 2D Dice</tspan></text>
<path
         id="path350"
         style="fill:none;stroke:#d62728;stroke-width:1.5;stroke-linecap:butt;stroke-linejoin:round;stroke-miterlimit:10;stroke-dasharray:5.55, 2.4;stroke-dashoffset:0;stroke-opacity:1"
         d="m 260.7575,52.121875 h 20" /><text
         id="text354"
         style="font-variant:normal;font-weight:normal;font-size:10px;font-family:DejaVuSans;-inkscape-font-specification:DejaVuSans;writing-mode:lr-tb;fill:#000000;fill-opacity:1;fill-rule:nonzero;stroke:none"
         transform="matrix(1,0,0,-1,288.7575,48.621875)"><tspan
           id="tspan352"
           y="0"
           x="0 6.8600001 10.97 17.120001 23.469999 29.620001 32.400002 35.18 38.360001 44.509998 48.43 51.610001 57.740002 60.52 63.700001 66.879997 70.059998 76.419998 84.120003 87.300003 95 97.779999 103.28">Bredell et al., 3D Dice</tspan></text>
</g></g></svg>