<?xml version="1.0" encoding="UTF-8" standalone="no"?>
<svg
   xmlns:dc="http://purl.org/dc/elements/1.1/"
   xmlns:cc="http://creativecommons.org/ns#"
   xmlns:rdf="http://www.w3.org/1999/02/22-rdf-syntax-ns#"
   xmlns:svg="http://www.w3.org/2000/svg"
   xmlns="http://www.w3.org/2000/svg"
   viewBox="0 0 825.1167 467.905"
   height="467.905"
   width="825.1167"
   xml:space="preserve"
   id="svg1390"
   version="1.1"><metadata
     id="metadata1396"><rdf:RDF><cc:Work
         rdf:about=""><dc:format>image/svg+xml</dc:format><dc:type
           rdf:resource="http://purl.org/dc/dcmitype/StillImage" /><dc:title></dc:title></cc:Work></rdf:RDF></metadata><defs
     id="defs1394"><clipPath
       id="clipPath1504"
       clipPathUnits="userSpaceOnUse"><path
         id="path1502"
         d="m 50.1375,37.54375 h 253.63636 v 291.06 H 50.1375 Z" /></clipPath><clipPath
       id="clipPath1514"
       clipPathUnits="userSpaceOnUse"><path
         id="path1512"
         d="m 50.1375,37.54375 h 253.63636 v 291.06 H 50.1375 Z" /></clipPath><clipPath
       id="clipPath1524"
       clipPathUnits="userSpaceOnUse"><path
         id="path1522"
         d="m 50.1375,37.54375 h 253.63636 v 291.06 H 50.1375 Z" /></clipPath><clipPath
       id="clipPath1534"
       clipPathUnits="userSpaceOnUse"><path
         id="path1532"
         d="m 50.1375,37.54375 h 253.63636 v 291.06 H 50.1375 Z" /></clipPath><clipPath
       id="clipPath1544"
       clipPathUnits="userSpaceOnUse"><path
         id="path1542"
         d="m 50.1375,37.54375 h 253.63636 v 291.06 H 50.1375 Z" /></clipPath><clipPath
       id="clipPath1554"
       clipPathUnits="userSpaceOnUse"><path
         id="path1552"
         d="m 50.1375,37.54375 h 253.63636 v 291.06 H 50.1375 Z" /></clipPath><clipPath
       id="clipPath1708"
       clipPathUnits="userSpaceOnUse"><path
         id="path1706"
         d="M 354.50114,37.54375 H 608.1375 v 291.06 H 354.50114 Z" /></clipPath><clipPath
       id="clipPath1718"
       clipPathUnits="userSpaceOnUse"><path
         id="path1716"
         d="M 354.50114,37.54375 H 608.1375 v 291.06 H 354.50114 Z" /></clipPath><clipPath
       id="clipPath1728"
       clipPathUnits="userSpaceOnUse"><path
         id="path1726"
         d="M 354.50114,37.54375 H 608.1375 v 291.06 H 354.50114 Z" /></clipPath><clipPath
       id="clipPath1738"
       clipPathUnits="userSpaceOnUse"><path
         id="path1736"
         d="M 354.50114,37.54375 H 608.1375 v 291.06 H 354.50114 Z" /></clipPath><clipPath
       id="clipPath1748"
       clipPathUnits="userSpaceOnUse"><path
         id="path1746"
         d="M 354.50114,37.54375 H 608.1375 v 291.06 H 354.50114 Z" /></clipPath><clipPath
       id="clipPath1758"
       clipPathUnits="userSpaceOnUse"><path
         id="path1756"
         d="M 354.50114,37.54375 H 608.1375 v 291.06 H 354.50114 Z" /></clipPath></defs><g
     transform="matrix(1.3333333,0,0,-1.3333333,0,467.905)"
     id="g1398"><path
       id="path1400"
       style="fill:#000000;fill-opacity:1;fill-rule:nonzero;stroke:#000000;stroke-width:0.80000001;stroke-linecap:butt;stroke-linejoin:round;stroke-miterlimit:10;stroke-dasharray:none;stroke-opacity:1"
       d="m 61.666426,37.54375 v -3.5" /><text
       id="text1404"
       style="font-variant:normal;font-weight:normal;font-size:10px;font-family:DejaVuSans;-inkscape-font-specification:DejaVuSans;writing-mode:lr-tb;fill:#000000;fill-opacity:1;fill-rule:nonzero;stroke:none"
       transform="matrix(1,0,0,-1,58.486738,22.95)"><tspan
         id="tspan1402"
         y="0"
         x="0">0</tspan></text>
<path
       id="path1406"
       style="fill:#000000;fill-opacity:1;fill-rule:nonzero;stroke:#000000;stroke-width:0.80000001;stroke-linecap:butt;stroke-linejoin:round;stroke-miterlimit:10;stroke-dasharray:none;stroke-opacity:1"
       d="m 119.31105,37.54375 v -3.5" /><text
       id="text1410"
       style="font-variant:normal;font-weight:normal;font-size:10px;font-family:DejaVuSans;-inkscape-font-specification:DejaVuSans;writing-mode:lr-tb;fill:#000000;fill-opacity:1;fill-rule:nonzero;stroke:none"
       transform="matrix(1,0,0,-1,116.13137,22.95)"><tspan
         id="tspan1408"
         y="0"
         x="0">5</tspan></text>
<path
       id="path1412"
       style="fill:#000000;fill-opacity:1;fill-rule:nonzero;stroke:#000000;stroke-width:0.80000001;stroke-linecap:butt;stroke-linejoin:round;stroke-miterlimit:10;stroke-dasharray:none;stroke-opacity:1"
       d="m 176.95568,37.54375 v -3.5" /><text
       id="text1416"
       style="font-variant:normal;font-weight:normal;font-size:10px;font-family:DejaVuSans;-inkscape-font-specification:DejaVuSans;writing-mode:lr-tb;fill:#000000;fill-opacity:1;fill-rule:nonzero;stroke:none"
       transform="matrix(1,0,0,-1,170.59631,22.95)"><tspan
         id="tspan1414"
         y="0"
         x="0 6.3600001">10</tspan></text>
<path
       id="path1418"
       style="fill:#000000;fill-opacity:1;fill-rule:nonzero;stroke:#000000;stroke-width:0.80000001;stroke-linecap:butt;stroke-linejoin:round;stroke-miterlimit:10;stroke-dasharray:none;stroke-opacity:1"
       d="m 234.60031,37.54375 v -3.5" /><text
       id="text1422"
       style="font-variant:normal;font-weight:normal;font-size:10px;font-family:DejaVuSans;-inkscape-font-specification:DejaVuSans;writing-mode:lr-tb;fill:#000000;fill-opacity:1;fill-rule:nonzero;stroke:none"
       transform="matrix(1,0,0,-1,228.24093,22.95)"><tspan
         id="tspan1420"
         y="0"
         x="0 6.3600001">15</tspan></text>
<path
       id="path1424"
       style="fill:#000000;fill-opacity:1;fill-rule:nonzero;stroke:#000000;stroke-width:0.80000001;stroke-linecap:butt;stroke-linejoin:round;stroke-miterlimit:10;stroke-dasharray:none;stroke-opacity:1"
       d="m 292.24494,37.54375 v -3.5" /><text
       id="text1428"
       style="font-variant:normal;font-weight:normal;font-size:10px;font-family:DejaVuSans;-inkscape-font-specification:DejaVuSans;writing-mode:lr-tb;fill:#000000;fill-opacity:1;fill-rule:nonzero;stroke:none"
       transform="matrix(1,0,0,-1,285.88556,22.95)"><tspan
         id="tspan1426"
         y="0"
         x="0 6.3600001">20</tspan></text>
<text
       id="text1432"
       style="font-variant:normal;font-weight:normal;font-size:10px;font-family:DejaVuSans;-inkscape-font-specification:DejaVuSans;writing-mode:lr-tb;fill:#000000;fill-opacity:1;fill-rule:nonzero;stroke:none"
       transform="matrix(1,0,0,-1,155.73693,9.278125)"><tspan
         id="tspan1430"
         y="0"
         x="0 2.95 6.8699999 13.02 17.129999 23.26 27.18 29.959999 36.080002">Iteration</tspan></text>
<path
       id="path1434"
       style="fill:#000000;fill-opacity:1;fill-rule:nonzero;stroke:#000000;stroke-width:0.80000001;stroke-linecap:butt;stroke-linejoin:round;stroke-miterlimit:10;stroke-dasharray:none;stroke-opacity:1"
       d="m 50.1375,37.54375 h -3.5" /><text
       id="text1438"
       style="font-variant:normal;font-weight:normal;font-size:10px;font-family:DejaVuSans;-inkscape-font-specification:DejaVuSans;writing-mode:lr-tb;fill:#000000;fill-opacity:1;fill-rule:nonzero;stroke:none"
       transform="matrix(1,0,0,-1,20.871875,33.746875)"><tspan
         id="tspan1436"
         y="0"
         x="0 6.3600001 9.54 15.9">0.80</tspan></text>
<path
       id="path1440"
       style="fill:#000000;fill-opacity:1;fill-rule:nonzero;stroke:#000000;stroke-width:0.80000001;stroke-linecap:butt;stroke-linejoin:round;stroke-miterlimit:10;stroke-dasharray:none;stroke-opacity:1"
       d="m 50.1375,69.88375 h -3.5" /><text
       id="text1444"
       style="font-variant:normal;font-weight:normal;font-size:10px;font-family:DejaVuSans;-inkscape-font-specification:DejaVuSans;writing-mode:lr-tb;fill:#000000;fill-opacity:1;fill-rule:nonzero;stroke:none"
       transform="matrix(1,0,0,-1,20.871875,66.086875)"><tspan
         id="tspan1442"
         y="0"
         x="0 6.3600001 9.54 15.9">0.82</tspan></text>
<path
       id="path1446"
       style="fill:#000000;fill-opacity:1;fill-rule:nonzero;stroke:#000000;stroke-width:0.80000001;stroke-linecap:butt;stroke-linejoin:round;stroke-miterlimit:10;stroke-dasharray:none;stroke-opacity:1"
       d="m 50.1375,102.22375 h -3.5" /><text
       id="text1450"
       style="font-variant:normal;font-weight:normal;font-size:10px;font-family:DejaVuSans;-inkscape-font-specification:DejaVuSans;writing-mode:lr-tb;fill:#000000;fill-opacity:1;fill-rule:nonzero;stroke:none"
       transform="matrix(1,0,0,-1,20.871875,98.426875)"><tspan
         id="tspan1448"
         y="0"
         x="0 6.3600001 9.54 15.9">0.84</tspan></text>
<path
       id="path1452"
       style="fill:#000000;fill-opacity:1;fill-rule:nonzero;stroke:#000000;stroke-width:0.80000001;stroke-linecap:butt;stroke-linejoin:round;stroke-miterlimit:10;stroke-dasharray:none;stroke-opacity:1"
       d="m 50.1375,134.56375 h -3.5" /><text
       id="text1456"
       style="font-variant:normal;font-weight:normal;font-size:10px;font-family:DejaVuSans;-inkscape-font-specification:DejaVuSans;writing-mode:lr-tb;fill:#000000;fill-opacity:1;fill-rule:nonzero;stroke:none"
       transform="matrix(1,0,0,-1,20.871875,130.76687)"><tspan
         id="tspan1454"
         y="0"
         x="0 6.3600001 9.54 15.9">0.86</tspan></text>
<path
       id="path1458"
       style="fill:#000000;fill-opacity:1;fill-rule:nonzero;stroke:#000000;stroke-width:0.80000001;stroke-linecap:butt;stroke-linejoin:round;stroke-miterlimit:10;stroke-dasharray:none;stroke-opacity:1"
       d="m 50.1375,166.90375 h -3.5" /><text
       id="text1462"
       style="font-variant:normal;font-weight:normal;font-size:10px;font-family:DejaVuSans;-inkscape-font-specification:DejaVuSans;writing-mode:lr-tb;fill:#000000;fill-opacity:1;fill-rule:nonzero;stroke:none"
       transform="matrix(1,0,0,-1,20.871875,163.10687)"><tspan
         id="tspan1460"
         y="0"
         x="0 6.3600001 9.54 15.9">0.88</tspan></text>
<path
       id="path1464"
       style="fill:#000000;fill-opacity:1;fill-rule:nonzero;stroke:#000000;stroke-width:0.80000001;stroke-linecap:butt;stroke-linejoin:round;stroke-miterlimit:10;stroke-dasharray:none;stroke-opacity:1"
       d="m 50.1375,199.24375 h -3.5" /><text
       id="text1468"
       style="font-variant:normal;font-weight:normal;font-size:10px;font-family:DejaVuSans;-inkscape-font-specification:DejaVuSans;writing-mode:lr-tb;fill:#000000;fill-opacity:1;fill-rule:nonzero;stroke:none"
       transform="matrix(1,0,0,-1,20.871875,195.44687)"><tspan
         id="tspan1466"
         y="0"
         x="0 6.3600001 9.54 15.9">0.90</tspan></text>
<path
       id="path1470"
       style="fill:#000000;fill-opacity:1;fill-rule:nonzero;stroke:#000000;stroke-width:0.80000001;stroke-linecap:butt;stroke-linejoin:round;stroke-miterlimit:10;stroke-dasharray:none;stroke-opacity:1"
       d="m 50.1375,231.58375 h -3.5" /><text
       id="text1474"
       style="font-variant:normal;font-weight:normal;font-size:10px;font-family:DejaVuSans;-inkscape-font-specification:DejaVuSans;writing-mode:lr-tb;fill:#000000;fill-opacity:1;fill-rule:nonzero;stroke:none"
       transform="matrix(1,0,0,-1,20.871875,227.78687)"><tspan
         id="tspan1472"
         y="0"
         x="0 6.3600001 9.54 15.9">0.92</tspan></text>
<path
       id="path1476"
       style="fill:#000000;fill-opacity:1;fill-rule:nonzero;stroke:#000000;stroke-width:0.80000001;stroke-linecap:butt;stroke-linejoin:round;stroke-miterlimit:10;stroke-dasharray:none;stroke-opacity:1"
       d="m 50.1375,263.92375 h -3.5" /><text
       id="text1480"
       style="font-variant:normal;font-weight:normal;font-size:10px;font-family:DejaVuSans;-inkscape-font-specification:DejaVuSans;writing-mode:lr-tb;fill:#000000;fill-opacity:1;fill-rule:nonzero;stroke:none"
       transform="matrix(1,0,0,-1,20.871875,260.12687)"><tspan
         id="tspan1478"
         y="0"
         x="0 6.3600001 9.54 15.9">0.94</tspan></text>
<path
       id="path1482"
       style="fill:#000000;fill-opacity:1;fill-rule:nonzero;stroke:#000000;stroke-width:0.80000001;stroke-linecap:butt;stroke-linejoin:round;stroke-miterlimit:10;stroke-dasharray:none;stroke-opacity:1"
       d="m 50.1375,296.26375 h -3.5" /><text
       id="text1486"
       style="font-variant:normal;font-weight:normal;font-size:10px;font-family:DejaVuSans;-inkscape-font-specification:DejaVuSans;writing-mode:lr-tb;fill:#000000;fill-opacity:1;fill-rule:nonzero;stroke:none"
       transform="matrix(1,0,0,-1,20.871875,292.46687)"><tspan
         id="tspan1484"
         y="0"
         x="0 6.3600001 9.54 15.9">0.96</tspan></text>
<path
       id="path1488"
       style="fill:#000000;fill-opacity:1;fill-rule:nonzero;stroke:#000000;stroke-width:0.80000001;stroke-linecap:butt;stroke-linejoin:round;stroke-miterlimit:10;stroke-dasharray:none;stroke-opacity:1"
       d="m 50.1375,328.60375 h -3.5" /><text
       id="text1492"
       style="font-variant:normal;font-weight:normal;font-size:10px;font-family:DejaVuSans;-inkscape-font-specification:DejaVuSans;writing-mode:lr-tb;fill:#000000;fill-opacity:1;fill-rule:nonzero;stroke:none"
       transform="matrix(1,0,0,-1,20.871875,324.80687)"><tspan
         id="tspan1490"
         y="0"
         x="0 6.3600001 9.54 15.9">0.98</tspan></text>
<text
       id="text1496"
       style="font-variant:normal;font-weight:normal;font-size:10px;font-family:DejaVuSans;-inkscape-font-specification:DejaVuSans;writing-mode:lr-tb;fill:#000000;fill-opacity:1;fill-rule:nonzero;stroke:none"
       transform="matrix(0,1,1,0,14.79375,156.855)"><tspan
         id="tspan1494"
         y="0"
         x="0 7.6999998 10.48 15.98 22.129999 25.309999 30.52 36.02 42.139999 46.25">Dice score</tspan></text>
<g
       id="g1498"><g
         clip-path="url(#clipPath1504)"
         id="g1500"><path
           id="path1506"
           style="fill:none;stroke:#1f77b4;stroke-width:1.5;stroke-linecap:square;stroke-linejoin:round;stroke-miterlimit:10;stroke-dasharray:none;stroke-opacity:1"
           d="m 61.666426,68.590075 11.528925,51.055135 11.528926,-0.18289 11.528925,6.51183 11.528928,6.81853 11.52892,1.40123 11.52893,6.90173 11.52892,4.51139 11.52893,-2.47496 11.52893,3.09712 11.52892,13.38185 11.52893,-2.98065 11.52892,10.74294 11.52893,6.55643 11.52892,1.70684 11.52893,6.85904 11.52893,0.84303 11.52892,7.54167 11.52893,1.15955 11.52892,0.14624 11.52893,0.40568" /></g></g><g
       id="g1508"><g
         clip-path="url(#clipPath1514)"
         id="g1510"><path
           id="path1516"
           style="fill:none;stroke:#ff7f0e;stroke-width:1.5;stroke-linecap:square;stroke-linejoin:round;stroke-miterlimit:10;stroke-dasharray:none;stroke-opacity:1"
           d="m 61.666426,68.590075 11.528925,54.257595 11.528926,10.89448 11.528925,2.00445 11.528928,0.17711 11.52892,1.18321 11.52893,17.42288 11.52892,0.70869 11.52893,0.0172 11.52893,-8.21449 11.52892,-0.15325 11.52893,4.60608 11.52892,-0.012 11.52893,0.17147 11.52892,3.30103 11.52893,-2.5288 11.52893,6.95989 11.52892,-0.87207 11.52893,0.71575 11.52892,-4.7198 11.52893,-0.30413" /></g></g><g
       id="g1518"><g
         clip-path="url(#clipPath1524)"
         id="g1520"><path
           id="path1526"
           style="fill:none;stroke:#2ca02c;stroke-width:1.5;stroke-linecap:square;stroke-linejoin:round;stroke-miterlimit:10;stroke-dasharray:none;stroke-opacity:1"
           d="m 61.666426,68.590075 11.528925,79.270975 11.528926,17.07467 11.528925,9.39359 11.528928,8.64068 11.52892,8.6138 11.52893,2.94092 11.52892,8.38193 11.52893,2.04855 11.52893,1.82405 11.52892,6.44899 11.52893,3.8167 11.52892,2.65598 11.52893,7.24926 11.52892,6.64212 11.52893,1.11949 11.52893,5.8866 11.52892,0.89982 11.52893,0.93547 11.52892,-4.63544 11.52893,0.90211" /></g></g><g
       id="g1528"><g
         clip-path="url(#clipPath1534)"
         id="g1530"><path
           id="path1536"
           style="fill:none;stroke:#d62728;stroke-width:1.5;stroke-linecap:square;stroke-linejoin:round;stroke-miterlimit:10;stroke-dasharray:none;stroke-opacity:1"
           d="m 61.666426,68.590075 11.528925,73.976285 11.528926,26.47856 11.528925,16.09833 11.528928,13.37264 11.52892,27.46979 11.52893,2.09987 11.52892,13.8763 11.52893,9.59233 11.52893,12.0917 11.52892,10.41561 11.52893,1.89418 11.52892,7.38458 11.52893,7.36927 11.52892,9.21402 11.52893,0.37408 11.52893,3.54795 11.52892,1.51673 11.52893,-4.20864 11.52892,1.22354 11.52893,-4.49987" /></g></g><g
       id="g1538"><g
         clip-path="url(#clipPath1544)"
         id="g1540"><path
           id="path1546"
           style="fill:none;stroke:#9467bd;stroke-width:1.5;stroke-linecap:square;stroke-linejoin:round;stroke-miterlimit:10;stroke-dasharray:none;stroke-opacity:1"
           d="m 61.666426,68.590075 11.528925,67.024925 11.528926,32.05989 11.528925,15.92938 11.528928,24.2003 11.52892,12.35427 11.52893,11.02712 11.52892,13.94214 11.52893,18.90231 11.52893,14.77894 11.52892,4.6858 11.52893,9.72888 11.52892,4.1674 11.52893,3.14355 11.52892,7.70269 11.52893,7.63004 11.52893,1.40776 11.52892,0.6092 11.52893,-3.48011 11.52892,0.67981 11.52893,0.60545" /></g></g><g
       id="g1548"><g
         clip-path="url(#clipPath1554)"
         id="g1550"><path
           id="path1556"
           style="fill:none;stroke:#8c564b;stroke-width:1.5;stroke-linecap:square;stroke-linejoin:round;stroke-miterlimit:10;stroke-dasharray:none;stroke-opacity:1"
           d="m 61.666426,68.590075 11.528925,58.038815 11.528926,23.93606 11.528925,39.03427 11.528928,11.78607 11.52892,7.83002 11.52893,15.50886 11.52892,8.50224 11.52893,12.04333 11.52893,6.52505 11.52892,12.0065 11.52893,6.47107 11.52892,2.95096 11.52893,12.97584 11.52892,-2.18287 11.52893,8.18098 11.52893,-4.93369 11.52892,12.22705 11.52893,0.73202 11.52892,-4.31233 11.52893,-0.63126" /></g></g><g
       id="g1558"><path
         id="path1560"
         style="fill:none;stroke:#000000;stroke-width:0.80000001;stroke-linecap:square;stroke-linejoin:miter;stroke-miterlimit:10;stroke-dasharray:none;stroke-opacity:1"
         d="m 50.1375,37.54375 v 291.06" /><path
         id="path1562"
         style="fill:none;stroke:#000000;stroke-width:0.80000001;stroke-linecap:square;stroke-linejoin:miter;stroke-miterlimit:10;stroke-dasharray:none;stroke-opacity:1"
         d="m 303.77386,37.54375 v 291.06" /><path
         id="path1564"
         style="fill:none;stroke:#000000;stroke-width:0.80000001;stroke-linecap:square;stroke-linejoin:miter;stroke-miterlimit:10;stroke-dasharray:none;stroke-opacity:1"
         d="M 50.1375,37.54375 H 303.77386" /><path
         id="path1566"
         style="fill:none;stroke:#000000;stroke-width:0.80000001;stroke-linecap:square;stroke-linejoin:miter;stroke-miterlimit:10;stroke-dasharray:none;stroke-opacity:1"
         d="M 50.1375,328.60375 H 303.77386" /><text
         id="text1570"
         style="font-variant:normal;font-weight:normal;font-size:12px;font-family:DejaVuSans;-inkscape-font-specification:DejaVuSans;writing-mode:lr-tb;fill:#000000;fill-opacity:1;fill-rule:nonzero;stroke:none"
         transform="matrix(1,0,0,-1,132.04943,334.60375)"><tspan
           id="tspan1568"
           y="0"
           x="0 7.632 16.872 20.688 29.927999 33.264 39.863998 47.243999 51.060001 57.312 63.911999 71.255997 76.188004 83.568001">2D Dice scores</tspan></text>
<path
         id="path1572"
         style="fill:#ffffff;fill-opacity:0.8;fill-rule:nonzero;stroke:#cccccc;stroke-width:1;stroke-linecap:butt;stroke-linejoin:miter;stroke-miterlimit:10;stroke-dasharray:none;stroke-opacity:0.8"
         d="m 152.39886,42.54375 h 144.375 c 1.33334,0 2,0.666667 2,2 V 131.575 c 0,1.33333 -0.66666,2 -2,2 h -144.375 c -1.33333,0 -2,-0.66667 -2,-2 V 44.54375 c 0,-1.333333 0.66667,-2 2,-2 z" /><path
         id="path1574"
         style="fill:none;stroke:#1f77b4;stroke-width:1.5;stroke-linecap:square;stroke-linejoin:round;stroke-miterlimit:10;stroke-dasharray:none;stroke-opacity:1"
         d="m 154.39886,125.48125 h 20" /><text
         id="text1578"
         style="font-variant:normal;font-weight:normal;font-size:10px;font-family:DejaVuSans;-inkscape-font-specification:DejaVuSans;writing-mode:lr-tb;fill:#000000;fill-opacity:1;fill-rule:nonzero;stroke:none"
         transform="matrix(1,0,0,-1,182.39886,121.98125)"><tspan
           id="tspan1576"
           y="0"
           x="0 6.8400002 12.97 19.309999 22.09 24.870001 27.65">Vanilla</tspan></text>
<path
         id="path1580"
         style="fill:none;stroke:#ff7f0e;stroke-width:1.5;stroke-linecap:square;stroke-linejoin:round;stroke-miterlimit:10;stroke-dasharray:none;stroke-opacity:1"
         d="m 154.39886,110.80937 h 20" /><text
         id="text1584"
         style="font-variant:normal;font-weight:normal;font-size:10px;font-family:DejaVuSans;-inkscape-font-specification:DejaVuSans;writing-mode:lr-tb;fill:#000000;fill-opacity:1;fill-rule:nonzero;stroke:none"
         transform="matrix(1,0,0,-1,182.39886,107.30937)"><tspan
           id="tspan1582"
           y="0"
           x="0 6.3600001 12.28 15.46 20.67 26.17 30.280001 33.060001 39.41 45.759998 48.540001 54.689999 57.869999 63.080002 65.860001 71.110001">3x scribble size</tspan></text>
<path
         id="path1586"
         style="fill:none;stroke:#2ca02c;stroke-width:1.5;stroke-linecap:square;stroke-linejoin:round;stroke-miterlimit:10;stroke-dasharray:none;stroke-opacity:1"
         d="m 154.39886,96.1375 h 20" /><text
         id="text1590"
         style="font-variant:normal;font-weight:normal;font-size:10px;font-family:DejaVuSans;-inkscape-font-specification:DejaVuSans;writing-mode:lr-tb;fill:#000000;fill-opacity:1;fill-rule:nonzero;stroke:none"
         transform="matrix(1,0,0,-1,182.39886,92.6375)"><tspan
           id="tspan1588"
           y="0"
           x="0 6.0300002 8.8100004 14.94 20.440001 23.219999 29.559999 35.91 39.09 41.869999 48.209999 51.389999 56.959999 63.939999">Placing in LCC</tspan></text>
<path
         id="path1592"
         style="fill:none;stroke:#d62728;stroke-width:1.5;stroke-linecap:square;stroke-linejoin:round;stroke-miterlimit:10;stroke-dasharray:none;stroke-opacity:1"
         d="m 154.39886,81.465625 h 20" /><text
         id="text1596"
         style="font-variant:normal;font-weight:normal;font-size:10px;font-family:DejaVuSans;-inkscape-font-specification:DejaVuSans;writing-mode:lr-tb;fill:#000000;fill-opacity:1;fill-rule:nonzero;stroke:none"
         transform="matrix(1,0,0,-1,182.39886,77.965625)"><tspan
           id="tspan1594"
           y="0"
           x="0 6.3600001 9.54 14.75 20.25 24.360001 27.139999 33.490002 39.84 42.619999 48.77 53.98 57.16 60.529999 63.709999 66.489998 70.410004 76.559998 80.669998 86.800003 90.720001 93.5 99.620003">5 scribbles / iteration</tspan></text>
<path
         id="path1598"
         style="fill:none;stroke:#9467bd;stroke-width:1.5;stroke-linecap:square;stroke-linejoin:round;stroke-miterlimit:10;stroke-dasharray:none;stroke-opacity:1"
         d="m 154.39886,66.79375 h 20" /><text
         id="text1602"
         style="font-variant:normal;font-weight:normal;font-size:10px;font-family:DejaVuSans;-inkscape-font-specification:DejaVuSans;writing-mode:lr-tb;fill:#000000;fill-opacity:1;fill-rule:nonzero;stroke:none"
         transform="matrix(1,0,0,-1,182.39886,63.29375)"><tspan
           id="tspan1600"
           y="0"
           x="0 6.3600001 12.72 15.9 21.110001 26.610001 30.719999 33.5 39.849998 46.200001 48.98 55.130001 60.34 63.52 66.889999 70.07 72.849998 76.769997 82.919998 87.029999 93.160004 97.080002 99.860001 105.98">10 scribbles / iteration</tspan></text>
<path
         id="path1604"
         style="fill:none;stroke:#8c564b;stroke-width:1.5;stroke-linecap:square;stroke-linejoin:round;stroke-miterlimit:10;stroke-dasharray:none;stroke-opacity:1"
         d="m 154.39886,52.121875 h 20" /><text
         id="text1608"
         style="font-variant:normal;font-weight:normal;font-size:10px;font-family:DejaVuSans;-inkscape-font-specification:DejaVuSans;writing-mode:lr-tb;fill:#000000;fill-opacity:1;fill-rule:nonzero;stroke:none"
         transform="matrix(1,0,0,-1,182.39886,48.621875)"><tspan
           id="tspan1606"
           y="0"
           x="0 6.3600001 12.72 15.9 21.110001 26.610001 30.719999 33.5 39.849998 46.200001 48.98 55.130001 60.34 63.52 66.889999 70.07 72.849998 76.769997 82.919998 87.029999 93.160004 97.080002 99.860001 105.98">15 scribbles / iteration</tspan></text>
<path
         id="path1610"
         style="fill:#000000;fill-opacity:1;fill-rule:nonzero;stroke:#000000;stroke-width:0.80000001;stroke-linecap:butt;stroke-linejoin:round;stroke-miterlimit:10;stroke-dasharray:none;stroke-opacity:1"
         d="m 366.03006,37.54375 v -3.5" /><text
         id="text1614"
         style="font-variant:normal;font-weight:normal;font-size:10px;font-family:DejaVuSans;-inkscape-font-specification:DejaVuSans;writing-mode:lr-tb;fill:#000000;fill-opacity:1;fill-rule:nonzero;stroke:none"
         transform="matrix(1,0,0,-1,362.85037,22.95)"><tspan
           id="tspan1612"
           y="0"
           x="0">0</tspan></text>
<path
         id="path1616"
         style="fill:#000000;fill-opacity:1;fill-rule:nonzero;stroke:#000000;stroke-width:0.80000001;stroke-linecap:butt;stroke-linejoin:round;stroke-miterlimit:10;stroke-dasharray:none;stroke-opacity:1"
         d="m 423.67469,37.54375 v -3.5" /><text
         id="text1620"
         style="font-variant:normal;font-weight:normal;font-size:10px;font-family:DejaVuSans;-inkscape-font-specification:DejaVuSans;writing-mode:lr-tb;fill:#000000;fill-opacity:1;fill-rule:nonzero;stroke:none"
         transform="matrix(1,0,0,-1,420.495,22.95)"><tspan
           id="tspan1618"
           y="0"
           x="0">5</tspan></text>
<path
         id="path1622"
         style="fill:#000000;fill-opacity:1;fill-rule:nonzero;stroke:#000000;stroke-width:0.80000001;stroke-linecap:butt;stroke-linejoin:round;stroke-miterlimit:10;stroke-dasharray:none;stroke-opacity:1"
         d="m 481.31932,37.54375 v -3.5" /><text
         id="text1626"
         style="font-variant:normal;font-weight:normal;font-size:10px;font-family:DejaVuSans;-inkscape-font-specification:DejaVuSans;writing-mode:lr-tb;fill:#000000;fill-opacity:1;fill-rule:nonzero;stroke:none"
         transform="matrix(1,0,0,-1,474.95994,22.95)"><tspan
           id="tspan1624"
           y="0"
           x="0 6.3600001">10</tspan></text>
<path
         id="path1628"
         style="fill:#000000;fill-opacity:1;fill-rule:nonzero;stroke:#000000;stroke-width:0.80000001;stroke-linecap:butt;stroke-linejoin:round;stroke-miterlimit:10;stroke-dasharray:none;stroke-opacity:1"
         d="m 538.96395,37.54375 v -3.5" /><text
         id="text1632"
         style="font-variant:normal;font-weight:normal;font-size:10px;font-family:DejaVuSans;-inkscape-font-specification:DejaVuSans;writing-mode:lr-tb;fill:#000000;fill-opacity:1;fill-rule:nonzero;stroke:none"
         transform="matrix(1,0,0,-1,532.60457,22.95)"><tspan
           id="tspan1630"
           y="0"
           x="0 6.3600001">15</tspan></text>
<path
         id="path1634"
         style="fill:#000000;fill-opacity:1;fill-rule:nonzero;stroke:#000000;stroke-width:0.80000001;stroke-linecap:butt;stroke-linejoin:round;stroke-miterlimit:10;stroke-dasharray:none;stroke-opacity:1"
         d="m 596.60857,37.54375 v -3.5" /><text
         id="text1638"
         style="font-variant:normal;font-weight:normal;font-size:10px;font-family:DejaVuSans;-inkscape-font-specification:DejaVuSans;writing-mode:lr-tb;fill:#000000;fill-opacity:1;fill-rule:nonzero;stroke:none"
         transform="matrix(1,0,0,-1,590.2492,22.95)"><tspan
           id="tspan1636"
           y="0"
           x="0 6.3600001">20</tspan></text>
<text
         id="text1642"
         style="font-variant:normal;font-weight:normal;font-size:10px;font-family:DejaVuSans;-inkscape-font-specification:DejaVuSans;writing-mode:lr-tb;fill:#000000;fill-opacity:1;fill-rule:nonzero;stroke:none"
         transform="matrix(1,0,0,-1,460.10057,9.278125)"><tspan
           id="tspan1640"
           y="0"
           x="0 2.95 6.8699999 13.02 17.129999 23.26 27.18 29.959999 36.080002">Iteration</tspan></text>
<path
         id="path1644"
         style="fill:#000000;fill-opacity:1;fill-rule:nonzero;stroke:#000000;stroke-width:0.80000001;stroke-linecap:butt;stroke-linejoin:round;stroke-miterlimit:10;stroke-dasharray:none;stroke-opacity:1"
         d="m 354.50114,37.54375 h -3.5" /><text
         id="text1648"
         style="font-variant:normal;font-weight:normal;font-size:10px;font-family:DejaVuSans;-inkscape-font-specification:DejaVuSans;writing-mode:lr-tb;fill:#000000;fill-opacity:1;fill-rule:nonzero;stroke:none"
         transform="matrix(1,0,0,-1,325.23551,33.746875)"><tspan
           id="tspan1646"
           y="0"
           x="0 6.3600001 9.54 15.9">0.90</tspan></text>
<path
         id="path1650"
         style="fill:#000000;fill-opacity:1;fill-rule:nonzero;stroke:#000000;stroke-width:0.80000001;stroke-linecap:butt;stroke-linejoin:round;stroke-miterlimit:10;stroke-dasharray:none;stroke-opacity:1"
         d="m 354.50114,73.92625 h -3.5" /><text
         id="text1654"
         style="font-variant:normal;font-weight:normal;font-size:10px;font-family:DejaVuSans;-inkscape-font-specification:DejaVuSans;writing-mode:lr-tb;fill:#000000;fill-opacity:1;fill-rule:nonzero;stroke:none"
         transform="matrix(1,0,0,-1,325.23551,70.129375)"><tspan
           id="tspan1652"
           y="0"
           x="0 6.3600001 9.54 15.9">0.91</tspan></text>
<path
         id="path1656"
         style="fill:#000000;fill-opacity:1;fill-rule:nonzero;stroke:#000000;stroke-width:0.80000001;stroke-linecap:butt;stroke-linejoin:round;stroke-miterlimit:10;stroke-dasharray:none;stroke-opacity:1"
         d="m 354.50114,110.30875 h -3.5" /><text
         id="text1660"
         style="font-variant:normal;font-weight:normal;font-size:10px;font-family:DejaVuSans;-inkscape-font-specification:DejaVuSans;writing-mode:lr-tb;fill:#000000;fill-opacity:1;fill-rule:nonzero;stroke:none"
         transform="matrix(1,0,0,-1,325.23551,106.51188)"><tspan
           id="tspan1658"
           y="0"
           x="0 6.3600001 9.54 15.9">0.92</tspan></text>
<path
         id="path1662"
         style="fill:#000000;fill-opacity:1;fill-rule:nonzero;stroke:#000000;stroke-width:0.80000001;stroke-linecap:butt;stroke-linejoin:round;stroke-miterlimit:10;stroke-dasharray:none;stroke-opacity:1"
         d="m 354.50114,146.69125 h -3.5" /><text
         id="text1666"
         style="font-variant:normal;font-weight:normal;font-size:10px;font-family:DejaVuSans;-inkscape-font-specification:DejaVuSans;writing-mode:lr-tb;fill:#000000;fill-opacity:1;fill-rule:nonzero;stroke:none"
         transform="matrix(1,0,0,-1,325.23551,142.89437)"><tspan
           id="tspan1664"
           y="0"
           x="0 6.3600001 9.54 15.9">0.93</tspan></text>
<path
         id="path1668"
         style="fill:#000000;fill-opacity:1;fill-rule:nonzero;stroke:#000000;stroke-width:0.80000001;stroke-linecap:butt;stroke-linejoin:round;stroke-miterlimit:10;stroke-dasharray:none;stroke-opacity:1"
         d="m 354.50114,183.07375 h -3.5" /><text
         id="text1672"
         style="font-variant:normal;font-weight:normal;font-size:10px;font-family:DejaVuSans;-inkscape-font-specification:DejaVuSans;writing-mode:lr-tb;fill:#000000;fill-opacity:1;fill-rule:nonzero;stroke:none"
         transform="matrix(1,0,0,-1,325.23551,179.27687)"><tspan
           id="tspan1670"
           y="0"
           x="0 6.3600001 9.54 15.9">0.94</tspan></text>
<path
         id="path1674"
         style="fill:#000000;fill-opacity:1;fill-rule:nonzero;stroke:#000000;stroke-width:0.80000001;stroke-linecap:butt;stroke-linejoin:round;stroke-miterlimit:10;stroke-dasharray:none;stroke-opacity:1"
         d="m 354.50114,219.45625 h -3.5" /><text
         id="text1678"
         style="font-variant:normal;font-weight:normal;font-size:10px;font-family:DejaVuSans;-inkscape-font-specification:DejaVuSans;writing-mode:lr-tb;fill:#000000;fill-opacity:1;fill-rule:nonzero;stroke:none"
         transform="matrix(1,0,0,-1,325.23551,215.65937)"><tspan
           id="tspan1676"
           y="0"
           x="0 6.3600001 9.54 15.9">0.95</tspan></text>
<path
         id="path1680"
         style="fill:#000000;fill-opacity:1;fill-rule:nonzero;stroke:#000000;stroke-width:0.80000001;stroke-linecap:butt;stroke-linejoin:round;stroke-miterlimit:10;stroke-dasharray:none;stroke-opacity:1"
         d="m 354.50114,255.83875 h -3.5" /><text
         id="text1684"
         style="font-variant:normal;font-weight:normal;font-size:10px;font-family:DejaVuSans;-inkscape-font-specification:DejaVuSans;writing-mode:lr-tb;fill:#000000;fill-opacity:1;fill-rule:nonzero;stroke:none"
         transform="matrix(1,0,0,-1,325.23551,252.04187)"><tspan
           id="tspan1682"
           y="0"
           x="0 6.3600001 9.54 15.9">0.96</tspan></text>
<path
         id="path1686"
         style="fill:#000000;fill-opacity:1;fill-rule:nonzero;stroke:#000000;stroke-width:0.80000001;stroke-linecap:butt;stroke-linejoin:round;stroke-miterlimit:10;stroke-dasharray:none;stroke-opacity:1"
         d="m 354.50114,292.22125 h -3.5" /><text
         id="text1690"
         style="font-variant:normal;font-weight:normal;font-size:10px;font-family:DejaVuSans;-inkscape-font-specification:DejaVuSans;writing-mode:lr-tb;fill:#000000;fill-opacity:1;fill-rule:nonzero;stroke:none"
         transform="matrix(1,0,0,-1,325.23551,288.42437)"><tspan
           id="tspan1688"
           y="0"
           x="0 6.3600001 9.54 15.9">0.97</tspan></text>
<path
         id="path1692"
         style="fill:#000000;fill-opacity:1;fill-rule:nonzero;stroke:#000000;stroke-width:0.80000001;stroke-linecap:butt;stroke-linejoin:round;stroke-miterlimit:10;stroke-dasharray:none;stroke-opacity:1"
         d="m 354.50114,328.60375 h -3.5" /><text
         id="text1696"
         style="font-variant:normal;font-weight:normal;font-size:10px;font-family:DejaVuSans;-inkscape-font-specification:DejaVuSans;writing-mode:lr-tb;fill:#000000;fill-opacity:1;fill-rule:nonzero;stroke:none"
         transform="matrix(1,0,0,-1,325.23551,324.80687)"><tspan
           id="tspan1694"
           y="0"
           x="0 6.3600001 9.54 15.9">0.98</tspan></text>
<text
         id="text1700"
         style="font-variant:normal;font-weight:normal;font-size:10px;font-family:DejaVuSans;-inkscape-font-specification:DejaVuSans;writing-mode:lr-tb;fill:#000000;fill-opacity:1;fill-rule:nonzero;stroke:none"
         transform="matrix(0,1,1,0,319.15739,156.855)"><tspan
           id="tspan1698"
           y="0"
           x="0 7.6999998 10.48 15.98 22.129999 25.309999 30.52 36.02 42.139999 46.25">Dice score</tspan></text>
</g><g
       id="g1702"><g
         clip-path="url(#clipPath1708)"
         id="g1704"><path
           id="path1710"
           style="fill:none;stroke:#1f77b4;stroke-width:1.5;stroke-linecap:square;stroke-linejoin:round;stroke-miterlimit:10;stroke-dasharray:none;stroke-opacity:1"
           d="m 366.03006,76.161853 11.52893,15.198497 11.52892,-3.23544 11.52893,-3.599324 11.52892,-0.635287 11.52893,-0.315424 11.52893,-0.365984 11.52892,4.126302 11.52893,2.767063 11.52892,4.212122 11.52893,3.837213 11.52892,5.857519 11.52893,3.5561 11.52892,5.02956 11.52893,6.45858 11.52893,5.64905 11.52892,3.54135 11.52893,3.10387 11.52892,2.81741 11.52893,1.85045 11.52892,1.8802" /></g></g><g
       id="g1712"><g
         clip-path="url(#clipPath1718)"
         id="g1714"><path
           id="path1720"
           style="fill:none;stroke:#ff7f0e;stroke-width:1.5;stroke-linecap:square;stroke-linejoin:round;stroke-miterlimit:10;stroke-dasharray:none;stroke-opacity:1"
           d="m 366.03006,76.161853 11.52893,35.619667 11.52892,5.1904 11.52893,3.2685 11.52892,3.41874 11.52893,3.82358 11.52893,3.26355 11.52892,0.60101 11.52893,1.09829 11.52892,0.71308 11.52893,1.58296 11.52892,0.61909 11.52893,2.77888 11.52892,1.75515 11.52893,0.1304 11.52893,-2.16191 11.52892,1.38759 11.52893,-2.50622 11.52892,0.60393 11.52893,1.12538 11.52892,-0.87448" /></g></g><g
       id="g1722"><g
         clip-path="url(#clipPath1728)"
         id="g1724"><path
           id="path1730"
           style="fill:none;stroke:#2ca02c;stroke-width:1.5;stroke-linecap:square;stroke-linejoin:round;stroke-miterlimit:10;stroke-dasharray:none;stroke-opacity:1"
           d="m 366.03006,76.161853 11.52893,46.897957 11.52892,14.06497 11.52893,6.39494 11.52892,4.63643 11.52893,5.49491 11.52893,5.52681 11.52892,5.45534 11.52893,4.78732 11.52892,5.44351 11.52893,3.33288 11.52892,3.92105 11.52893,4.09706 11.52892,2.66346 11.52893,3.46941 11.52893,1.54294 11.52892,1.65847 11.52893,3.35346 11.52892,1.28687 11.52893,1.28634 11.52892,2.67392" /></g></g><g
       id="g1732"><g
         clip-path="url(#clipPath1738)"
         id="g1734"><path
           id="path1740"
           style="fill:none;stroke:#d62728;stroke-width:1.5;stroke-linecap:square;stroke-linejoin:round;stroke-miterlimit:10;stroke-dasharray:none;stroke-opacity:1"
           d="m 366.03006,76.161853 11.52893,45.955737 11.52892,23.70153 11.52893,19.52399 11.52892,16.72398 11.52893,13.60894 11.52893,8.93905 11.52892,11.72291 11.52893,8.30265 11.52892,12.81691 11.52893,8.20839 11.52892,6.03165 11.52893,6.59759 11.52892,5.29061 11.52893,6.02553 11.52893,0.65344 11.52892,5.55371 11.52893,2.10865 11.52892,1.98592 11.52893,1.8034 11.52892,0.72817" /></g></g><g
       id="g1742"><g
         clip-path="url(#clipPath1748)"
         id="g1744"><path
           id="path1750"
           style="fill:none;stroke:#9467bd;stroke-width:1.5;stroke-linecap:square;stroke-linejoin:round;stroke-miterlimit:10;stroke-dasharray:none;stroke-opacity:1"
           d="m 366.03006,76.161853 11.52893,45.418417 11.52892,19.05485 11.52893,15.79096 11.52892,15.63627 11.52893,13.4317 11.52893,19.0265 11.52892,19.33541 11.52893,15.01242 11.52892,12.96539 11.52893,10.3733 11.52892,8.30859 11.52893,9.69029 11.52892,7.65288 11.52893,5.34177 11.52893,3.91369 11.52892,3.07443 11.52893,2.49338 11.52892,3.2473 11.52893,1.6545 11.52892,1.77201" /></g></g><g
       id="g1752"><g
         clip-path="url(#clipPath1758)"
         id="g1754"><path
           id="path1760"
           style="fill:none;stroke:#8c564b;stroke-width:1.5;stroke-linecap:square;stroke-linejoin:round;stroke-miterlimit:10;stroke-dasharray:none;stroke-opacity:1"
           d="m 366.03006,76.161853 11.52893,30.278427 11.52892,27.77266 11.52893,21.50416 11.52892,12.15611 11.52893,6.91861 11.52893,4.73469 11.52892,1.71045 11.52893,16.54432 11.52892,18.97235 11.52893,17.60467 11.52892,14.50049 11.52893,6.55861 11.52892,2.42218 11.52893,8.10361 11.52893,5.92407 11.52892,-1.01553 11.52893,4.3512 11.52892,-14.47365 11.52893,-10.48013 11.52892,-0.94356" /></g></g><g
       id="g1762"><path
         id="path1764"
         style="fill:none;stroke:#000000;stroke-width:0.80000001;stroke-linecap:square;stroke-linejoin:miter;stroke-miterlimit:10;stroke-dasharray:none;stroke-opacity:1"
         d="m 354.50114,37.54375 v 291.06" /><path
         id="path1766"
         style="fill:none;stroke:#000000;stroke-width:0.80000001;stroke-linecap:square;stroke-linejoin:miter;stroke-miterlimit:10;stroke-dasharray:none;stroke-opacity:1"
         d="m 608.1375,37.54375 v 291.06" /><path
         id="path1768"
         style="fill:none;stroke:#000000;stroke-width:0.80000001;stroke-linecap:square;stroke-linejoin:miter;stroke-miterlimit:10;stroke-dasharray:none;stroke-opacity:1"
         d="M 354.50114,37.54375 H 608.1375" /><path
         id="path1770"
         style="fill:none;stroke:#000000;stroke-width:0.80000001;stroke-linecap:square;stroke-linejoin:miter;stroke-miterlimit:10;stroke-dasharray:none;stroke-opacity:1"
         d="M 354.50114,328.60375 H 608.1375" /><text
         id="text1774"
         style="font-variant:normal;font-weight:normal;font-size:12px;font-family:DejaVuSans;-inkscape-font-specification:DejaVuSans;writing-mode:lr-tb;fill:#000000;fill-opacity:1;fill-rule:nonzero;stroke:none"
         transform="matrix(1,0,0,-1,436.41307,334.60375)"><tspan
           id="tspan1772"
           y="0"
           x="0 7.632 16.872 20.688 29.927999 33.264 39.863998 47.243999 51.060001 57.312 63.911999 71.255997 76.188004 83.568001">3D Dice scores</tspan></text>
</g></g></svg>