<?xml version="1.0" encoding="UTF-8" standalone="no"?>
<svg
   xmlns:dc="http://purl.org/dc/elements/1.1/"
   xmlns:cc="http://creativecommons.org/ns#"
   xmlns:rdf="http://www.w3.org/1999/02/22-rdf-syntax-ns#"
   xmlns:svg="http://www.w3.org/2000/svg"
   xmlns="http://www.w3.org/2000/svg"
   viewBox="0 0 825.1167 541.82501"
   height="541.82501"
   width="825.1167"
   xml:space="preserve"
   id="svg2018"
   version="1.1"><metadata
     id="metadata2024"><rdf:RDF><cc:Work
         rdf:about=""><dc:format>image/svg+xml</dc:format><dc:type
           rdf:resource="http://purl.org/dc/dcmitype/StillImage" /><dc:title></dc:title></cc:Work></rdf:RDF></metadata><defs
     id="defs2022"><clipPath
       id="clipPath2096"
       clipPathUnits="userSpaceOnUse"><path
         id="path2094"
         d="m 50.1375,37.54375 h 253.63636 v 346.5 H 50.1375 Z" /></clipPath><clipPath
       id="clipPath2106"
       clipPathUnits="userSpaceOnUse"><path
         id="path2104"
         d="m 50.1375,37.54375 h 253.63636 v 346.5 H 50.1375 Z" /></clipPath><clipPath
       id="clipPath2116"
       clipPathUnits="userSpaceOnUse"><path
         id="path2114"
         d="m 50.1375,37.54375 h 253.63636 v 346.5 H 50.1375 Z" /></clipPath><clipPath
       id="clipPath2126"
       clipPathUnits="userSpaceOnUse"><path
         id="path2124"
         d="m 50.1375,37.54375 h 253.63636 v 346.5 H 50.1375 Z" /></clipPath><clipPath
       id="clipPath2136"
       clipPathUnits="userSpaceOnUse"><path
         id="path2134"
         d="m 50.1375,37.54375 h 253.63636 v 346.5 H 50.1375 Z" /></clipPath><clipPath
       id="clipPath2146"
       clipPathUnits="userSpaceOnUse"><path
         id="path2144"
         d="m 50.1375,37.54375 h 253.63636 v 346.5 H 50.1375 Z" /></clipPath><clipPath
       id="clipPath2156"
       clipPathUnits="userSpaceOnUse"><path
         id="path2154"
         d="m 50.1375,37.54375 h 253.63636 v 346.5 H 50.1375 Z" /></clipPath><clipPath
       id="clipPath2248"
       clipPathUnits="userSpaceOnUse"><path
         id="path2246"
         d="M 354.50114,37.54375 H 608.1375 v 346.5 H 354.50114 Z" /></clipPath><clipPath
       id="clipPath2258"
       clipPathUnits="userSpaceOnUse"><path
         id="path2256"
         d="M 354.50114,37.54375 H 608.1375 v 346.5 H 354.50114 Z" /></clipPath><clipPath
       id="clipPath2268"
       clipPathUnits="userSpaceOnUse"><path
         id="path2266"
         d="M 354.50114,37.54375 H 608.1375 v 346.5 H 354.50114 Z" /></clipPath><clipPath
       id="clipPath2278"
       clipPathUnits="userSpaceOnUse"><path
         id="path2276"
         d="M 354.50114,37.54375 H 608.1375 v 346.5 H 354.50114 Z" /></clipPath><clipPath
       id="clipPath2288"
       clipPathUnits="userSpaceOnUse"><path
         id="path2286"
         d="M 354.50114,37.54375 H 608.1375 v 346.5 H 354.50114 Z" /></clipPath><clipPath
       id="clipPath2298"
       clipPathUnits="userSpaceOnUse"><path
         id="path2296"
         d="M 354.50114,37.54375 H 608.1375 v 346.5 H 354.50114 Z" /></clipPath><clipPath
       id="clipPath2308"
       clipPathUnits="userSpaceOnUse"><path
         id="path2306"
         d="M 354.50114,37.54375 H 608.1375 v 346.5 H 354.50114 Z" /></clipPath></defs><g
     transform="matrix(1.3333333,0,0,-1.3333333,0,541.825)"
     id="g2026"><path
       id="path2028"
       style="fill:#000000;fill-opacity:1;fill-rule:nonzero;stroke:#000000;stroke-width:0.80000001;stroke-linecap:butt;stroke-linejoin:round;stroke-miterlimit:10;stroke-dasharray:none;stroke-opacity:1"
       d="m 61.666426,37.54375 v -3.5" /><text
       id="text2032"
       style="font-variant:normal;font-weight:normal;font-size:10px;font-family:DejaVuSans;-inkscape-font-specification:DejaVuSans;writing-mode:lr-tb;fill:#000000;fill-opacity:1;fill-rule:nonzero;stroke:none"
       transform="matrix(1,0,0,-1,58.486738,22.95)"><tspan
         id="tspan2030"
         y="0"
         x="0">0</tspan></text>
<path
       id="path2034"
       style="fill:#000000;fill-opacity:1;fill-rule:nonzero;stroke:#000000;stroke-width:0.80000001;stroke-linecap:butt;stroke-linejoin:round;stroke-miterlimit:10;stroke-dasharray:none;stroke-opacity:1"
       d="m 119.31105,37.54375 v -3.5" /><text
       id="text2038"
       style="font-variant:normal;font-weight:normal;font-size:10px;font-family:DejaVuSans;-inkscape-font-specification:DejaVuSans;writing-mode:lr-tb;fill:#000000;fill-opacity:1;fill-rule:nonzero;stroke:none"
       transform="matrix(1,0,0,-1,116.13137,22.95)"><tspan
         id="tspan2036"
         y="0"
         x="0">5</tspan></text>
<path
       id="path2040"
       style="fill:#000000;fill-opacity:1;fill-rule:nonzero;stroke:#000000;stroke-width:0.80000001;stroke-linecap:butt;stroke-linejoin:round;stroke-miterlimit:10;stroke-dasharray:none;stroke-opacity:1"
       d="m 176.95568,37.54375 v -3.5" /><text
       id="text2044"
       style="font-variant:normal;font-weight:normal;font-size:10px;font-family:DejaVuSans;-inkscape-font-specification:DejaVuSans;writing-mode:lr-tb;fill:#000000;fill-opacity:1;fill-rule:nonzero;stroke:none"
       transform="matrix(1,0,0,-1,170.59631,22.95)"><tspan
         id="tspan2042"
         y="0"
         x="0 6.3600001">10</tspan></text>
<path
       id="path2046"
       style="fill:#000000;fill-opacity:1;fill-rule:nonzero;stroke:#000000;stroke-width:0.80000001;stroke-linecap:butt;stroke-linejoin:round;stroke-miterlimit:10;stroke-dasharray:none;stroke-opacity:1"
       d="m 234.60031,37.54375 v -3.5" /><text
       id="text2050"
       style="font-variant:normal;font-weight:normal;font-size:10px;font-family:DejaVuSans;-inkscape-font-specification:DejaVuSans;writing-mode:lr-tb;fill:#000000;fill-opacity:1;fill-rule:nonzero;stroke:none"
       transform="matrix(1,0,0,-1,228.24093,22.95)"><tspan
         id="tspan2048"
         y="0"
         x="0 6.3600001">15</tspan></text>
<path
       id="path2052"
       style="fill:#000000;fill-opacity:1;fill-rule:nonzero;stroke:#000000;stroke-width:0.80000001;stroke-linecap:butt;stroke-linejoin:round;stroke-miterlimit:10;stroke-dasharray:none;stroke-opacity:1"
       d="m 292.24494,37.54375 v -3.5" /><text
       id="text2056"
       style="font-variant:normal;font-weight:normal;font-size:10px;font-family:DejaVuSans;-inkscape-font-specification:DejaVuSans;writing-mode:lr-tb;fill:#000000;fill-opacity:1;fill-rule:nonzero;stroke:none"
       transform="matrix(1,0,0,-1,285.88556,22.95)"><tspan
         id="tspan2054"
         y="0"
         x="0 6.3600001">20</tspan></text>
<text
       id="text2060"
       style="font-variant:normal;font-weight:normal;font-size:10px;font-family:DejaVuSans;-inkscape-font-specification:DejaVuSans;writing-mode:lr-tb;fill:#000000;fill-opacity:1;fill-rule:nonzero;stroke:none"
       transform="matrix(1,0,0,-1,155.73693,9.278125)"><tspan
         id="tspan2058"
         y="0"
         x="0 2.95 6.8699999 13.02 17.129999 23.26 27.18 29.959999 36.080002">Iteration</tspan></text>
<path
       id="path2062"
       style="fill:#000000;fill-opacity:1;fill-rule:nonzero;stroke:#000000;stroke-width:0.80000001;stroke-linecap:butt;stroke-linejoin:round;stroke-miterlimit:10;stroke-dasharray:none;stroke-opacity:1"
       d="m 50.1375,108.30845 h -3.5" /><text
       id="text2066"
       style="font-variant:normal;font-weight:normal;font-size:10px;font-family:DejaVuSans;-inkscape-font-specification:DejaVuSans;writing-mode:lr-tb;fill:#000000;fill-opacity:1;fill-rule:nonzero;stroke:none"
       transform="matrix(1,0,0,-1,20.871875,104.51157)"><tspan
         id="tspan2064"
         y="0"
         x="0 6.3600001 9.54 15.9">0.80</tspan></text>
<path
       id="path2068"
       style="fill:#000000;fill-opacity:1;fill-rule:nonzero;stroke:#000000;stroke-width:0.80000001;stroke-linecap:butt;stroke-linejoin:round;stroke-miterlimit:10;stroke-dasharray:none;stroke-opacity:1"
       d="m 50.1375,179.59725 h -3.5" /><text
       id="text2072"
       style="font-variant:normal;font-weight:normal;font-size:10px;font-family:DejaVuSans;-inkscape-font-specification:DejaVuSans;writing-mode:lr-tb;fill:#000000;fill-opacity:1;fill-rule:nonzero;stroke:none"
       transform="matrix(1,0,0,-1,20.871875,175.80037)"><tspan
         id="tspan2070"
         y="0"
         x="0 6.3600001 9.54 15.9">0.85</tspan></text>
<path
       id="path2074"
       style="fill:#000000;fill-opacity:1;fill-rule:nonzero;stroke:#000000;stroke-width:0.80000001;stroke-linecap:butt;stroke-linejoin:round;stroke-miterlimit:10;stroke-dasharray:none;stroke-opacity:1"
       d="m 50.1375,250.88605 h -3.5" /><text
       id="text2078"
       style="font-variant:normal;font-weight:normal;font-size:10px;font-family:DejaVuSans;-inkscape-font-specification:DejaVuSans;writing-mode:lr-tb;fill:#000000;fill-opacity:1;fill-rule:nonzero;stroke:none"
       transform="matrix(1,0,0,-1,20.871875,247.08917)"><tspan
         id="tspan2076"
         y="0"
         x="0 6.3600001 9.54 15.9">0.90</tspan></text>
<path
       id="path2080"
       style="fill:#000000;fill-opacity:1;fill-rule:nonzero;stroke:#000000;stroke-width:0.80000001;stroke-linecap:butt;stroke-linejoin:round;stroke-miterlimit:10;stroke-dasharray:none;stroke-opacity:1"
       d="m 50.1375,322.17485 h -3.5" /><text
       id="text2084"
       style="font-variant:normal;font-weight:normal;font-size:10px;font-family:DejaVuSans;-inkscape-font-specification:DejaVuSans;writing-mode:lr-tb;fill:#000000;fill-opacity:1;fill-rule:nonzero;stroke:none"
       transform="matrix(1,0,0,-1,20.871875,318.37798)"><tspan
         id="tspan2082"
         y="0"
         x="0 6.3600001 9.54 15.9">0.95</tspan></text>
<text
       id="text2088"
       style="font-variant:normal;font-weight:normal;font-size:10px;font-family:DejaVuSans;-inkscape-font-specification:DejaVuSans;writing-mode:lr-tb;fill:#000000;fill-opacity:1;fill-rule:nonzero;stroke:none"
       transform="matrix(0,1,1,0,14.79375,184.575)"><tspan
         id="tspan2086"
         y="0"
         x="0 7.6999998 10.48 15.98 22.129999 25.309999 30.52 36.02 42.139999 46.25">Dice score</tspan></text>
<g
       id="g2090"><g
         clip-path="url(#clipPath2096)"
         id="g2092"><path
           id="path2098"
           style="fill:none;stroke:#1f77b4;stroke-width:1.5;stroke-linecap:square;stroke-linejoin:round;stroke-miterlimit:10;stroke-dasharray:none;stroke-opacity:1"
           d="m 61.666426,77.066654 11.528925,38.540126 11.528926,14.66271 11.528925,-1.42707 11.528928,2.63039 11.52892,0.98269 11.52893,4.46384 11.52892,1.13369 11.52893,4.61624 11.52893,-0.99531 11.52892,0.66247 11.52893,2.76662 11.52892,-2.65842 11.52893,0.10955 11.52892,0.83499 11.52893,0.47896 11.52893,4.18652 11.52892,2.47086 11.52893,-2.51101 11.52892,-0.0472 11.52893,10.46822" /></g></g><g
       id="g2100"><g
         clip-path="url(#clipPath2106)"
         id="g2102"><path
           id="path2108"
           style="fill:none;stroke:#ff7f0e;stroke-width:1.5;stroke-linecap:square;stroke-linejoin:round;stroke-miterlimit:10;stroke-dasharray:none;stroke-opacity:1"
           d="m 61.666426,77.066654 11.528925,17.687966 11.528926,12.35997 11.528925,5.613 11.528928,3.14613 11.52892,2.78117 11.52893,-0.7266 11.52892,0.97023 11.52893,4.20054 11.52893,-0.94027 11.52892,0.87789 11.52893,-1.08277 11.52892,1.80021 11.52893,-2.99368 11.52892,0.50882 11.52893,0.58799 11.52893,0.27472 11.52892,1.89154 11.52893,4.30748 11.52892,-4.99893 11.52893,0.27888" /></g></g><g
       id="g2110"><g
         clip-path="url(#clipPath2116)"
         id="g2112"><path
           id="path2118"
           style="fill:none;stroke:#2ca02c;stroke-width:1.5;stroke-linecap:square;stroke-linejoin:round;stroke-miterlimit:10;stroke-dasharray:none;stroke-opacity:1"
           d="m 61.666426,77.066654 11.528925,36.532036 11.528926,4.47338 11.528925,3.20318 11.528928,0.32551 11.52892,2.44402 11.52893,1.72971 11.52892,-0.0132 11.52893,9.53048 11.52893,0.3144 11.52892,4.93413 11.52893,2.31727 11.52892,5.69414 11.52893,1.24507 11.52892,-2.61773 11.52893,5.34188 11.52893,1.05094 11.52892,-1.48476 11.52893,1.36721 11.52892,-2.63795 11.52893,5.36979" /></g></g><g
       id="g2120"><g
         clip-path="url(#clipPath2126)"
         id="g2122"><path
           id="path2128"
           style="fill:none;stroke:#d62728;stroke-width:1.5;stroke-linecap:square;stroke-linejoin:round;stroke-miterlimit:10;stroke-dasharray:none;stroke-opacity:1"
           d="m 61.666426,77.066654 11.528925,41.757166 11.528926,17.08036 11.528925,19.66013 11.528928,10.98742 11.52892,19.56801 11.52893,5.193 11.52892,10.54017 11.52893,6.25824 11.52893,9.03178 11.52892,8.7246 11.52893,2.14256 11.52892,4.2863 11.52893,10.84078 11.52892,3.18378 11.52893,3.03033 11.52893,-1.06015 11.52892,-0.85543 11.52893,10.69732 11.52892,-0.2665 11.52893,3.83104" /></g></g><g
       id="g2130"><g
         clip-path="url(#clipPath2136)"
         id="g2132"><path
           id="path2138"
           style="fill:none;stroke:#9467bd;stroke-width:1.5;stroke-linecap:square;stroke-linejoin:round;stroke-miterlimit:10;stroke-dasharray:none;stroke-opacity:1"
           d="m 61.666426,77.066654 11.528925,58.777746 11.528926,38.02113 11.528925,20.38444 11.528928,9.53323 11.52892,14.81728 11.52893,13.80724 11.52892,9.64935 11.52893,19.45299 11.52893,7.15367 11.52892,9.60756 11.52893,3.14488 11.52892,4.89697 11.52893,5.99009 11.52892,-3.76347 11.52893,5.72387 11.52893,5.70096 11.52892,5.19032 11.52893,1.34036 11.52892,7.03346 11.52893,2.04411" /></g></g><g
       id="g2140"><g
         clip-path="url(#clipPath2146)"
         id="g2142"><path
           id="path2148"
           style="fill:none;stroke:#8c564b;stroke-width:1.5;stroke-linecap:square;stroke-linejoin:round;stroke-miterlimit:10;stroke-dasharray:none;stroke-opacity:1"
           d="m 61.666426,77.066654 11.528925,49.209516 11.528926,35.5914 11.528925,28.04038 11.528928,32.01584 11.52892,19.88785 11.52893,18.86626 11.52892,9.42119 11.52893,11.68204 11.52893,3.7841 11.52892,2.61046 11.52893,3.43366 11.52892,3.10762 11.52893,8.19398 11.52892,-0.21158 11.52893,1.46049 11.52893,6.29023 11.52892,-2.78631 11.52893,2.97865 11.52892,2.85687 11.52893,-5.13569" /></g></g><g
       id="g2150"><g
         clip-path="url(#clipPath2156)"
         id="g2152"><path
           id="path2158"
           style="fill:none;stroke:#e377c2;stroke-width:1.5;stroke-linecap:butt;stroke-linejoin:round;stroke-miterlimit:10;stroke-dasharray:5.55, 2.4;stroke-dashoffset:0;stroke-opacity:1"
           d="m 61.666426,53.29375 11.528925,134.95536 11.528926,58.47072 11.528925,34.01115 11.528928,21.64725 11.52892,12.7005 11.52893,12.02488 11.52892,8.91119 11.52893,6.522 11.52893,4.99696 11.52892,5.37241 11.52893,2.52655 11.52892,3.28962 11.52893,1.84066 11.52892,1.85628 11.52893,1.31189 11.52893,1.33903 11.52892,0.91346 11.52893,0.88651 11.52892,0.6521 11.52893,0.77148" /></g></g><g
       id="g2160"><path
         id="path2162"
         style="fill:none;stroke:#000000;stroke-width:0.80000001;stroke-linecap:square;stroke-linejoin:miter;stroke-miterlimit:10;stroke-dasharray:none;stroke-opacity:1"
         d="m 50.1375,37.54375 v 346.5" /><path
         id="path2164"
         style="fill:none;stroke:#000000;stroke-width:0.80000001;stroke-linecap:square;stroke-linejoin:miter;stroke-miterlimit:10;stroke-dasharray:none;stroke-opacity:1"
         d="m 303.77386,37.54375 v 346.5" /><path
         id="path2166"
         style="fill:none;stroke:#000000;stroke-width:0.80000001;stroke-linecap:square;stroke-linejoin:miter;stroke-miterlimit:10;stroke-dasharray:none;stroke-opacity:1"
         d="M 50.1375,37.54375 H 303.77386" /><path
         id="path2168"
         style="fill:none;stroke:#000000;stroke-width:0.80000001;stroke-linecap:square;stroke-linejoin:miter;stroke-miterlimit:10;stroke-dasharray:none;stroke-opacity:1"
         d="M 50.1375,384.04375 H 303.77386" /><text
         id="text2172"
         style="font-variant:normal;font-weight:normal;font-size:12px;font-family:DejaVuSans;-inkscape-font-specification:DejaVuSans;writing-mode:lr-tb;fill:#000000;fill-opacity:1;fill-rule:nonzero;stroke:none"
         transform="matrix(1,0,0,-1,132.04943,390.04375)"><tspan
           id="tspan2170"
           y="0"
           x="0 7.632 16.872 20.688 29.927999 33.264 39.863998 47.243999 51.060001 57.312 63.911999 71.255997 76.188004 83.568001">2D Dice scores</tspan></text>
<path
         id="path2174"
         style="fill:#000000;fill-opacity:1;fill-rule:nonzero;stroke:#000000;stroke-width:0.80000001;stroke-linecap:butt;stroke-linejoin:round;stroke-miterlimit:10;stroke-dasharray:none;stroke-opacity:1"
         d="m 366.03006,37.54375 v -3.5" /><text
         id="text2178"
         style="font-variant:normal;font-weight:normal;font-size:10px;font-family:DejaVuSans;-inkscape-font-specification:DejaVuSans;writing-mode:lr-tb;fill:#000000;fill-opacity:1;fill-rule:nonzero;stroke:none"
         transform="matrix(1,0,0,-1,362.85037,22.95)"><tspan
           id="tspan2176"
           y="0"
           x="0">0</tspan></text>
<path
         id="path2180"
         style="fill:#000000;fill-opacity:1;fill-rule:nonzero;stroke:#000000;stroke-width:0.80000001;stroke-linecap:butt;stroke-linejoin:round;stroke-miterlimit:10;stroke-dasharray:none;stroke-opacity:1"
         d="m 423.67469,37.54375 v -3.5" /><text
         id="text2184"
         style="font-variant:normal;font-weight:normal;font-size:10px;font-family:DejaVuSans;-inkscape-font-specification:DejaVuSans;writing-mode:lr-tb;fill:#000000;fill-opacity:1;fill-rule:nonzero;stroke:none"
         transform="matrix(1,0,0,-1,420.495,22.95)"><tspan
           id="tspan2182"
           y="0"
           x="0">5</tspan></text>
<path
         id="path2186"
         style="fill:#000000;fill-opacity:1;fill-rule:nonzero;stroke:#000000;stroke-width:0.80000001;stroke-linecap:butt;stroke-linejoin:round;stroke-miterlimit:10;stroke-dasharray:none;stroke-opacity:1"
         d="m 481.31932,37.54375 v -3.5" /><text
         id="text2190"
         style="font-variant:normal;font-weight:normal;font-size:10px;font-family:DejaVuSans;-inkscape-font-specification:DejaVuSans;writing-mode:lr-tb;fill:#000000;fill-opacity:1;fill-rule:nonzero;stroke:none"
         transform="matrix(1,0,0,-1,474.95994,22.95)"><tspan
           id="tspan2188"
           y="0"
           x="0 6.3600001">10</tspan></text>
<path
         id="path2192"
         style="fill:#000000;fill-opacity:1;fill-rule:nonzero;stroke:#000000;stroke-width:0.80000001;stroke-linecap:butt;stroke-linejoin:round;stroke-miterlimit:10;stroke-dasharray:none;stroke-opacity:1"
         d="m 538.96395,37.54375 v -3.5" /><text
         id="text2196"
         style="font-variant:normal;font-weight:normal;font-size:10px;font-family:DejaVuSans;-inkscape-font-specification:DejaVuSans;writing-mode:lr-tb;fill:#000000;fill-opacity:1;fill-rule:nonzero;stroke:none"
         transform="matrix(1,0,0,-1,532.60457,22.95)"><tspan
           id="tspan2194"
           y="0"
           x="0 6.3600001">15</tspan></text>
<path
         id="path2198"
         style="fill:#000000;fill-opacity:1;fill-rule:nonzero;stroke:#000000;stroke-width:0.80000001;stroke-linecap:butt;stroke-linejoin:round;stroke-miterlimit:10;stroke-dasharray:none;stroke-opacity:1"
         d="m 596.60857,37.54375 v -3.5" /><text
         id="text2202"
         style="font-variant:normal;font-weight:normal;font-size:10px;font-family:DejaVuSans;-inkscape-font-specification:DejaVuSans;writing-mode:lr-tb;fill:#000000;fill-opacity:1;fill-rule:nonzero;stroke:none"
         transform="matrix(1,0,0,-1,590.2492,22.95)"><tspan
           id="tspan2200"
           y="0"
           x="0 6.3600001">20</tspan></text>
<text
         id="text2206"
         style="font-variant:normal;font-weight:normal;font-size:10px;font-family:DejaVuSans;-inkscape-font-specification:DejaVuSans;writing-mode:lr-tb;fill:#000000;fill-opacity:1;fill-rule:nonzero;stroke:none"
         transform="matrix(1,0,0,-1,460.10057,9.278125)"><tspan
           id="tspan2204"
           y="0"
           x="0 2.95 6.8699999 13.02 17.129999 23.26 27.18 29.959999 36.080002">Iteration</tspan></text>
<path
         id="path2208"
         style="fill:#000000;fill-opacity:1;fill-rule:nonzero;stroke:#000000;stroke-width:0.80000001;stroke-linecap:butt;stroke-linejoin:round;stroke-miterlimit:10;stroke-dasharray:none;stroke-opacity:1"
         d="m 354.50114,61.939813 h -3.5" /><text
         id="text2212"
         style="font-variant:normal;font-weight:normal;font-size:10px;font-family:DejaVuSans;-inkscape-font-specification:DejaVuSans;writing-mode:lr-tb;fill:#000000;fill-opacity:1;fill-rule:nonzero;stroke:none"
         transform="matrix(1,0,0,-1,325.23551,58.142938)"><tspan
           id="tspan2210"
           y="0"
           x="0 6.3600001 9.54 15.9">0.75</tspan></text>
<path
         id="path2214"
         style="fill:#000000;fill-opacity:1;fill-rule:nonzero;stroke:#000000;stroke-width:0.80000001;stroke-linecap:butt;stroke-linejoin:round;stroke-miterlimit:10;stroke-dasharray:none;stroke-opacity:1"
         d="m 354.50114,131.79651 h -3.5" /><text
         id="text2218"
         style="font-variant:normal;font-weight:normal;font-size:10px;font-family:DejaVuSans;-inkscape-font-specification:DejaVuSans;writing-mode:lr-tb;fill:#000000;fill-opacity:1;fill-rule:nonzero;stroke:none"
         transform="matrix(1,0,0,-1,325.23551,127.99964)"><tspan
           id="tspan2216"
           y="0"
           x="0 6.3600001 9.54 15.9">0.80</tspan></text>
<path
         id="path2220"
         style="fill:#000000;fill-opacity:1;fill-rule:nonzero;stroke:#000000;stroke-width:0.80000001;stroke-linecap:butt;stroke-linejoin:round;stroke-miterlimit:10;stroke-dasharray:none;stroke-opacity:1"
         d="m 354.50114,201.65321 h -3.5" /><text
         id="text2224"
         style="font-variant:normal;font-weight:normal;font-size:10px;font-family:DejaVuSans;-inkscape-font-specification:DejaVuSans;writing-mode:lr-tb;fill:#000000;fill-opacity:1;fill-rule:nonzero;stroke:none"
         transform="matrix(1,0,0,-1,325.23551,197.85634)"><tspan
           id="tspan2222"
           y="0"
           x="0 6.3600001 9.54 15.9">0.85</tspan></text>
<path
         id="path2226"
         style="fill:#000000;fill-opacity:1;fill-rule:nonzero;stroke:#000000;stroke-width:0.80000001;stroke-linecap:butt;stroke-linejoin:round;stroke-miterlimit:10;stroke-dasharray:none;stroke-opacity:1"
         d="m 354.50114,271.50992 h -3.5" /><text
         id="text2230"
         style="font-variant:normal;font-weight:normal;font-size:10px;font-family:DejaVuSans;-inkscape-font-specification:DejaVuSans;writing-mode:lr-tb;fill:#000000;fill-opacity:1;fill-rule:nonzero;stroke:none"
         transform="matrix(1,0,0,-1,325.23551,267.71304)"><tspan
           id="tspan2228"
           y="0"
           x="0 6.3600001 9.54 15.9">0.90</tspan></text>
<path
         id="path2232"
         style="fill:#000000;fill-opacity:1;fill-rule:nonzero;stroke:#000000;stroke-width:0.80000001;stroke-linecap:butt;stroke-linejoin:round;stroke-miterlimit:10;stroke-dasharray:none;stroke-opacity:1"
         d="m 354.50114,341.36662 h -3.5" /><text
         id="text2236"
         style="font-variant:normal;font-weight:normal;font-size:10px;font-family:DejaVuSans;-inkscape-font-specification:DejaVuSans;writing-mode:lr-tb;fill:#000000;fill-opacity:1;fill-rule:nonzero;stroke:none"
         transform="matrix(1,0,0,-1,325.23551,337.56974)"><tspan
           id="tspan2234"
           y="0"
           x="0 6.3600001 9.54 15.9">0.95</tspan></text>
<text
         id="text2240"
         style="font-variant:normal;font-weight:normal;font-size:10px;font-family:DejaVuSans;-inkscape-font-specification:DejaVuSans;writing-mode:lr-tb;fill:#000000;fill-opacity:1;fill-rule:nonzero;stroke:none"
         transform="matrix(0,1,1,0,319.15739,184.575)"><tspan
           id="tspan2238"
           y="0"
           x="0 7.6999998 10.48 15.98 22.129999 25.309999 30.52 36.02 42.139999 46.25">Dice score</tspan></text>
</g><g
       id="g2242"><g
         clip-path="url(#clipPath2248)"
         id="g2244"><path
           id="path2250"
           style="fill:none;stroke:#1f77b4;stroke-width:1.5;stroke-linecap:square;stroke-linejoin:round;stroke-miterlimit:10;stroke-dasharray:none;stroke-opacity:1"
           d="m 366.03006,119.84767 11.52893,20.26003 11.52892,5.42256 11.52893,2.60781 11.52892,1.49752 11.52893,0.94862 11.52893,0.53806 11.52892,0.64088 11.52893,0.76397 11.52892,0.6461 11.52893,0.66224 11.52892,0.92104 11.52893,1.27762 11.52892,0.89767 11.52893,0.865 11.52893,0.43731 11.52892,0.35619 11.52893,1.20752 11.52892,1.45338 11.52893,2.53698 11.52892,2.11257" /></g></g><g
       id="g2252"><g
         clip-path="url(#clipPath2258)"
         id="g2254"><path
           id="path2260"
           style="fill:none;stroke:#ff7f0e;stroke-width:1.5;stroke-linecap:square;stroke-linejoin:round;stroke-miterlimit:10;stroke-dasharray:none;stroke-opacity:1"
           d="m 366.03006,119.84767 11.52893,24.56916 11.52892,4.81152 11.52893,3.04884 11.52892,2.05816 11.52893,0.99207 11.52893,0.96772 11.52892,0.46636 11.52893,-0.0308 11.52892,0.20054 11.52893,0.20882 11.52892,0.61131 11.52893,0.0835 11.52892,0.73608 11.52893,0.62382 11.52893,0.69199 11.52892,0.54976 11.52893,0.002 11.52892,0.64332 11.52893,-1.6e-4 11.52892,-0.0974" /></g></g><g
       id="g2262"><g
         clip-path="url(#clipPath2268)"
         id="g2264"><path
           id="path2270"
           style="fill:none;stroke:#2ca02c;stroke-width:1.5;stroke-linecap:square;stroke-linejoin:round;stroke-miterlimit:10;stroke-dasharray:none;stroke-opacity:1"
           d="m 366.03006,119.84767 11.52893,32.51812 11.52892,6.46327 11.52893,1.14255 11.52892,1.60669 11.52893,1.42578 11.52893,0.52113 11.52892,1.34951 11.52893,3.08949 11.52892,3.39547 11.52893,2.28962 11.52892,4.02768 11.52893,2.6803 11.52892,2.15049 11.52893,1.75058 11.52893,1.38185 11.52892,1.51056 11.52893,1.45799 11.52892,1.9383 11.52893,1.49375 11.52892,1.88218" /></g></g><g
       id="g2272"><g
         clip-path="url(#clipPath2278)"
         id="g2274"><path
           id="path2280"
           style="fill:none;stroke:#d62728;stroke-width:1.5;stroke-linecap:square;stroke-linejoin:round;stroke-miterlimit:10;stroke-dasharray:none;stroke-opacity:1"
           d="m 366.03006,119.84767 11.52893,20.66225 11.52892,18.05886 11.52893,9.26421 11.52892,12.68902 11.52893,11.60001 11.52893,10.54066 11.52892,10.34603 11.52893,11.63491 11.52892,10.10373 11.52893,8.68608 11.52892,5.97355 11.52893,7.13057 11.52892,4.60235 11.52893,4.78287 11.52893,4.04602 11.52892,4.72652 11.52893,4.81475 11.52892,4.76571 11.52893,4.11328 11.52892,2.94909" /></g></g><g
       id="g2282"><g
         clip-path="url(#clipPath2288)"
         id="g2284"><path
           id="path2290"
           style="fill:none;stroke:#9467bd;stroke-width:1.5;stroke-linecap:square;stroke-linejoin:round;stroke-miterlimit:10;stroke-dasharray:none;stroke-opacity:1"
           d="m 366.03006,119.84767 11.52893,41.74176 11.52892,28.47806 11.52893,21.6511 11.52892,19.19024 11.52893,16.96836 11.52893,15.04642 11.52892,13.34792 11.52893,10.65308 11.52892,8.09198 11.52893,6.77399 11.52892,6.11212 11.52893,5.36897 11.52892,3.54975 11.52893,2.74594 11.52893,3.8527 11.52892,3.10018 11.52893,2.60721 11.52892,2.36436 11.52893,1.64356 11.52892,1.49088" /></g></g><g
       id="g2292"><g
         clip-path="url(#clipPath2298)"
         id="g2294"><path
           id="path2300"
           style="fill:none;stroke:#8c564b;stroke-width:1.5;stroke-linecap:square;stroke-linejoin:round;stroke-miterlimit:10;stroke-dasharray:none;stroke-opacity:1"
           d="m 366.03006,119.84767 11.52893,48.88662 11.52892,31.52886 11.52893,26.27223 11.52892,23.46993 11.52893,18.36007 11.52893,14.1315 11.52892,10.48641 11.52893,9.8887 11.52892,8.31148 11.52893,6.29158 11.52892,4.90562 11.52893,4.07783 11.52892,3.27489 11.52893,2.69311 11.52893,2.24792 11.52892,1.33467 11.52893,1.52741 11.52892,0.72736 11.52893,1.68047 11.52892,0.94456" /></g></g><g
       id="g2302"><g
         clip-path="url(#clipPath2308)"
         id="g2304"><path
           id="path2310"
           style="fill:none;stroke:#e377c2;stroke-width:1.5;stroke-linecap:butt;stroke-linejoin:round;stroke-miterlimit:10;stroke-dasharray:5.55, 2.4;stroke-dashoffset:0;stroke-opacity:1"
           d="m 366.03006,53.29375 11.52893,106.51563 11.52892,51.53452 11.52893,33.71701 11.52892,24.14526 11.52893,21.43986 11.52893,16.61278 11.52892,11.89012 11.52893,8.21672 11.52892,7.06086 11.52893,7.62721 11.52892,4.34053 11.52893,4.56414 11.52892,3.56556 11.52893,3.02926 11.52893,2.81508 11.52892,2.50372 11.52893,1.04612 11.52892,2.12823 11.52893,1.58588 11.52892,0.66151" /></g></g><g
       id="g2312"><path
         id="path2314"
         style="fill:none;stroke:#000000;stroke-width:0.80000001;stroke-linecap:square;stroke-linejoin:miter;stroke-miterlimit:10;stroke-dasharray:none;stroke-opacity:1"
         d="m 354.50114,37.54375 v 346.5" /><path
         id="path2316"
         style="fill:none;stroke:#000000;stroke-width:0.80000001;stroke-linecap:square;stroke-linejoin:miter;stroke-miterlimit:10;stroke-dasharray:none;stroke-opacity:1"
         d="m 608.1375,37.54375 v 346.5" /><path
         id="path2318"
         style="fill:none;stroke:#000000;stroke-width:0.80000001;stroke-linecap:square;stroke-linejoin:miter;stroke-miterlimit:10;stroke-dasharray:none;stroke-opacity:1"
         d="M 354.50114,37.54375 H 608.1375" /><path
         id="path2320"
         style="fill:none;stroke:#000000;stroke-width:0.80000001;stroke-linecap:square;stroke-linejoin:miter;stroke-miterlimit:10;stroke-dasharray:none;stroke-opacity:1"
         d="M 354.50114,384.04375 H 608.1375" /><text
         id="text2324"
         style="font-variant:normal;font-weight:normal;font-size:12px;font-family:DejaVuSans;-inkscape-font-specification:DejaVuSans;writing-mode:lr-tb;fill:#000000;fill-opacity:1;fill-rule:nonzero;stroke:none"
         transform="matrix(1,0,0,-1,436.41307,390.04375)"><tspan
           id="tspan2322"
           y="0"
           x="0 7.632 16.872 20.688 29.927999 33.264 39.863998 47.243999 51.060001 57.312 63.911999 71.255997 76.188004 83.568001">3D Dice scores</tspan></text>
<path
         id="path2326"
         style="fill:#ffffff;fill-opacity:0.8;fill-rule:nonzero;stroke:#cccccc;stroke-width:1;stroke-linecap:butt;stroke-linejoin:miter;stroke-miterlimit:10;stroke-dasharray:none;stroke-opacity:0.8"
         d="m 456.7625,42.54375 h 144.375 c 1.33333,0 2,0.666667 2,2 v 101.70312 c 0,1.33334 -0.66667,2 -2,2 h -144.375 c -1.33333,0 -2,-0.66666 -2,-2 V 44.54375 c 0,-1.333333 0.66667,-2 2,-2 z" /><path
         id="path2328"
         style="fill:none;stroke:#1f77b4;stroke-width:1.5;stroke-linecap:square;stroke-linejoin:round;stroke-miterlimit:10;stroke-dasharray:none;stroke-opacity:1"
         d="m 458.7625,140.15312 h 20" /><text
         id="text2332"
         style="font-variant:normal;font-weight:normal;font-size:10px;font-family:DejaVuSans;-inkscape-font-specification:DejaVuSans;writing-mode:lr-tb;fill:#000000;fill-opacity:1;fill-rule:nonzero;stroke:none"
         transform="matrix(1,0,0,-1,486.7625,136.65312)"><tspan
           id="tspan2330"
           y="0"
           x="0 6.8400002 12.97 19.309999 22.09 24.870001 27.65">Vanilla</tspan></text>
<path
         id="path2334"
         style="fill:none;stroke:#ff7f0e;stroke-width:1.5;stroke-linecap:square;stroke-linejoin:round;stroke-miterlimit:10;stroke-dasharray:none;stroke-opacity:1"
         d="m 458.7625,125.48125 h 20" /><text
         id="text2338"
         style="font-variant:normal;font-weight:normal;font-size:10px;font-family:DejaVuSans;-inkscape-font-specification:DejaVuSans;writing-mode:lr-tb;fill:#000000;fill-opacity:1;fill-rule:nonzero;stroke:none"
         transform="matrix(1,0,0,-1,486.7625,121.98125)"><tspan
           id="tspan2336"
           y="0"
           x="0 6.3600001 12.28 15.46 20.67 26.17 30.280001 33.060001 39.41 45.759998 48.540001 54.689999 57.869999 63.080002 65.860001 71.110001">3x scribble size</tspan></text>
<path
         id="path2340"
         style="fill:none;stroke:#2ca02c;stroke-width:1.5;stroke-linecap:square;stroke-linejoin:round;stroke-miterlimit:10;stroke-dasharray:none;stroke-opacity:1"
         d="m 458.7625,110.80937 h 20" /><text
         id="text2344"
         style="font-variant:normal;font-weight:normal;font-size:10px;font-family:DejaVuSans;-inkscape-font-specification:DejaVuSans;writing-mode:lr-tb;fill:#000000;fill-opacity:1;fill-rule:nonzero;stroke:none"
         transform="matrix(1,0,0,-1,486.7625,107.30937)"><tspan
           id="tspan2342"
           y="0"
           x="0 6.0300002 8.8100004 14.94 20.440001 23.219999 29.559999 35.91 39.09 41.869999 48.209999 51.389999 56.959999 63.939999">Placing in LCC</tspan></text>
<path
         id="path2346"
         style="fill:none;stroke:#d62728;stroke-width:1.5;stroke-linecap:square;stroke-linejoin:round;stroke-miterlimit:10;stroke-dasharray:none;stroke-opacity:1"
         d="m 458.7625,96.1375 h 20" /><text
         id="text2350"
         style="font-variant:normal;font-weight:normal;font-size:10px;font-family:DejaVuSans;-inkscape-font-specification:DejaVuSans;writing-mode:lr-tb;fill:#000000;fill-opacity:1;fill-rule:nonzero;stroke:none"
         transform="matrix(1,0,0,-1,486.7625,92.6375)"><tspan
           id="tspan2348"
           y="0"
           x="0 6.3600001 9.54 14.75 20.25 24.360001 27.139999 33.490002 39.84 42.619999 48.77 53.98 57.16 60.529999 63.709999 66.489998 70.410004 76.559998 80.669998 86.800003 90.720001 93.5 99.620003">5 scribbles / iteration</tspan></text>
<path
         id="path2352"
         style="fill:none;stroke:#9467bd;stroke-width:1.5;stroke-linecap:square;stroke-linejoin:round;stroke-miterlimit:10;stroke-dasharray:none;stroke-opacity:1"
         d="m 458.7625,81.465625 h 20" /><text
         id="text2356"
         style="font-variant:normal;font-weight:normal;font-size:10px;font-family:DejaVuSans;-inkscape-font-specification:DejaVuSans;writing-mode:lr-tb;fill:#000000;fill-opacity:1;fill-rule:nonzero;stroke:none"
         transform="matrix(1,0,0,-1,486.7625,77.965625)"><tspan
           id="tspan2354"
           y="0"
           x="0 6.3600001 12.72 15.9 21.110001 26.610001 30.719999 33.5 39.849998 46.200001 48.98 55.130001 60.34 63.52 66.889999 70.07 72.849998 76.769997 82.919998 87.029999 93.160004 97.080002 99.860001 105.98">10 scribbles / iteration</tspan></text>
<path
         id="path2358"
         style="fill:none;stroke:#8c564b;stroke-width:1.5;stroke-linecap:square;stroke-linejoin:round;stroke-miterlimit:10;stroke-dasharray:none;stroke-opacity:1"
         d="m 458.7625,66.79375 h 20" /><text
         id="text2362"
         style="font-variant:normal;font-weight:normal;font-size:10px;font-family:DejaVuSans;-inkscape-font-specification:DejaVuSans;writing-mode:lr-tb;fill:#000000;fill-opacity:1;fill-rule:nonzero;stroke:none"
         transform="matrix(1,0,0,-1,486.7625,63.29375)"><tspan
           id="tspan2360"
           y="0"
           x="0 6.3600001 12.72 15.9 21.110001 26.610001 30.719999 33.5 39.849998 46.200001 48.98 55.130001 60.34 63.52 66.889999 70.07 72.849998 76.769997 82.919998 87.029999 93.160004 97.080002 99.860001 105.98">15 scribbles / iteration</tspan></text>
<path
         id="path2364"
         style="fill:none;stroke:#e377c2;stroke-width:1.5;stroke-linecap:butt;stroke-linejoin:round;stroke-miterlimit:10;stroke-dasharray:5.55, 2.4;stroke-dashoffset:0;stroke-opacity:1"
         d="m 458.7625,52.121875 h 20" /><text
         id="text2368"
         style="font-variant:normal;font-weight:normal;font-size:10px;font-family:DejaVuSans;-inkscape-font-specification:DejaVuSans;writing-mode:lr-tb;fill:#000000;fill-opacity:1;fill-rule:nonzero;stroke:none"
         transform="matrix(1,0,0,-1,486.7625,48.621875)"><tspan
           id="tspan2366"
           y="0"
           x="0 6.8600001 10.97 17.120001 23.469999 29.620001 32.400002 35.18 38.360001 44.509998 48.43 51.610001 57.740002 60.52">Bredell et al.</tspan></text>
</g></g></svg>