<?xml version="1.0" encoding="UTF-8" standalone="no"?>
<svg
   xmlns:dc="http://purl.org/dc/elements/1.1/"
   xmlns:cc="http://creativecommons.org/ns#"
   xmlns:rdf="http://www.w3.org/1999/02/22-rdf-syntax-ns#"
   xmlns:svg="http://www.w3.org/2000/svg"
   xmlns="http://www.w3.org/2000/svg"
   viewBox="0 0 557.27667 434.64099"
   height="434.64099"
   width="557.27667"
   xml:space="preserve"
   id="svg1776"
   version="1.1"><metadata
     id="metadata1782"><rdf:RDF><cc:Work
         rdf:about=""><dc:format>image/svg+xml</dc:format><dc:type
           rdf:resource="http://purl.org/dc/dcmitype/StillImage" /><dc:title></dc:title></cc:Work></rdf:RDF></metadata><defs
     id="defs1780"><clipPath
       id="clipPath1896"
       clipPathUnits="userSpaceOnUse"><path
         id="path1894"
         d="m 50.1375,37.54375 h 357.12 v 266.112 h -357.12 z" /></clipPath><clipPath
       id="clipPath1906"
       clipPathUnits="userSpaceOnUse"><path
         id="path1904"
         d="m 50.1375,37.54375 h 357.12 v 266.112 h -357.12 z" /></clipPath><clipPath
       id="clipPath1916"
       clipPathUnits="userSpaceOnUse"><path
         id="path1914"
         d="m 50.1375,37.54375 h 357.12 v 266.112 h -357.12 z" /></clipPath><clipPath
       id="clipPath1926"
       clipPathUnits="userSpaceOnUse"><path
         id="path1924"
         d="m 50.1375,37.54375 h 357.12 v 266.112 h -357.12 z" /></clipPath><clipPath
       id="clipPath1936"
       clipPathUnits="userSpaceOnUse"><path
         id="path1934"
         d="m 50.1375,37.54375 h 357.12 v 266.112 h -357.12 z" /></clipPath><clipPath
       id="clipPath1946"
       clipPathUnits="userSpaceOnUse"><path
         id="path1944"
         d="m 50.1375,37.54375 h 357.12 v 266.112 h -357.12 z" /></clipPath><clipPath
       id="clipPath1956"
       clipPathUnits="userSpaceOnUse"><path
         id="path1954"
         d="m 50.1375,37.54375 h 357.12 v 266.112 h -357.12 z" /></clipPath></defs><g
     transform="matrix(1.3333333,0,0,-1.3333333,0,434.641)"
     id="g1784"><path
       id="path1786"
       style="fill:#000000;fill-opacity:1;fill-rule:nonzero;stroke:#000000;stroke-width:0.80000001;stroke-linecap:butt;stroke-linejoin:round;stroke-miterlimit:10;stroke-dasharray:none;stroke-opacity:1"
       d="m 50.1375,37.54375 v -3.5" /><text
       id="text1790"
       style="font-variant:normal;font-weight:normal;font-size:10px;font-family:DejaVuSans;-inkscape-font-specification:DejaVuSans;writing-mode:lr-tb;fill:#000000;fill-opacity:1;fill-rule:nonzero;stroke:none"
       transform="matrix(1,0,0,-1,46.957812,22.95)"><tspan
         id="tspan1788"
         y="0"
         x="0">0</tspan></text>
<path
       id="path1792"
       style="fill:#000000;fill-opacity:1;fill-rule:nonzero;stroke:#000000;stroke-width:0.80000001;stroke-linecap:butt;stroke-linejoin:round;stroke-miterlimit:10;stroke-dasharray:none;stroke-opacity:1"
       d="m 97.7535,37.54375 v -3.5" /><text
       id="text1796"
       style="font-variant:normal;font-weight:normal;font-size:10px;font-family:DejaVuSans;-inkscape-font-specification:DejaVuSans;writing-mode:lr-tb;fill:#000000;fill-opacity:1;fill-rule:nonzero;stroke:none"
       transform="matrix(1,0,0,-1,91.394125,22.95)"><tspan
         id="tspan1794"
         y="0"
         x="0 6.3600001">20</tspan></text>
<path
       id="path1798"
       style="fill:#000000;fill-opacity:1;fill-rule:nonzero;stroke:#000000;stroke-width:0.80000001;stroke-linecap:butt;stroke-linejoin:round;stroke-miterlimit:10;stroke-dasharray:none;stroke-opacity:1"
       d="m 145.3695,37.54375 v -3.5" /><text
       id="text1802"
       style="font-variant:normal;font-weight:normal;font-size:10px;font-family:DejaVuSans;-inkscape-font-specification:DejaVuSans;writing-mode:lr-tb;fill:#000000;fill-opacity:1;fill-rule:nonzero;stroke:none"
       transform="matrix(1,0,0,-1,139.01012,22.95)"><tspan
         id="tspan1800"
         y="0"
         x="0 6.3600001">40</tspan></text>
<path
       id="path1804"
       style="fill:#000000;fill-opacity:1;fill-rule:nonzero;stroke:#000000;stroke-width:0.80000001;stroke-linecap:butt;stroke-linejoin:round;stroke-miterlimit:10;stroke-dasharray:none;stroke-opacity:1"
       d="m 192.9855,37.54375 v -3.5" /><text
       id="text1808"
       style="font-variant:normal;font-weight:normal;font-size:10px;font-family:DejaVuSans;-inkscape-font-specification:DejaVuSans;writing-mode:lr-tb;fill:#000000;fill-opacity:1;fill-rule:nonzero;stroke:none"
       transform="matrix(1,0,0,-1,186.62612,22.95)"><tspan
         id="tspan1806"
         y="0"
         x="0 6.3600001">60</tspan></text>
<path
       id="path1810"
       style="fill:#000000;fill-opacity:1;fill-rule:nonzero;stroke:#000000;stroke-width:0.80000001;stroke-linecap:butt;stroke-linejoin:round;stroke-miterlimit:10;stroke-dasharray:none;stroke-opacity:1"
       d="m 240.6015,37.54375 v -3.5" /><text
       id="text1814"
       style="font-variant:normal;font-weight:normal;font-size:10px;font-family:DejaVuSans;-inkscape-font-specification:DejaVuSans;writing-mode:lr-tb;fill:#000000;fill-opacity:1;fill-rule:nonzero;stroke:none"
       transform="matrix(1,0,0,-1,234.24212,22.95)"><tspan
         id="tspan1812"
         y="0"
         x="0 6.3600001">80</tspan></text>
<path
       id="path1816"
       style="fill:#000000;fill-opacity:1;fill-rule:nonzero;stroke:#000000;stroke-width:0.80000001;stroke-linecap:butt;stroke-linejoin:round;stroke-miterlimit:10;stroke-dasharray:none;stroke-opacity:1"
       d="m 288.2175,37.54375 v -3.5" /><text
       id="text1820"
       style="font-variant:normal;font-weight:normal;font-size:10px;font-family:DejaVuSans;-inkscape-font-specification:DejaVuSans;writing-mode:lr-tb;fill:#000000;fill-opacity:1;fill-rule:nonzero;stroke:none"
       transform="matrix(1,0,0,-1,278.67844,22.95)"><tspan
         id="tspan1818"
         y="0"
         x="0 6.3600001 12.72">100</tspan></text>
<path
       id="path1822"
       style="fill:#000000;fill-opacity:1;fill-rule:nonzero;stroke:#000000;stroke-width:0.80000001;stroke-linecap:butt;stroke-linejoin:round;stroke-miterlimit:10;stroke-dasharray:none;stroke-opacity:1"
       d="m 335.8335,37.54375 v -3.5" /><text
       id="text1826"
       style="font-variant:normal;font-weight:normal;font-size:10px;font-family:DejaVuSans;-inkscape-font-specification:DejaVuSans;writing-mode:lr-tb;fill:#000000;fill-opacity:1;fill-rule:nonzero;stroke:none"
       transform="matrix(1,0,0,-1,326.29444,22.95)"><tspan
         id="tspan1824"
         y="0"
         x="0 6.3600001 12.72">120</tspan></text>
<path
       id="path1828"
       style="fill:#000000;fill-opacity:1;fill-rule:nonzero;stroke:#000000;stroke-width:0.80000001;stroke-linecap:butt;stroke-linejoin:round;stroke-miterlimit:10;stroke-dasharray:none;stroke-opacity:1"
       d="m 383.4495,37.54375 v -3.5" /><text
       id="text1832"
       style="font-variant:normal;font-weight:normal;font-size:10px;font-family:DejaVuSans;-inkscape-font-specification:DejaVuSans;writing-mode:lr-tb;fill:#000000;fill-opacity:1;fill-rule:nonzero;stroke:none"
       transform="matrix(1,0,0,-1,373.91044,22.95)"><tspan
         id="tspan1830"
         y="0"
         x="0 6.3600001 12.72">140</tspan></text>
<text
       id="text1836"
       style="font-variant:normal;font-weight:normal;font-size:10px;font-family:DejaVuSans;-inkscape-font-specification:DejaVuSans;writing-mode:lr-tb;fill:#000000;fill-opacity:1;fill-rule:nonzero;stroke:none"
       transform="matrix(1,0,0,-1,188.64281,9.278125)"><tspan
         id="tspan1834"
         y="0"
         x="0 7.3200002 12.53 18.68 22.790001 25.969999 28.75 35.09 39.009998 45.16 49.27 55.400002 60.900002 64.82 67.599998 73.720001">User interaction</tspan></text>
<path
       id="path1838"
       style="fill:#000000;fill-opacity:1;fill-rule:nonzero;stroke:#000000;stroke-width:0.80000001;stroke-linecap:butt;stroke-linejoin:round;stroke-miterlimit:10;stroke-dasharray:none;stroke-opacity:1"
       d="m 50.1375,37.54375 h -3.5" /><text
       id="text1842"
       style="font-variant:normal;font-weight:normal;font-size:10px;font-family:DejaVuSans;-inkscape-font-specification:DejaVuSans;writing-mode:lr-tb;fill:#000000;fill-opacity:1;fill-rule:nonzero;stroke:none"
       transform="matrix(1,0,0,-1,20.871875,33.746875)"><tspan
         id="tspan1840"
         y="0"
         x="0 6.3600001 9.54 15.9">0.74</tspan></text>
<path
       id="path1844"
       style="fill:#000000;fill-opacity:1;fill-rule:nonzero;stroke:#000000;stroke-width:0.80000001;stroke-linecap:butt;stroke-linejoin:round;stroke-miterlimit:10;stroke-dasharray:none;stroke-opacity:1"
       d="m 50.1375,73.02535 h -3.5" /><text
       id="text1848"
       style="font-variant:normal;font-weight:normal;font-size:10px;font-family:DejaVuSans;-inkscape-font-specification:DejaVuSans;writing-mode:lr-tb;fill:#000000;fill-opacity:1;fill-rule:nonzero;stroke:none"
       transform="matrix(1,0,0,-1,20.871875,69.228475)"><tspan
         id="tspan1846"
         y="0"
         x="0 6.3600001 9.54 15.9">0.76</tspan></text>
<path
       id="path1850"
       style="fill:#000000;fill-opacity:1;fill-rule:nonzero;stroke:#000000;stroke-width:0.80000001;stroke-linecap:butt;stroke-linejoin:round;stroke-miterlimit:10;stroke-dasharray:none;stroke-opacity:1"
       d="m 50.1375,108.50695 h -3.5" /><text
       id="text1854"
       style="font-variant:normal;font-weight:normal;font-size:10px;font-family:DejaVuSans;-inkscape-font-specification:DejaVuSans;writing-mode:lr-tb;fill:#000000;fill-opacity:1;fill-rule:nonzero;stroke:none"
       transform="matrix(1,0,0,-1,20.871875,104.71008)"><tspan
         id="tspan1852"
         y="0"
         x="0 6.3600001 9.54 15.9">0.78</tspan></text>
<path
       id="path1856"
       style="fill:#000000;fill-opacity:1;fill-rule:nonzero;stroke:#000000;stroke-width:0.80000001;stroke-linecap:butt;stroke-linejoin:round;stroke-miterlimit:10;stroke-dasharray:none;stroke-opacity:1"
       d="m 50.1375,143.98855 h -3.5" /><text
       id="text1860"
       style="font-variant:normal;font-weight:normal;font-size:10px;font-family:DejaVuSans;-inkscape-font-specification:DejaVuSans;writing-mode:lr-tb;fill:#000000;fill-opacity:1;fill-rule:nonzero;stroke:none"
       transform="matrix(1,0,0,-1,20.871875,140.19167)"><tspan
         id="tspan1858"
         y="0"
         x="0 6.3600001 9.54 15.9">0.80</tspan></text>
<path
       id="path1862"
       style="fill:#000000;fill-opacity:1;fill-rule:nonzero;stroke:#000000;stroke-width:0.80000001;stroke-linecap:butt;stroke-linejoin:round;stroke-miterlimit:10;stroke-dasharray:none;stroke-opacity:1"
       d="m 50.1375,179.47015 h -3.5" /><text
       id="text1866"
       style="font-variant:normal;font-weight:normal;font-size:10px;font-family:DejaVuSans;-inkscape-font-specification:DejaVuSans;writing-mode:lr-tb;fill:#000000;fill-opacity:1;fill-rule:nonzero;stroke:none"
       transform="matrix(1,0,0,-1,20.871875,175.67327)"><tspan
         id="tspan1864"
         y="0"
         x="0 6.3600001 9.54 15.9">0.82</tspan></text>
<path
       id="path1868"
       style="fill:#000000;fill-opacity:1;fill-rule:nonzero;stroke:#000000;stroke-width:0.80000001;stroke-linecap:butt;stroke-linejoin:round;stroke-miterlimit:10;stroke-dasharray:none;stroke-opacity:1"
       d="m 50.1375,214.95175 h -3.5" /><text
       id="text1872"
       style="font-variant:normal;font-weight:normal;font-size:10px;font-family:DejaVuSans;-inkscape-font-specification:DejaVuSans;writing-mode:lr-tb;fill:#000000;fill-opacity:1;fill-rule:nonzero;stroke:none"
       transform="matrix(1,0,0,-1,20.871875,211.15487)"><tspan
         id="tspan1870"
         y="0"
         x="0 6.3600001 9.54 15.9">0.84</tspan></text>
<path
       id="path1874"
       style="fill:#000000;fill-opacity:1;fill-rule:nonzero;stroke:#000000;stroke-width:0.80000001;stroke-linecap:butt;stroke-linejoin:round;stroke-miterlimit:10;stroke-dasharray:none;stroke-opacity:1"
       d="m 50.1375,250.43335 h -3.5" /><text
       id="text1878"
       style="font-variant:normal;font-weight:normal;font-size:10px;font-family:DejaVuSans;-inkscape-font-specification:DejaVuSans;writing-mode:lr-tb;fill:#000000;fill-opacity:1;fill-rule:nonzero;stroke:none"
       transform="matrix(1,0,0,-1,20.871875,246.63647)"><tspan
         id="tspan1876"
         y="0"
         x="0 6.3600001 9.54 15.9">0.86</tspan></text>
<path
       id="path1880"
       style="fill:#000000;fill-opacity:1;fill-rule:nonzero;stroke:#000000;stroke-width:0.80000001;stroke-linecap:butt;stroke-linejoin:round;stroke-miterlimit:10;stroke-dasharray:none;stroke-opacity:1"
       d="m 50.1375,285.91495 h -3.5" /><text
       id="text1884"
       style="font-variant:normal;font-weight:normal;font-size:10px;font-family:DejaVuSans;-inkscape-font-specification:DejaVuSans;writing-mode:lr-tb;fill:#000000;fill-opacity:1;fill-rule:nonzero;stroke:none"
       transform="matrix(1,0,0,-1,20.871875,282.11807)"><tspan
         id="tspan1882"
         y="0"
         x="0 6.3600001 9.54 15.9">0.88</tspan></text>
<text
       id="text1888"
       style="font-variant:normal;font-weight:normal;font-size:10px;font-family:DejaVuSans;-inkscape-font-specification:DejaVuSans;writing-mode:lr-tb;fill:#000000;fill-opacity:1;fill-rule:nonzero;stroke:none"
       transform="matrix(0,1,1,0,14.79375,144.381)"><tspan
         id="tspan1886"
         y="0"
         x="0 7.6999998 10.48 15.98 22.129999 25.309999 30.52 36.02 42.139999 46.25">Dice score</tspan></text>
<g
       id="g1890"><g
         clip-path="url(#clipPath1896)"
         id="g1892"><path
           id="path1898"
           style="fill:none;stroke:#1f77b4;stroke-width:1.5;stroke-linecap:square;stroke-linejoin:round;stroke-miterlimit:10;stroke-dasharray:none;stroke-opacity:0.5"
           d="m 50.1375,128.81592 7.1424,25.72618 7.1424,6.88555 7.1424,3.31141 7.1424,1.90154 7.1424,1.20456 7.1424,0.68322 7.1424,0.81379 7.1424,0.97009 7.1424,0.82041 7.1424,0.84092 7.1424,1.16954 7.1424,1.62232 7.1424,1.13986 7.1424,1.09838 7.1424,0.55529 7.1424,0.45229 7.1424,1.53331 7.1424,1.84551 7.1424,3.22145 7.1424,2.68254" /></g></g><g
       id="g1900"><g
         clip-path="url(#clipPath1906)"
         id="g1902"><path
           id="path1908"
           style="fill:none;stroke:#ff7f0e;stroke-width:1.5;stroke-linecap:square;stroke-linejoin:round;stroke-miterlimit:10;stroke-dasharray:none;stroke-opacity:0.5"
           d="m 50.1375,128.81592 7.1424,31.19791 7.1424,6.10965 7.1424,3.87142 7.1424,2.61345 7.1424,1.25973 7.1424,1.22882 7.1424,0.59218 7.1424,-0.0391 7.1424,0.25466 7.1424,0.26515 7.1424,0.77625 7.1424,0.10607 7.1424,0.93468 7.1424,0.79213 7.1424,0.87868 7.1424,0.69808 7.1424,0.003 7.1424,0.8169 7.1424,-2.1e-4 7.1424,-0.12363" /></g></g><g
       id="g1910"><g
         clip-path="url(#clipPath1916)"
         id="g1912"><path
           id="path1918"
           style="fill:none;stroke:#2ca02c;stroke-width:1.5;stroke-linecap:square;stroke-linejoin:round;stroke-miterlimit:10;stroke-dasharray:none;stroke-opacity:0.5"
           d="m 50.1375,128.81592 7.1424,41.29148 7.1424,8.20706 7.1424,1.45081 7.1424,2.04018 7.1424,1.81046 7.1424,0.66172 7.1424,1.71362 7.1424,3.92302 7.1424,4.31156 7.1424,2.90736 7.1424,5.11435 7.1424,3.40345 7.1424,2.73068 7.1424,2.2229 7.1424,1.75467 7.1424,1.9181 7.1424,1.85135 7.1424,2.46126 7.1424,1.89677 7.1424,2.38999" /></g></g><g
       id="g1920"><g
         clip-path="url(#clipPath1926)"
         id="g1922"><path
           id="path1928"
           style="fill:none;stroke:#d62728;stroke-width:1.5;stroke-linecap:square;stroke-linejoin:round;stroke-miterlimit:10;stroke-dasharray:none;stroke-opacity:0.5"
           d="m 50.1375,128.81592 35.712,26.23691 35.712,22.93113 35.712,11.76368 35.712,16.11251 35.712,14.7297 35.712,13.38452 35.712,13.13738 35.712,14.774 35.712,12.82972 35.712,11.02957 11.7,2.48507" /></g></g><g
       id="g1930"><g
         clip-path="url(#clipPath1936)"
         id="g1932"><path
           id="path1938"
           style="fill:none;stroke:#9467bd;stroke-width:3.5;stroke-linecap:square;stroke-linejoin:round;stroke-miterlimit:10;stroke-dasharray:none;stroke-opacity:1"
           d="m 50.1375,128.81592 71.424,53.00366 71.424,36.16142 71.424,27.49256 71.424,24.36775 71.424,21.54641 11.7,3.12976" /></g></g><g
       id="g1940"><g
         clip-path="url(#clipPath1946)"
         id="g1942"><path
           id="path1948"
           style="fill:none;stroke:#8c564b;stroke-width:1.5;stroke-linecap:square;stroke-linejoin:round;stroke-miterlimit:10;stroke-dasharray:none;stroke-opacity:0.5"
           d="m 50.1375,128.81592 107.136,62.0762 107.136,40.03532 107.136,33.36047 47.412,13.18863" /></g></g><g
       id="g1950"><g
         clip-path="url(#clipPath1956)"
         id="g1952"><path
           id="path1958"
           style="fill:none;stroke:#e377c2;stroke-width:1.5;stroke-linecap:butt;stroke-linejoin:round;stroke-miterlimit:10;stroke-dasharray:5.55, 2.4;stroke-dashoffset:0;stroke-opacity:1"
           d="m 50.1375,44.305784 137.92221,135.253486 137.9222,65.43851 92.97559,28.8615" /></g></g><g
       id="g1960"><path
         id="path1962"
         style="fill:none;stroke:#000000;stroke-width:0.80000001;stroke-linecap:square;stroke-linejoin:miter;stroke-miterlimit:10;stroke-dasharray:none;stroke-opacity:1"
         d="m 50.1375,37.54375 v 266.112" /><path
         id="path1964"
         style="fill:none;stroke:#000000;stroke-width:0.80000001;stroke-linecap:square;stroke-linejoin:miter;stroke-miterlimit:10;stroke-dasharray:none;stroke-opacity:1"
         d="m 407.2575,37.54375 v 266.112" /><path
         id="path1966"
         style="fill:none;stroke:#000000;stroke-width:0.80000001;stroke-linecap:square;stroke-linejoin:miter;stroke-miterlimit:10;stroke-dasharray:none;stroke-opacity:1"
         d="m 50.1375,37.54375 h 357.12" /><path
         id="path1968"
         style="fill:none;stroke:#000000;stroke-width:0.80000001;stroke-linecap:square;stroke-linejoin:miter;stroke-miterlimit:10;stroke-dasharray:none;stroke-opacity:1"
         d="m 50.1375,303.65575 h 357.12" /><text
         id="text1972"
         style="font-variant:normal;font-weight:normal;font-size:12px;font-family:DejaVuSans;-inkscape-font-specification:DejaVuSans;writing-mode:lr-tb;fill:#000000;fill-opacity:1;fill-rule:nonzero;stroke:none"
         transform="matrix(1,0,0,-1,183.79125,309.65575)"><tspan
           id="tspan1970"
           y="0"
           x="0 7.632 16.872 20.688 29.927999 33.264 39.863998 47.243999 51.060001 57.312 63.911999 71.255997 76.188004 83.568001">3D Dice scores</tspan></text>
<path
         id="path1974"
         style="fill:#ffffff;fill-opacity:0.8;fill-rule:nonzero;stroke:#cccccc;stroke-width:1;stroke-linecap:butt;stroke-linejoin:miter;stroke-miterlimit:10;stroke-dasharray:none;stroke-opacity:0.8"
         d="m 255.8825,42.54375 h 144.375 c 1.33333,0 2,0.666667 2,2 v 101.70312 c 0,1.33334 -0.66667,2 -2,2 h -144.375 c -1.33333,0 -2,-0.66666 -2,-2 V 44.54375 c 0,-1.333333 0.66667,-2 2,-2 z" /><path
         id="path1976"
         style="fill:none;stroke:#1f77b4;stroke-width:1.5;stroke-linecap:square;stroke-linejoin:round;stroke-miterlimit:10;stroke-dasharray:none;stroke-opacity:0.5"
         d="m 257.8825,140.15312 h 20" /><text
         id="text1980"
         style="font-variant:normal;font-weight:normal;font-size:10px;font-family:DejaVuSans;-inkscape-font-specification:DejaVuSans;writing-mode:lr-tb;fill:#000000;fill-opacity:1;fill-rule:nonzero;stroke:none"
         transform="matrix(1,0,0,-1,285.8825,136.65312)"><tspan
           id="tspan1978"
           y="0"
           x="0 6.8400002 12.97 19.309999 22.09 24.870001 27.65">Vanilla</tspan></text>
<path
         id="path1982"
         style="fill:none;stroke:#ff7f0e;stroke-width:1.5;stroke-linecap:square;stroke-linejoin:round;stroke-miterlimit:10;stroke-dasharray:none;stroke-opacity:0.5"
         d="m 257.8825,125.48125 h 20" /><text
         id="text1986"
         style="font-variant:normal;font-weight:normal;font-size:10px;font-family:DejaVuSans;-inkscape-font-specification:DejaVuSans;writing-mode:lr-tb;fill:#000000;fill-opacity:1;fill-rule:nonzero;stroke:none"
         transform="matrix(1,0,0,-1,285.8825,121.98125)"><tspan
           id="tspan1984"
           y="0"
           x="0 6.3600001 12.28 15.46 20.67 26.17 30.280001 33.060001 39.41 45.759998 48.540001 54.689999 57.869999 63.080002 65.860001 71.110001">3x scribble size</tspan></text>
<path
         id="path1988"
         style="fill:none;stroke:#2ca02c;stroke-width:1.5;stroke-linecap:square;stroke-linejoin:round;stroke-miterlimit:10;stroke-dasharray:none;stroke-opacity:0.5"
         d="m 257.8825,110.80937 h 20" /><text
         id="text1992"
         style="font-variant:normal;font-weight:normal;font-size:10px;font-family:DejaVuSans;-inkscape-font-specification:DejaVuSans;writing-mode:lr-tb;fill:#000000;fill-opacity:1;fill-rule:nonzero;stroke:none"
         transform="matrix(1,0,0,-1,285.8825,107.30937)"><tspan
           id="tspan1990"
           y="0"
           x="0 6.0300002 8.8100004 14.94 20.440001 23.219999 29.559999 35.91 39.09 41.869999 48.209999 51.389999 56.959999 63.939999">Placing in LCC</tspan></text>
<path
         id="path1994"
         style="fill:none;stroke:#d62728;stroke-width:1.5;stroke-linecap:square;stroke-linejoin:round;stroke-miterlimit:10;stroke-dasharray:none;stroke-opacity:0.5"
         d="m 257.8825,96.1375 h 20" /><text
         id="text1998"
         style="font-variant:normal;font-weight:normal;font-size:10px;font-family:DejaVuSans;-inkscape-font-specification:DejaVuSans;writing-mode:lr-tb;fill:#000000;fill-opacity:1;fill-rule:nonzero;stroke:none"
         transform="matrix(1,0,0,-1,285.8825,92.6375)"><tspan
           id="tspan1996"
           y="0"
           x="0 6.3600001 9.54 14.75 20.25 24.360001 27.139999 33.490002 39.84 42.619999 48.77 53.98 57.16 60.529999 63.709999 66.489998 70.410004 76.559998 80.669998 86.800003 90.720001 93.5 99.620003">5 scribbles / iteration</tspan></text>
<path
         id="path2000"
         style="fill:none;stroke:#9467bd;stroke-width:3.5;stroke-linecap:square;stroke-linejoin:round;stroke-miterlimit:10;stroke-dasharray:none;stroke-opacity:1"
         d="m 257.8825,81.465625 h 20" /><text
         id="text2004"
         style="font-variant:normal;font-weight:normal;font-size:10px;font-family:DejaVuSans;-inkscape-font-specification:DejaVuSans;writing-mode:lr-tb;fill:#000000;fill-opacity:1;fill-rule:nonzero;stroke:none"
         transform="matrix(1,0,0,-1,285.8825,77.965625)"><tspan
           id="tspan2002"
           y="0"
           x="0 6.3600001 12.72 15.9 21.110001 26.610001 30.719999 33.5 39.849998 46.200001 48.98 55.130001 60.34 63.52 66.889999 70.07 72.849998 76.769997 82.919998 87.029999 93.160004 97.080002 99.860001 105.98">10 scribbles / iteration</tspan></text>
<path
         id="path2006"
         style="fill:none;stroke:#8c564b;stroke-width:1.5;stroke-linecap:square;stroke-linejoin:round;stroke-miterlimit:10;stroke-dasharray:none;stroke-opacity:0.5"
         d="m 257.8825,66.79375 h 20" /><text
         id="text2010"
         style="font-variant:normal;font-weight:normal;font-size:10px;font-family:DejaVuSans;-inkscape-font-specification:DejaVuSans;writing-mode:lr-tb;fill:#000000;fill-opacity:1;fill-rule:nonzero;stroke:none"
         transform="matrix(1,0,0,-1,285.8825,63.29375)"><tspan
           id="tspan2008"
           y="0"
           x="0 6.3600001 12.72 15.9 21.110001 26.610001 30.719999 33.5 39.849998 46.200001 48.98 55.130001 60.34 63.52 66.889999 70.07 72.849998 76.769997 82.919998 87.029999 93.160004 97.080002 99.860001 105.98">15 scribbles / iteration</tspan></text>
<path
         id="path2012"
         style="fill:none;stroke:#e377c2;stroke-width:1.5;stroke-linecap:butt;stroke-linejoin:round;stroke-miterlimit:10;stroke-dasharray:5.55, 2.4;stroke-dashoffset:0;stroke-opacity:1"
         d="m 257.8825,52.121875 h 20" /><text
         id="text2016"
         style="font-variant:normal;font-weight:normal;font-size:10px;font-family:DejaVuSans;-inkscape-font-specification:DejaVuSans;writing-mode:lr-tb;fill:#000000;fill-opacity:1;fill-rule:nonzero;stroke:none"
         transform="matrix(1,0,0,-1,285.8825,48.621875)"><tspan
           id="tspan2014"
           y="0"
           x="0 6.8600001 10.97 17.120001 23.469999 29.620001 32.400002 35.18 38.360001 44.509998 48.43 51.610001 57.740002 60.52">Bredell et al.</tspan></text>
</g></g></svg>