<?xml version="1.0" encoding="UTF-8" standalone="no"?>
<svg
   xmlns:dc="http://purl.org/dc/elements/1.1/"
   xmlns:cc="http://creativecommons.org/ns#"
   xmlns:rdf="http://www.w3.org/1999/02/22-rdf-syntax-ns#"
   xmlns:svg="http://www.w3.org/2000/svg"
   xmlns="http://www.w3.org/2000/svg"
   viewBox="0 0 978.88 540.47998"
   height="540.47998"
   width="978.88"
   xml:space="preserve"
   id="svg2852"
   version="1.1"><metadata
     id="metadata2858"><rdf:RDF><cc:Work
         rdf:about=""><dc:format>image/svg+xml</dc:format><dc:type
           rdf:resource="http://purl.org/dc/dcmitype/StillImage" /><dc:title></dc:title></cc:Work></rdf:RDF></metadata><defs
     id="defs2856"><clipPath
       id="clipPath2868"
       clipPathUnits="userSpaceOnUse"><path
         style="clip-rule:evenodd"
         id="path2866"
         d="M 0,6.1035e-5 H 734.16 V 405.36006 H 0 Z" /></clipPath><clipPath
       id="clipPath2882"
       clipPathUnits="userSpaceOnUse"><path
         style="clip-rule:evenodd"
         id="path2880"
         d="M 1.094e-5,-3.0518e-5 H 734.16001 V 405.35997 H 1.094e-5 Z" /></clipPath><clipPath
       id="clipPath2898"
       clipPathUnits="userSpaceOnUse"><path
         style="clip-rule:evenodd"
         id="path2896"
         d="M 1.094e-5,-3.0518e-5 H 734.16001 V 405.35997 H 1.094e-5 Z" /></clipPath><clipPath
       id="clipPath2918"
       clipPathUnits="userSpaceOnUse"><path
         style="clip-rule:evenodd"
         id="path2916"
         d="M 1.094e-5,-3.0518e-5 H 734.16001 V 405.35997 H 1.094e-5 Z" /></clipPath><clipPath
       id="clipPath2934"
       clipPathUnits="userSpaceOnUse"><path
         style="clip-rule:evenodd"
         id="path2932"
         d="M 1.094e-5,-3.0518e-5 H 734.16001 V 405.35997 H 1.094e-5 Z" /></clipPath><clipPath
       id="clipPath2954"
       clipPathUnits="userSpaceOnUse"><path
         style="clip-rule:evenodd"
         id="path2952"
         d="M 1.094e-5,-3.0518e-5 H 734.16001 V 405.35997 H 1.094e-5 Z" /></clipPath><clipPath
       id="clipPath2970"
       clipPathUnits="userSpaceOnUse"><path
         style="clip-rule:evenodd"
         id="path2968"
         d="M 1.094e-5,-3.0518e-5 H 734.16001 V 405.35997 H 1.094e-5 Z" /></clipPath><clipPath
       id="clipPath2994"
       clipPathUnits="userSpaceOnUse"><path
         style="clip-rule:evenodd"
         id="path2992"
         d="M 1.094e-5,-3.0518e-5 H 734.16001 V 405.35997 H 1.094e-5 Z" /></clipPath><clipPath
       id="clipPath3010"
       clipPathUnits="userSpaceOnUse"><path
         style="clip-rule:evenodd"
         id="path3008"
         d="M 1.094e-5,-3.0518e-5 H 734.16001 V 405.35997 H 1.094e-5 Z" /></clipPath><clipPath
       id="clipPath3026"
       clipPathUnits="userSpaceOnUse"><path
         style="clip-rule:evenodd"
         id="path3024"
         d="M 1.094e-5,-3.0518e-5 H 734.16001 V 405.35997 H 1.094e-5 Z" /></clipPath><clipPath
       id="clipPath3042"
       clipPathUnits="userSpaceOnUse"><path
         style="clip-rule:evenodd"
         id="path3040"
         d="M 1.094e-5,-3.0518e-5 H 734.16001 V 405.35997 H 1.094e-5 Z" /></clipPath><clipPath
       id="clipPath3058"
       clipPathUnits="userSpaceOnUse"><path
         style="clip-rule:evenodd"
         id="path3056"
         d="M 1.094e-5,-3.0518e-5 H 734.16001 V 405.35997 H 1.094e-5 Z" /></clipPath><clipPath
       id="clipPath3074"
       clipPathUnits="userSpaceOnUse"><path
         style="clip-rule:evenodd"
         id="path3072"
         d="M 1.094e-5,-3.0518e-5 H 734.16001 V 405.35997 H 1.094e-5 Z" /></clipPath><clipPath
       id="clipPath3090"
       clipPathUnits="userSpaceOnUse"><path
         style="clip-rule:evenodd"
         id="path3088"
         d="M 1.094e-5,-3.0518e-5 H 734.16001 V 405.35997 H 1.094e-5 Z" /></clipPath><clipPath
       id="clipPath3106"
       clipPathUnits="userSpaceOnUse"><path
         style="clip-rule:evenodd"
         id="path3104"
         d="M 1.094e-5,-3.0518e-5 H 734.16001 V 405.35997 H 1.094e-5 Z" /></clipPath><clipPath
       id="clipPath3122"
       clipPathUnits="userSpaceOnUse"><path
         style="clip-rule:evenodd"
         id="path3120"
         d="M 1.094e-5,-3.0518e-5 H 734.16001 V 405.35997 H 1.094e-5 Z" /></clipPath><clipPath
       id="clipPath3138"
       clipPathUnits="userSpaceOnUse"><path
         style="clip-rule:evenodd"
         id="path3136"
         d="M 1.094e-5,-3.0518e-5 H 734.16001 V 405.35997 H 1.094e-5 Z" /></clipPath><clipPath
       id="clipPath3154"
       clipPathUnits="userSpaceOnUse"><path
         style="clip-rule:evenodd"
         id="path3152"
         d="M 1.094e-5,-3.0518e-5 H 734.16001 V 405.35997 H 1.094e-5 Z" /></clipPath><clipPath
       id="clipPath3170"
       clipPathUnits="userSpaceOnUse"><path
         style="clip-rule:evenodd"
         id="path3168"
         d="M 1.094e-5,-3.0518e-5 H 734.16001 V 405.35997 H 1.094e-5 Z" /></clipPath><clipPath
       id="clipPath3192"
       clipPathUnits="userSpaceOnUse"><path
         style="clip-rule:evenodd"
         id="path3190"
         d="M -1.5259e-5,405.36 H 734.16 V 3.0518e-5 H -1.5259e-5" /></clipPath><clipPath
       id="clipPath3216"
       clipPathUnits="userSpaceOnUse"><path
         style="clip-rule:evenodd"
         id="path3214"
         d="M 1.094e-5,-3.0518e-5 H 734.16001 V 405.35997 H 1.094e-5 Z" /></clipPath><clipPath
       id="clipPath3228"
       clipPathUnits="userSpaceOnUse"><path
         style="clip-rule:evenodd"
         id="path3226"
         d="M 1.094e-5,-3.0518e-5 H 734.16001 V 405.35997 H 1.094e-5 Z" /></clipPath><clipPath
       id="clipPath3244"
       clipPathUnits="userSpaceOnUse"><path
         style="clip-rule:evenodd"
         id="path3242"
         d="M 1.094e-5,-3.0518e-5 H 734.16001 V 405.35997 H 1.094e-5 Z" /></clipPath><clipPath
       id="clipPath3256"
       clipPathUnits="userSpaceOnUse"><path
         style="clip-rule:evenodd"
         id="path3254"
         d="M 1.094e-5,-3.0518e-5 H 734.16001 V 405.35997 H 1.094e-5 Z" /></clipPath><clipPath
       id="clipPath3272"
       clipPathUnits="userSpaceOnUse"><path
         style="clip-rule:evenodd"
         id="path3270"
         d="M 1.094e-5,-3.0518e-5 H 734.16001 V 405.35997 H 1.094e-5 Z" /></clipPath><clipPath
       id="clipPath3288"
       clipPathUnits="userSpaceOnUse"><path
         style="clip-rule:evenodd"
         id="path3286"
         d="M 1.094e-5,-3.0518e-5 H 734.16001 V 405.35997 H 1.094e-5 Z" /></clipPath><clipPath
       id="clipPath3300"
       clipPathUnits="userSpaceOnUse"><path
         style="clip-rule:evenodd"
         id="path3298"
         d="M 1.094e-5,-3.0518e-5 H 734.16001 V 405.35997 H 1.094e-5 Z" /></clipPath><clipPath
       id="clipPath3316"
       clipPathUnits="userSpaceOnUse"><path
         style="clip-rule:evenodd"
         id="path3314"
         d="M 1.094e-5,-3.0518e-5 H 734.16001 V 405.35997 H 1.094e-5 Z" /></clipPath><clipPath
       id="clipPath3328"
       clipPathUnits="userSpaceOnUse"><path
         style="clip-rule:evenodd"
         id="path3326"
         d="M 1.094e-5,-3.0518e-5 H 734.16001 V 405.35997 H 1.094e-5 Z" /></clipPath></defs><g
     transform="matrix(1.3333333,0,0,-1.3333333,0,540.48)"
     id="g2860"><g
       id="g2862"><g
         clip-path="url(#clipPath2868)"
         id="g2864"><path
           id="path2870"
           style="fill:#ffffff;fill-opacity:1;fill-rule:evenodd;stroke:none"
           d="M 0,3.0518e-5 H 734.16 V 405.36003 H 0 Z" /></g></g><path
       id="path2872"
       style="fill:#b4c7e7;fill-opacity:1;fill-rule:evenodd;stroke:none"
       d="m 121.2,351.6 h 67.44 v 17.52 H 121.2 Z" /><path
       id="path2874"
       style="fill:none;stroke:#000000;stroke-width:0.95999998;stroke-linecap:butt;stroke-linejoin:miter;stroke-miterlimit:10;stroke-dasharray:none;stroke-opacity:1"
       d="m 121.2,351.6 h 67.44 v 17.52 H 121.2 Z" /><g
       id="g2876"><g
         clip-path="url(#clipPath2882)"
         id="g2878"><text
           id="text2886"
           style="font-variant:normal;font-weight:normal;font-size:13.92000008px;font-family:Calibri;-inkscape-font-specification:Calibri;writing-mode:lr-tb;fill:#000000;fill-opacity:1;fill-rule:nonzero;stroke:none"
           transform="matrix(1,0,0,-1,140.86,355.51)"><tspan
             id="tspan2884"
             y="0"
             x="0 7.2244802 10.56528 13.90608 20.866079">X, 16</tspan></text>
</g></g><path
       id="path2888"
       style="fill:#b4c7e7;fill-opacity:1;fill-rule:evenodd;stroke:none"
       d="m 121.2,333.84 h 67.44 V 351.6 H 121.2 Z" /><path
       id="path2890"
       style="fill:none;stroke:#000000;stroke-width:0.95999998;stroke-linecap:butt;stroke-linejoin:miter;stroke-miterlimit:10;stroke-dasharray:none;stroke-opacity:1"
       d="m 121.2,333.84 h 67.44 V 351.6 H 121.2 Z" /><g
       id="g2892"><g
         clip-path="url(#clipPath2898)"
         id="g2894"><text
           id="text2902"
           style="font-variant:normal;font-weight:normal;font-size:13.92000008px;font-family:Calibri;-inkscape-font-specification:Calibri;writing-mode:lr-tb;fill:#000000;fill-opacity:1;fill-rule:nonzero;stroke:none"
           transform="matrix(1,0,0,-1,137.5,337.87)"><tspan
             id="tspan2900"
             y="0"
             x="0 6.96 13.92 17.274719 20.866079 27.82608">16, 32</tspan></text>
</g></g><path
       id="path2904"
       style="fill:#f4b183;fill-opacity:1;fill-rule:evenodd;stroke:none"
       d="m 121.2,328.32 h 67.44 v 5.52 H 121.2 Z" /><path
       id="path2906"
       style="fill:none;stroke:#000000;stroke-width:0.95999998;stroke-linecap:butt;stroke-linejoin:miter;stroke-miterlimit:10;stroke-dasharray:none;stroke-opacity:1"
       d="m 121.2,328.32 h 67.44 v 5.52 H 121.2 Z" /><path
       id="path2908"
       style="fill:#b4c7e7;fill-opacity:1;fill-rule:evenodd;stroke:none"
       d="m 121.2,268.56 h 67.44 v 17.52 H 121.2 Z" /><path
       id="path2910"
       style="fill:none;stroke:#000000;stroke-width:0.95999998;stroke-linecap:butt;stroke-linejoin:miter;stroke-miterlimit:10;stroke-dasharray:none;stroke-opacity:1"
       d="m 121.2,268.56 h 67.44 v 17.52 H 121.2 Z" /><g
       id="g2912"><g
         clip-path="url(#clipPath2918)"
         id="g2914"><text
           id="text2922"
           style="font-variant:normal;font-weight:normal;font-size:13.92000008px;font-family:Calibri;-inkscape-font-specification:Calibri;writing-mode:lr-tb;fill:#000000;fill-opacity:1;fill-rule:nonzero;stroke:none"
           transform="matrix(1,0,0,-1,137.5,272.4)"><tspan
             id="tspan2920"
             y="0"
             x="0 6.96 13.92 17.274719 20.866079 27.82608">32, 32</tspan></text>
</g></g><path
       id="path2924"
       style="fill:#b4c7e7;fill-opacity:1;fill-rule:evenodd;stroke:none"
       d="m 121.2,250.8 h 67.44 v 17.76 H 121.2 Z" /><path
       id="path2926"
       style="fill:none;stroke:#000000;stroke-width:0.95999998;stroke-linecap:butt;stroke-linejoin:miter;stroke-miterlimit:10;stroke-dasharray:none;stroke-opacity:1"
       d="m 121.2,250.8 h 67.44 v 17.76 H 121.2 Z" /><g
       id="g2928"><g
         clip-path="url(#clipPath2934)"
         id="g2930"><text
           id="text2938"
           style="font-variant:normal;font-weight:normal;font-size:13.94400024px;font-family:Calibri;-inkscape-font-specification:Calibri;writing-mode:lr-tb;fill:#000000;fill-opacity:1;fill-rule:nonzero;stroke:none"
           transform="matrix(1,0,0,-1,137.5,254.76)"><tspan
             id="tspan2936"
             y="0"
             x="0 6.958056 13.916112 17.276615 20.860224 27.818279">32, 64</tspan></text>
</g></g><path
       id="path2940"
       style="fill:#f4b183;fill-opacity:1;fill-rule:evenodd;stroke:none"
       d="m 121.2,245.28 h 67.44 v 5.52 H 121.2 Z" /><path
       id="path2942"
       style="fill:none;stroke:#000000;stroke-width:0.95999998;stroke-linecap:butt;stroke-linejoin:miter;stroke-miterlimit:10;stroke-dasharray:none;stroke-opacity:1"
       d="m 121.2,245.28 h 67.44 v 5.52 H 121.2 Z" /><path
       id="path2944"
       style="fill:#b4c7e7;fill-opacity:1;fill-rule:evenodd;stroke:none"
       d="m 121.2,185.28 h 67.44 v 17.76 H 121.2 Z" /><path
       id="path2946"
       style="fill:none;stroke:#000000;stroke-width:0.95999998;stroke-linecap:butt;stroke-linejoin:miter;stroke-miterlimit:10;stroke-dasharray:none;stroke-opacity:1"
       d="m 121.2,185.28 h 67.44 v 17.76 H 121.2 Z" /><g
       id="g2948"><g
         clip-path="url(#clipPath2954)"
         id="g2950"><text
           id="text2958"
           style="font-variant:normal;font-weight:normal;font-size:13.94400024px;font-family:Calibri;-inkscape-font-specification:Calibri;writing-mode:lr-tb;fill:#000000;fill-opacity:1;fill-rule:nonzero;stroke:none"
           transform="matrix(1,0,0,-1,137.5,189.22)"><tspan
             id="tspan2956"
             y="0"
             x="0 6.958056 13.916112 17.276615 20.860224 27.818279">64, 64</tspan></text>
</g></g><path
       id="path2960"
       style="fill:#b4c7e7;fill-opacity:1;fill-rule:evenodd;stroke:none"
       d="m 121.2,167.76 h 67.44 v 17.52 H 121.2 Z" /><path
       id="path2962"
       style="fill:none;stroke:#000000;stroke-width:0.95999998;stroke-linecap:butt;stroke-linejoin:miter;stroke-miterlimit:10;stroke-dasharray:none;stroke-opacity:1"
       d="m 121.2,167.76 h 67.44 v 17.52 H 121.2 Z" /><g
       id="g2964"><g
         clip-path="url(#clipPath2970)"
         id="g2966"><text
           id="text2974"
           style="font-variant:normal;font-weight:normal;font-size:13.92000008px;font-family:Calibri;-inkscape-font-specification:Calibri;writing-mode:lr-tb;fill:#000000;fill-opacity:1;fill-rule:nonzero;stroke:none"
           transform="matrix(1,0,0,-1,133.9,171.55)"><tspan
             id="tspan2972"
             y="0"
             x="0 6.96 13.92 17.274719 20.866079 27.82608 34.786079">64, 128</tspan></text>
</g></g><path
       id="path2976"
       style="fill:#a9d18e;fill-opacity:1;fill-rule:evenodd;stroke:none"
       d="m 121.2,162.24 h 67.44 v 5.52 H 121.2 Z" /><path
       id="path2978"
       style="fill:none;stroke:#000000;stroke-width:0.95999998;stroke-linecap:butt;stroke-linejoin:miter;stroke-miterlimit:10;stroke-dasharray:none;stroke-opacity:1"
       d="m 121.2,162.24 h 67.44 v 5.52 H 121.2 Z" /><path
       id="path2980"
       style="fill:#f4b183;fill-opacity:1;fill-rule:evenodd;stroke:none"
       d="m 121.2,156.72 h 67.44 v 5.52 H 121.2 Z" /><path
       id="path2982"
       style="fill:none;stroke:#000000;stroke-width:0.95999998;stroke-linecap:butt;stroke-linejoin:miter;stroke-miterlimit:10;stroke-dasharray:none;stroke-opacity:1"
       d="m 121.2,156.72 h 67.44 v 5.52 H 121.2 Z" /><path
       id="path2984"
       style="fill:#b4c7e7;fill-opacity:1;fill-rule:evenodd;stroke:none"
       d="m 222.48,102.72 h 67.68 v 17.52 h -67.68 z" /><path
       id="path2986"
       style="fill:none;stroke:#000000;stroke-width:0.95999998;stroke-linecap:butt;stroke-linejoin:miter;stroke-miterlimit:10;stroke-dasharray:none;stroke-opacity:1"
       d="m 222.48,102.72 h 67.68 v 17.52 h -67.68 z" /><g
       id="g2988"><g
         clip-path="url(#clipPath2994)"
         id="g2990"><text
           id="text2998"
           style="font-variant:normal;font-weight:normal;font-size:13.92000008px;font-family:Calibri;-inkscape-font-specification:Calibri;writing-mode:lr-tb;fill:#000000;fill-opacity:1;fill-rule:nonzero;stroke:none"
           transform="matrix(1,0,0,-1,231.72,106.49)"><tspan
             id="tspan2996"
             y="0"
             x="0 6.96 13.92 20.879999 24.23472 28.062719 35.02272 41.982719">128, 128</tspan></text>
</g></g><path
       id="path3000"
       style="fill:#b4c7e7;fill-opacity:1;fill-rule:evenodd;stroke:none"
       d="m 323.76,102.72 h 67.68 v 17.52 h -67.68 z" /><path
       id="path3002"
       style="fill:none;stroke:#000000;stroke-width:0.95999998;stroke-linecap:butt;stroke-linejoin:miter;stroke-miterlimit:10;stroke-dasharray:none;stroke-opacity:1"
       d="m 323.76,102.72 h 67.68 v 17.52 h -67.68 z" /><g
       id="g3004"><g
         clip-path="url(#clipPath3010)"
         id="g3006"><text
           id="text3014"
           style="font-variant:normal;font-weight:normal;font-size:13.92000008px;font-family:Calibri;-inkscape-font-specification:Calibri;writing-mode:lr-tb;fill:#000000;fill-opacity:1;fill-rule:nonzero;stroke:none"
           transform="matrix(1,0,0,-1,333.14,106.49)"><tspan
             id="tspan3012"
             y="0"
             x="0 6.96 13.92 20.879999 24.23472 28.062719 35.02272 41.982719">128, 128</tspan></text>
</g></g><path
       id="path3016"
       style="fill:#ffe699;fill-opacity:1;fill-rule:evenodd;stroke:none"
       d="m 425.28,102.24 h 67.68 V 120 h -67.68 z" /><path
       id="path3018"
       style="fill:none;stroke:#000000;stroke-width:0.95999998;stroke-linecap:butt;stroke-linejoin:miter;stroke-miterlimit:10;stroke-dasharray:none;stroke-opacity:1"
       d="m 425.28,102.24 h 67.68 V 120 h -67.68 z" /><g
       id="g3020"><g
         clip-path="url(#clipPath3026)"
         id="g3022"><text
           id="text3030"
           style="font-variant:normal;font-weight:normal;font-size:13.92000008px;font-family:Calibri;-inkscape-font-specification:Calibri;writing-mode:lr-tb;fill:#000000;fill-opacity:1;fill-rule:nonzero;stroke:none"
           transform="matrix(1,0,0,-1,434.57,106.08)"><tspan
             id="tspan3028"
             y="0"
             x="0 6.96 13.92 20.879999 24.23472 28.062719 35.02272 41.982719">128, 256</tspan></text>
</g></g><path
       id="path3032"
       style="fill:#ffe699;fill-opacity:1;fill-rule:evenodd;stroke:none"
       d="m 526.56,203.04 h 67.68 v 17.52 h -67.68 z" /><path
       id="path3034"
       style="fill:none;stroke:#000000;stroke-width:0.95999998;stroke-linecap:butt;stroke-linejoin:miter;stroke-miterlimit:10;stroke-dasharray:none;stroke-opacity:1"
       d="m 526.56,203.04 h 67.68 v 17.52 h -67.68 z" /><g
       id="g3036"><g
         clip-path="url(#clipPath3042)"
         id="g3038"><text
           id="text3046"
           style="font-variant:normal;font-weight:normal;font-size:13.94400024px;font-family:Calibri;-inkscape-font-specification:Calibri;writing-mode:lr-tb;fill:#000000;fill-opacity:1;fill-rule:nonzero;stroke:none"
           transform="matrix(1,0,0,-1,535.97,206.86)"><tspan
             id="tspan3044"
             y="0"
             x="0 6.958056 13.916112 20.874168 24.234673 28.055328 35.013386 41.971439">128, 128</tspan></text>
</g></g><path
       id="path3048"
       style="fill:#b4c7e7;fill-opacity:1;fill-rule:evenodd;stroke:none"
       d="m 526.56,185.28 h 67.68 v 17.76 h -67.68 z" /><path
       id="path3050"
       style="fill:none;stroke:#000000;stroke-width:0.95999998;stroke-linecap:butt;stroke-linejoin:miter;stroke-miterlimit:10;stroke-dasharray:none;stroke-opacity:1"
       d="m 526.56,185.28 h 67.68 v 17.76 h -67.68 z" /><g
       id="g3052"><g
         clip-path="url(#clipPath3058)"
         id="g3054"><text
           id="text3062"
           style="font-variant:normal;font-weight:normal;font-size:13.94400024px;font-family:Calibri;-inkscape-font-specification:Calibri;writing-mode:lr-tb;fill:#000000;fill-opacity:1;fill-rule:nonzero;stroke:none"
           transform="matrix(1,0,0,-1,535.97,189.22)"><tspan
             id="tspan3060"
             y="0"
             x="0 6.958056 13.916112 20.874168 24.234673 28.055328 35.013386 41.971439">128, 128</tspan></text>
</g></g><path
       id="path3064"
       style="fill:#b4c7e7;fill-opacity:1;fill-rule:evenodd;stroke:none"
       d="m 526.56,167.76 h 67.68 v 17.52 h -67.68 z" /><path
       id="path3066"
       style="fill:none;stroke:#000000;stroke-width:0.95999998;stroke-linecap:butt;stroke-linejoin:miter;stroke-miterlimit:10;stroke-dasharray:none;stroke-opacity:1"
       d="m 526.56,167.76 h 67.68 v 17.52 h -67.68 z" /><g
       id="g3068"><g
         clip-path="url(#clipPath3074)"
         id="g3070"><text
           id="text3078"
           style="font-variant:normal;font-weight:normal;font-size:13.92000008px;font-family:Calibri;-inkscape-font-specification:Calibri;writing-mode:lr-tb;fill:#000000;fill-opacity:1;fill-rule:nonzero;stroke:none"
           transform="matrix(1,0,0,-1,535.97,171.55)"><tspan
             id="tspan3076"
             y="0"
             x="0 6.96 13.92 20.879999 24.23472 28.062719 35.02272 41.982719">384, 128</tspan></text>
</g></g><path
       id="path3080"
       style="fill:#ffe699;fill-opacity:1;fill-rule:evenodd;stroke:none"
       d="m 526.56,285.84 h 67.68 v 17.52 h -67.68 z" /><path
       id="path3082"
       style="fill:none;stroke:#000000;stroke-width:0.95999998;stroke-linecap:butt;stroke-linejoin:miter;stroke-miterlimit:10;stroke-dasharray:none;stroke-opacity:1"
       d="m 526.56,285.84 h 67.68 v 17.52 h -67.68 z" /><g
       id="g3084"><g
         clip-path="url(#clipPath3090)"
         id="g3086"><text
           id="text3094"
           style="font-variant:normal;font-weight:normal;font-size:13.94400024px;font-family:Calibri;-inkscape-font-specification:Calibri;writing-mode:lr-tb;fill:#000000;fill-opacity:1;fill-rule:nonzero;stroke:none"
           transform="matrix(1,0,0,-1,543.17,289.8)"><tspan
             id="tspan3092"
             y="0"
             x="0 6.958056 13.916112 17.276615 20.860224 27.818279">64, 64</tspan></text>
</g></g><path
       id="path3096"
       style="fill:#b4c7e7;fill-opacity:1;fill-rule:evenodd;stroke:none"
       d="m 526.56,268.32 h 67.68 v 17.52 h -67.68 z" /><path
       id="path3098"
       style="fill:none;stroke:#000000;stroke-width:0.95999998;stroke-linecap:butt;stroke-linejoin:miter;stroke-miterlimit:10;stroke-dasharray:none;stroke-opacity:1"
       d="m 526.56,268.32 h 67.68 v 17.52 h -67.68 z" /><g
       id="g3100"><g
         clip-path="url(#clipPath3106)"
         id="g3102"><text
           id="text3110"
           style="font-variant:normal;font-weight:normal;font-size:13.94400024px;font-family:Calibri;-inkscape-font-specification:Calibri;writing-mode:lr-tb;fill:#000000;fill-opacity:1;fill-rule:nonzero;stroke:none"
           transform="matrix(1,0,0,-1,543.17,272.16)"><tspan
             id="tspan3108"
             y="0"
             x="0 6.958056 13.916112 17.276615 20.860224 27.818279">64, 64</tspan></text>
</g></g><path
       id="path3112"
       style="fill:#b4c7e7;fill-opacity:1;fill-rule:evenodd;stroke:none"
       d="m 526.56,250.56 h 67.68 v 17.76 h -67.68 z" /><path
       id="path3114"
       style="fill:none;stroke:#000000;stroke-width:0.95999998;stroke-linecap:butt;stroke-linejoin:miter;stroke-miterlimit:10;stroke-dasharray:none;stroke-opacity:1"
       d="m 526.56,250.56 h 67.68 v 17.76 h -67.68 z" /><g
       id="g3116"><g
         clip-path="url(#clipPath3122)"
         id="g3118"><text
           id="text3126"
           style="font-variant:normal;font-weight:normal;font-size:13.94400024px;font-family:Calibri;-inkscape-font-specification:Calibri;writing-mode:lr-tb;fill:#000000;fill-opacity:1;fill-rule:nonzero;stroke:none"
           transform="matrix(1,0,0,-1,539.57,254.52)"><tspan
             id="tspan3124"
             y="0"
             x="0 6.958056 13.916112 20.874168 24.234673 28.055328 35.013386">192, 64</tspan></text>
</g></g><path
       id="path3128"
       style="fill:#afabab;fill-opacity:1;fill-rule:evenodd;stroke:none"
       d="m 526.56,368.88 h 67.68 v 17.76 h -67.68 z" /><path
       id="path3130"
       style="fill:none;stroke:#000000;stroke-width:0.95999998;stroke-linecap:butt;stroke-linejoin:miter;stroke-miterlimit:10;stroke-dasharray:none;stroke-opacity:1"
       d="m 526.56,368.88 h 67.68 v 17.76 h -67.68 z" /><g
       id="g3132"><g
         clip-path="url(#clipPath3138)"
         id="g3134"><text
           id="text3142"
           style="font-variant:normal;font-weight:normal;font-size:13.92000008px;font-family:Calibri;-inkscape-font-specification:Calibri;writing-mode:lr-tb;fill:#000000;fill-opacity:1;fill-rule:nonzero;stroke:none"
           transform="matrix(1,0,0,-1,546.77,372.98)"><tspan
             id="tspan3140"
             y="0"
             x="0 6.96 13.92 17.274719 20.866079">32, Y</tspan></text>
</g></g><path
       id="path3144"
       style="fill:#b4c7e7;fill-opacity:1;fill-rule:evenodd;stroke:none"
       d="m 526.56,351.36 h 67.68 v 17.52 h -67.68 z" /><path
       id="path3146"
       style="fill:none;stroke:#000000;stroke-width:0.95999998;stroke-linecap:butt;stroke-linejoin:miter;stroke-miterlimit:10;stroke-dasharray:none;stroke-opacity:1"
       d="m 526.56,351.36 h 67.68 v 17.52 h -67.68 z" /><g
       id="g3148"><g
         clip-path="url(#clipPath3154)"
         id="g3150"><text
           id="text3158"
           style="font-variant:normal;font-weight:normal;font-size:13.92000008px;font-family:Calibri;-inkscape-font-specification:Calibri;writing-mode:lr-tb;fill:#000000;fill-opacity:1;fill-rule:nonzero;stroke:none"
           transform="matrix(1,0,0,-1,543.17,355.34)"><tspan
             id="tspan3156"
             y="0"
             x="0 6.96 13.92 17.274719 20.866079 27.82608">32, 32</tspan></text>
</g></g><path
       id="path3160"
       style="fill:#b4c7e7;fill-opacity:1;fill-rule:evenodd;stroke:none"
       d="m 526.56,333.84 h 67.68 v 17.52 h -67.68 z" /><path
       id="path3162"
       style="fill:none;stroke:#000000;stroke-width:0.95999998;stroke-linecap:butt;stroke-linejoin:miter;stroke-miterlimit:10;stroke-dasharray:none;stroke-opacity:1"
       d="m 526.56,333.84 h 67.68 v 17.52 h -67.68 z" /><g
       id="g3164"><g
         clip-path="url(#clipPath3170)"
         id="g3166"><text
           id="text3174"
           style="font-variant:normal;font-weight:normal;font-size:13.94400024px;font-family:Calibri;-inkscape-font-specification:Calibri;writing-mode:lr-tb;fill:#000000;fill-opacity:1;fill-rule:nonzero;stroke:none"
           transform="matrix(1,0,0,-1,543.17,337.7)"><tspan
             id="tspan3172"
             y="0"
             x="0 6.958056 13.916112 17.276615 20.860224 27.818279">96, 32</tspan></text>
</g></g><path
       id="path3176"
       style="fill:#000000;fill-opacity:1;fill-rule:nonzero;stroke:none"
       d="m 188.64,343.22 332.95,-0.17 v -1 l -332.95,0.17 z m 331.95,2.33 6,-3.01 -6,-2.99 z" /><path
       id="path3178"
       style="fill:#000000;fill-opacity:1;fill-rule:nonzero;stroke:none"
       d="m 188.64,260.18 332.95,-0.24 v -1 l -332.95,0.24 z m 331.95,2.26 6,-3.01 -6,-2.99 z" /><path
       id="path3180"
       style="fill:#000000;fill-opacity:1;fill-rule:nonzero;stroke:none"
       d="m 188.64,176.9 h 332.95 v -1 H 188.64 Z m 331.95,2.5 6,-3 -6,-3 z" /><path
       id="path3182"
       style="fill:#000000;fill-opacity:1;fill-rule:nonzero;stroke:none"
       d="m 155.3,328.32 v -37.3 h -1 v 37.3 z m 2.5,-36.3 -3,-6 -3,6 z" /><path
       id="path3184"
       style="fill:#000000;fill-opacity:1;fill-rule:nonzero;stroke:none"
       d="m 155.3,245.28 v -37.37 h -1 v 37.37 z m 2.5,-36.37 -3,-6 -3,6 z" /><g
       id="g3186"><g
         clip-path="url(#clipPath3192)"
         id="g3188"><path
           id="path3194"
           style="fill:#000000;fill-opacity:1;fill-rule:nonzero;stroke:none"
           d="m 154.3,156.72 v -45.7 h 63.09 v 1 H 154.8 l 0.5,-0.5 v 45.2 z m 62.09,-48.2 6,3 -6,3 z" /></g></g><path
       id="path3196"
       style="fill:#000000;fill-opacity:1;fill-rule:nonzero;stroke:none"
       d="m 492.96,110.64 h 68.08 v 52.12 h -1 v -51.62 l 0.5,0.5 h -67.58 z m 70.58,51.12 -3,6 -3,-6 z" /><path
       id="path3198"
       style="fill:#000000;fill-opacity:1;fill-rule:nonzero;stroke:none"
       d="m 560.9,220.56 v 25 h -1 v -25 z m 2.5,24 -3,6 -3,-6 z" /><path
       id="path3200"
       style="fill:#000000;fill-opacity:1;fill-rule:nonzero;stroke:none"
       d="m 560.9,303.59 v 25.25 h -1 v -25.25 z m 2.5,24.25 -3,6 -3,-6 z" /><path
       id="path3202"
       style="fill:#000000;fill-opacity:1;fill-rule:nonzero;stroke:none"
       d="m 290.16,111.86 h 28.8 v -1 h -28.8 z m 27.8,2.5 6,-3 -6,-3 z" /><path
       id="path3204"
       style="fill:#000000;fill-opacity:1;fill-rule:nonzero;stroke:none"
       d="m 391.45,111.86 28.79,-0.34 -0.01,-1 -28.8,0.34 z m 27.82,2.18 5.97,-3.07 -6.04,-2.93 z" /><path
       id="path3206"
       style="fill:#b4c7e7;fill-opacity:1;fill-rule:evenodd;stroke:none"
       d="m 130.56,54.48 h 16.08 v 16.08 h -16.08 z" /><path
       id="path3208"
       style="fill:none;stroke:#000000;stroke-width:0.95999998;stroke-linecap:butt;stroke-linejoin:miter;stroke-miterlimit:10;stroke-dasharray:none;stroke-opacity:1"
       d="m 130.56,54.48 h 16.08 v 16.08 h -16.08 z" /><g
       id="g3210"><g
         clip-path="url(#clipPath3216)"
         id="g3212"><text
           id="text3220"
           style="font-variant:normal;font-weight:normal;font-size:13.94400024px;font-family:Calibri;-inkscape-font-specification:Calibri;writing-mode:lr-tb;fill:#000000;fill-opacity:1;fill-rule:nonzero;stroke:none"
           transform="matrix(1,0,0,-1,153.77,57.72)"><tspan
             id="tspan3218"
             y="0"
             x="0 6.9859438 13.023696 19.967808 26.00556 32.949673 36.770329 42.752304 50.198399 57.184345 63.180264 70.626358 73.749817 80.972809 85.532494 88.655952 96.102051 103.32504 107.1457 114.08981 117.4782 125.16135 134.07156 137.2229 144.16702">3x3x3 convolution + BN + </tspan></text>
</g></g><g
       id="g3222"><g
         clip-path="url(#clipPath3228)"
         id="g3224"><text
           id="text3232"
           style="font-variant:normal;font-weight:normal;font-size:13.94400024px;font-family:Calibri;-inkscape-font-specification:Calibri;writing-mode:lr-tb;fill:#000000;fill-opacity:1;fill-rule:nonzero;stroke:none"
           transform="matrix(1,0,0,-1,300.94,57.72)"><tspan
             id="tspan3230"
             y="0"
             x="0 7.4600401 14.404152 19.981752">ReLU</tspan></text>
</g></g><path
       id="path3234"
       style="fill:#f4b183;fill-opacity:1;fill-rule:evenodd;stroke:none"
       d="m 350.88,54.48 h 16.08 v 16.08 h -16.08 z" /><path
       id="path3236"
       style="fill:none;stroke:#000000;stroke-width:0.95999998;stroke-linecap:butt;stroke-linejoin:miter;stroke-miterlimit:10;stroke-dasharray:none;stroke-opacity:1"
       d="m 350.88,54.48 h 16.08 v 16.08 h -16.08 z" /><g
       id="g3238"><g
         clip-path="url(#clipPath3244)"
         id="g3240"><text
           id="text3248"
           style="font-variant:normal;font-weight:normal;font-size:13.94400024px;font-family:Calibri;-inkscape-font-specification:Calibri;writing-mode:lr-tb;fill:#000000;fill-opacity:1;fill-rule:nonzero;stroke:none"
           transform="matrix(1,0,0,-1,374.38,57.72)"><tspan
             id="tspan3246"
             y="0"
             x="0 6.9859438 13.023696 19.967808 26.00556 32.949673">1x2x2 </tspan></text>
</g></g><g
       id="g3250"><g
         clip-path="url(#clipPath3256)"
         id="g3252"><text
           id="text3260"
           style="font-variant:normal;font-weight:normal;font-size:13.94400024px;font-family:Calibri;-inkscape-font-specification:Calibri;writing-mode:lr-tb;fill:#000000;fill-opacity:1;fill-rule:nonzero;stroke:none"
           transform="matrix(1,0,0,-1,411.12,57.72)"><tspan
             id="tspan3258"
             y="0"
             x="0 11.043648 17.527609 23.565359 27.107136 34.302238 41.73439 49.166546 52.290001 55.413456 62.608559">max pooling</tspan></text>
</g></g><path
       id="path3262"
       style="fill:#a9d18e;fill-opacity:1;fill-rule:evenodd;stroke:none"
       d="m 500.64,54.48 h 16.08 v 16.08 h -16.08 z" /><path
       id="path3264"
       style="fill:none;stroke:#000000;stroke-width:0.95999998;stroke-linecap:butt;stroke-linejoin:miter;stroke-miterlimit:10;stroke-dasharray:none;stroke-opacity:1"
       d="m 500.64,54.48 h 16.08 v 16.08 h -16.08 z" /><g
       id="g3266"><g
         clip-path="url(#clipPath3272)"
         id="g3268"><text
           id="text3276"
           style="font-variant:normal;font-weight:normal;font-size:13.94400024px;font-family:Calibri;-inkscape-font-specification:Calibri;writing-mode:lr-tb;fill:#000000;fill-opacity:1;fill-rule:nonzero;stroke:none"
           transform="matrix(1,0,0,-1,524.16,57.72)"><tspan
             id="tspan3274"
             y="0"
             x="0 6.9859438 13.971888 23.830296 27.413904 34.636894 39.196583 46.642681 53.865673 61.311768 68.53476">20% dropout</tspan></text>
</g></g><path
       id="path3278"
       style="fill:#ffe699;fill-opacity:1;fill-rule:evenodd;stroke:none"
       d="m 130.56,26.64 h 16.08 v 16.08 h -16.08 z" /><path
       id="path3280"
       style="fill:none;stroke:#000000;stroke-width:0.95999998;stroke-linecap:butt;stroke-linejoin:miter;stroke-miterlimit:10;stroke-dasharray:none;stroke-opacity:1"
       d="m 130.56,26.64 h 16.08 v 16.08 h -16.08 z" /><g
       id="g3282"><g
         clip-path="url(#clipPath3288)"
         id="g3284"><text
           id="text3292"
           style="font-variant:normal;font-weight:normal;font-size:13.92000008px;font-family:Calibri;-inkscape-font-specification:Calibri;writing-mode:lr-tb;fill:#000000;fill-opacity:1;fill-rule:nonzero;stroke:none"
           transform="matrix(1,0,0,-1,153.77,29.76)"><tspan
             id="tspan3290"
             y="0"
             x="0 6.9878402 13.0152 19.975201 26.00256 32.962559">1x2x2 </tspan></text>
</g></g><g
       id="g3294"><g
         clip-path="url(#clipPath3300)"
         id="g3296"><text
           id="text3304"
           style="font-variant:normal;font-weight:normal;font-size:13.92000008px;font-family:Calibri;-inkscape-font-specification:Calibri;writing-mode:lr-tb;fill:#000000;fill-opacity:1;fill-rule:nonzero;stroke:none"
           transform="matrix(1,0,0,-1,190.51,29.76)"><tspan
             id="tspan3302"
             y="0"
             x="0 4.5657601 9.1315203 15.84096 23.0376 28.549919 35.746559 43.16592 48.678242 55.610401 62.834881 66.66288 72.648483 80.067841 87.02784 93.027359 100.44672 103.5648 110.76144 115.3272 118.44528 125.86464">transposed convolution</tspan></text>
</g></g><path
       id="path3306"
       style="fill:#afabab;fill-opacity:1;fill-rule:evenodd;stroke:none"
       d="m 350.88,26.64 h 16.08 v 16.08 h -16.08 z" /><path
       id="path3308"
       style="fill:none;stroke:#000000;stroke-width:0.95999998;stroke-linecap:butt;stroke-linejoin:miter;stroke-miterlimit:10;stroke-dasharray:none;stroke-opacity:1"
       d="m 350.88,26.64 h 16.08 v 16.08 h -16.08 z" /><g
       id="g3310"><g
         clip-path="url(#clipPath3316)"
         id="g3312"><text
           id="text3320"
           style="font-variant:normal;font-weight:normal;font-size:13.92000008px;font-family:Calibri;-inkscape-font-specification:Calibri;writing-mode:lr-tb;fill:#000000;fill-opacity:1;fill-rule:nonzero;stroke:none"
           transform="matrix(1,0,0,-1,374.38,29.76)"><tspan
             id="tspan3318"
             y="0"
             x="0 6.9878402 13.0152 19.975201 26.00256 32.962559 36.790562 42.776161 50.223358 57.211201 63.21072 70.657921 73.776001 81.000481 85.566238 88.684319 96.131523 103.356 107.184 114.15792">1x1x1 convolution + </tspan></text>
</g></g><g
       id="g3322"><g
         clip-path="url(#clipPath3328)"
         id="g3324"><text
           id="text3332"
           style="font-variant:normal;font-weight:normal;font-size:13.92000008px;font-family:Calibri;-inkscape-font-specification:Calibri;writing-mode:lr-tb;fill:#000000;fill-opacity:1;fill-rule:nonzero;stroke:none"
           transform="matrix(1,0,0,-1,491.78,29.76)"><tspan
             id="tspan3330"
             y="0"
             x="0 5.51232 12.93168 17.23296 21.798719 32.83728 39.324001">softmax</tspan></text>
</g></g></g></svg>